<svg xmlns="http://www.w3.org/2000/svg" width="16" height="16"><style type="text/css">.icon-canvas-transparent{opacity:0;fill:#F6F6F6;} .icon-vs-action-green{fill:#388A34;} .icon-vs-out{fill:#F6F6F6;} .icon-vs-bg{fill:#424242;} .icon-vs-fg{fill:#F0EFF1;}</style><path class="icon-canvas-transparent" d="M16 16h-16v-16h16v16z" id="canvas"/><path class="icon-vs-out" d="M16 3.556v10.444c0 .97-.701 2-2 2h-11.098c-1.825 0-2.872-1.093-2.872-2.998 0-1.495.724-2.5 1.97-2.853v-4.149h-2v-4h2v-2h10.061l3.939 3.556z" id="outline"/><path class="icon-vs-bg" d="M3.03 14l.512 1h-.64c-1.125 0-1.872-.498-1.872-1.998 0-1.502.9-2.002 2.025-2.002h2.179s.089.281.531 1.012c.286.639-.175 1.114-.463.926-.415-.272-.834-.938-.834-.938h-1.662c-.776 0-.776.625-.776 1 0 1 .625 1 1 1zm.97-4v-2h-1v2.004l.055-.004h.945zm3.152 1h-.664l.536 1c.375 0 1 0 1 1 0 .375 0 1-.775 1h-1.662s-.419-.666-.834-.938c-.288-.189-.749.287-.463.926.442.731.531 1.012.531 1.012h2.179c1.125 0 2.024-.5 2.024-2.002 0-1.5-.747-1.998-1.872-1.998zm4.489-10h-5.641v1h5v3h3v9h-4.114c-.105.385-.273.72-.5 1h4.579c1 0 1.035-1 1.035-1v-10l-3.359-3zm-.641 11v-2h-2v.559c.441.337.745.823.898 1.441h1.102zm-2-3h2v-4h-2v4z" id="iconBg"/><path class="icon-vs-fg" d="M11 5v4h-2v-4h2v-3h-7v8h3.152c.761 0 1.377.2 1.848.559v-.559h2v2h-1.102c.076.305.126.631.126.998s-.055.695-.139 1.002h4.115v-9h-3z" id="iconFg"/><path class="icon-vs-action-green" d="M3.018 7v-2h-2.018v-1.982h2.018v-2.018h1.982v2.018h2v1.982h-2v2h-1.982z" id="action"/></svg>