<svg xmlns="http://www.w3.org/2000/svg" width="16" height="16"><style type="text/css">.icon-canvas-transparent{opacity:0;fill:#F6F6F6;} .icon-vs-out{fill:#F6F6F6;} .icon-vs-bg{fill:#424242;} .icon-vs-fg{fill:#F0EFF1;}</style><path class="icon-canvas-transparent" d="M16 16h-16v-16h16v16z" id="canvas"/><path class="icon-vs-out" d="M3.611 14l-2.611-2.393v-8.213l2.611-2.394h9.778l2.611 2.394v8.214l-2.611 2.392h-9.778z" id="outline"/><path class="icon-vs-fg" d="M5.823 7.986l-.041-.218.027-.232.098-.18c.048-.053.112-.098.195-.133.083-.033.19-.061.32-.078l.761-.109v.346c0 .131-.021.252-.059.365-.037.11-.092.21-.164.294-.072.084-.157.15-.256.199-.1.049-.213.073-.337.073l-.242-.041-.185-.114-.117-.172zm5.256-2.009c-.067-.104-.148-.184-.244-.238s-.205-.082-.327-.082c-.121 0-.231.027-.331.082-.101.054-.185.132-.257.232-.072.101-.128.22-.168.359-.04.139-.061.295-.061.465v.506c0 .137.019.264.057.381.037.117.088.221.154.307.067.088.146.158.237.207.092.051.193.076.301.076.13 0 .245-.031.35-.092.104-.059.191-.148.264-.266.073-.117.129-.266.168-.445.04-.18.06-.387.06-.621 0-.184-.018-.348-.052-.494-.035-.147-.084-.272-.151-.377zm1.507-2.977l1.414 1.213v6.574l-1.414 1.213h-8.172l-1.414-1.213v-6.574l1.414-1.213h8.172zm-7.586 4.857c0 .17.025.323.074.463.049.141.121.26.216.362.093.1.21.178.352.234.139.057.298.084.478.084.23 0 .431-.053.604-.16.173-.105.319-.26.44-.463h.014v.529h.785v-2.437c0-.238-.027-.451-.083-.637-.056-.184-.14-.342-.25-.471-.111-.129-.253-.226-.424-.295-.171-.068-.374-.101-.608-.101l-.368.033-.363.086-.31.109-.212.114v.768c.158-.132.34-.235.544-.313.204-.078.413-.117.627-.117.213 0 .377.063.494.186.116.125.174.324.174.6l-1.03.154c-.205.026-.38.077-.526.151-.146.074-.265.166-.357.28-.094.111-.162.238-.206.38-.044.143-.065.297-.065.461zm7 2.143h-7v1h7v-1zm0-3.139c0-.258-.025-.502-.074-.734-.05-.233-.125-.436-.228-.611-.103-.176-.235-.315-.394-.416-.16-.104-.352-.153-.573-.153-.123 0-.234.018-.336.052-.102.035-.194.084-.278.146-.084.063-.158.137-.226.223l-.181.288h-.013v-1.656h-.697v4.887h.697v-.485h.013l.151.229.191.186c.071.053.151.092.238.121.088.029.186.043.292.043.23 0 .434-.053.609-.16.176-.106.323-.254.443-.443.12-.188.211-.412.273-.672.062-.261.093-.54.093-.845z" id="iconFg"/><path class="icon-vs-bg" d="M5 10h7v1h-7v-1zm.074-1.68c-.049-.14-.074-.293-.074-.463 0-.164.021-.318.065-.461.044-.143.111-.269.205-.381.093-.113.212-.205.358-.279.147-.074.321-.125.525-.152l1.03-.154c0-.275-.058-.475-.174-.6-.116-.123-.28-.186-.493-.186-.214 0-.423.039-.627.117-.204.079-.386.182-.544.313v-.767l.213-.113.31-.109.362-.086.368-.033c.234 0 .438.033.608.102.171.067.313.164.424.293.11.129.194.287.249.471.056.186.083.398.083.637v2.438h-.785v-.53h-.014c-.12.203-.267.357-.439.463-.173.107-.374.16-.604.16-.18 0-.339-.027-.478-.084-.142-.057-.259-.135-.352-.234-.095-.102-.167-.221-.216-.362zm.708-.552l.041.219.117.171.185.113.242.041c.124 0 .236-.023.337-.072.099-.049.184-.115.256-.199.072-.084.127-.184.165-.295.038-.113.059-.234.059-.365v-.346l-.761.109c-.131.018-.238.046-.321.079-.083.035-.147.08-.195.133l-.097.179-.028.233zm6.144-1.641c.049.232.074.476.074.734 0 .305-.031.584-.092.844-.062.26-.152.484-.273.672-.12.189-.267.338-.443.443-.176.107-.379.16-.609.16-.106 0-.204-.014-.292-.043-.087-.029-.167-.068-.238-.121l-.192-.185-.151-.229h-.013v.484h-.697v-4.886h.697v1.656h.013l.181-.289c.067-.086.142-.16.226-.223.084-.063.176-.111.278-.146.102-.034.213-.052.336-.052.222 0 .413.05.573.153.159.102.291.24.394.416.103.176.178.379.228.612zm-.645.721c0-.184-.018-.348-.052-.494-.034-.146-.084-.271-.15-.377-.067-.104-.148-.184-.244-.238s-.205-.082-.327-.082c-.121 0-.231.027-.331.082-.101.054-.185.132-.257.232-.072.101-.128.22-.168.359-.04.139-.061.295-.061.465v.506c0 .137.019.264.057.381.037.117.088.221.154.307.067.088.146.158.237.207.092.051.193.076.301.076.13 0 .245-.031.35-.092.104-.059.191-.148.264-.266.073-.117.129-.266.168-.445.04-.18.059-.387.059-.621zm3.719-3.015v7.333l-2 1.834h-9l-2-1.833v-7.334l2-1.833h9l2 1.833zm-1 .38l-1.414-1.213h-8.172l-1.414 1.213v6.574l1.414 1.213h8.172l1.414-1.213v-6.574z" id="iconBg"/></svg>