<svg xmlns="http://www.w3.org/2000/svg" width="32" height="32"><style type="text/css">.icon-canvas-transparent{opacity:0;fill:#F6F6F6;} .icon-vs-out{fill:#F6F6F6;} .icon-vs-bg{fill:#424242;} .icon-vs-fg{fill:#F0EFF1;} .icon-office15{fill:#DC3C00;}</style><path class="icon-canvas-transparent" d="M32 32h-32v-32h32v32z" id="canvas"/><path class="icon-vs-out" d="M32 28h-13v.891l-7.391 2.109-.892-.356-1.621.356-6.84-2.683-.693-.317-1.563-.715v-26.285h32v27z" id="outline"/><path class="icon-vs-bg" d="M30 3v23h-11v-2h9v-15h-15.203l-1.18-.347-.89.347h-6.727v2.619l-2 .779v-9.398h28zm-10 7h-1v1h1v-1zm0 2h-1v1h1v-1zm0 2h-1v1h1v-1zm0 2h-1v1h1v-1zm0 2h-1v1h1v-1zm0 2h-1v1h1v-1zm0 2h-1v1h1v-1zm6-10h-1v1h1v-1zm0 2h-1v1h1v-1zm0 2h-1v1h1v-1zm0 2h-1v1h1v-1zm0 2h-1v1h1v-1zm0 2h-1v1h1v-1zm-4-12h-1v1h1v-1zm2 0h-1v1h1v-1zm-2 12h-1v1h1v-1zm2 0h-1v1h1v-1zm2-12h-1v1h1v-1z" id="iconBg"/><path class="icon-vs-fg" d="M4 11.619v-2.619h6.727l-6.727 2.619zm24-2.619v15h-9v-1h1v-1h-1v-1h1v-1h-1v-1h1v-1h-1v-1h1v-1h-1v-1h1v-1h-1v-1h1v-1h-1v-1h1v-1h-1v.822l-6.203-1.822h15.203zm-6 13h-1v1h1v-1zm0-12h-1v1h1v-1zm2 12h-1v1h1v-1zm0-12h-1v1h1v-1zm2 12h-1v1h1v-1zm0-2h-1v1h1v-1zm0-2h-1v1h1v-1zm0-2h-1v1h1v-1zm0-2h-1v1h1v-1zm0-2h-1v1h1v-1zm0-2h-1v1h1v-1z" id="iconFg"/><path class="icon-office15" d="M17 27.381l-5.292 1.512-9.708-3.78 10 1.514v-12.839l-7.175 1.509v8.709l-2.825 1.107v-10.57l9.708-3.779 5.292 1.555v15.062z" id="colorImportance"/></svg>