<svg xmlns="http://www.w3.org/2000/svg" width="16" height="16"><style type="text/css">.icon-canvas-transparent{opacity:0;fill:#F6F6F6;} .icon-vs-out{fill:#F6F6F6;} .icon-vs-bg{fill:#424242;}</style><path class="icon-canvas-transparent" d="M16 16h-16v-16h16v16z" id="canvas"/><path class="icon-vs-out" d="M12 6v4h2v4.987l-.398.3c-.617.467-1.344.713-2.102.713-1.93 0-3.5-1.57-3.5-3.5v-3.086l-2.586 2.586h-3.414v-1.414l.586-.586h-1.586v-4h1.586l-.586-.586v-1.414h3.414l2.586 2.586v-3.086c0-1.93 1.57-3.5 3.5-3.5.758 0 1.485.246 2.102.713l.398.3v4.987h-2z" id="outline"/><path class="icon-vs-bg" d="M11.5 1c.565 0 1.081.194 1.5.511v3.489h-2v6h2v3.489c-.419.317-.935.511-1.5.511-1.381 0-2.5-1.119-2.5-2.5v-9c0-1.381 1.119-2.5 2.5-2.5zm-6.5 4h-2l2 2h-3v2h3l-2 2h2l3-3-3-3z" id="iconBg"/></svg>