<?xml version="1.0" encoding="utf-8"?>
<!-- Generator: Adobe Illustrator 18.1.1, SVG Export Plug-In . SVG Version: 6.00 Build 0)  -->
<!DOCTYPE svg PUBLIC "-//W3C//DTD SVG 1.1//EN" "http://www.w3.org/Graphics/SVG/1.1/DTD/svg11.dtd">
<svg version="1.1" xmlns="http://www.w3.org/2000/svg" xmlns:xlink="http://www.w3.org/1999/xlink" x="0px" y="0px" width="16px"
	 height="16px" viewBox="0 0 16 16" style="enable-background:new 0 0 16 16;" xml:space="preserve">
<style type="text/css">
	.icon-canvas-transparent{opacity:0;fill:#F6F6F6;}
	.icon-vs-out{fill:#F6F6F6;}
	.icon-vs-bg{fill:#424242;}
	.icon-vs-fg{fill:#F0EFF1;}
</style>
<g id="canvas">
	<path class="icon-canvas-transparent" d="M16,16H0V0h16V16z"/>
</g>
<g id="outline">
	<path class="icon-vs-out" d="M16,4v8c0,2.28-3.01,4-7,4c-0.188,0-0.372-0.008-0.555-0.015L8.43,16H7.6l-0.083-0.084
		c-0.901-0.102-1.728-0.298-2.453-0.569L4.41,16H3.59L0,12.41v-0.828l2-2V4c0-2.28,3.01-4,7-4C12.99,0,16,1.72,16,4z"/>
</g>
<g id="iconBg">
	<path class="icon-vs-bg" d="M3,11.996l2,2l-1,1l-3-3l3-3l1,1L3,11.996z M8.015,9l-1,1l2,1.996l-2,2.004l1,1l3-3.004
		L8.015,9z M15,4v8c0,1.583-2.453,2.876-5.561,2.989l2.989-2.994L8.014,7.586L6.009,9.591L4,7.583l-1,1V4c0-1.657,2.687-3,6-3
		C12.314,1,15,2.343,15,4z M13.872,4c0-0.746-1.944-1.875-4.875-1.875C6.066,2.125,4.122,3.254,4.122,4s1.944,1.875,4.875,1.875
		C11.928,5.875,13.872,4.746,13.872,4z"/>
</g>
<g id="iconFg">
	<path class="icon-vs-fg" d="M13.872,4c0,0.746-1.944,1.875-4.875,1.875C6.066,5.875,4.122,4.746,4.122,4
		s1.944-1.875,4.875-1.875C11.928,2.125,13.872,3.254,13.872,4z"/>
</g>
</svg>
