<svg xmlns="http://www.w3.org/2000/svg" width="24" height="24"><style type="text/css">.icon-canvas-transparent{opacity:0;fill:#F6F6F6;} .icon-white{fill:#FFFFFF;} .icon-vso-bg{fill:#656565;}</style><path class="icon-canvas-transparent" d="M24 24h-24v-24h24v24z" id="canvas"/><path class="icon-white" d="M7.586 17l3-3h-5.586v-4h5.586l-3-3h5.828l5 5-5 5h-5.828zm4.414 6.938c6.582 0 11.938-5.355 11.938-11.938s-5.355-11.938-11.938-11.938c-6.582.001-11.937 5.355-11.937 11.938 0 6.582 5.355 11.938 11.937 11.938zm0-20.375c4.652 0 8.438 3.785 8.438 8.438s-3.786 8.437-8.438 8.437-8.437-3.786-8.437-8.438 3.785-8.437 8.437-8.437z" id="outline"/><path class="icon-vso-bg" d="M1.063 12c0 6.04 4.897 10.938 10.938 10.938 6.04 0 10.938-4.897 10.938-10.938-.001-6.04-4.899-10.937-10.939-10.937s-10.937 4.897-10.937 10.937zm1.5 0c0-5.204 4.233-9.438 9.438-9.438s9.437 4.234 9.437 9.438-4.234 9.438-9.438 9.438-9.437-4.234-9.437-9.438zm10.437 4h-3l3-3h-7v-2h7l-3-3h3l4 4-4 4z" id="iconBg"/></svg>