<svg xmlns="http://www.w3.org/2000/svg" width="32" height="96"><style type="text/css">.icon-canvas-transparent{opacity:0;fill:#F6F6F6;} .icon-f12-grey-primary{fill:#555555;} .icon-f12-blue-hover{fill:#2279BF;} .icon-f12-ltgrey-disabled{fill:#ABABAC;}</style><path class="icon-canvas-transparent" d="M32 96h-32v-96h32v96z" id="canvas"/><g id="iconBg"><path class="icon-f12-grey-primary" d="M14 21h14v-10h-14v-2h-2v6h-8v2h8v6h2v-2zm2-4v-4h10v4h-10z"/><path class="icon-f12-blue-hover" d="M14 53h14v-10h-14v-2h-2v6h-8v2h8v6h2v-2zm2-4v-4h10v4h-10z"/><path class="icon-f12-ltgrey-disabled" d="M14 85h14v-10h-14v-2h-2v6h-8v2h8v6h2v-2zm2-4v-4h10v4h-10z"/></g></svg>