<svg xmlns="http://www.w3.org/2000/svg" width="32" height="32"><style type="text/css">.icon-canvas-transparent{opacity:0;fill:#F6F6F6;} .icon-white{fill:#FFFFFF;}</style><path class="icon-canvas-transparent" d="M32 32h-32v-32h32v32z" id="canvas"/><path class="icon-white" d="M30 2v24h-12v-2h10v-16h-10v-4.199l-16 1.805v-3.606h28zm-14 27.788l-14-1.547v-20.621l14-1.546v23.714zm-3.383-7.955c.039-.266.061-.545.061-.844 0-.254-.017-.496-.053-.733-.033-.23-.084-.457-.154-.672-.066-.215-.152-.42-.252-.615-.102-.195-.219-.381-.352-.557-.113-.144-.242-.289-.387-.436-.15-.146-.316-.291-.497-.438-.18-.145-.379-.291-.599-.438-.216-.146-.448-.295-.697-.439l-.46-.281-.377-.254-.294-.236-.213-.213-.161-.232-.115-.26-.068-.285-.022-.318.026-.297.078-.267.132-.242.178-.215.229-.176.264-.133.301-.086.341-.037c.239-.01.476.002.704.033.233.031.456.082.676.156.224.072.354.168.563.281.209.119.531.255.531.416v-2.971c0-.08-.311-.148-.52-.201-.213-.057-.392-.1-.625-.129-.232-.031-.453-.051-.707-.055-.252-.008-.503-.002-.776.016-.307.019-.592.063-.865.125-.273.063-.527.148-.767.258-.24.105-.46.234-.67.386-.205.149-.397.32-.573.516-.175.191-.327.396-.459.617-.131.219-.239.449-.323.695-.088.246-.152.504-.196.777-.044.273-.063.559-.063.861 0 .412.05.803.147 1.174.102.367.25.719.449 1.045.202.33.452.637.756.924.308.289.664.559 1.08.809l.502.313.426.285.338.262.253.23.233.289c.066.098.121.199.165.303.047.102.077.211.101.315.024.107.034.219.034.33l-.023.277-.068.25-.111.223-.158.201c-.071.072-.152.137-.239.189-.088.055-.186.1-.29.133-.105.033-.22.057-.341.07-.121.014-.25.018-.389.01-.263-.01-.52-.051-.772-.117-.246-.068-.489-.166-.726-.287-.233-.125-.713-.278-.932-.455-.219-.18.109-.391-.891-.621v2.996c1 .135.621.252.824.361.206.103.546.199.776.273.229.076.534.141.788.189.256.047.558.08.841.098.378.023.747.02 1.082-.014.334-.037.655-.102.945-.197.291-.094.56-.219.805-.375.242-.158.463-.344.656-.561.16-.178.298-.371.419-.576.117-.205.219-.428.299-.666.08-.237.141-.491.182-.757z" id="iconBg"/></svg>