<svg xmlns="http://www.w3.org/2000/svg" width="16" height="16"><style type="text/css">.icon-canvas-transparent{opacity:0;fill:#F6F6F6;} .icon-vs-out{fill:#F6F6F6;} .icon-vs-bg{fill:#424242;}</style><path class="icon-canvas-transparent" d="M16 16h-16v-16h16v16z" id="canvas"/><path class="icon-vs-out" d="M8.5 2c-2.481 0-4.5 2.019-4.5 4.5v7.5h9v-7.5c0-2.481-2.019-4.5-4.5-4.5z" id="outline"/><path class="icon-vs-bg" d="M5 13h7v-5h-7v5zm3-4h1v3h-1v-3zm4-2.5v.5h-2v-.5c0-1.104-.396-1.5-1.5-1.5s-1.5.396-1.5 1.5v.5h-2v-.5c0-1.933 1.567-3.5 3.5-3.5s3.5 1.567 3.5 3.5z" id="iconBg"/></svg>