<svg xmlns="http://www.w3.org/2000/svg" width="16" height="16"><style type="text/css">.icon-canvas-transparent{opacity:0;fill:#F6F6F6;} .icon-vs-out{fill:#F6F6F6;} .icon-vs-bg{fill:#424242;} .icon-vs-fg{fill:#F0EFF1;}</style><path class="icon-canvas-transparent" d="M16 16h-16v-16h16v16z" id="canvas"/><path class="icon-vs-out" d="M16 3v6c0 1.279-1.203 2.321-3 2.767v2.648l-1.586 1.585h-9.829l-1.585-1.586v-5.828l1.585-1.586h2l1-1h1.415v-3c0-1.71 2.149-3 5-3 2.85 0 5 1.29 5 3z" id="outline"/><path class="icon-vs-bg" d="M8 11.5c0 .828-.672 1.5-1.5 1.5-.829 0-1.5-.672-1.5-1.5s.671-1.5 1.5-1.5c.828 0 1.5.672 1.5 1.5zm3-3.5l1 1v5l-1 1h-9l-1-1v-5l1-1h2l1-1h3l1 1h2zm-2 3.5c0-1.381-1.12-2.5-2.5-2.5s-2.5 1.119-2.5 2.5 1.119 2.5 2.5 2.5 2.5-1.119 2.5-2.5zm2-2.5h-1v1h1v-1zm4-6v6c0 .738-.811 1.376-2 1.723v-2.137l-1.586-1.586h-2l-1-1h-1.414v-3c0-1.104 1.791-2 4-2s4 .896 4 2zm-.676 0c0-.527-1.326-1.325-3.324-1.325-2 0-3.326.798-3.326 1.325s1.326 1.325 3.326 1.325c1.998 0 3.324-.798 3.324-1.325z" id="iconBg"/><path class="icon-vs-fg" d="M10 9h1v1h-1v-1zm-1 2.5c0 1.381-1.12 2.5-2.5 2.5s-2.5-1.119-2.5-2.5 1.119-2.5 2.5-2.5 2.5 1.119 2.5 2.5zm-1 0c0-.828-.672-1.5-1.5-1.5-.829 0-1.5.672-1.5 1.5s.671 1.5 1.5 1.5c.828 0 1.5-.672 1.5-1.5zm3-9.825c-2 0-3.326.798-3.326 1.325s1.326 1.325 3.326 1.325c1.998 0 3.324-.798 3.324-1.325s-1.326-1.325-3.324-1.325z" id="iconFg"/></svg>