<svg xmlns="http://www.w3.org/2000/svg" width="16" height="16"><style type="text/css">.icon-canvas-transparent{opacity:0;fill:#F6F6F6;} .icon-vs-out{fill:#F6F6F6;} .icon-vs-bg{fill:#424242;} .icon-vs-fg{fill:#F0EFF1;} .icon-vs-action-green{fill:#388A34;}</style><path class="icon-canvas-transparent" d="M16 16h-16v-16h16v16z" id="canvas"/><path class="icon-vs-out" d="M14.535 12h-1.669l.309.54-1.64 2.46h-6.07l-1.64-2.46 2.175-3.806v-.734h-4v-2h-2v-4h2v-2h4v2h9v3h-1v.734l2 3.5v.568l-1.465 2.198z" id="outline"/><path class="icon-vs-bg" d="M15 9.5l-1 1.5h-1.705l-1.295-2.266v-.734h1.968l-.8-1.445-.168-.252v-2.303h-1v1h-1v-1h-1v-1h5v1h-1v2l2 3.5zm-3 3l-1 1.5h-5l-1-1.5 2-3.5v-2h-1v-1h5v1h-1v2l2 3.5zm-2.032-1.5l-.968-1.697v-2.303h-1v2.303l-.968 1.697h2.936z" id="iconBg"/><path class="icon-vs-fg" d="M7.032 11l.968-1.697v-2.303h1v2.303l.968 1.697h-2.936zm4.968-3h.968l-.968-1.697v1.697zm0-3v-1h-1v1h1z" id="iconFg"/><path class="icon-vs-action-green" d="M3 5h-2v-2h2v-2h2v2h2v2h-2v2h-2v-2z" id="colorAction"/></svg>