<svg xmlns="http://www.w3.org/2000/svg" width="32" height="96"><style type="text/css">.icon-canvas-transparent{opacity:0;fill:#F6F6F6;} .icon-f12-blue-hover{fill:#2279BF;} .icon-f12-ltgrey-disabled{fill:#ABABAC;} .icon-f12-error-negative{fill:#ED1123;}</style><path class="icon-canvas-transparent" d="M32 96h-32v-96h32v96z" id="canvas"/><g id="iconBg"><path class="icon-f12-error-negative" d="M15.999 2c-7.73 0-13.999 6.269-13.999 13.998 0 7.73 6.269 14.002 13.999 14.002 7.733 0 14.001-6.272 14.001-14.002 0-7.729-6.268-13.998-14.001-13.998zm-9.985 13.998c0-2.123.679-4.089 1.815-5.708l13.529 14.105c-1.552.994-3.384 1.589-5.359 1.589-5.503 0-9.985-4.484-9.985-9.986zm18.238 5.608l-13.498-14.067c1.529-.948 3.318-1.525 5.245-1.525 5.504 0 9.985 4.482 9.985 9.984 0 2.076-.645 4.011-1.732 5.608z"/><path class="icon-f12-blue-hover" d="M15.999 34c-7.73 0-13.999 6.269-13.999 13.998 0 7.73 6.269 14.002 13.999 14.002 7.733 0 14.001-6.272 14.001-14.002 0-7.729-6.268-13.998-14.001-13.998zm-9.985 13.998c0-2.124.679-4.089 1.815-5.708l13.529 14.105c-1.552.994-3.384 1.589-5.359 1.589-5.503 0-9.985-4.484-9.985-9.986zm18.238 5.608l-13.498-14.067c1.529-.948 3.318-1.525 5.245-1.525 5.504 0 9.985 4.482 9.985 9.984 0 2.077-.645 4.011-1.732 5.608z"/><path class="icon-f12-ltgrey-disabled" d="M15.999 66c-7.73 0-13.999 6.269-13.999 13.998 0 7.73 6.269 14.002 13.999 14.002 7.733 0 14.001-6.272 14.001-14.002 0-7.729-6.268-13.998-14.001-13.998zm-9.985 13.998c0-2.124.679-4.089 1.815-5.708l13.529 14.105c-1.552.994-3.384 1.589-5.359 1.589-5.503 0-9.985-4.484-9.985-9.986zm18.238 5.608l-13.498-14.067c1.529-.948 3.318-1.525 5.245-1.525 5.504 0 9.985 4.482 9.985 9.984 0 2.077-.645 4.011-1.732 5.608z"/></g></svg>