<svg xmlns="http://www.w3.org/2000/svg" width="16" height="16"><style type="text/css">.icon-canvas-transparent{opacity:0;fill:#F6F6F6;} .icon-white{fill:#FFFFFF;} .icon-vso-bg{fill:#656565;}</style><path class="icon-canvas-transparent" d="M16 16h-16v-16h16v16z" id="canvas"/><path class="icon-white" d="M8.042 15.896c-4.37 0-7.925-3.565-7.925-7.948 0-4.383 3.555-7.948 7.925-7.948s7.925 3.565 7.925 7.948c0 4.383-3.555 7.948-7.925 7.948z" id="outline"/><path class="icon-vso-bg" d="M8.051.971c-3.848 0-6.968 3.121-6.968 6.968 0 3.848 3.121 6.97 6.968 6.97 3.849 0 6.969-3.122 6.969-6.97.001-3.848-3.12-6.968-6.969-6.968zm-4.97 6.968c0-1.057.338-2.036.903-2.841l6.734 7.021c-.773.495-1.685.791-2.668.791-2.738 0-4.969-2.232-4.969-4.971zm9.078 2.792l-6.719-7.003c.761-.472 1.651-.759 2.611-.759 2.74 0 4.97 2.231 4.97 4.97 0 1.034-.321 1.997-.862 2.792z" id="iconBg"/></svg>