<?xml version="1.0" encoding="utf-8"?>
<!-- Generator: Adobe Illustrator 18.1.1, SVG Export Plug-In . SVG Version: 6.00 Build 0)  -->
<!DOCTYPE svg PUBLIC "-//W3C//DTD SVG 1.1//EN" "http://www.w3.org/Graphics/SVG/1.1/DTD/svg11.dtd">
<svg version="1.1" xmlns="http://www.w3.org/2000/svg" xmlns:xlink="http://www.w3.org/1999/xlink" x="0px" y="0px" width="16px"
	 height="16px" viewBox="0 0 16 16" style="enable-background:new 0 0 16 16;" xml:space="preserve">
<style type="text/css">
	.icon-canvas-transparent{opacity:0;fill:#F6F6F6;}
	.icon-vs-out{fill:#F6F6F6;}
	.icon-vs-bg{fill:#424242;}
	.icon-vs-fg{fill:#F0EFF1;}
	.icon-git-orange{fill:#F05133;}
</style>
<g id="canvas">
	<path class="icon-canvas-transparent" d="M16,16H0V0h16V16z"/>
</g>
<g id="outline">
	<path class="icon-vs-out" d="M5.495,0h0.01C7.3,0.003,8.76,1.361,8.959,3.103C9.597,2.427,10.495,2,11.499,2
		C13.433,2,15,3.566,15,5.5c0,0.98-0.35,1.864-1,2.5h2v7H7.697l-0.519,0.519C6.869,15.828,6.46,15.997,6.025,16H6.005
		c-0.435-0.003-0.844-0.172-1.152-0.479L2.333,13H1v-1.333l-0.519-0.519c-0.64-0.642-0.641-1.685-0.002-2.326L1,8.303V6h1.999
		c-0.65-0.635-1-1.52-1-2.5C1.999,1.568,3.563,0.003,5.495,0z"/>
</g>
<g id="iconBg">
	<path class="icon-vs-bg" d="M3,3.5C3,2.12,4.119,1,5.5,1C6.879,1,8,2.12,8,3.5C8,4.015,7.844,4.492,7.577,4.89
		L7.16,4.473C6.849,4.161,6.436,3.989,5.996,3.989c-0.439,0-0.853,0.171-1.164,0.482L3.898,5.405C3.354,4.946,3,4.268,3,3.5z M13,9
		l-1.039,1.386c-0.068,0.286-0.209,0.56-0.432,0.782L8.697,14H15V9H13z M11.5,3C10.119,3,9,4.12,9,5.5
		c0,0.377,0.09,0.731,0.239,1.051l1.209,1.209C10.769,7.911,11.123,8,11.5,8C12.879,8,14,6.881,14,5.5S12.879,3,11.5,3z"/>
</g>
<g id="notificationBg">
	<path class="icon-git-orange" d="M10.822,10.461l-4.351,4.351c-0.252,0.251-0.66,0.251-0.911,0l-4.372-4.37
		c-0.251-0.252-0.251-0.661,0-0.913l2.997-2.997l1.136,1.135C5.205,7.946,5.259,8.279,5.486,8.506
		c0.074,0.074,0.052,0.04,0.145,0.078v2.771c-0.083,0.033-0.127,0.09-0.188,0.154c-0.166,0.147-0.271,0.357-0.271,0.596
		c0,0.442,0.358,0.801,0.801,0.801c0.057,0,0.112-0.007,0.166-0.018c0.158-0.023,0.311-0.093,0.432-0.214
		c0.268-0.267,0.294-0.682,0.085-0.98c-0.069-0.116-0.169-0.213-0.287-0.28V8.721l1.035,1.034c-0.115,0.278-0.06,0.609,0.166,0.835
		c0.3,0.3,0.785,0.3,1.086,0c0.3-0.3,0.3-0.785,0-1.085C8.44,9.29,8.131,9.23,7.862,9.323l-1.11-1.11
		C6.846,7.945,6.785,7.635,6.57,7.42c-0.213-0.213-0.52-0.273-0.787-0.183L4.632,6.086l0.907-0.908c0.252-0.252,0.661-0.252,0.912,0
		l4.371,4.371C11.074,9.801,11.074,10.209,10.822,10.461z"/>
</g>
<g id="notificationFg">
	<path class="icon-vs-fg" d="M8.655,10.59c-0.301,0.3-0.786,0.3-1.086,0c-0.226-0.226-0.281-0.558-0.166-0.834
		L6.368,8.722v2.691c0.118,0.067,0.218,0.164,0.287,0.28c0.209,0.299,0.183,0.714-0.085,0.98c-0.121,0.121-0.273,0.19-0.432,0.215
		c-0.054,0.011-0.109,0.017-0.166,0.017c-0.442,0-0.801-0.358-0.801-0.801c0-0.238,0.104-0.449,0.271-0.595
		c0.062-0.064,0.105-0.122,0.188-0.155V8.584C5.538,8.547,5.561,8.58,5.486,8.506c-0.228-0.227-0.281-0.56-0.165-0.838l-1.12-1.12
		l0.445-0.446l1.137,1.136c0.268-0.091,0.574-0.03,0.787,0.184c0.215,0.214,0.275,0.524,0.182,0.791l1.11,1.11
		C8.131,9.231,8.44,9.29,8.655,9.505C8.955,9.805,8.955,10.29,8.655,10.59z"/>
</g>
</svg>
