<svg xmlns="http://www.w3.org/2000/svg" width="16" height="16"><path d="M8.999 0c-1.422 0-2.801.507-3.878 1.425l-.129.109v-1.534h-1.415l-2.583 2.586v5.414h5.41l3.677-3.68c.551.356.915.977.915 1.68 0 .584-.26 1.142-.724 1.542l-6.344 5.625 2.508 2.833h.324l6.139-5.443c1.331-1.141 2.095-2.803 2.095-4.557 0-3.309-2.689-6-5.995-6z" fill="#262626"/><path d="M8.999 1c-1.185 0-2.333.422-3.231 1.188l-1.776 1.504v-2.692l-1.998 2v4h3.996l1.998-2h-2.448l1.521-1.287c.539-.46 1.228-.713 1.938-.713 1.652 0 2.997 1.346 2.997 3 0 .877-.383 1.708-1.061 2.29l-5.595 4.962 1.324 1.496 5.584-4.951c1.11-.951 1.746-2.335 1.746-3.797 0-2.757-2.241-5-4.995-5z" fill="#C5C5C5"/></svg>