<svg xmlns="http://www.w3.org/2000/svg" width="16" height="16"><path fill="#F6F6F6" d="M8.701 14.018c-3.335 0-6.701-1.704-6.701-5.51 0-4.174 4.968-6.482 8.402-6.482 1.07 0 1.867.244 2.369.725.658.631.791 1.298.786 1.746-.013 1.174-.905 2.146-1.823 3.008 1.408.194 2.089 1.142 2.254 2.036.297 1.604-.805 3.371-2.507 4.022-.762.293-1.751.455-2.78.455z"/><path fill="#424242" d="M10.647 8.508s-1.911.458-.478-.916c1.217-1.167 3.344-2.747 1.91-4.12-1.433-1.375-9.079.456-9.079 5.036 0 4.581 5.735 5.038 8.124 4.122 2.39-.915 2.867-4.578-.477-4.122zm-5.271 1.902c-.574 0-1.041-.467-1.041-1.041 0-.575.467-1.042 1.041-1.042s1.041.466 1.041 1.042c0 .574-.467 1.041-1.041 1.041zm1.041-3c-.574 0-1.041-.466-1.041-1.041s.467-1.041 1.041-1.041 1.041.466 1.041 1.041-.467 1.041-1.041 1.041zm1.945-2.25c0-.575.467-1.041 1.041-1.041s1.041.466 1.041 1.041-.466 1.041-1.041 1.041-1.041-.466-1.041-1.041z"/><g fill="#F0EFF1"><circle cx="9.402" cy="5.16" r="1.041"/><circle cx="6.417" cy="6.369" r="1.041"/><circle cx="5.375" cy="9.369" r="1.041"/></g></svg>