<svg xmlns="http://www.w3.org/2000/svg" width="16" height="16"><path d="M16 3.586l-3.586-3.586h-6.414v4.762l-.293.238h-5.707v11h10v-3.276l.236-.073 3.35 3.35h.828l1.586-1.587v-.828l-2.586-2.586h2.586v-7.414z" fill="#262626"/><path d="M15 4v6h-2.276c.113-.318.187-.653.226-1h1.05v-5h-2v-2h-4v2.051c-.347.038-.681.112-1 .225v-3.276h5l3 3zm-7 8.949v1.051h-6v-7h2.276c.126-.354.28-.693.485-1h-3.761v9h8v-2.051c-.166.02-.329.051-.5.051l-.5-.051z" fill="#C5C5C5"/><path d="M12 8.5c0-1.933-1.567-3.5-3.5-3.5s-3.5 1.567-3.5 3.5 1.567 3.5 3.5 3.5c.711 0 1.369-.215 1.922-.578l3.578 3.578 1-1-3.578-3.578c.363-.553.578-1.211.578-1.922zm-3.5 2.5c-1.381 0-2.5-1.119-2.5-2.5s1.119-2.5 2.5-2.5 2.5 1.119 2.5 2.5-1.119 2.5-2.5 2.5z" fill="#75BEFF"/><path d="M14 4v5h-1.051c.02-.166.051-.329.051-.5 0-2.481-2.019-4.5-4.5-4.5-.171 0-.333.032-.5.051v-2.051h4v2h2zm-5.5 2c-1.381 0-2.5 1.119-2.5 2.5s1.119 2.5 2.5 2.5 2.5-1.119 2.5-2.5-1.119-2.5-2.5-2.5zm-4.5 2.5c0-.528.108-1.028.276-1.5h-2.276v7h6v-1.051c-2.244-.252-4-2.138-4-4.449z" fill="#2B282E"/></svg>