<svg xmlns="http://www.w3.org/2000/svg" width="16" height="16"><polygon points="10.061,1 6.414,1 5.414,0 0.586,0 2,1.414 2,2 0,2 0,6 2,6 2,6.586 0.586,8 2,8 2,15 14,15 14,4.556" fill="#F6F6F6"/><polygon points="10,2 7.414,2 8.414,3 9,3 9,3.586 9,4 9,4.414 9,6 12,6 12,13 4,13 4,8 3,8 3,14 13,14 13,5" fill="#424242"/><polygon points="5,1 3,1 5,3 1,3 1,5 5,5 3,7 5,7 8,4" fill="#00539C"/><g fill="#F0EFF1"><polygon points="9,3.586 9,3 8.414,3"/><polygon points="9,6 9,4.414 5.414,8 4,8 4,13 12,13 12,6"/></g></svg>