<svg xmlns="http://www.w3.org/2000/svg" width="16" height="16"><path d="M13.998 8c0-.896-.597-1.647-1.411-1.9.396-.754.287-1.708-.346-2.341-.377-.377-.879-.585-1.412-.585-.331 0-.646.088-.93.238-.253-.813-1.003-1.41-1.899-1.41s-1.647.597-1.899 1.41c-.284-.15-.598-.238-.929-.238-.534 0-1.036.208-1.413.585s-.585.879-.585 1.413c0 .331.088.645.238.929-.813.252-1.41 1.003-1.41 1.899s.597 1.646 1.41 1.899c-.15.284-.238.598-.238.928 0 .534.207 1.036.585 1.415.377.377.879.584 1.413.584.331 0 .645-.088.929-.238.252.813 1.004 1.41 1.899 1.41s1.646-.597 1.899-1.41c.284.15.599.238.93.238.533 0 1.035-.208 1.412-.585s.585-.879.585-1.412c0-.331-.088-.646-.238-.93.813-.253 1.41-1.003 1.41-1.899zm-6.926 2.241c-.093-.302-.249-.587-.487-.825-.234-.234-.519-.394-.826-.488.147-.28.239-.592.239-.928s-.092-.649-.239-.928c.307-.095.592-.254.826-.488.238-.238.394-.524.486-.826.279.148.592.24.929.24.336 0 .649-.092.928-.239.095.307.254.592.487.825.234.234.519.394.826.489-.147.278-.239.591-.239.927 0 .337.092.649.239.928-.307.094-.592.254-.824.487-.234.233-.395.519-.489.826-.279-.147-.591-.239-.928-.239s-.649.092-.928.239z" fill="#F6F6F6"/><g fill="#424242"><circle cx="8" cy="4" r=".998"/><circle cx="8" cy="12" r=".998"/><circle cx="12" cy="8" r=".998"/><circle cx="4" cy="8" r=".998"/><circle cx="10.829" cy="5.172" r=".998"/><circle cx="5.172" cy="10.829" r=".998"/><circle cx="10.829" cy="10.829" r=".998"/><circle cx="5.172" cy="5.172" r=".998"/></g></svg>