<svg xmlns="http://www.w3.org/2000/svg" width="16" height="16" viewBox="-1.5 0.5 16 16" enable-background="new -1.5 0.5 16 16"><path d="M10.521 2.5v-2h-3v1h-3.521c-1.378 0-2.5 1.122-2.5 2.508v.057l-.979-.979v4.328l1.086 1.086h-2.086v8h9v-8h5v-6h-3zm-6.086 6l1.086-1.086v-2.914h2v4h-3.086z" fill="#262626"/><path d="M9.5 3.5v-2h-.979v6h3.979v-4h-3zm2.021 3h-2.021v-2h2.021v2zm-11 9h6.979v-6h-6.979v6zm1.979-5h3v1h-1.979v2h1.979v1h-3v-4z" fill="#C5C5C5"/><path d="M2.479 4l.021 2.5-1-1v1.5l1.5 1.5 1.5-1.5v-1.5l-1 1-.021-2.5c0-.275.225-.5.5-.5h3.521v-1h-3.521c-.828 0-1.5.673-1.5 1.5z" fill="#75BEFF"/><polygon points="5.5,11.5 5.5,10.5 2.5,10.5 2.5,14.5 5.5,14.5 5.5,13.5 3.5,13.5 3.5,11.5" fill="#2B282E"/></svg>