<svg xmlns="http://www.w3.org/2000/svg" width="16" height="16"><path d="M14.809 7.411l-.268-1.13-3.727 1.494.138.798c.026.148.048.298.048.451 0 1.654-1.346 3-3 3-1.655 0-3.002-1.346-3.002-3 0-1.304.837-2.417 2.002-2.829v3.251l6.571-5.419-4.879-4.027h-1.692v2.098c-3.388.486-6 3.47-6 6.989 0 3.367 2.391 5.913 5.564 6.913h2.871c3.173-1 5.565-3.546 5.565-6.913 0-.536-.064-1.142-.191-1.676z" fill="#F6F6F6"/><path d="M13.836 7.642l-1.898.761c.035.202.062.41.062.621 0 2.211-1.789 4-4 4-2.207 0-4.002-1.789-4.002-4 0-2.207 1.795-4 4.002-4v2.301l4-3.299-4-3.301v2.302c-3.314 0-6 2.686-6 5.998s2.686 6 6 6c3.316 0 6-2.688 6-6 0-.478-.059-.939-.164-1.383z" fill="#424242"/></svg>