<svg xmlns="http://www.w3.org/2000/svg" width="16" height="16"><path d="M6.564 16h2.871c3.173-.664 5.565-3.483 5.565-6.851 0-.536-.064-1.079-.191-1.613l-.268-1.13-3.727 1.494.138.798c.026.148.048.298.048.451 0 1.654-1.346 3-3 3-1.655 0-3.002-1.346-3.002-3 0-1.303.837-2.417 2.002-2.829v3.251l6.571-5.419-5.03-4.152h-1.541v2.223c-3.388.486-6 3.407-6 6.926 0 3.368 2.391 6.187 5.564 6.851z" fill="#262626"/><path d="M13.836 7.767l-1.898.761c.035.202.062.41.062.621 0 2.211-1.789 4-4 4-2.207 0-4.002-1.789-4.002-4 0-2.207 1.795-4 4.002-4v2.301l4-3.299-4-3.301v2.301c-3.314 0-6 2.686-6 5.998s2.686 6 6 6c3.316 0 6-2.688 6-6 0-.477-.059-.938-.164-1.382z" fill="#ABABAC"/></svg>