<?xml version="1.0" encoding="utf-8"?>
<!-- Generator: Adobe Illustrator 15.0.0, SVG Export Plug-In . SVG Version: 6.00 Build 0)  -->
<!DOCTYPE svg PUBLIC "-//W3C//DTD SVG 1.1//EN" "http://www.w3.org/Graphics/SVG/1.1/DTD/svg11.dtd">
<svg version="1.1" xmlns="http://www.w3.org/2000/svg" xmlns:xlink="http://www.w3.org/1999/xlink" x="0px" y="0px" width="16px"
	 height="16px" viewBox="0 0 16 16" enable-background="new 0 0 16 16" xml:space="preserve">
<g id="outline">
	<polygon fill="#F6F6F6" points="13.64,7.396 12.169,2.898 10.706,3.761 11.087,2 6.557,2 6.936,3.762 5.473,2.898 4,7.396 
		5.682,7.554 4.513,8.561 5.013,9 2,9 2,14 7,14 7,10.747 7.978,11.606 8.82,9.725 9.661,11.602 13.144,8.562 11.968,7.554 	"/>
</g>
<g id="icon_x5F_bg">
	<path fill="#424242" d="M12.301,6.518L9.529,6.78l2.086,1.788L10.021,9.96L8.82,7.278L7.619,9.96L6.036,8.568L8.111,6.78
		L5.34,6.518l0.696-2.126l2.358,1.392L7.795,3h2.053L9.246,5.783l2.359-1.392L12.301,6.518z"/>
	<rect x="3" y="10" fill="#424242" width="3" height="3"/>
</g>
<g id="color_x5F_action">
</g>
<g id="color_x5F_decoration">
</g>
<g id="color_x5F_importance">
</g>
<g id="icon_x5F_fg">
</g>
<g id="not_x5F_bg">
</g>
<g id="not_x5F_fg">
</g>
</svg>
