<svg xmlns="http://www.w3.org/2000/svg" width="16" height="16"><path d="M14 1v-1h-3v1h-7.521c-1.379 0-2.479 1.121-2.479 2.508v.056l-1-.979v4.328l1.086 1.087h-1.086v8h12v-2h2v-7h2v-6h-2zm-10 7h-.086l.086-.086v.086zm3-2h-2v-2h2v2z" fill="#262626"/><path d="M11 15v-6h-10v6h10zm-9-1v-2h1v-1h-1v-1h3v4h-3zm8-3h-2v2h2v1h-3v-4h3v1zm-7 2v-1h1v1h-1zm10-6v6h-1v-5h-7v-1h8zm0-5v-1h-1v5h3v-4h-2zm1 3h-1v-2h1v2zm-3-3v4h-3v-2h1v1h1v-1h-1v-1h-1v-1h3z" fill="#C5C5C5"/><path d="M1.979 3.5l.021 2.5-1-1v1.5l1.5 1.5 1.5-1.5v-1.5l-1 1-.021-2.5c0-.275.225-.5.5-.5h3.521v-1h-3.521c-.828 0-1.5.673-1.5 1.5z" fill="#75BEFF"/></svg>