<svg xmlns="http://www.w3.org/2000/svg" width="16" height="16"><path d="M7 1v11h7v-11h-7zm6 10h-1v-1h1v1zm0-6h-5v-1h5v1zm0-2h-5v-1h5v1z" fill="#424242"/><path d="M7 1v11h7v-11h-7zm6 10h-1v-1h1v1zm0-6h-5v-1h5v1zm0-2h-5v-1h5v1z" fill="#424242"/><path d="M15 13h-5.134l.134.234v.568l-1.465 2.198h-6.07l-1.465-2.197v-.568l2-3.5v-.735h-1v-3h4v-6h9v13z" fill="#F6F6F6"/><path d="M7 1v5h2v3h-1v.734l1.295 2.266h4.705v-11h-7zm6 10h-1v-1h1v1zm0-6h-5v-1h5v1zm0-2h-5v-1h5v1zm-6 7v-2h1v-1h-5v1h1v2l-2 3.5 1 1.5h5l1-1.5-2-3.5zm-2.968 2l.8-1.445.168-.252v-2.303h1v2.303l.168.252.8 1.445h-2.936z" fill="#424242"/><path d="M13 3h-5v-1h5v1zm0 1h-5v1h5v-1zm0 6h-1v1h1v-1zm-8.968 2l.8-1.445.168-.252v-2.303h1v2.303l.168.252.8 1.445h-2.936z" fill="#F0EFF1"/></svg>