<svg xmlns="http://www.w3.org/2000/svg" width="16" height="16"><path d="M11 5.709v-.709h1v-3h-7v.75l-5-3.75v10l5.333-4h.667v.709l-3.599 5.655.878 2.636h10.441l.879-2.636-3.599-5.655zm-2.902 2.291l.402-.631.402.631h-.804z" fill="#262626"/><path d="M10 6v-2h1v-1h-5v1h1v2l-3.5 5.5.5 1.5h9l.5-1.5-3.5-5.5zm-3.724 3l1.567-2.463.157-.246v-2.291h1v2.291l.156.246 1.568 2.463h-4.448z" fill="#C5C5C5"/><path d="M1 1v6l4-3-4-3z" fill="#89D185"/><path d="M6.276 9l1.567-2.463.157-.246v-2.291h1v2.291l.156.246 1.568 2.463h-4.448z" fill="#2B282E"/></svg>