<svg xmlns="http://www.w3.org/2000/svg" width="16" height="16"><style type="text/css">.icon-canvas-transparent{opacity:0;fill:#F6F6F6;} .icon-vs-out{fill:#F6F6F6;} .icon-vs-fg{fill:#F0EFF1;} .icon-vs-blue{fill:#1BA1E2;} .graph-frame-lime{fill:#9ECA00;}</style><path class="icon-canvas-transparent" d="M16 16h-16v-16h16v16z" id="canvas"/><path class="icon-vs-out" d="M8.891 0h-2.27c-2.899.23-5.621 1.319-5.621 3.156v9.595c0 1.992 3.313 3.024 6.195 3.249h2.36c2.862-.23 5.445-1.304 5.445-3.155v-9.595c0-1.976-3.325-3.024-6.109-3.25zm.109 11h-1v-3h1v3z" id="outline"/><g id="iconBg"><path class="graph-frame-lime" d="M8 1c2.761 0 5 .784 5 1.75 0 .967-2.239 1.75-5 1.75s-5-.784-5-1.75 2.239-1.75 5-1.75z"/><path class="icon-vs-blue" d="M8 8h1v3h-1v-3zm6-4.424v9.269c0 1.172-2.523 2.203-5.617 2.203-3.094-.001-6.383-1.079-6.383-2.297v-9.175c.725 1.458 3.369 2.124 6 2.124s5.275-.666 6-2.124zm-8 3.424h-3v3h2v1h-2v1h3v-3h-2v-1h2v-1zm5.354 5.646l-1.354-1.353v-4.293h-3v5h2.293l1.354 1.353.707-.707zm1.646-1.646h-1v-4h-1v5h2v-1z"/></g><path class="icon-vs-fg" d="M6 8h-2v1h2v3h-3v-1h2v-1h-2v-3h3v1zm7 4h-2v-5h1v4h1v1zm-3-.707v-4.293h-3v5h2.293l1.354 1.354.707-.707-1.354-1.354zm-1-.293h-1v-3h1v3z" id="iconFg"/></svg>