<svg xmlns="http://www.w3.org/2000/svg" width="16" height="16"><style type="text/css">.icon-canvas-transparent{opacity:0;fill:#F6F6F6;} .icon-vs-out{fill:#F6F6F6;} .icon-vs-bg{fill:#424242;} .icon-vs-fg{fill:#F0EFF1;}</style><path class="icon-canvas-transparent" d="M16 16h-16v-16h16v16z" id="canvas"/><path class="icon-vs-out" d="M15 3.25v9.595c0 1.852-2.583 2.925-5.445 3.155h-2.36c-2.882-.225-6.195-1.257-6.195-3.249v-9.595c0-1.837 2.722-2.926 5.621-3.156h2.271c2.783.226 6.108 1.274 6.108 3.25z" id="outline"/><g id="iconBg"><rect x="8" y="8" class="icon-vs-bg" width="1" height="3"/><path class="icon-vs-bg" d="M7.777.952c-3.14 0-5.777 1.079-5.777 2.204v9.595c0 1.219 3.289 2.297 6.383 2.297s5.617-1.031 5.617-2.203v-9.596c0-1.172-3.082-2.297-6.223-2.297zm.192.987c2.207 0 3.997.503 3.997 1.124 0 .621-1.789 1.124-3.997 1.124-2.207 0-3.997-.503-3.997-1.124 0-.621 1.79-1.124 3.997-1.124zm-1.969 6.061h-2v1h2v3h-3v-1h2v-1h-2v-3h3v1zm4.646 5.354l-1.353-1.354h-2.293v-5h3v4.293l1.354 1.353-.708.708zm2.354-1.354h-2v-5h1v4h1v1z"/></g><path class="icon-vs-fg" d="M4 8v1h2v3h-3v-1h2v-1h-2v-3h3v1h-2zm6.646 5.354l-1.353-1.354h-2.293v-5h3v4.293l1.354 1.353-.708.708zm-2.646-2.354h1v-3h-1v3zm4 0v-4h-1v5h2v-1h-1zm-8.028-7.938c0 .621 1.789 1.124 3.997 1.124 2.207 0 3.997-.503 3.997-1.124 0-.62-1.789-1.124-3.997-1.124-2.207.001-3.997.504-3.997 1.124z" id="iconFg"/></svg>