<svg xmlns="http://www.w3.org/2000/svg" width="16" height="16"><style type="text/css">.icon-canvas-transparent{opacity:0;fill:#F6F6F6;} .icon-vs-out{fill:#F6F6F6;} .icon-vs-bg{fill:#424242;} .icon-vs-fg{fill:#F0EFF1;}</style><path class="icon-canvas-transparent" d="M16 16h-16v-16h16v16z" id="canvas"/><path class="icon-vs-out" d="M16 0h-10v1.086l-1.086-1.086h-3.914v.414l.713.713c-.994.33-1.713 1.269-1.713 2.373v12.5h10v-5h6v-11z" id="outline"/><path class="icon-vs-bg" d="M13 4h-4v-1h4v1zm0 1h-3v1h3v-1zm-3 3h3v-1h-3v1zm-3-7v4h1v-3h6v7h-4v1h5v-9h-8zm-4 10h4v-1h-4v1zm0 2h4v-1h-4v1zm0-4h4v-1h-4v1zm-2-3h8v9h-8v-9zm1 8h6v-7h-6v7zm0-10.5c0-.275.225-.5.5-.5h1.5l-1 1h1.5l1.5-1.5-1.5-1.5h-1.5l1 1h-1.5c-.827 0-1.5.673-1.5 1.5v1.5h1v-1.5z" id="iconBg"/><path class="icon-vs-fg" d="M8 2v3h5v1h-3v1h3v1h-3v1h4v-7h-6zm5 2h-4v-1h4v1zm-11 3v7h6v-7h-6zm5 6h-4v-1h4v1zm0-2h-4v-1h4v1zm0-2h-4v-1h4v1z" id="iconFg"/></svg>