<svg xmlns="http://www.w3.org/2000/svg" width="32" height="96"><style type="text/css">.icon-canvas-transparent{opacity:0;fill:#F6F6F6;} .icon-f12-grey-primary{fill:#555555;} .icon-f12-blue-hover{fill:#2279BF;} .icon-f12-ltgrey-disabled{fill:#ABABAC;}</style><path class="icon-canvas-transparent" d="M32 96h-32v-96h32v96z" id="canvas"/><g id="iconBg"><path class="icon-f12-grey-primary" d="M21 18v-14h-10v14h-2v2h6v8h2v-8h6v-2h-2zm-4-2h-4v-10h4v10z"/><path class="icon-f12-blue-hover" d="M21 50v-14h-10v14h-2v2h6v8h2v-8h6v-2h-2zm-4-2h-4v-10h4v10z"/><path class="icon-f12-ltgrey-disabled" d="M21 82v-14h-10v14h-2v2h6v8h2v-8h6v-2h-2zm-4-2h-4v-10h4v10z"/></g></svg>