<svg xmlns="http://www.w3.org/2000/svg" width="16" height="16"><style type="text/css">.icon-canvas-transparent{opacity:0;fill:#F6F6F6;} .icon-vs-out{fill:#F6F6F6;} .icon-vs-bg{fill:#424242;} .icon-vs-fg{fill:#F0EFF1;} .icon-vs-action-blue{fill:#00539C;}</style><path class="icon-canvas-transparent" d="M16 16h-16v-16h16v16z" id="canvas"/><path class="icon-vs-out" d="M16 8v5h-1v3h-14v-10.586l-1-1v-3.414h1v-1h14v8h1z" id="outline"/><path class="icon-vs-bg" d="M10 9v3h5v-3h-5zm4 2h-3v-1h3v1zm0 2v1h-1v1h-1v-1h-1v-1h3zm-3-5v-1h1v-1h1v1h1v1h-3zm-8 6h7v1h-8v-8.586l1 1v6.586zm3.586-13l-.586.586v-.586h.586zm7.414 0v4h-1v-3h-5v-1h6z" id="iconBg"/><path class="icon-vs-fg" d="M14 11h-3v-1h3v1zm-6-9v2.414l-3.586 3.586h-.828l-.586-.586v6.586h7v-1h-1v-5h1v-2h1v-1h2v-3h-5z" id="iconFg"/><path class="icon-vs-action-blue" d="M7 4l-3 3-3-3v-2l2 2v-3h2v3l2-2v2z" id="colorAction"/></svg>