<svg xmlns="http://www.w3.org/2000/svg" width="16" height="16"><style type="text/css">.icon-canvas-transparent{opacity:0;fill:#F6F6F6;} .icon-white{fill:#FFFFFF;} .icon-vso-bg{fill:#656565;}</style><path class="icon-canvas-transparent" d="M16 16h-16v-16h16v16z" id="canvas"/><path class="icon-white" d="M14 3.586v9.414c-.028.825-.593 2-2.035 2h-8c-.953 0-1.965-.701-1.965-2v-11c0-1.299 1.012-2 1.964-2h6.45l3.586 3.586z" id="outline"/><path class="icon-vso-bg" d="M10,1L3.964,1C3.964,1,3,1,3,2c0,0.111,0,10.713,0,11c0,1,0.965,1,0.965,1s7,0,8,0 S13,13,13,13V4L10,1z M4,2l6,0v2h2v1H4V2z M4,7h8v2H4V7z M12,13H4v-2h8V13z"/><path class="icon-white" d="M4 11h8v2h-8v-2zm6-7v-2h-6v3h8v-1h-2zm-6 5h8v-2h-8v2z" id="iconFg"/></svg>