<svg xmlns="http://www.w3.org/2000/svg" width="16" height="16"><style type="text/css">.icon-canvas-transparent{opacity:0;fill:#F6F6F6;} .icon-vs-out{fill:#F6F6F6;} .icon-vs-bg{fill:#424242;} .icon-vs-fg{fill:#F0EFF1;}</style><path class="icon-canvas-transparent" d="M16 16h-16v-16h16v16z" id="canvas"/><path class="icon-vs-out" d="M16 11.5c0 2.485-2.015 4.5-4.5 4.5-.471 0-.916-.092-1.342-.227-.513.107-1.053.183-1.603.227h-2.36c-2.882-.225-6.195-1.257-6.195-3.249v-9.595c0-1.837 2.722-2.926 5.621-3.156h2.271c2.783.226 6.108 1.274 6.108 3.25v4.51c1.205.807 2 2.18 2 3.74z" id="outline"/><path class="icon-vs-bg" d="M7.05 12h-1.05v-5h3v.76c.307-.205.646-.359 1-.484v-.276h1v.05c.166-.018.329-.05.5-.05.529 0 1.029.108 1.5.276v-4.027c0-1.172-3.082-2.297-6.223-2.297-3.14 0-5.777 1.079-5.777 2.204v9.595c0 1.219 3.289 2.297 6.383 2.297.448 0 .882-.024 1.3-.064-.895-.726-1.498-1.779-1.633-2.984zm-.081-10.061c2.207 0 3.997.503 3.997 1.124 0 .621-1.789 1.124-3.997 1.124s-3.997-.504-3.997-1.125c0-.62 1.79-1.123 3.997-1.123zm-1.969 6.061h-2v1h2v3h-3v-1h2v-1h-2v-3h3v1zm2.05 3h-.05v-3h1v.703c-.517.646-.853 1.431-.95 2.297zm7.164 1.158c-.069.285-.183.55-.331.795l.768.984c-.207.268-.445.506-.712.713l-.985-.768c-.244.149-.51.262-.795.332l-.154 1.234c-.168.022-.332.052-.505.052l-.504-.051-.154-1.234c-.285-.07-.551-.183-.795-.332l-.985.767c-.267-.207-.505-.445-.712-.713l.768-.984c-.148-.244-.262-.509-.331-.795l-1.235-.154c-.023-.167-.052-.331-.052-.504l.051-.504 1.235-.154c.069-.285.183-.551.331-.795l-.767-.984c.207-.268.445-.506.712-.713l.985.768c.244-.148.51-.262.795-.331l.154-1.235c.167-.022.331-.052.504-.052l.504.051.154 1.235c.285.069.551.183.795.331l.985-.768c.267.207.505.445.712.713l-.768.984c.148.244.262.51.331.795l1.235.154c.022.167.051.331.051.504l-.051.504-1.234.155zm-2.714-2.658c-1.107 0-2 .896-2 2 0 1.103.893 2 2 2s2-.896 2-2c0-1.103-.893-2-2-2zm0 1c-.553 0-1 .447-1 1 0 .553.447 1 1 1s1-.447 1-1c0-.552-.447-1-1-1z" id="iconBg"/><path class="icon-vs-fg" d="M10 7h1v.05c-.347.039-.681.112-1 .225v-.275zm-3.031-2.814c2.207 0 3.997-.503 3.997-1.124 0-.62-1.789-1.124-3.997-1.124s-3.997.504-3.997 1.124c0 .621 1.79 1.124 3.997 1.124zm-4.969 2.814v3h2v1h-2v1h3v-3h-2v-1h2v-1h-3zm5 4.5c0-.171.032-.334.05-.5h-.05v-3h1v.703c.288-.36.616-.686 1-.944v-.759h-3v5h1.05c-.018-.166-.05-.329-.05-.5z" id="iconFg"/></svg>