<svg xmlns="http://www.w3.org/2000/svg" width="16" height="16"><style type="text/css">.icon-canvas-transparent{opacity:0;fill:#F6F6F6;} .icon-vs-bg{fill:#424242;} .icon-vs-fg{fill:#F0EFF1;} .icon-vs-blue{fill:#1BA1E2;} .graph-frame-lime{fill:#9ECA00;} .icon-vs-out{fill:#F6F6F6;}</style><path class="icon-canvas-transparent" d="M16 16h-16v-16h16v16z" id="canvas"/><path class="icon-vs-out" d="M14 7.76v-4.51c0-1.976-3.325-3.024-6.109-3.25h-2.27c-2.899.23-5.621 1.319-5.621 3.156v9.595c0 1.992 3.313 3.024 6.195 3.249h2.36c.55-.044 1.09-.12 1.603-.226.427.134.871.226 1.342.226 2.485 0 4.5-2.015 4.5-4.5 0-1.56-.795-2.933-2-3.74zm-7 .24h1v.703c-.517.646-.853 1.431-.95 2.297h-.05v-3z" id="outline"/><g id="iconBg"><path class="graph-frame-lime" d="M7 1c2.761 0 5 .784 5 1.75s-2.239 1.75-5 1.75-5-.784-5-1.75 2.239-1.75 5-1.75z"/><path class="icon-vs-blue" d="M8 8.703c-.517.646-.853 1.431-.95 2.297h-.05v-3h1v.703zm5-5.127v3.7c-.471-.168-.971-.276-1.5-.276-.171 0-.334.032-.5.05v-.05h-.999c-.354 0-.694.554-1.001.76v-.76h-3v5h1.029c.136 1.205.757 2.257 1.654 2.983-.418.041-.852.064-1.3.064-3.094 0-6.383-1.078-6.383-2.296v-9.175c.725 1.458 3.369 2.124 6 2.124s5.275-.666 6-2.124zm-8 3.424h-3v3h2v1h-2v1h3v-3h-2v-1h2v-1zm3.728.98l-.28.231.28-.231z"/><path class="icon-vs-bg" d="M14.214 12.158c-.069.285-.183.55-.331.795l.768.984c-.207.268-.445.506-.712.713l-.985-.768c-.244.149-.51.262-.795.332l-.154 1.234c-.168.022-.332.052-.505.052l-.504-.051-.154-1.234c-.285-.07-.551-.183-.795-.332l-.985.767c-.267-.207-.505-.445-.712-.713l.768-.984c-.148-.244-.262-.509-.331-.795l-1.235-.154c-.023-.167-.052-.331-.052-.504l.051-.504 1.235-.154c.069-.285.183-.551.331-.795l-.767-.984c.207-.268.445-.506.712-.713l.985.768c.244-.148.51-.262.795-.331l.154-1.235c.167-.022.331-.052.504-.052l.504.051.154 1.235c.285.069.551.183.795.331l.985-.768c.267.207.505.445.712.713l-.768.984c.148.244.262.51.331.795l1.235.154c.022.167.051.331.051.504l-.051.504-1.234.155zm-2.714-2.658c-1.107 0-2 .896-2 2 0 1.103.893 2 2 2s2-.896 2-2c0-1.103-.893-2-2-2zm0 1c-.553 0-1 .447-1 1 0 .553.447 1 1 1s1-.447 1-1c0-.552-.447-1-1-1z"/></g><path class="icon-vs-fg" d="M10 7.276v-.276h1v.05c-.347.039-.681.112-1 .226zm-8 2.724h2v1h-2v1h3v-3h-2v-1h2v-1h-3v3zm5 1.5c0-.171.032-.334.05-.5h-.05v-3h1v.703c.288-.36.616-.686 1-.944v-.759h-3v5h1.05c-.018-.166-.05-.329-.05-.5z" id="iconFg"/></svg>