<svg xmlns="http://www.w3.org/2000/svg" width="16" height="16"><style type="text/css">.icon-canvas-transparent{opacity:0;fill:#F6F6F6;} .icon-vs-out{fill:#F6F6F6;} .icon-vs-bg{fill:#424242;}</style><path class="icon-canvas-transparent" d="M16 16h-16v-16h16v16z" id="canvas"/><path class="icon-vs-out" d="M16 8l-4 4h-6l2-2h-2v4.987l-.397.3c-.618.467-1.344.713-2.103.713-1.93 0-3.5-1.57-3.5-3.5v-9c0-1.93 1.57-3.5 3.5-3.5.759 0 1.485.246 2.103.713l.397.3v4.987h2l-2-2h6l4 4z" id="outline"/><path class="icon-vs-bg" d="M3.5 1c.565 0 1.081.194 1.5.511v3.489h-2v6h2v3.489c-.419.317-.935.511-1.5.511-1.381 0-2.5-1.119-2.5-2.5v-9c0-1.381 1.119-2.5 2.5-2.5zm7.5 4h-2l2 2h-6v2h6l-2 2h2l3-3-3-3z" id="iconBg"/></svg>