<svg xmlns="http://www.w3.org/2000/svg" viewBox="0 0 16 16" enable-background="new 0 0 16 16"><style type="text/css">.icon-canvas-transparent{opacity:0;fill:#F6F6F6;} .icon-vs-out{fill:#F6F6F6;} .icon-vs-bg{fill:#424242;} .icon-vs-fg{fill:#F0EFF1;}</style><path class="icon-canvas-transparent" d="M16 16h-16v-16h16v16z" id="canvas"/><path class="icon-vs-out" d="M4 16v-3.108h-1.939l-2.061-2.075v-8.754l2.063-2.063h11.702l2.235 2.036v8.81l-2.233 2.046h-5.299l-1.982 3.108h-2.486z" id="outline"/><path class="icon-vs-bg" d="M2.477 1l-1.477 1.46v7.928l1 1.092.477.52h2.523v3h.938l1.322-2 .66-1h5.458l.622-.618 1-.994v-7.928l-1.622-1.46h-10.901zm11.523 8.978l-1.032 1.022h-5.578l-.263.383-1.086 1.617h-.041v-2h-3.1130000000000004l-.887-1.022v-7.107l.887-.871h10.081l1.032.871v7.107zm-3-3.45l-1.991.189 1.499 1.284-1.146.999-.862-1.926-.863 1.926-1.137-.999 1.491-1.284-1.991-.189.5-1.527 1.694 1-.431-2h1.474l-.432 2 1.694-1 .501 1.527z" id="iconBg"/><g id="iconFg"><path class="icon-vs-fg" d="M12.968 2h-10.081l-.887.87v7.107l.887 1.023h3.113v2h.041l1.086-1.617.263-.383h5.578l1.032-1.022v-7.108l-1.032-.87zm-2.46 6.001l-1.146.999-.862-1.926-.863 1.926-1.137-.999 1.491-1.284-1.991-.189.5-1.527 1.694 1-.431-2h1.474l-.432 2 1.694-1 .501 1.527-1.991.189 1.499 1.284z"/></g></svg>