<?xml version="1.0" encoding="utf-8"?>
<!-- Generator: Adobe Illustrator 18.0.0, SVG Export Plug-In . SVG Version: 6.00 Build 0)  -->
<!DOCTYPE svg PUBLIC "-//W3C//DTD SVG 1.1//EN" "http://www.w3.org/Graphics/SVG/1.1/DTD/svg11.dtd">
<svg version="1.1" xmlns="http://www.w3.org/2000/svg" xmlns:xlink="http://www.w3.org/1999/xlink" x="0px" y="0px" width="24px"
	 height="10px" viewBox="0 0 24 10" style="enable-background:new 0 0 24 10;" xml:space="preserve">
<style type="text/css">
	.icon-canvas-transparent{opacity:0;fill:#F6F6F6;}
	.icon-vs-action-blue{fill:#00539C;}
	.icon-visualstudio{fill:#68217A;}
	.icon-vs-out{fill:#F6F6F6;}
	.icon-vs-bg{fill:#424242;}
	.icon-vs-fg{fill:#F0EFF1;}
</style>
<g id="canvas">
	<path class="icon-canvas-transparent" d="M24,10H0V0h24V10z"/>
</g>
<g id="outline">
	<path class="icon-vs-out" d="M24,1.382v7.236L21.236,10h-0.65L18,7.414l-2,2l-2-2v-0.5L12.914,8H10V7H9.901
		C9.839,7.4,9.696,7.796,9.452,8.18C8.716,9.508,7.098,9.877,6.054,9.97L6.034,9.98L5.771,9.996L5.545,9.999
		C2.785,9.999,0,8.573,0,5.39C0,1.92,4.081,0,6.901,0c0.908,0,1.591,0.215,2.03,0.637c0.577,0.555,0.693,1.146,0.688,1.544
		C9.612,2.863,9.258,3.465,8.803,4H10V3h2.914L14,4.086v-1.5l2-2l2,2L20.586,0h0.65L24,1.382z"/>
</g>
<g id="iconBg">
	<path class="icon-vs-bg" d="M8,7V5.391C7.744,5.349,7.452,5.341,7.095,5.39c0,0-1.523,0.367-0.381-0.733
		c0.971-0.935,2.666-2.2,1.524-3.299C7.095,0.257,1,1.724,1,5.39c0,2.786,2.64,3.666,4.743,3.606
		C5.746,8.995,5.752,8.99,5.756,8.988c0.717-0.04,2.245-0.252,2.853-1.346C8.745,7.428,8.826,7.214,8.879,7H8z M3.5,3
		C3.776,3,4,3.224,4,3.5C4,3.776,3.776,4,3.5,4S3,3.776,3,3.5C3,3.224,3.224,3,3.5,3z M2,5.5C2,5.224,2.224,5,2.5,5S3,5.224,3,5.5
		C3,5.776,2.776,6,2.5,6S2,5.776,2,5.5z M5.5,3C5.224,3,5,2.776,5,2.5C5,2.224,5.224,2,5.5,2S6,2.224,6,2.5C6,2.776,5.776,3,5.5,3z"
		/>
</g>
<g id="iconFg">
	<path class="icon-vs-fg" d="M3,5.5C3,5.776,2.776,6,2.5,6S2,5.776,2,5.5C2,5.224,2.224,5,2.5,5S3,5.224,3,5.5z M5.5,2
		C5.224,2,5,2.224,5,2.5C5,2.776,5.224,3,5.5,3S6,2.776,6,2.5C6,2.224,5.776,2,5.5,2z M3.5,3C3.224,3,3,3.224,3,3.5
		C3,3.776,3.224,4,3.5,4S4,3.776,4,3.5C4,3.224,3.776,3,3.5,3z"/>
</g>
<g id="colorAction">
	<path class="icon-vs-action-blue" d="M14,5.5L12.5,7H11l1-1H9V5h3l-1-1h1.5L14,5.5z"/>
</g>
<g id="colorImportance">
	<path class="icon-visualstudio" d="M21,1l-3,3l-2-2l-1,1v4l1,1l2-2l3,3l2-1V2L21,1z M16,6V4l1,1L16,6z M19,5l2-2v4L19,5z"/>
</g>
</svg>
