<svg xmlns="http://www.w3.org/2000/svg" width="16" height="16"><style type="text/css">.icon-canvas-transparent{opacity:0;fill:#F6F6F6;} .icon-vs-out{fill:#F6F6F6;} .icon-vs-bg{fill:#424242;} .icon-vs-action-red{fill:#A1260D;}</style><path class="icon-canvas-transparent" d="M16 16h-16v-16h16v16z" id="canvas"/><path class="icon-vs-out" d="M16 16h-16v-16h16v16z" id="outline"/><path class="icon-vs-bg" d="M15 1v14h-14v-7h1v6h12v-13h1zm-10 7h-2v2h2v-2zm8 0h-2v2h2v-2zm0-6h-2v2h2v-2zm-2 9h-2v2h2v-2zm-4 0h-2v2h2v-2zm2-3h-2v2h2v-2zm2-3h-2v2h2v-2z" id="iconBg"/><path class="icon-vs-action-red" d="M5.537 3.943l2.673-2.746-.334-.001-2.937 2.171-1.729-2.17c-.249-.281-.755-.244-1 0-.253.25-.304.696 0 1l1.964 1.746-2.964 2.254c-.279.278-.279.721 0 1 .279.277.72.277 1 0l2.747-2.573 2.868 2.573h.385l-2.673-3.254z" id="colorAction"/></svg>