<svg xmlns="http://www.w3.org/2000/svg" width="16" height="16"><style type="text/css">.icon-canvas-transparent{opacity:0;fill:#F6F6F6;} .icon-folder{fill:#DCB67A;} .icon-vs-action-blue{fill:#00539C;} .icon-white{fill:#FFFFFF;}</style><path class="icon-canvas-transparent" d="M16 16h-16v-16h16v16z" id="canvas"/><path class="icon-white" d="M16 5.5v9c0 .827-.673 1.5-1.5 1.5h-11c-.827 0-1.5-.673-1.5-1.5v-6.5h-1.414l2-2h-2.586v-4h2.586l-2-2h4.828l4 4h5.086c.827 0 1.5.673 1.5 1.5z" id="outline"/><path class="icon-folder" d="M14.5 5h-6.086l-.82.82-.59 1.18h-.59l-1 1h-2.414v6.5c0 .276.223.5.5.5h11c.275 0 .5-.224.5-.5v-9c0-.276-.225-.5-.5-.5zm-.496 2h-5.5l.5-1h5v1z" id="iconBg"/><path class="icon-white" d="M14.008 6v.999l-.008.001h-5.496l.5-1h5.004z" id="iconFg"/><path class="icon-vs-action-blue" d="M5 5h-4v-2h4l-2-2h2l3 3-3 3h-2l2-2z" id="colorAction"/></svg>