<svg xmlns="http://www.w3.org/2000/svg" width="16" height="16"><style type="text/css">.icon-canvas-transparent{opacity:0;fill:#F6F6F6;} .icon-vs-out{fill:#F6F6F6;} .icon-vs-bg{fill:#424242;} .icon-vs-fg{fill:#F0EFF1;} .icon-vs-action-blue{fill:#00539C;}</style><path class="icon-canvas-transparent" d="M16 16h-16v-16h16v16z" id="canvas"/><path class="icon-vs-out" d="M12 8v-5l-3-3h-2l-3 3v5h-1v7h10v-7h-1zm-1 0h-1v-1l1 1zm-5-1v1h-1l1-1z" id="outline"/><path class="icon-vs-bg" d="M4 9v5h8v-5h-8zm7 4h-6v-3h6v3zm-1-1h-4v-1h4v1z" id="iconBg"/><path class="icon-vs-fg" d="M5 10v3h6v-3h-6zm5 2h-4v-1h4v1z" id="iconFg"/><path class="icon-vs-action-blue" d="M7 4l-2 2v-2l3-3 3 3v2l-2-2v4h-2v-4z" id="colorAction"/></svg>