<svg xmlns="http://www.w3.org/2000/svg" width="16" height="16"><style type="text/css">.icon-canvas-transparent{opacity:0;fill:#F6F6F6;} .icon-vs-out{fill:#F6F6F6;} .icon-vs-bg{fill:#424242;} .icon-vs-fg{fill:#F0EFF1;} .icon-vs-action-blue{fill:#00539C;}</style><path class="icon-canvas-transparent" d="M16 16h-16v-16h16v16z" id="canvas"/><path class="icon-vs-out" d="M13.453 15.545c-.762.293-1.746.455-2.773.455-3.326 0-6.682-1.705-6.682-5.513 0-.528.083-1.023.229-1.487h-2.631l1.988-2h-.084c-1.93 0-3.5-1.57-3.5-3.5s1.57-3.5 3.5-3.5h1.5v2h1.413l2.661 2.645c1.174-.429 2.354-.645 3.301-.645 1.067 0 1.863.245 2.363.727.657.631.789 1.298.784 1.746-.013 1.175-.904 2.148-1.82 3.011 1.404.194 2.083 1.141 2.249 2.033.298 1.604-.799 3.374-2.498 4.028z" id="outline"/><path class="icon-vs-bg" d="M12.617 10.487s-1.904.458-.476-.917c1.213-1.168 3.333-2.75 1.903-4.124-.615-.592-2.38-.586-4.189-.024l.059.058-2.526 2.542.11-.022c.276 0 .5.224.5.5s-.224.5-.5.5-.5-.224-.5-.5l.022-.108-.604.608h-1.12c-.186.459-.298.953-.298 1.487 0 4.583 5.715 5.041 8.096 4.124 2.381-.916 2.856-4.582-.477-4.124zm-6.119.513c-.276 0-.5-.224-.5-.5s.224-.5.5-.5.5.224.5.5-.224.5-.5.5zm1 2c-.276 0-.5-.224-.5-.5s.224-.5.5-.5.5.224.5.5-.224.5-.5.5zm2 1c-.276 0-.5-.224-.5-.5s.224-.5.5-.5.5.224.5.5-.224.5-.5.5zm0-6c-.276 0-.5-.224-.5-.5s.224-.5.5-.5.5.224.5.5-.224.5-.5.5z" id="iconBg"/><path class="icon-vs-fg" d="M7.998 12.5c0 .276-.224.5-.5.5s-.5-.224-.5-.5.224-.5.5-.5.5.224.5.5zm1.5-4.5c.276 0 .5-.224.5-.5s-.224-.5-.5-.5-.5.224-.5.5.224.5.5.5zm-3 2c-.276 0-.5.224-.5.5s.224.5.5.5.5-.224.5-.5-.224-.5-.5-.5zm1-2l-.11.022-.368.37-.022.108c0 .276.224.5.5.5s.5-.224.5-.5-.224-.5-.5-.5zm2 5c-.276 0-.5.224-.5.5s.224.5.5.5.5-.224.5-.5-.224-.5-.5-.5z" id="iconFg"/><path class="icon-vs-action-blue" d="M5.988 6h-2.488c-1.381 0-2.5-1.119-2.5-2.5s1.119-2.5 2.5-2.5h.5v1h-.5c-.827 0-1.5.673-1.5 1.5s.673 1.5 1.5 1.5h2.513l-2.013-2h2l2.5 2.484-2.5 2.516h-2l1.988-2z" id="colorAction"/></svg>