<svg xmlns="http://www.w3.org/2000/svg" width="16" height="16"><style type="text/css">.icon-canvas-transparent{opacity:0;fill:#F6F6F6;} .icon-white{fill:#FFFFFF;}</style><path class="icon-canvas-transparent" d="M16 16h-16v-16h16v16z" id="canvas"/><g id="iconBg"><path class="icon-white" d="M8 1c-3.866 0-7 3.134-7 7s3.134 7 7 7 7-3.134 7-7-3.134-7-7-7zm2 4s1 .396 1 1.5c0 .5-.447.5-1 .5-.553 0-1 0-1-.5 0-1.104 1-1.5 1-1.5zm-4 0s1 .396 1 1.5c0 0-.447.5-1 .5s-1 0-1-.5c0-1.104 1-1.5 1-1.5zm2 7c-1.852 0-3.396-1.266-3.851-2.975h.951c.445 1.177 1.601 2.058 2.9 2.058s2.486-.881 2.943-2.058h.907c-.454 1.709-1.997 2.975-3.85 2.975z"/></g></svg>