<svg xmlns="http://www.w3.org/2000/svg" width="16" height="16"><style type="text/css">.icon-canvas-transparent{opacity:0;fill:#F6F6F6;} .icon-vs-out{fill:#F6F6F6;} .icon-vs-bg{fill:#424242;} .icon-vs-fg{fill:#F0EFF1;}</style><rect class="icon-canvas-transparent" width="16" height="16" id="canvas"/><polygon class="icon-vs-out" points="16,5 16,0 11,0 11,2 5,2 5,0 0,0 0,5 2,5 2,11 0,11 0,16 5,16 5,14 11,14 11,16 16,16 16,11 14,11 14,5" id="outline"/><path class="icon-vs-bg" d="M15 4v-3h-3v2h-8v-2h-3v3h2v8h-2v3h3v-2h8v2h3v-3h-2v-8h2zm-3 8h-8v-8h8v8z" id="iconBg"/><rect x="4" y="4" class="icon-vs-fg" width="8" height="8" id="iconFg"/></svg>