<svg xmlns="http://www.w3.org/2000/svg" width="16" height="16"><style type="text/css">.icon-canvas-transparent{opacity:0;fill:#F6F6F6;} .icon-white{fill:#FFFFFF;} .icon-vs-action-blue{fill:#00539C;} .icon-vso-bg{fill:#656565;}</style><path class="icon-canvas-transparent" d="M16 16h-16v-16h16v16z" id="canvas"/><path class="icon-white" d="M16 2.5v13.5h-12v-7h-2v-2.586l-2 2v-4.828l3.586-3.586h.828l1.286 1.286 1.8-1.286h1l1.5 2.5 1.5-2.5h1l3.5 2.5z" id="outline"/><path class="icon-vso-bg" d="M11.167 5l1.146-.75 1.888-1.2-2.351-2.05-1.85 3.5-1.829-3.451-1.421 1.287 1.25 1.25v.786l.899.628h-.899v1h1v3h-4v6h10v-10h-3.833zm-2.167 9h-3v-3h3v3zm5 0h-3v-3h3v3zm0-5h-3v-3h3v3z" id="iconBg"/><path class="icon-white" d="M14 6v3h-3v-3h3zm-8 8h3v-3h-3v3zm2-5.586l-2-2v2.586h3v-3h-1v2.414zm6 2.586h-3v3h3v-3z" id="iconFg"/><polygon class="icon-vs-action-blue" points="7,4 4,1 1,4 1,6 3,4 3,8 5,8 5,4 7,6" id="colorAction"/></svg>