<svg xmlns="http://www.w3.org/2000/svg" width="16" height="16"><style type="text/css">.icon-canvas-transparent{opacity:0;fill:#F6F6F6;} .icon-vs-out{fill:#F6F6F6;} .icon-vs-bg{fill:#424242;} .icon-vs-action-green{fill:#388A34;}</style><path class="icon-canvas-transparent" d="M16 15.993h-16v-16h16v16z" id="canvas"/><path class="icon-vs-out" d="M13 4.492v8.014c0 .004-.026.43-.06.614l-.032.153c-.326 1.358-1.375 2.381-2.683 2.656-.268.057-.698.077-.727.077-.007 0-.476-.034-.684-.069-1.354-.285-2.404-1.312-2.714-2.626l-.038-.175c-.034-.191-.061-.564-.061-.564l-.001-3.58h-2v-.985h-1.981v-2h-2.019v-3.982h2.019v-2.018h3.981v.762c.471-.32.999-.559 1.57-.679.288-.049.544-.084.829-.09h.181c.306.005.563.041.814.084 1.72.361 3.068 1.677 3.473 3.358l.056.259c.049.29.077.559.077.791z" id="outline"/><path class="icon-vs-bg" d="M12 4.492v8.016l-.044.438-.031.146c-.225.933-.965 1.662-1.906 1.86-.167.035-.519.056-.52.056-.005 0-.359-.028-.518-.056-.945-.199-1.687-.934-1.909-1.87l-.027-.128-.046-.446v-6.5h1.001v6.501l.027.271.006.038c.074.403.33 1.015 1.14 1.151l.327.037.327-.037c.806-.136 1.064-.744 1.14-1.149l.007-.048.026-.261v-8.019c0-.151-.019-.297-.044-.44l-.024-.117c-.135-.656-.571-1.645-1.877-1.875-.171-.04-.348-.064-.532-.065l-.023-.003c-.183 0-.344.02-.5.044v-.011h-1.971c.469-.473 1.069-.813 1.747-.956.203-.035.41-.064.642-.069h.162c.232.004.44.034.644.069 1.319.278 2.357 1.301 2.67 2.606l.044.202c.038.221.062.432.062.615zm-3 7.5h1l-.005-7.55-.021-.214-.028-.114-.057-.184-.017-.04c-.192-.437-.586-.765-1.063-.866l-.309-.032-.307.032-.193.066v1.408l.001-.003.001-.014c.007-.263.215-.472.477-.484l.02-.004.042.007c.251.022.449.223.456.479l.002.013v.005l.001 7.495z" id="iconBg"/><path class="icon-vs-action-green" d="M7 5.007h-2v2h-1.981v-2h-2.019v-1.982h2.019v-2.018h1.981v2.018h2v1.982z" id="colorAction"/></svg>