<svg xmlns="http://www.w3.org/2000/svg" width="16" height="16"><style type="text/css">.icon-canvas-transparent{opacity:0;fill:#F6F6F6;} .icon-white{fill:#FFFFFF;} .icon-vs-action-green{fill:#388A34;} .icon-vso-bg{fill:#656565;}</style><path class="icon-canvas-transparent" d="M16 16h-16v-16h16v16z" id="canvas"/><path class="icon-white" d="M13 4.485v8.014c0 .004-.026.43-.06.614l-.032.153c-.326 1.358-1.375 2.381-2.683 2.656-.267.057-.698.078-.726.078-.007 0-.476-.034-.684-.069-1.355-.285-2.405-1.313-2.715-2.626l-.038-.175c-.034-.191-.061-.564-.061-.564l-.001-3.581h-2v-.985h-1.981v-2h-2.019v-3.982h2.019v-2.018h3.981v.762c.471-.32.999-.559 1.57-.679.288-.05.544-.084.829-.09h.181c.306.005.563.041.814.084 1.72.361 3.068 1.677 3.473 3.358l.056.259c.049.29.077.559.077.791z" id="outline"/><path class="icon-vso-bg" d="M11.939 3.871l-.044-.202c-.313-1.306-1.351-2.329-2.67-2.606-.204-.036-.412-.065-.645-.07h-.162c-.232.005-.439.034-.642.069-.677.143-1.278.483-1.747.956h1.971v.011c.156-.024.317-.044.5-.044l.023.003c.184.001.36.025.532.064 1.306.231 1.742 1.219 1.877 1.875l.024.117c.025.145.044.291.044.441v8.019l-.026.261-.007.048c-.075.405-.334 1.014-1.14 1.149l-.327.037-.327-.037c-.81-.137-1.066-.748-1.14-1.151l-.006-.038-.027-.272v-6.501h-1.001v6.5l.046.446.027.128c.222.937.964 1.671 1.909 1.87.159.028.513.056.518.056.001 0 .353-.021.52-.056.941-.198 1.682-.928 1.906-1.86l.031-.145.044-.438v-8.016c0-.183-.024-.394-.061-.614zm-2.939 8.114h1l-.005-7.55-.021-.214-.028-.114-.057-.184-.017-.04c-.192-.437-.586-.765-1.063-.865l-.309-.033-.307.032-.193.066v1.408l.001-.003.001-.014c.007-.263.215-.472.477-.484l.02-.004.042.008c.251.021.449.222.456.478l.002.013v.005l.001 7.495z" id="iconBg"/><path class="icon-vs-action-green" d="M7 5h-2v2h-1.981v-2h-2.019v-1.982h2.019v-2.018h1.981v2.018h2v1.982z" id="iconFg"/></svg>