<svg xmlns="http://www.w3.org/2000/svg" width="16" height="16"><style type="text/css">.icon-vs-out{fill:#F6F6F6;} .icon-vs-blue{fill:#1BA1E2;} .icon-canvas-transparent{opacity:0;fill:#F6F6F6;}</style><path class="icon-canvas-transparent" d="M16 16h-16v-16h16v16z" id="canvas"/><path class="icon-vs-out" d="M16 8c0 4.418-3.582 8-8 8s-8-3.582-8-8 3.582-8 8-8 8 3.582 8 8z" id="outline"/><path class="icon-vs-blue" d="M6.006 1.292c.632-.188 1.301-.292 1.994-.292 1.564 0 3.004.519 4.169 1.386-1.112-.113-2.612.034-4.281.935-.628-.676-1.217-1.352-1.882-2.029zm7.286 2.135c-.653.015-2.224.157-4.217 1.236.826.826 1.652 1.599 2.374 2.27.619-.361 1.548-.258 2.013.413.361.413.413 1.032.258 1.496.439.351.787.585 1.076.807.129-.529.204-1.08.204-1.649 0-1.75-.646-3.346-1.708-4.573zm.067 5.931l-.103.052c-.722.516-1.703.413-2.219-.31-.31-.464-.413-1.084-.155-1.6-.929-.722-1.91-1.496-2.787-2.322-.619.413-1.239.877-1.91 1.548l-.258.259c.413.671.361 1.496-.052 2.167.155.103.31.258.413.361.671.516 1.29.929 1.961 1.29.619-.361 1.445-.206 1.91.361.155.155.207.413.258.568 1.592.455 2.726.386 3.33.258.374-.537.672-1.13.884-1.762-.283-.184-.717-.485-1.272-.87zm-10.787.104l-.155-.155c-.619-.722-.619-1.806 0-2.58-.447-.935-.467-1.724-.383-2.375-.652 1.063-1.034 2.309-1.034 3.648 0 1.429.43 2.757 1.166 3.865.053-.709.156-1.555.406-2.403zm.723-3.509c.413-.103.774-.103 1.187-.052l.258-.31c.723-.722 1.342-1.238 2.013-1.703-.7-.7-1.298-1.443-1.79-2.188-.857.415-1.616.995-2.234 1.704-.04.627.033 1.483.566 2.549zm6.916 6.759c-.052.103-.206.258-.31.361-.619.516-1.548.413-2.013-.258-.258-.258-.361-.619-.31-.98-.619-.361-1.342-.826-2.065-1.342-.258-.103-.465-.31-.619-.464-.361.155-.671.155-1.032.155-.435 1.159-.502 2.301-.468 3.079 1.232 1.078 2.84 1.737 4.606 1.737 1.896 0 3.613-.757 4.873-1.981-.705-.005-1.587-.062-2.662-.307z" id="iconBg"/></svg>