<svg xmlns="http://www.w3.org/2000/svg" width="16" height="16"><style type="text/css">.icon-canvas-transparent{opacity:0;fill:#F6F6F6;} .icon-vs-out{fill:#F6F6F6;} .icon-vs-bg{fill:#424242;}</style><path class="icon-canvas-transparent" d="M16 16h-16v-16h16v16z" id="canvas"/><path class="icon-vs-out" d="M16 8c0 4.418-3.582 8-8 8s-8-3.582-8-8 3.582-8 8-8 8 3.582 8 8z" id="outline"/><path class="icon-vs-bg" d="M13.526 3.794c-1.349-1.784-3.482-2.742-5.528-2.742-1.524 0-3.004.435-4.222 1.436-3.047 2.35-3.657 6.702-1.306 9.748 1.393 1.784 3.482 2.742 5.528 2.742 1.524 0 3.004-.435 4.222-1.436 3.047-2.35 3.657-6.745 1.306-9.748zm.348 5.745l-1.045-.783c.131-.392.087-.914-.218-1.262-.392-.566-1.175-.653-1.698-.348-.608-.566-1.305-1.219-2.001-1.916 2.089-1.131 3.657-1.044 3.831-1.044l.087.087c1.175 1.567 1.479 3.525 1.044 5.266zm-3.831 1.653c-.044-.13-.087-.348-.218-.479-.392-.479-1.088-.609-1.611-.305-.566-.305-1.088-.653-1.654-1.088-.086-.086-.217-.216-.347-.303.348-.566.392-1.262.044-1.828l.217-.218c.566-.566 1.088-.957 1.611-1.305.74.696 1.567 1.349 2.351 1.958-.218.435-.131.957.131 1.349.435.609 1.262.696 1.872.261l.087-.044c.566.392 1.001.696 1.219.827-.131.435-.392.914-.696 1.349-.437.131-1.482.262-3.006-.174zm1.872-7.833c-.958-.174-2.394-.131-4.005.74-.565-.609-1.088-1.218-1.697-1.828.609-.218 1.262-.305 1.872-.305 1.306.001 2.655.479 3.83 1.393zm-7.617-.174c.304-.261.652-.435 1.001-.653.435.697 1.001 1.393 1.654 2.046-.566.391-1.088.827-1.698 1.436l-.217.261c-.349-.044-.653-.044-1.002.043-.566-1.131-.533-2.02-.446-2.542.219-.243.407-.358.708-.591zm-1.263 1.349c-.13.609-.218 1.436.261 2.437-.522.653-.522 1.567 0 2.176l.131.131c-.218.74-.305 1.48-.348 2.089-1.524-2.046-1.437-4.787-.044-6.833zm8.663 8.269c-1.088.827-2.394 1.219-3.7 1.219-1.393 0-2.742-.479-3.874-1.393-.044-.653 0-1.697.392-2.742.305 0 .566 0 .871-.131.131.131.305.305.522.392.609.435 1.219.827 1.741 1.132-.044.305.044.609.261.827.392.566 1.175.653 1.698.218.087-.087.218-.218.261-.305.958.218 1.741.261 2.351.261-.219.217-.306.347-.523.522z" id="iconBg"/></svg>