<svg xmlns="http://www.w3.org/2000/svg" width="16" height="16"><style type="text/css">.icon-canvas-transparent{opacity:0;fill:#F6F6F6;} .icon-vs-out{fill:#F6F6F6;} .icon-vs-bg{fill:#424242;} .icon-vs-fg{fill:#F0EFF1;} .icon-vs-action-green{fill:#388A34;}</style><path class="icon-canvas-transparent" d="M16 16h-16v-16h16v16z" id="canvas"/><path class="icon-vs-out" d="M16 7v6c0 1.711-2.149 3-5 3s-5-1.289-5-3v-5h-4v-2h-2v-4h2v-2h4v2h2v2.579c.826-.362 1.851-.579 3-.579 2.851 0 5 1.29 5 3z" id="outline"/><path class="icon-vs-bg" d="M11 5c-2.209 0-4 .896-4 2v6c0 1.104 1.791 2 4 2s4-.896 4-2v-6c0-1.104-1.791-2-4-2zm0 3.325c-1.999 0-3.325-.798-3.325-1.325s1.326-1.325 3.325-1.325 3.325.798 3.325 1.325-1.326 1.325-3.325 1.325z" id="iconBg"/><path class="icon-vs-fg" d="M14.325 7c0 .527-1.326 1.325-3.325 1.325s-3.325-.798-3.325-1.325 1.326-1.325 3.325-1.325 3.325.798 3.325 1.325z" id="iconFg"/><path class="icon-vs-action-green" d="M7 5h-2v2h-2v-2h-2v-2h2v-2h2v2h2v2z" id="colorAction"/></svg>