<svg xmlns="http://www.w3.org/2000/svg" width="16" height="16"><style type="text/css">.icon-canvas-transparent{opacity:0;fill:#F6F6F6;} .icon-vs-out{fill:#F6F6F6;} .icon-vs-bg{fill:#424242;} .icon-vs-fg{fill:#F0EFF1;} .icon-vs-green{fill:#339933;}</style><path class="icon-canvas-transparent" d="M16 16h-16v-16h16v16z" id="canvas"/><path class="icon-vs-out" d="M16.017 9.286c0 1.888-1.403 3.471-3.264 3.674-.042.014-.18.04-.314.04h-1.439v3h-3v-3l-1-.015v.015h-3.126c-2.143 0-3.871-1.815-3.871-3.95 0-1.608.944-3.025 2.364-3.634.49-1.987 2.25-3.416 4.335-3.416 1.142 0 2.209.426 3.025 1.188.296-.077.601-.117.909-.117 1.777 0 3.258 1.303 3.555 3.012 1.114.653 1.826 1.873 1.826 3.203z" id="outline"/><path class="icon-vs-bg" d="M14.894 9.286c0 1.381-.908 2.534-2.25 2.68l-.205.034h-.439v-1h1v-.184c.596-.255 1.017-.849 1.017-1.549 0-.933-.742-1.69-1.658-1.69-.125 0-.244.021-.358.048v-.058c.151-.251.245-.542.245-.858 0-.719-.456-1.323-1.087-1.545-.201-.101-.423-.164-.659-.164-.382 0-.732.155-1 .399-.226-.207-.513-.343-.828-.382-.448-.614-1.156-1.017-1.966-1.017-1.363 0-2.465 1.127-2.465 2.519 0 .218.043.424.094.625-.135-.032-.258-.052-.404-.052-1.047 0-1.865.865-1.865 1.934 0 1.059.934 1.914 1.934 1.93v.044h3v1h-3.126c-1.591 0-2.879-1.356-2.879-2.95 0-1.393.954-2.575 2.239-2.874.174-1.782 1.641-3.176 3.437-3.176 1.109 0 2.074.524 2.71 1.361.36-.188.705-.29 1.132-.29 1.439 0 2.487 1.187 2.487 2.644v.025c1 .371 1.894 1.376 1.894 2.546z" id="iconBg"/><path class="icon-vs-fg" d="M11.158 5.164c.631.222 1.087.826 1.087 1.545 0 .316-.095.607-.245.858v-1.067c0-.578-.35-1.086-.842-1.336zm1.2 2.412c-.125 0-.244.021-.358.048v.376h1v2.816c.596-.255 1.017-.849 1.017-1.549 0-.933-.743-1.691-1.659-1.691zm-6.358 3.424v-3h1v-1.5c0-.813.687-1.5 1.5-1.5l.171.017c-.449-.614-1.159-1.017-1.969-1.017-1.363 0-2.469 1.127-2.469 2.519 0 .218.035.424.086.625-.135-.031-.273-.052-.42-.052-1.047 0-1.833.865-1.833 1.934 0 1.059.934 1.914 1.934 1.93v.044h2z" id="iconFg"/><path class="icon-vs-green" d="M9 6.5c0-.242-.228-.5-.5-.5-.271 0-.5.258-.5.5v1.5h1v-1.5zm2 0c0-.242-.228-.5-.5-.5-.271 0-.5.258-.5.5v1.5h1v-1.5zm-1 5.5h1v-2h1v-1h-5v1h1v2l1 .015v2.985h1v-3z" id="colorImportance"/></svg>