<svg xmlns="http://www.w3.org/2000/svg" width="16" height="16"><style type="text/css">.icon-canvas-transparent{opacity:0;fill:#F6F6F6;} .icon-vs-out{fill:#F6F6F6;} .icon-vs-bg{fill:#424242;} .icon-vs-fg{fill:#F0EFF1;}</style><path class="icon-canvas-transparent" d="M16 16h-16v-16h16v16z" id="canvas"/><path class="icon-vs-out" d="M11 16c-.852 0-1.662-.372-2.225-1h-1.55c-.563.628-1.372 1-2.225 1-1.654 0-3-1.346-3-3 0-.695.236-1.351.665-1.877l-.388-1.211c-1.306-.324-2.277-1.507-2.277-2.912 0-1.654 1.346-3 3-3 .416 0 .825.089 1.204.258l.847-.72c-.034-.177-.051-.357-.051-.538 0-1.654 1.346-3 3-3s3 1.346 3 3c0 .181-.017.361-.051.538l.848.72c.378-.169.788-.258 1.203-.258 1.654 0 3 1.346 3 3 0 1.405-.971 2.587-2.276 2.912l-.388 1.212c.428.526.664 1.182.664 1.876 0 1.654-1.346 3-3 3z" id="outline"/><path class="icon-vs-bg" d="M13 5c-.498 0-.948.189-1.298.49l-1.908-1.621c.128-.264.206-.556.206-.869 0-1.105-.895-2-2-2s-2 .895-2 2c0 .313.078.605.206.869l-1.908 1.621c-.35-.301-.8-.49-1.298-.49-1.105 0-2 .895-2 2s.895 2 2 2l.034-.003.771 2.408c-.486.365-.805.94-.805 1.595 0 1.105.895 2 2 2 .738 0 1.376-.405 1.723-1h2.555c.346.595.984 1 1.723 1 1.105 0 2-.895 2-2 0-.654-.319-1.23-.804-1.595l.771-2.409.032.004c1.105 0 2-.895 2-2s-.895-2-2-2zm-1.734 6.027l-.266-.027c-1.105 0-2 .895-2 2h-2c0-1.105-.895-2-2-2l-.267.027-.736-2.303c.597-.346 1.003-.984 1.003-1.724 0-.242-.049-.47-.128-.685l1.979-1.682c.325.229.72.367 1.149.367.429 0 .823-.137 1.149-.367l1.979 1.682c-.079.215-.128.443-.128.685 0 .74.406 1.378 1.003 1.724l-.737 2.303z" id="iconBg"/><path class="icon-vs-fg" d="M12 8.724l-.737 2.303-.266-.027c-1.105 0-2 .895-2 2h-2c0-1.105-.895-2-2-2l-.267.027-.736-2.303c.597-.346 1.003-.984 1.003-1.724 0-.242-.049-.47-.128-.685l1.979-1.682c.326.229.72.367 1.149.367.429 0 .823-.137 1.149-.367l1.979 1.682c-.078.215-.128.443-.128.685 0 .74.406 1.378 1.003 1.724z" id="iconFg"/></svg>