<svg xmlns="http://www.w3.org/2000/svg" viewBox="0 0 16 16" enable-background="new 0 0 16 16"><style type="text/css">.icon-canvas-transparent{opacity:0;fill:#F6F6F6;} .icon-vs-out{fill:#F6F6F6;} .icon-servicefabric-orange1{fill:#FF5B00;} .icon-servicefabric-orange2{fill:#FF8A00;} .icon-servicefabric-orange3{fill:#FFA740;} .icon-servicefabric-orange4{fill:#FF8440;}</style><path class="icon-canvas-transparent" d="M16 16h-16v-16h16v16z" id="canvas"/><path class="icon-vs-out" d="M11 16c-.852 0-1.662-.373-2.225-1h-1.55c-.563.627-1.372 1-2.225 1-1.654 0-3-1.346-3-3 0-.699.25-1.374.69-1.906l-.36-1.169c-1.332-.305-2.33-1.501-2.33-2.925 0-1.654 1.346-3 3-3 .376 0 .744.071 1.089.208l.946-.756c-.023-.15-.035-.3-.035-.452 0-1.654 1.346-3 3-3s3 1.346 3 3c0 .152-.012.302-.035.451l.945.756c.346-.136.714-.207 1.09-.207 1.654 0 3 1.346 3 3 0 1.424-.998 2.62-2.331 2.925l-.36 1.17c.441.532.691 1.206.691 1.905 0 1.654-1.346 3-3 3z" id="outline"/><g id="iconBg"><path class="icon-servicefabric-orange4" d="M3.578 7.178l1.9 6.175-.956.294-2-6.5.166-.537 5-4 .624.78-4.734 3.788z"/><path class="icon-servicefabric-orange1" d="M11.478 13.647l-.478.353h-6v-1h5.631l1.791-5.822-4.734-3.788.624-.78 5 4 .165.537-1.999 6.5z"/></g><path class="icon-servicefabric-orange2" d="M13 13c0 1.105-.895 2-2 2s-2-.895-2-2 .895-2 2-2 2 .895 2 2zm0-8c-1.105 0-2 .895-2 2s.895 2 2 2 2-.895 2-2-.895-2-2-2zm-5-4c-1.105 0-2 .895-2 2s.895 2 2 2 2-.895 2-2-.895-2-2-2zm-3 10c-1.105 0-2 .895-2 2s.895 2 2 2 2-.895 2-2-.895-2-2-2z" id="colorImportance"/><g id="iconFg"><path class="icon-servicefabric-orange3" d="M5 7c0 1.105-.895 2-2 2s-2-.895-2-2 .895-2 2-2 2 .895 2 2zm3.402-5.959c-.13-.027-.264-.041-.402-.041-1.105 0-2 .895-2 2 0 .926.633 1.698 1.488 1.926l.914-3.885zm-3.402 9.959c-1.105 0-2 .895-2 2s.895 2 2 2l.241-.024.858-3.645c-.316-.208-.693-.331-1.099-.331z"/></g></svg>