<svg xmlns="http://www.w3.org/2000/svg" width="16" height="16"><style type="text/css">.icon-canvas-transparent{opacity:0;fill:#F6F6F6;} .icon-vs-out{fill:#F6F6F6;} .icon-vs-bg{fill:#424242;} .icon-vs-fg{fill:#F0EFF1;} .icon-vs-red{fill:#E51400;}</style><path class="icon-canvas-transparent" d="M16 16h-16v-16h16v16z" id="canvas"/><path class="icon-vs-out" d="M16 9.462l-2.278 2.341 2.278 2.774v1.423h-1.714l-1.286-1.202v1.202h-10v-16h10v8.964l1.391-.964h1.609v1.462z" id="outline"/><path class="icon-vs-bg" d="M11.815 13.68l.185.174v1.146h-1.634l1.449-1.32zm-4.971.61c0 .249.059.488.16.71h-3.004v-14h8v8.664l-.036.025-.964-1.295v-1.394h-6v3h3.008c.09.189.213.371.381.539l.518.461h-3.907v3h1.873l-.029.29zm-1.844-8.29h6v-3h-6v3z" id="iconBg"/><path class="icon-vs-fg" d="M11 6h-6v-3h6v3zm-2.649 2.081c.31-.308.756-.486 1.222-.486.481 0 .93.195 1.23.534l.197.265v-1.394h-6v3h3.008c-.108-.226-.164-.464-.163-.71.001-.452.186-.893.506-1.209zm-.956 4.955l2.05-1.559-.538-.477h-3.907v3h1.873c.06-.345.221-.663.475-.916l.047-.048z" id="iconFg"/><path class="icon-vs-red" d="M15.21 14.792h-.385l-2.868-2.573-2.747 2.573c-.28.277-.721.277-1 0-.279-.279-.279-.722 0-1l2.964-2.254-1.964-1.746c-.304-.305-.253-.75 0-1 .245-.244.751-.281 1 0l1.729 2.17 2.937-2.17h.334l-2.673 2.746 2.673 3.254z" id="notificationBg"/></svg>