<svg xmlns="http://www.w3.org/2000/svg" width="16" height="16"><style type="text/css">.icon-canvas-transparent{opacity:0;fill:#F6F6F6;} .icon-white{fill:#FFFFFF;} .icon-vs-action-blue{fill:#00539C;} .icon-vso-bg{fill:#656565;}</style><path class="icon-canvas-transparent" d="M16 16h-16v-16h16v16z" id="canvas"/><path class="icon-white" d="M14 7v-2.618l-2 1v-2.382h-2.443l-2.557-3h-5l1.709 2h-.209c-1.93 0-3.5 1.57-3.5 3.5s1.57 3.5 3.5 3.5h1.5v7h11v-9h-2z" id="outline"/><path class="icon-vso-bg" d="M9 11h-1v-1h1v1zm3 0h1v-1h-1v1zm-2 0h1v-1h-1v1zm4-3v4h-7v-4h-1v7h9v-7h-1zm-4 5h-1v1h1v-1zm2 0h-1v1h1v-1zm-1-6v-3h-1v3l-2-1v1.5l2.5 1.5 2.5-1.5v-1.5l-2 1z" id="iconBg"/><path class="icon-white" d="M12 14h-1v-1h1v1zm-2-1h-1v1h1v-1z" id="iconFg"/><path class="icon-vs-action-blue" d="M8.5 3.516l-2.5 2.484h-2l2.013-2h-2.513c-.827 0-1.5.673-1.5 1.5s.673 1.5 1.5 1.5h.5v1h-.5c-1.381 0-2.5-1.119-2.5-2.5s1.119-2.5 2.5-2.5h2.488l-1.988-2h2l2.5 2.516z" id="colorAction"/></svg>