<svg xmlns="http://www.w3.org/2000/svg" width="16" height="16"><style type="text/css">.icon-canvas-transparent{opacity:0;fill:#F6F6F6;} .icon-vs-out{fill:#F6F6F6;} .icon-vs-fg{fill:#F0EFF1;} .icon-vs-bg{fill:#424242;}</style><path class="icon-canvas-transparent" d="M16 16h-16v-16h16v16z" id="canvas"/><path class="icon-vs-out" d="M16 7.586v.828l-7.586 7.586h-.828l-7.586-7.586v-.828l7.586-7.586h.828l7.586 7.586z" id="outline"/><path class="icon-vs-bg" d="M8 1l-7 7 7 7 7-7-7-7zm0 1l2 2h-1v2h-2v-2h-1l2-2zm-5 7v-2h2v-1l2 2-2 2v-1h-2zm5 5l-2-2h1v-2h2v2h1l-2 2zm3-5v1l-2-2 2-2v1h2v2h-2z" id="iconBg"/><path class="icon-vs-fg" d="M10 4h-1v2h-2v-2h-1l2-2 2 2zm-3 4l-2-2v1h-2v2h2v1l2-2zm4-1v-1l-2 2 2 2v-1h2v-2h-2zm-2 5v-2h-2v2h-1l2 2 2-2h-1z" id="iconFg"/></svg>