<svg xmlns="http://www.w3.org/2000/svg" width="16" height="16"><style type="text/css">.icon-canvas-transparent{opacity:0;fill:#F6F6F6;} .icon-vs-out{fill:#F6F6F6;} .icon-vs-bg{fill:#424242;} .icon-vs-fg{fill:#F0EFF1;} .icon-disabled-grey{fill:#848484;}</style><path class="icon-canvas-transparent" d="M16 16h-16v-16h16v16z" id="canvas"/><path class="icon-vs-out" d="M16 1.333v9.957c0 .945-.766 1.71-1.71 1.71h-3.29v3h-7v-1h-4v-5.477l1.302.52c-.188-.305-.302-.659-.302-1.043v-5.718c0-.708.574-1.282 1.282-1.282h3.1l1-2h8.285c.736 0 1.333.597 1.333 1.333z" id="outline"/><g id="iconBg"><path class="icon-vs-bg" d="M3.5 12l.5-.334v2.334h-3v-3l2.5 1zm3.5-1h1c.553 0 1-.447 1-1v-1c0-.553-.447-1-1-1h-1c-.553 0-1 .447-1 1v1c0 .553.447 1 1 1zm-2-3c0-.553-.447-1-1-1h-1c-.553 0-1 .447-1 1v1c0 .553.447 1 1 1h1c.553 0 1-.447 1-1v-1zm2.5 5l-2.5-1v3h5v-3l-2.5 1z"/><path class="icon-disabled-grey" d="M7 1l-1 2h-2.798c-.664 0-1.202.538-1.202 1.202v2.076c.295-.172.634-.278 1-.278h1c.872 0 1.607.564 1.88 1.344.32-.217.705-.344 1.12-.344h1c1.105 0 2 .895 2 2v1c0 .384-.114.738-.302 1.044l1.302-.521v1.477h2.655c.743 0 1.345-.602 1.345-1.345v-8.544c0-.614-.497-1.111-1.111-1.111h-6.889zm7 2h-6.5l.5-1h6v1z"/></g><path class="icon-vs-fg" d="M14 2v1h-6.5l.5-1h6z" id="iconFg"/></svg>