<svg xmlns="http://www.w3.org/2000/svg" width="16" height="16"><style type="text/css">.icon-canvas-transparent{opacity:0;fill:#F6F6F6;} .icon-white{fill:#FFFFFF;} .icon-vso-bg{fill:#656565;}</style><path class="icon-canvas-transparent" d="M16 16h-16v-16h16v16z" id="canvas"/><path class="icon-white" d="M16 1.333v9.957c0 .945-.766 1.71-1.71 1.71h-3.29v3h-7v-1h-4v-5.477l1.302.52c-.188-.305-.302-.659-.302-1.043v-5.718c0-.708.574-1.282 1.282-1.282h3.1l1-2h8.285c.736 0 1.333.597 1.333 1.333z" id="outline"/><path class="icon-vso-bg" d="M3.5 12l.5-.334v2.334h-3v-3l2.5 1zm3.5-1h1c.553 0 1-.447 1-1v-1c0-.553-.447-1-1-1h-1c-.553 0-1 .447-1 1v1c0 .553.447 1 1 1zm-2-3c0-.553-.447-1-1-1h-1c-.553 0-1 .447-1 1v1c0 .553.447 1 1 1h1c.553 0 1-.447 1-1v-1zm2.5 5l-2.5-1v3h5v-3l-2.5 1zm6.389-12c.614 0 1.111.497 1.111 1.111v8.544c0 .743-.602 1.345-1.345 1.345h-2.655v-1.477l-1.302.52c.188-.305.302-.659.302-1.043v-1c0-1.105-.895-2-2-2h-1c-.415 0-.8.127-1.12.344-.273-.78-1.008-1.344-1.88-1.344h-1c-.366 0-.705.106-1 .278v-2.076c0-.664.538-1.202 1.202-1.202h2.798l1-2h6.889zm.111 1h-6l-.5 1h6.5v-1z" id="iconBg"/><path class="icon-white" d="M14 2v1h-6.5l.5-1h6z" id="iconFg"/></svg>