<svg xmlns="http://www.w3.org/2000/svg" width="16" height="16"><style type="text/css">.icon-canvas-transparent{opacity:0;fill:#F6F6F6;} .icon-vso-lighthalo{fill:#F9F9F9;} .icon-visualstudio-online{fill:#007ACC;}</style><path class="icon-canvas-transparent" d="M16 16h-16v-16h16v16z" id="canvas"/><path class="icon-vso-lighthalo" d="M16 1.333v9.957c0 .945-.766 1.71-1.71 1.71h-3.29v3h-7v-1h-4v-5.477l1.302.52c-.188-.305-.302-.659-.302-1.043v-5.718c0-.708.574-1.282 1.282-1.282h3.1l1-2h8.285c.736 0 1.333.597 1.333 1.333z" id="outline"/><path class="icon-visualstudio-online" d="M7 1l-1 2h-2.798c-.664 0-1.202.538-1.202 1.202v2.076c.295-.172.634-.278 1-.278h1c.872 0 1.607.564 1.88 1.344.32-.217.705-.344 1.12-.344h1c1.105 0 2 .895 2 2v1c0 .384-.114.738-.302 1.044l1.302-.521v1.477h2.655c.743 0 1.345-.602 1.345-1.345v-8.544c0-.614-.497-1.111-1.111-1.111h-6.889zm7 2h-6.5l.5-1h6v1zm-10.5 9l.5-.334v2.334h-3v-3l2.5 1zm2.5-2v-1c0-.553.447-1 1-1h1c.553 0 1 .447 1 1v1c0 .553-.447 1-1 1h-1c-.553 0-1-.447-1-1zm-1-1c0 .553-.447 1-1 1h-1c-.553 0-1-.447-1-1v-1c0-.553.447-1 1-1h1c.553 0 1 .447 1 1v1zm5 3v3h-5v-3l2.5 1 2.5-1z" id="iconBg"/></svg>