<svg xmlns="http://www.w3.org/2000/svg" width="16" height="16"><style type="text/css">.icon-canvas-transparent{opacity:0;fill:#F6F6F6;} .icon-vs-out{fill:#F6F6F6;} .icon-vs-bg{fill:#424242;} .icon-vs-action-blue{fill:#00539C;}</style><path class="icon-canvas-transparent" d="M16 16h-16v-16h16v16z" id="canvas"/><path class="icon-vs-out" d="M15.88 3.458v7.987l-6.212 4.555h-.486l-3.182-2.005v.005h-1v2h-3v-2h-1v-1h-1v-4h1v-1.178c0-.635.437-1.185 1.024-1.386v-2.99l6.53-3.303h1.043l6.283 3.315z" id="outline"/><path class="icon-vs-bg" d="M9.077.999l-6.053 3.062v2.39c.176.068.337.167.476.291.143-.128.31-.228.491-.296v-1.281l5.015 2.8v5.584l-.04.027v.024l-.014-.012-.014.012v-.023l-1.938-1.266v.689h-.702l3.102 1.955 5.479-4.018v-6.876l-5.802-3.062zm.251 6.105l-4.836-2.757 4.514-2.292 4.799 2.364-4.477 2.685zm4.672 3.404l-4.027 2.902v-5.411l4.027-2.635v5.144z" id="iconBg"/><path class="icon-vs-action-blue" d="M6 10v1h-1v2h-1v2h-1v-2h-1v-2h-1v-1h5zm-3-2.178c0-.242-.228-.472-.5-.472-.271 0-.5.23-.5.472v1.178h1v-1.178zm2 0c0-.242-.229-.472-.5-.472s-.5.23-.5.472v1.178h1v-1.178z" id="colorImportance"/></svg>