<svg xmlns="http://www.w3.org/2000/svg" width="16" height="16"><style type="text/css">.icon-canvas-transparent{opacity:0;fill:#F6F6F6;} .icon-vs-out{fill:#F6F6F6;} .icon-vs-bg{fill:#424242;}</style><path class="icon-canvas-transparent" d="M16 16h-16v-16h16v16z" id="canvas"/><path class="icon-vs-out" d="M16 8c0 4.418-3.582 8-8 8h-5.076c-1.859 0-2.924-1.093-2.924-2.998 0-.799.219-1.451.606-1.948-.389-.942-.606-1.972-.606-3.054 0-4.418 3.582-8 8-8s8 3.582 8 8z" id="outline"/><path class="icon-vs-bg" d="M14.988 7.763c-.126-3.755-3.202-6.763-6.988-6.763-3.866 0-7 3.134-7 7 0 .204.012.405.03.604l.07.532.002.018c.07.422.188.826.329 1.219.346-.18.748-.293 1.203-.339l-.148-.409c.431.132.903.258 1.401.375h3.189c.734 0 1.338.177 1.808.5l.567-.015-.144.393c.322.366.541.837.635 1.411.273-.664.514-1.309.68-1.908.894-.115 1.845-.343 2.886-.734-.519 1.74-1.845 3.123-3.539 3.741-.053.565-.214 1.054-.485 1.447 3.153-.681 5.516-3.479 5.516-6.835l-.012-.237zm-12.717.64l-.021-.403c0-.819.174-1.597.482-2.302.686.202 1.448.393 2.3.539-.042.405-.072.82-.077 1.257-.006.535.034 1.083.099 1.637-1.076-.196-2.006-.464-2.783-.728zm2.914-3.25c-.692-.12-1.325-.273-1.903-.435.647-.93 1.563-1.655 2.635-2.073-.29.723-.556 1.555-.732 2.508zm2.083-2.851c.24-.031.483-.052.732-.052l.488.024c.468.812.944 1.846 1.221 3.108-.571.039-1.133.044-1.703.039-.6-.006-1.181-.047-1.739-.111.233-1.215.618-2.214 1.001-3.008zm2.478 7.073c-.584.041-1.158.049-1.74.046-.636-.007-1.248-.054-1.838-.123-.084-.61-.129-1.209-.123-1.793.004-.386.031-.755.067-1.114.603.068 1.23.113 1.882.12l.403.002c.488 0 .982-.016 1.487-.054.038.339.066.685.07 1.046.007.578-.067 1.203-.208 1.87zm.135-6.804c1.176.407 2.179 1.18 2.868 2.188-.686.236-1.334.4-1.951.496-.214-1.03-.551-1.918-.917-2.684zm3.85 5.803c-1.038.452-1.972.722-2.848.863.11-.612.167-1.194.161-1.743-.004-.4-.035-.783-.076-1.156.727-.114 1.494-.308 2.316-.604.3.696.466 1.461.466 2.266l-.019.374zm-4.711 4.624c0 1.502-.9 2.002-2.025 2.002h-2.179s-.089-.281-.531-1.012c-.286-.639.175-1.114.463-.926.415.272.834.938.834.938h1.662c.775 0 .775-.625.775-1 0-1-.625-1-1-1l-.536-1h.664c1.125 0 1.873.498 1.873 1.998zm-7.995.004c0-1.502.9-2.002 2.025-2.002h2.179s.089.281.531 1.012c.286.639-.175 1.114-.463.926-.415-.272-.834-.938-.834-.938h-1.662c-.775 0-.775.625-.775 1 0 1 .625 1 1 1l.512 1h-.64c-1.126 0-1.873-.498-1.873-1.998z" id="iconBg"/></svg>