<svg xmlns="http://www.w3.org/2000/svg" width="16" height="16"><style type="text/css">.icon-canvas-transparent{opacity:0;fill:#F6F6F6;} .icon-vs-out{fill:#F6F6F6;} .icon-vs-bg{fill:#424242;}</style><path class="icon-canvas-transparent" d="M16 16h-16v-16h16v16z" id="canvas"/><path class="icon-vs-out" d="M16 5.334c0 .675-.098 1.29-.29 1.828-.194.535-.457.999-.782 1.382-.354.405-.751.708-1.189.912l-.117.053v1.703l-.588.266c-.14.064-.314.127-.518.193-.201.065-.433.122-.694.172-.253.045-.525.084-.829.113-.301.03-.639.044-1.012.044-.338 0-.661-.037-.981-.08v4.08h-9v-7h2c-.65-.635-1-1.52-1-2.5 0-1.934 1.566-3.5 3.5-3.5l.307.031c.237-.43.526-.833.87-1.195.365-.384.783-.716 1.242-.986.453-.269.96-.48 1.505-.629.538-.147 1.121-.221 1.734-.221.773 0 1.513.119 2.201.354.699.236 1.327.586 1.861 1.039.545.463.981 1.032 1.298 1.693.321.681.482 1.435.482 2.248z" id="outline"/><path class="icon-vs-bg" d="M12.107 9.821l.514-.203v.948l-.417.154c-.163.053-.353.099-.569.14-.219.039-.465.074-.738.101-.274.027-.58.039-.916.039-.34 0-.666-.029-.981-.079v-.932c.338.075.691.127 1.079.127.28 0 .541-.011.778-.037.241-.023.462-.058.671-.1.205-.041.401-.095.579-.158zm-5.034-.91l-.073.089h.144l-.071-.089zm7.927-3.577c0 .566-.078 1.063-.231 1.491-.154.425-.358.782-.604 1.072-.251.287-.532.505-.848.651-.314.148-.634.22-.959.22-.43 0-.757-.122-.986-.366-.229-.243-.342-.574-.342-.992h-.029c-.062.219-.15.412-.263.577-.111.167-.238.308-.386.423-.145.113-.308.2-.48.258-.175.06-.359.09-.555.09-.25 0-.489-.048-.712-.143-.227-.092-.422-.234-.592-.425-.095-.109-.176-.238-.25-.377.153-.406.237-.847.237-1.313 0-.502-.11-.977-.3-1.409.118-.335.27-.635.469-.886.225-.283.488-.505.801-.665.308-.161.651-.24 1.025-.24.146 0 .282.017.41.054.127.038.24.089.342.156.102.067.188.147.259.239.073.096.122.199.151.313h.024l.059-.666h1.021l-.029.383-.054.606-.063.719-.062.715-.046.59-.019.361c0 .223.016.406.044.547.028.143.068.256.12.339.051.085.109.142.184.174.072.032.151.05.238.05.176 0 .342-.055.504-.165.162-.109.307-.271.429-.481.122-.212.223-.467.298-.771.076-.303.113-.646.113-1.028 0-.268-.028-.542-.084-.823-.059-.279-.148-.55-.273-.813-.127-.262-.288-.509-.486-.74-.197-.231-.433-.433-.715-.608-.278-.171-.602-.309-.967-.41-.361-.102-.781-.15-1.247-.15-.582 0-1.123.108-1.619.326-.499.217-.924.519-1.286.902-.197.211-.365.447-.515.7-.269-.223-.563-.417-.891-.552.167-.262.35-.513.566-.741.303-.318.645-.59 1.025-.814.381-.226.801-.4 1.26-.525.46-.126.948-.187 1.472-.187.667 0 1.292.101 1.878.301.585.197 1.098.482 1.537.855.438.371.787.826 1.044 1.362.253.538.383 1.143.383 1.816zm-3.97.026c0-.208-.029-.386-.078-.534-.049-.147-.121-.271-.21-.367-.09-.099-.191-.171-.311-.218-.117-.046-.241-.069-.378-.069-.245 0-.463.071-.646.213-.183.142-.34.324-.462.547-.126.226-.216.476-.278.752-.059.275-.089.546-.089.81 0 .232.027.434.079.607.055.172.13.318.22.433.093.114.2.201.321.258.119.059.249.087.382.087.243 0 .454-.066.636-.195.18-.131.331-.309.453-.534.122-.225.211-.491.273-.799.055-.307.088-.638.088-.991zm-6.53 3.64c1.379 0 2.5-1.119 2.5-2.5 0-1.38-1.121-2.5-2.5-2.5-1.381 0-2.5 1.12-2.5 2.5 0 1.381 1.119 2.5 2.5 2.5zm0 3l-1.5-2h-2v5h7v-5h-2l-1.5 2z" id="iconBg"/></svg>