<svg xmlns="http://www.w3.org/2000/svg" width="16" height="16"><style type="text/css">.icon-canvas-transparent{opacity:0;fill:#F6F6F6;} .icon-vs-out{fill:#F6F6F6;} .icon-vs-bg{fill:#424242;} .icon-vs-fg{fill:#F0EFF1;}</style><path class="icon-canvas-transparent" d="M16 16h-16v-16h16v16z" id="canvas"/><path class="icon-vs-out" d="M16 16h-16v-16h16v16z" id="outline"/><path class="icon-vs-bg" d="M1 1v14h14v-14h-14zm13 13h-12v-12h12v12zm-7-1h-4v-4l2-2v2.586l4.586-4.586h-2.586l2-2h4v4l-2 2v-2.586l-4.586 4.586h2.586l-2 2z" id="iconBg"/><path class="icon-vs-fg" d="M2 2v12h12v-12h-12zm11 5l-2 2v-2.586l-4.586 4.586h2.586l-2 2h-4v-4l2-2v2.586l4.586-4.586h-2.586l2-2h4v4z" id="iconFg"/></svg>