<svg xmlns="http://www.w3.org/2000/svg" width="16" height="16"><style type="text/css">.icon-vs-out{fill:#F6F6F6;} .icon-vs-bg{fill:#424242;} .icon-canvas-transparent{opacity:0;fill:#F6F6F6;}</style><path class="icon-canvas-transparent" d="M16 16h-16v-16h16v16z" id="canvas"/><path class="icon-vs-out" d="M16 9v6h-16v-6h7.586l-3.586-3.586v-3.414h1.414l.586.586v-2.586h4v2.586l.586-.586h1.414v3.414l-3.586 3.586h7.586z" id="outline"/><path class="icon-vs-bg" d="M8 8l-3-3v-2l2 2v-4h2v4l2-2v2l-3 3zm3 2v2h-1v-2h-4v2h-1v-2h-4v4h4v-1h1v1h4v-1h1v1h4v-4h-4z" id="iconBg"/></svg>