<svg xmlns="http://www.w3.org/2000/svg" width="16" height="16"><style type="text/css">.icon-canvas-transparent{opacity:0;fill:#F6F6F6;} .icon-vs-out{fill:#F6F6F6;} .icon-vs-bg{fill:#424242;} .icon-vs-fg{fill:#F0EFF1;}</style><path class="icon-canvas-transparent" d="M16 16h-16v-16h16v16z" id="canvas"/><path class="icon-vs-out" d="M16 0v12h-7v2l-1.976 1.977-4.048.023-1.976-2v-8h-1v-6h16z" id="outline"/><path class="icon-vs-bg" d="M9 6h6v1h-6v-1zm0 3h6v-1h-6v1zm0 2h6v-1h-6v1zm6-10v4h-7l-1-1h3v-2h-8v2h1l-1 1h-1v-4h14zm-1 1h-3l1.501 2 1.499-2zm-12 5v2l2-2v6l-2-2v2l3 3 3-3v-2l-2 2v-6l2 2v-2l-3-3-3 3z" id="iconBg"/><path class="icon-vs-fg" d="M5 2l-2 2h-1v-2h3zm5 2v-2h-5l2 2h3zm2.501 0l1.499-2h-3l1.501 2z" id="iconFg"/></svg>