<svg xmlns="http://www.w3.org/2000/svg" width="16" height="16"><style type="text/css">.icon-canvas-transparent{opacity:0;fill:#F6F6F6;} .icon-vs-out{fill:#F6F6F6;} .icon-vs-bg{fill:#424242;} .icon-vs-fg{fill:#F0EFF1;} .icon-vs-action-red{fill:#A1260D;}</style><path class="icon-canvas-transparent" d="M16 16h-16v-16h16v16z" id="canvas"/><path class="icon-vs-out" d="M16 9c0 3.866-3.134 7-7 7-3.832 0-6.94-3.079-6.995-6.898l-.23.023c-.475 0-.921-.188-1.259-.528-.689-.695-.688-1.827.001-2.522l2.239-1.974-1.112-1.042c-.72-.727-.718-1.861-.025-2.555.322-.324.788-.52 1.275-.52.502 0 .969.188 1.281.545l1.041 1.36 2.488-1.889h2.824l-1.589 1.94.061.06c3.866 0 7 3.134 7 7z" id="outline"/><path class="icon-vs-bg" d="M15 9c0 3.244-2.755 6-6 6s-6-2.756-6-6l.021-.396.039-.032 2.048-2.219 1.849 1.647h-1.957v2h5l-2 2h2l3-3-3-3h-1.422l-1.454-1.852.894-1.057c.321-.055.648-.091.982-.091 3.245 0 6 2.753 6 6z" id="iconBg"/><path class="icon-vs-fg" d="M13 9l-3 3h-2l2-2h-5v-2h1.957l1.263 1.125 2.809-.004-2.451-3.121h1.422l3 3z" id="iconFg"/><path class="icon-vs-action-red" d="M8.996 8.121h-.395l-3.563-3.166-2.713 2.938c-.309.311-.792.311-1.098 0-.309-.311-.309-.801 0-1.111l3.019-2.656-1.921-1.794c-.334-.338-.278-.834 0-1.113.27-.271.824-.313 1.098 0l1.605 2.152 3.022-2.375h.446l-2.667 3.129 3.167 3.996z" id="colorAction"/></svg>