<svg xmlns="http://www.w3.org/2000/svg" width="36" height="108"><style type="text/css">.icon-canvas-transparent{opacity:0;fill:#F6F6F6;} .icon-f12-grey-primary{fill:#555555;} .icon-f12-blue-hover{fill:#2279BF;} .icon-f12-ltgrey-disabled{fill:#ABABAC;} .icon-f12-error-negative{fill:#ED1123;}</style><path class="icon-canvas-transparent" d="M36 108h-36v-108h36v108z" id="canvas"/><g id="iconBg"><path class="icon-f12-grey-primary" d="M30 19.987l-6 6h-4l4-4h-12v-4h12l-4-4h4l6 6zm-9-13c-2.464 0-4.759.698-6.722 1.888l1.296 1.555c1.603-.914 3.452-1.443 5.426-1.443 6.065 0 11 4.935 11 11s-4.935 11-11 11-11-4.935-11-11c0-2.119.612-4.093 1.655-5.773l-1.519-1.357c-1.346 2.047-2.136 4.495-2.136 7.13 0 7.18 5.82 13 13 13s13-5.82 13-13-5.82-13-13-13z"/><path class="icon-f12-blue-hover" d="M30 55.987l-6 6h-4l4-4h-12v-4h12l-4-4h4l6 6zm-9-13c-2.464 0-4.759.698-6.722 1.888l1.296 1.555c1.603-.914 3.453-1.443 5.426-1.443 6.065 0 11 4.935 11 11s-4.935 11-11 11-11-4.935-11-11c0-2.119.612-4.093 1.655-5.773l-1.519-1.358c-1.346 2.049-2.136 4.496-2.136 7.131 0 7.18 5.82 13 13 13s13-5.82 13-13-5.82-13-13-13z"/><path class="icon-f12-ltgrey-disabled" d="M30 91.902l-6 6h-4l4-4h-12v-4h12l-4-4h4l6 6zm-9-12.916c-2.464 0-4.759.697-6.722 1.889l1.296 1.555c1.603-.914 3.453-1.443 5.426-1.443 6.065 0 11 4.935 11 11s-4.935 11-11 11-11-4.935-11-11c0-2.119.612-4.093 1.655-5.773l-1.519-1.357c-1.347 2.047-2.136 4.495-2.136 7.129 0 7.18 5.82 13 13 13s13-5.82 13-13c0-7.179-5.821-13-13-13z"/></g><g id="colorAction"><path class="icon-f12-error-negative" d="M3.718 4.754c-.712-.701-.594-1.725 0-2.301.574-.561 1.756-.646 2.341 0l3.974 4.769 5.841-5.222h.844l-5.519 6.624 6.745 8.094h-.844l-7.248-6.479-5.021 6.025c-.585.646-1.767.561-2.341 0-.594-.575-.713-1.601 0-2.299l5.765-5.154-4.537-4.057z"/><path class="icon-f12-error-negative" d="M3.718 40.754c-.712-.701-.594-1.725 0-2.301.574-.56 1.756-.645 2.341 0l3.974 4.769 5.841-5.222h.844l-5.519 6.624 6.745 8.093h-.844l-7.248-6.478-5.021 6.025c-.585.646-1.767.561-2.341 0-.594-.574-.713-1.6 0-2.299l5.765-5.154-4.537-4.057z"/><path class="icon-f12-ltgrey-disabled" d="M3.718 76.754c-.712-.701-.594-1.725 0-2.301.574-.561 1.756-.646 2.341 0l3.974 4.768 5.841-5.221h.844l-5.519 6.623 6.745 8.094h-.844l-7.248-6.479-5.021 6.025c-.585.646-1.767.561-2.341 0-.594-.574-.713-1.6 0-2.299l5.765-5.154-4.537-4.056z"/></g></svg>