<svg xmlns="http://www.w3.org/2000/svg" width="16" height="16"><style type="text/css">.icon-canvas-transparent{opacity:0;fill:#F6F6F6;} .icon-vs-out{fill:#F6F6F6;} .icon-vs-bg{fill:#424242;} .icon-vs-fg{fill:#F0EFF1;} .icon-vs-action-green{fill:#388A34;}</style><path class="icon-canvas-transparent" d="M16 16h-16v-16h16v16z" id="canvas"/><path class="icon-vs-out" d="M16 4v12h-14v-6.764l-2-4v-1.236h4.382l2-4h4.236l-2 4h7.382z" id="outline"/><path class="icon-vs-bg" d="M13 13h-8v-.793l1.446-1.445 1.155 1.538c.098.132.264.216.42.2.166-.008.316-.096.403-.234l2.604-3.367 1.972 2.761v1.34zm-4.882-8l-.5 1h6.382v8h-10v-4h-1v5h12v-10h-6.882zm4.882 2h-5.882l-1.5 3h-.618v.793l1.146-1.147c.103-.103.237-.154.39-.145.145.011.277.083.363.199l1.063 1.417 2.614-3.382c.089-.142.241-.229.408-.235.188.003.326.074.423.209l1.593 2.23v-2.939z" id="iconBg"/><path class="icon-vs-fg" d="M7.618 6l-.5 1h5.882v2.939l-1.593-2.23c-.097-.135-.235-.207-.423-.209-.167.005-.319.093-.408.235l-2.614 3.382-1.063-1.417c-.086-.116-.218-.188-.363-.198-.152-.01-.287.042-.39.145l-1.146 1.146v-.793h-1v4h10v-8h-6.382zm5.382 7h-8v-.793l1.446-1.445 1.155 1.538c.098.132.264.216.42.2.166-.008.316-.096.403-.234l2.604-3.367 1.972 2.761v1.34z" id="iconFg"/><path class="icon-vs-action-green" d="M9 1l-4 8h-2l-2-4h2l1 2 3-6h2z" id="colorAction"/></svg>