<svg xmlns="http://www.w3.org/2000/svg" width="6" height="6"><style type="text/css">.icon-canvas-transparent{opacity:0;fill:#F6F6F6;} .icon-vs-out{fill:#F6F6F6;} .icon-vs-bg{fill:#424242;} .icon-vs-fg{fill:#F0EFF1;}</style><path class="icon-canvas-transparent" d="M6 6h-6v-6h6v6z" id="canvas"/><path class="icon-vs-out" d="M6 3c0 1.656-1.343 3-3 3s-3-1.344-3-3c0-1.657 1.343-3 3-3s3 1.343 3 3z" id="outline"/><path class="icon-vs-bg" d="M3 1c-1.104 0-2 .896-2 2s.896 2 2 2 2-.896 2-2-.896-2-2-2zm0 3c-.552 0-1-.448-1-1s.448-1 1-1 1 .448 1 1-.448 1-1 1z" id="iconBg"/><path class="icon-vs-fg" d="M4 3c0 .552-.448 1-1 1s-1-.448-1-1 .448-1 1-1 1 .448 1 1z" id="iconFg"/></svg>