<svg xmlns="http://www.w3.org/2000/svg" width="16" height="16"><style type="text/css">.icon-canvas-transparent{opacity:0;fill:#F6F6F6;} .icon-vs-out{fill:#F6F6F6;} .icon-vs-bg{fill:#424242;} .icon-vs-fg{fill:#F0EFF1;}</style><path class="icon-canvas-transparent" d="M16 16h-16v-16h16v16z" id="canvas"/><path class="icon-vs-out" d="M16 3v9h-6v2.035c0 .952-.701 1.965-2 1.965h-6.035c-.953 0-1.965-.701-1.965-2v-7.035c0-.953.701-1.965 2-1.965h3v-2h2v-2.618l2 1v-1.382h3v1.381l2-1v2.619h2z" id="outline"/><path class="icon-vs-bg" d="M12 7v-1h1v1h-1zm-1-1h-1v1h1v-1zm1 2h-1v1h1v-1zm1-4.5v-1.5l-2 1v-2h-1v2l-2-1v1.5l2.5 1.5 2.5-1.5zm-6 2.086v-1.586h-1v1h.414l.586.586zm7-1.586v6h-4v1h5v-7h-1zm-4 4h-.586l.586.586v-.586zm-2-1.414l.414.414h.586v-1h-1v.586zm-5 6.414h4v-1h-4v1zm0-2h4v-1h-4v1zm2-3h-2v1h2v-1zm4 1v5.035s0 .965-1 .965h-6.035s-.965 0-.965-1v-7.035s0-.965 1-.965h4l3 3zm-1 0h-2v-2h-4v7h6v-5z" id="iconBg"/><path class="icon-vs-fg" d="M6 9v-2h-4v7h6v-5h-2zm-3-1h2v1h-2v-1zm4 5h-4v-1h4v1zm0-2h-4v-1h4v1z" id="iconFg"/></svg>