<svg xmlns="http://www.w3.org/2000/svg" width="16" height="16"><style type="text/css">.icon-canvas-transparent{opacity:0;fill:#F6F6F6;} .icon-vs-out{fill:#F6F6F6;} .icon-vs-blue{fill:#1BA1E2;} .icon-vs-yellow{fill:#FFCC00;}</style><path class="icon-canvas-transparent" d="M16 16h-16v-16h16v16z" id="canvas"/><path class="icon-vs-out" d="M15 11.9l1 2.1-1 2h-7l-1-2 .5-1h-1.2c-1.5 0-2.7-1.3-3.2-2.7l-.1-.3c-1.7-.2-3-1.6-3-3.4 0-1.9 1.3-3.4 3-3.6.6-1.2 1.9-2 3.2-2 1.1 0 2.2.6 2.9 1.5l.2.3c1.5 0 2.8.8 3.5 2 1.9.4 3.2 2.2 3.2 4.3 0 1.1-.4 2.1-1 2.8z" id="outline"/><path class="icon-vs-blue" d="M9.3 3.8c1.3 0 2.4.8 2.9 2 1.5 0 2.8 1.4 2.8 3.3 0 .6-.2 1.3-.6 1.8l-1.9-3.9h-1.6c-.4-.4-.9-.6-1.4-.6-.6 0-1.1.2-1.5.6h-2.8c.3-.2.7-.3 1.1-.4.1-1.5 1.4-2.8 3-2.8zm0 5.7l.9-1.7c-.2-.2-.5-.3-.7-.3-.4 0-.7.2-.8.5h-5.7s-.4-.1-.6-.3c-.3-.3-.5-.8-.5-1.3 0-1 .8-1.7 1.8-1.7.3 0 .5.1.7.2v-.1c0-1 .8-1.8 1.8-1.8.5 0 1 .2 1.3.6.3-.2.5-.4.8-.5-.5-.6-1.2-1.1-2.1-1.1-1.2 0-2.2.9-2.6 2h-.2c-1.3 0-2.4 1.1-2.4 2.6 0 1.4 1.2 2.4 2.5 2.4h5.2c.1.2.3.4.6.5zm-.4.8c-.5-.1-.9-.3-.9-.3h-3.9c.4 1 1.2 2 2.2 2h1.7l.9-1.7z" id="iconBg"/><path class="icon-vs-yellow" d="M11.9 8h-.8l-3 6 .5 1h5.8l.5-1-3-6zm.1 6h-1v-1h1v1zm0-2h-1v-2h1v2z" id="notificationBg"/><path class="icon-black" d="M12 12h-1v-2h1v2zm0 1h-1v1h1v-1z" id="notificationFg"/></svg>