<svg xmlns="http://www.w3.org/2000/svg" width="16" height="16"><style type="text/css">.icon-canvas-transparent{opacity:0;fill:#F6F6F6;} .icon-vs-out{fill:#F6F6F6;} .icon-vs-bg{fill:#424242;} .icon-vs-fg{fill:#F0EFF1;}</style><path class="icon-canvas-transparent" d="M16 16h-16v-16h16v16z" id="canvas"/><path class="icon-vs-out" d="M16 12h-7v.5l-3.5 3.5h-2l-3.5-3.5v-2l2-2v-8.5h14v12z" id="outline"/><path class="icon-vs-bg" d="M15 1v10h-6v-.5l-.5-.5h5.5v-8h-10v5h-.5l-.5.5v-6.5h12zm-2 2h-8v3.793l1.146-1.146c.103-.103.237-.154.39-.145.145.01.277.082.363.198l1.063 1.417 2.614-3.382c.089-.142.241-.229.408-.235.188.003.326.074.423.209l1.593 2.231v-2.94zm-4.576 5.265c-.087.14-.237.228-.403.235-.156.016-.322-.068-.42-.2l-1.155-1.539-.592.593 1.646 1.646h5.5v-1.34l-1.972-2.761-2.604 3.366zm-.424 2.735v1l-3 3h-1l-3-3v-1l3-3h1l3 3zm-3 2h-1v1h1v-1zm0-4h-1v3h1v-3z" id="iconBg"/><path class="icon-vs-fg" d="M13 2h-9v5h1.5l.354.354.593-.592 1.154 1.538c.098.132.264.216.42.2.166-.007.316-.095.403-.234l2.604-3.366 1.972 2.76v1.34h-5.5l1 1h5.5v-8h-1zm0 3.94l-1.593-2.23c-.097-.135-.235-.207-.423-.209-.167.005-.319.093-.408.235l-2.614 3.381-1.063-1.417c-.086-.116-.218-.188-.363-.199-.152-.009-.287.042-.39.145l-1.146 1.147v-3.793h8v2.94zm-9 7.06h1v1h-1v-1zm0-4h1v3h-1v-3z" id="iconFg"/></svg>