<svg xmlns="http://www.w3.org/2000/svg" width="16" height="16"><style type="text/css">.icon-canvas-transparent{opacity:0;fill:#F6F6F6;} .icon-vs-out{fill:#F6F6F6;} .icon-vs-bg{fill:#424242;} .icon-vs-fg{fill:#F0EFF1;} .icon-vs-action-green{fill:#388A34;}</style><path class="icon-canvas-transparent" d="M16 16h-16v-16h16v16z" id="canvas"/><path class="icon-vs-out" d="M16 10.523v5.477h-7v-1h-7v-8h.018v-1h-2.018v-3.982h2.018v-2.018h3.982v2.018h2v.982h7v7c0 .381-.107.736-.293 1.04l1.293-.517z" id="outline"/><path class="icon-vs-bg" d="M5 14h-2v-6h1v5h1v1zm8-6h-1c-.553 0-1 .447-1 1v1c0 .553.447 1 1 1h1c.553 0 1-.447 1-1v-1c0-.552-.447-1-1-1zm-5 2h1c.553 0 1-.447 1-1v-1c0-.553-.447-1-1-1h-1c-.553 0-1 .448-1 1v1c0 .553.447 1 1 1zm2 2v3h5v-3l-2.5 1-2.5-1zm-1.5 0l-2.5-1v3h3v-2.333l-.5.333zm-.5-8v2h5v1l.012.002c.168.001.328.028.482.068l.078.024c.148.045.289.105.42.181l.008.003v-3.278h-6z" id="iconBg"/><path class="icon-vs-fg" d="M13 6v1h-1c-.186 0-.359.033-.527.081h-.002c-.139.038-.264.1-.391.167l-.076.037-.123.06c-.274-.781-1.01-1.345-1.881-1.345h-1c-1.103 0-1.998.895-2 1.996v-1.996h7zm-7 3v-1h-2v5h1v-3.477l1.301.52c-.188-.304-.301-.658-.301-1.043z" id="iconFg"/><path class="icon-vs-action-green" d="M7 5h-2v2h-1.982v-2h-2.018v-1.982h2.018v-2.018h1.982v2.018h2v1.982z" id="colorAction"/></svg>