<svg xmlns="http://www.w3.org/2000/svg" width="16" height="16"><style type="text/css">.icon-canvas-transparent{opacity:0;fill:#F6F6F6;} .icon-vs-bg_x0020_2{fill:#424242;} .icon-vs-out_x0020_2{fill:#F6F6F6;} .icon-vs-yellow{fill:#FFCC00;}</style><path class="icon-canvas-transparent" d="M16 16h-16v-16h16v16z" id="canvas"/><path class="icon-vs-out_x0020_2" d="M16 14l-1 2h-7c-1.81 0-3.413-.356-4.63-.956l-.956.956h-2.032l1.186-2.371c-.148-.2-.265-.411-.355-.629h-1.213v-1.236l1-2v-5.764c0-2.28 3.01-4 7-4s7 1.72 7 4v8l1 2z" id="outline"/><path class="icon-vs-bg_x0020_2" d="M3 7v-1.812c1.203.938 2.902 1.396 4.984 1.396 2.086 0 3.956-.606 5.031-1.417l-.007 2.851.992 1.982v-6c0-1.657-2.687-3-6-3s-6 1.343-6 3v3.764l.382-.764h.618zm4.997-5c3.052 0 5 1.185 5 2s-1.948 1.833-5 1.833-5-1.018-5-1.833 1.948-2 5-2zm-5.997 13l1.5-3h-2.5l2-4h3l-3 3h3l-4 4zm5.488-.023c-1.274-.055-2.441-.298-3.363-.688l.774-.774c.592.207 1.307.366 2.124.439l-.023.046.488.977z" id="iconBg"/><path class="icon-vs-yellow" d="M11.891 8.016h-.781l-3.016 6 .515.984h5.766l.484-1-2.968-5.984zm.109 5.984h-1v-1h1v1zm0-2h-1v-2h1v2z" id="notificationBg"/><g id="notificationFg"><path class="icon-black" d="M12 12h-1v-2h1v2zm0 1h-1v1h1v-1z"/></g></svg>