<svg xmlns="http://www.w3.org/2000/svg" width="32" height="96"><style type="text/css">.icon-canvas-transparent{opacity:0;fill:#F6F6F6;} .icon-f12-grey-primary{fill:#555555;} .icon-f12-ltgrey-disabled{fill:#ABABAC;} .icon-f12-warning{fill:#F28300;}</style><path class="icon-canvas-transparent" d="M32 96h-32v-96h32v96z" id="canvas"/><g id="iconBg"><path class="icon-f12-grey-primary" d="M3.75 28.276l2.625-5.276h-4.375l3.5-7h5.25l-5.25 5h5.25l-7 7.276zm26.25.142l-.636.582h-12.728l-.636-.582 6.566-13.418h.853l6.581 13.418zm-6-3.418h-2v2h2v-2zm0-6h-2v5h2v-5zm-9.5-5.5c-3.311 0-6.641-.767-8.5-2.247v2.747h-1.736l-.264.528v-6.028c0-3.779 5.443-5.5 10.5-5.5s10.5 1.721 10.5 5.5v5.183l-.335-.683h-1.665v-1.747c-1.859 1.48-5.189 2.247-8.5 2.247zm0-1.5c4.694 0 8.5-1.567 8.5-3.5s-3.806-3.5-8.5-3.5-8.5 1.567-8.5 3.5 3.806 3.5 8.5 3.5zm.461 13.99l-.461.01c-1.919 0-3.683-.265-5.105-.706l-1.525 1.584c1.778.7 3.962 1.052 6.118 1.102l.973-1.99z"/><path class="icon-f12-warning" d="M3.75 60.276l2.625-5.276h-4.375l3.5-7h5.25l-5.25 5h5.25l-7 7.276zm26.25.142l-.636.582h-12.728l-.636-.582 6.566-13.418h.853l6.581 13.418zm-6-3.418h-2v2h2v-2zm0-6h-2v5h2v-5zm-9.5-5.5c-3.311 0-6.641-.767-8.5-2.246v2.746h-1.736l-.264.528v-6.028c0-3.779 5.443-5.5 10.5-5.5s10.5 1.721 10.5 5.5v5.183l-.335-.683h-1.665v-1.746c-1.859 1.479-5.189 2.246-8.5 2.246zm0-1.5c4.694 0 8.5-1.567 8.5-3.5s-3.806-3.5-8.5-3.5-8.5 1.567-8.5 3.5 3.806 3.5 8.5 3.5zm.461 13.99l-.461.01c-1.919 0-3.683-.265-5.105-.706l-1.525 1.584c1.778.7 3.962 1.052 6.118 1.102l.973-1.99z"/><path class="icon-f12-ltgrey-disabled" d="M3.75 92.276l2.625-5.276h-4.375l3.5-7h5.25l-5.25 5h5.25l-7 7.276zm26.25.142l-.636.582h-12.728l-.636-.582 6.566-13.418h.853l6.581 13.418zm-6-3.418h-2v2h2v-2zm0-6h-2v5h2v-5zm-9.5-5.5c-3.311 0-6.641-.767-8.5-2.246v2.746h-1.736l-.264.528v-6.028c0-3.779 5.443-5.5 10.5-5.5s10.5 1.721 10.5 5.5v5.183l-.335-.683h-1.665v-1.746c-1.859 1.479-5.189 2.246-8.5 2.246zm0-1.5c4.694 0 8.5-1.567 8.5-3.5s-3.806-3.5-8.5-3.5-8.5 1.567-8.5 3.5 3.806 3.5 8.5 3.5zm.461 13.99l-.461.01c-1.919 0-3.683-.265-5.105-.706l-1.525 1.584c1.778.7 3.962 1.052 6.118 1.102l.973-1.99z"/></g></svg>