<svg xmlns="http://www.w3.org/2000/svg" width="16" height="16"><style type="text/css">.icon-canvas-transparent{opacity:0;fill:#F6F6F6;} .icon-white{fill:#FFFFFF;} .icon-vs-action-orange{fill:#C27D1A;} .icon-vso-bg{fill:#656565;}</style><path class="icon-canvas-transparent" d="M16 16h-16v-16h16v16z" id="canvas"/><path class="icon-white" d="M13 4v-2h-1.161c-.413-1.164-1.525-2-2.829-2-.526 0-1.052.146-1.519.422l-.443.262-.427-.427-.621.621v-.878h-3v.878l-.621-.621-2.122 2.122.621.621h-.878v3h.878l-.621.621 2.122 2.121.621-.621v1.885c-1.877.031-3 1.142-3 2.996 0 1.905 1.065 2.998 2.924 2.998h3.998l.326-.024-.021.024h7.773v-9.571l1-1.914v-.515h-3z" id="outline"/><path class="icon-vso-bg" d="M8 1.283c.297-.176.64-.283 1.01-.283 1.105 0 2 .896 2 2h.99v1l-.5 1h-2.5v-1.004l.02.004c.553 0 .99-.447.99-1s-.447-1-1-1c-.551 0-1 .447-1 1h-.01v-1.717zm-3.3 8.717h.3v-1h-1v1h.7zm8.3.473v3.527h-3.142c-.106.386-.277.72-.509 1h4.651v-6l-1 1.473zm-.18-5.473l-3.19 6.351c.237.45.37.997.37 1.647v.002h.438l4.181-8h-1.799zm-3.315 6.135l-1.005-2.135h-1.882l.536 1.006c1.078.019 1.878.415 2.351 1.129zm-2.358-.135h-.664l.536 1c.375 0 1 0 1 1 0 .375 0 1-.775 1h-1.662s-.419-.666-.834-.938c-.288-.189-.749.287-.463.926.443.731.531 1.012.531 1.012h2.179c1.125 0 2.024-.5 2.024-2.002.001-1.5-.747-1.998-1.872-1.998zm-4.25 4h.64l-.512-1c-.375 0-1 0-1-1 0-.375 0-1 .775-1h1.662s.419.666.834.938c.288.189.749-.287.463-.926-.442-.731-.53-1.012-.53-1.012h-2.179c-1.125 0-2.024.5-2.024 2.002-.001 1.5.746 1.998 1.871 1.998z" id="iconBg"/><path class="icon-white" d="M7.958 2.979c0-.553.501-.979 1.052-.979.553 0 1 .447 1 1s-.457 1-1.01 1c-.551 0-1.042-.468-1.042-1.021zm1.042 2.021v1h-.879l.621.621-1.379 1.379h1.873l.382.764 1.882-3.764h-2.5zm2.236 9h1.764v-3.527l-1.764 3.527zm-5.236-4l-.5-1h-.5v1h1z" id="iconFg"/><path class="icon-vs-action-orange" d="M8 4h-2.293l1.621-1.621-.707-.708-1.621 1.621v-2.292h-1v2.292l-1.621-1.621-.708.708 1.621 1.621h-2.292v1h2.292l-1.621 1.621.708.707 1.621-1.621v2.293h1v-2.293l1.621 1.621.707-.707-1.621-1.621h2.293v-1zm-3 1h-1v-1h1v1z" id="colorAction"/></svg>