<svg xmlns="http://www.w3.org/2000/svg" width="32" height="96"><style type="text/css">.icon-canvas-transparent{opacity:0;fill:#F6F6F6;} .icon-f12-grey-primary{fill:#555555;} .icon-f12-blue-hover{fill:#2279BF;} .icon-f12-ltgrey-disabled{fill:#ABABAC;} .icon-f12-error-negative{fill:#ED1123;}</style><path class="icon-canvas-transparent" d="M32 96h-32v-96h32v96z" id="canvas"/><g id="iconBg"><path class="icon-f12-grey-primary" d="M12 30h-4v-14h4v14zm6-12h-4v12h4v-12zm6-10h-4v22h4v-22zm6 8h-4v14h4v-14z"/><path class="icon-f12-ltgrey-disabled" d="M12 94h-4v-14h4v14zm6-12h-4v12h4v-12zm6-10h-4v22h4v-22zm6 8h-4v14h4v-14z"/><path class="icon-f12-blue-hover" d="M12 62h-4v-14h4v14zm6-12h-4v12h4v-12zm6-10h-4v22h4v-22zm6 8h-4v14h4v-14z"/></g><g id="colorAction"><path class="icon-f12-error-negative" d="M3.718 4.754c-.712-.701-.594-1.725 0-2.301.574-.561 1.756-.645 2.341 0l3.974 4.769 5.841-5.222h.844l-5.519 6.624 6.745 8.094h-.844l-7.248-6.479-5.021 6.025c-.585.646-1.767.56-2.341 0-.594-.575-.713-1.601 0-2.299l5.765-5.154-4.537-4.057z"/><path class="icon-f12-error-negative" d="M3.718 36.754c-.712-.701-.594-1.725 0-2.301.574-.561 1.756-.646 2.341 0l3.974 4.769 5.841-5.222h.844l-5.519 6.624 6.745 8.094h-.844l-7.248-6.479-5.021 6.025c-.585.646-1.767.561-2.341 0-.594-.575-.713-1.601 0-2.299l5.765-5.154-4.537-4.057z"/><path class="icon-f12-ltgrey-disabled" d="M3.718 68.754c-.712-.701-.594-1.725 0-2.301.574-.561 1.756-.645 2.341 0l3.974 4.769 5.841-5.222h.844l-5.519 6.624 6.745 8.094h-.844l-7.248-6.479-5.021 6.025c-.585.646-1.767.561-2.341 0-.594-.575-.713-1.601 0-2.299l5.765-5.154-4.537-4.057z"/></g></svg>