<svg xmlns="http://www.w3.org/2000/svg" width="36" height="108"><style type="text/css">.icon-canvas-transparent{opacity:0;fill:#F6F6F6;} .icon-f12-grey-primary{fill:#555555;} .icon-f12-blue-hover{fill:#2279BF;} .icon-f12-ltgrey-disabled{fill:#ABABAC;} .icon-f12-error-negative{fill:#ED1123;}</style><path class="icon-canvas-transparent" d="M36 108h-36v-108h36v108z" id="canvas"/><g id="iconBg"><path class="icon-f12-grey-primary" d="M14 34h-4v-14h4v14zm6-12h-4v12h4v-12zm6-10h-4v22h4v-22zm6 8h-4v14h4v-14z"/><path class="icon-f12-blue-hover" d="M14 70h-4v-14h4v14zm6-12h-4v12h4v-12zm6-10h-4v22h4v-22zm6 8h-4v14h4v-14z"/><path class="icon-f12-ltgrey-disabled" d="M14 106h-4v-14h4v14zm6-12h-4v12h4v-12zm6-10h-4v22h4v-22zm6 8h-4v14h4v-14z"/></g><g id="colorAction"><path class="icon-f12-error-negative" d="M3.718 5.036c-.712-.701-.594-1.725 0-2.301.574-.561 1.756-.645 2.341 0l3.974 4.768 5.841-5.221h.844l-5.519 6.624 6.745 8.094h-.844l-7.248-6.479-5.021 6.025c-.585.646-1.767.56-2.341 0-.594-.575-.713-1.601 0-2.299l5.765-5.154-4.537-4.057z"/><path class="icon-f12-error-negative" d="M3.773 40.754c-.712-.701-.594-1.725 0-2.301.574-.561 1.756-.646 2.341 0l3.974 4.769 5.842-5.222h.844l-5.519 6.624 6.745 8.093h-.844l-7.248-6.478-5.021 6.025c-.585.646-1.767.561-2.341 0-.594-.575-.713-1.601 0-2.299l5.765-5.154-4.538-4.057z"/><path class="icon-f12-ltgrey-disabled" d="M3.773 77.036c-.712-.7-.594-1.725 0-2.301.574-.561 1.756-.646 2.341 0l3.974 4.768 5.841-5.221h.844l-5.519 6.623 6.746 8.095h-.844l-7.248-6.479-5.021 6.025c-.585.646-1.767.561-2.341 0-.594-.575-.713-1.601 0-2.299l5.765-5.154-4.538-4.057z"/></g></svg>