<svg xmlns="http://www.w3.org/2000/svg" width="16" height="16"><style type="text/css">.icon-canvas-transparent{opacity:0;fill:#F6F6F6;} .icon-white{fill:#FFFFFF;} .icon-vso-bg{fill:#656565;}</style><path class="icon-canvas-transparent" d="M16 16h-16v-16h16v16z" id="canvas"/><path class="icon-white" d="M9.979 13.262c-.107 1.715-1.225 2.738-3.057 2.738h-3.998c-1.859 0-2.924-1.093-2.924-2.998 0-1.744 1-2.824 2.683-2.972-.281-.553-.486-1.152-.592-1.79l-.065-.467c-.016-.175-.026-.345-.026-.528 0-3.447 2.804-6.245 6.25-6.245 3.386 0 6.127 2.655 6.24 6.041l.01.213c0 2.847-1.879 5.257-4.521 6.008z" id="outline"/><path class="icon-vso-bg" d="M13.491 7.078c-.095-2.817-2.401-5.073-5.241-5.073-2.899 0-5.25 2.351-5.25 5.25l.022.453.053.398.002.014c.113.684.371 1.314.721 1.88h1.137c-.368-.444-.653-.958-.82-1.526.598.184 1.283.36 2.058.483.067.344.161.693.265 1.043h.638l.219.017c-.1-.317-.199-.634-.269-.946.393.039.8.064 1.22.068l.302.002c.261 0 .524-.008.79-.021-.13.422-.304.872-.504 1.34.246.159.447.367.617.605.324-.716.593-1.398.767-2.022.67-.086 1.383-.256 2.164-.55-.4 1.341-1.44 2.396-2.761 2.84.141.261.243.555.305.885 2.074-.701 3.575-2.648 3.575-4.96l-.01-.18zm-5.79-4.096c.18-.023.362-.039.549-.039l.366.019c.351.608.708 1.384.915 2.33-.428.029-.85.033-1.277.029-.449-.005-.885-.035-1.304-.083.175-.911.464-1.661.751-2.256zm-3.748 4.576l-.015-.303c0-.614.131-1.197.361-1.727.514.152 1.087.296 1.725.405-.032.304-.054.615-.057.943-.005.401.025.812.073 1.228-.807-.147-1.504-.349-2.087-.546zm2.186-2.437c-.519-.091-.993-.205-1.427-.328.485-.697 1.173-1.241 1.976-1.554-.217.543-.417 1.166-.549 1.882zm3.421 3.166c-.439.031-.869.037-1.306.034-.477-.005-.936-.04-1.378-.092-.063-.457-.097-.907-.093-1.345.004-.29.023-.566.051-.836.452.052.923.085 1.412.09l.302.002c.366 0 .737-.012 1.116-.04.028.254.049.513.053.785.004.433-.052.902-.157 1.402zm.1-5.103c.883.305 1.635.885 2.151 1.641-.515.177-1 .3-1.463.372-.16-.773-.412-1.439-.688-2.013zm2.889 4.352c-.779.339-1.479.542-2.136.647.083-.459.125-.896.12-1.307-.002-.3-.025-.587-.057-.867.545-.085 1.121-.231 1.737-.453.224.521.349 1.095.349 1.699l-.013.281zm-3.529 5.462c0 1.502-.9 2.002-2.025 2.002h-2.179s-.089-.281-.531-1.012c-.286-.639.175-1.114.463-.926.415.272.834.938.834.938h1.662c.775 0 .775-.625.775-1 0-1-.625-1-1-1l-.536-1h.664c1.125 0 1.873.498 1.873 1.998zm-7.995.004c0-1.502.9-2.002 2.025-2.002h2.179s.089.281.531 1.012c.286.639-.175 1.114-.463.926-.415-.272-.834-.938-.834-.938h-1.662c-.775 0-.775.625-.775 1 0 1 .625 1 1 1l.512 1h-.64c-1.126 0-1.873-.498-1.873-1.998z" id="iconBg"/></svg>