<svg xmlns="http://www.w3.org/2000/svg" width="32" height="32"><style type="text/css">.icon-canvas-transparent{opacity:0;fill:#F6F6F6;} .icon-vs-out{fill:#F6F6F6;} .st0{fill:#00ACEE;} .st1{fill:#FFCC2F;} .st2{fill:#2BAF2B;} .st3{fill:#EF5734;} .st4{fill:#543729;} .st5{fill:#FFFFFF;} .st6{fill:#CECECE;}</style><path class="icon-canvas-transparent" d="M32 32h-32v-32h32v32z" id="canvas"/><path class="icon-vs-out" d="M14.697 30.308c-.369 0-.747-.051-1.114-.146-.237.059-.486.088-.743.088-1.269 0-2.545-.737-3.085-1.768-.399.125-.818.192-1.24.192-3.718 0-8.515-6.519-8.515-13.442 0-2.024.381-3.936 1.133-5.682.704-1.634 1.712-3.08 2.995-4.298 2.382-2.262 5.563-3.56 8.728-3.56 3.55 0 5.754 1.966 6.933 3.868 1.577-1.642 3.845-2.721 6.023-2.721.576 0 1.133.077 1.652.228l3.134.913-2.236 2.377c-.977 1.038-1.053 1.487-1.169 2.167l-.097.55c-.226 1.366-.653 2.424-1.21 3.239 3.772.815 4.585 1.595 4.964 1.959 1.073 1.032 1.456 2.987.889 4.547-.385 1.062-1.146 1.846-2.168 2.272-.082.155-.178.306-.288.449-.789 1.032-2.242 1.674-3.792 1.674-.696.529-1.652.842-2.725.842-.524 0-1.039-.08-1.525-.233l.086.319c.204 1.039-.046 2.169-.652 2.948-.136.174-.286.328-.449.463-.578 1.184-1.864 2.015-3.392 2.087-.608.433-1.344.668-2.137.668z" id="outline"/><g id="iconBg"><path class="st0" d="M25.769 5.472c-3.709 0-6.475 3.92-5.196 6.736 5.249 0 3.112-4.845 5.196-6.736z" id="leaf"/><path id="body" class="st1" d="M26.967 16.054c0-1.246-5.941-1.866-9.25-2.06-3.309-.193-15.4 2.099-13.968 5.13 1.431 3.031 5.063 6.254 9.15 6.254 2.117 0 4.571-1.492 4.706-4.232 2.448-.817 9.362-.86 9.362-5.092z"/><path id="wing_tip" class="st2" d="M23.929 16.883c.384.389-.832 1.438-1.893.944.477 1.077-1.623 1.972-2.643 1.205.109.868-1.975 1.367-2.641.399.171.462.315.815.45 1.105l-.003-.008c.346.453.816.817 2.865.817 3.157 0 8.256-2.398 8.256-4.158 0-1.457-.546-1.594-1.487-1.487-.941.106-5.861.617-6.907.412.568.119 3.432.668 4.003.771z"/><path id="head" class="st3" d="M12.856 4.67c-6.037 0-12.096 6-9.212 14.276 1.959 1.177 4.571.711 5.156.084.885.283 1.674.402 2.38.402 3.667 0 6.8-3.896 6.8-8.764-.001-4.993-3.296-5.998-5.124-5.998z"/><path id="eye_rim" class="st1" d="M10.384 10.013c0 1.347 1.092 2.439 2.439 2.439s2.439-1.092 2.439-2.439-1.092-2.439-2.439-2.439-2.439 1.092-2.439 2.439z"/><path id="eye" class="st4" d="M11.363 10.013c0 .806.654 1.46 1.46 1.46s1.46-.654 1.46-1.46c0-.807-.654-1.46-1.46-1.46-.806 0-1.46.653-1.46 1.46z"/><ellipse id="pupil_highlight" class="st5" cx="12.823" cy="9.365" rx=".851" ry=".529"/><path id="beak" class="st6" d="M17.827 8.763c-1.109.646-1.072 2.736-.579 3.756.954-.354 2.283-1.055 2.49-1.18.206-.125-.114-.601.687-.601 1.111 0 2.116.347 2.404.472-.184-.375-2.467-2.447-5.002-2.447z"/><path id="outline_1_" class="st4" d="M29.465 15.715c-1.44-1.384-8.642-2.248-10.914-2.499.11-.26.204-.529.281-.806.31-.136.644-.262.99-.367.042.124.24.6.354.826 4.569.126 4.804-3.396 4.99-4.36.182-.943.172-1.855 1.74-3.521-2.335-.68-5.693 1.055-6.818 3.637-.423-.158-.846-.275-1.265-.348-.3-1.211-1.864-4.585-5.966-4.585-2.657 0-5.336 1.097-7.351 3.01-1.087 1.032-1.94 2.256-2.536 3.639-.644 1.495-.97 3.14-.97 4.891 0 6.098 4.163 11.442 6.515 11.442 1.027 0 1.911-.769 2.118-1.459.174.473.708 1.943.883 2.317.259.553 1.457 1.032 1.981.458.674.375 1.911.6 2.585-.399 1.298.275 2.446-.5 2.471-1.423.637-.034.95-.928.81-1.641-.103-.525-1.198-2.406-1.625-3.056.846.688 2.988.883 3.248 0 1.364 1.07 3.489.509 3.657-.362 1.657.431 3.558-.515 3.246-1.66 2.663-.184 2.323-3.016 1.576-3.734zm-6.932-4.694c-.701-.275-1.591-.449-2.214-.449-.884 0-1.422.501-2.254.501-.175 0-.591.001-.926-.118.22.231.494.356 1.024.356.317 0 .944-.162 1.452-.315l.033.319c-.952.228-1.95.833-2.239.99-.643-1.42-.09-2.762.421-3.382 2.29.005 4.139 1.577 4.703 2.098zm.99-.107l-.35-.327c-.36-.337-.734-.642-1.119-.912.573-1.138 1.294-2.38 2.204-3.148-1.002.404-1.99 1.61-2.575 2.9-.298-.189-.6-.358-.906-.506.816-1.741 2.711-3.195 4.799-3.308-1.4 1.268-.874 3.801-2.053 5.301zm-2.874 1.187c-.154-.334-.31-.89-.291-1.216.26-.006.758.091.839.11-.03.153-.047.489-.047.533l.242-.494c.499.095 1.155.255 1.54.434-.453.292-1.22.611-2.283.633zm-3.119-3.926c-1.826 1.85-1.105 4.191-.44 5.249-.946 1.573-2.804 2.649-4.964 3.138 2.424 0 3.85-.624 4.679-1.235.529-.39.816-.775.963-.989 3.594.232 9.285 1.39 9.84 1.765.223.151.453.484.486.802-2.701-.378-7.569-.776-8.844-.844.905.128 7.505 1.378 8.65 1.671-.348.568-1.141.969-2.337.69.646.88-.608 1.936-2.355 1.354.385.864-1.171 1.642-2.939.741.022.864-2.193.964-3.069.009.017.114.121.332.166.427-.282 2.524-2.349 4.09-4.467 4.09-5.184 0-9.7-4.21-9.7-9.812 0-5.922 4.377-10.341 9.658-10.341 3.025.001 4.392 2.383 4.673 3.285z"/></g></svg>