<svg xmlns="http://www.w3.org/2000/svg" width="16" height="16"><style type="text/css">.icon-canvas-transparent{opacity:0;fill:#F6F6F6;} .icon-vs-action-green{fill:#388A34;} .icon-white{fill:#FFFFFF;} .icon-vso-bg{fill:#656565;}</style><path class="icon-canvas-transparent" d="M16 16h-16v-16h16v16z" id="canvas"/><path class="icon-white" d="M16 4.086v5.828l-2.086 2.086h-2.379l-2 3h-2.535v-3h-2.828l-2.172-2.086v-3.914h-2v-4h2v-2h4v2h7.914l2.086 2.086z" id="outline"/><path class="icon-vso-bg" d="M15 4.5v5l-1.5 1.5h-2.5l-2 3h-1v-3h-3.414l-1.586-1.5v-1.5h1v1.086l1 .914h4v2.197l1.168-1.752.297-.445h2.621l.914-.914v-4.172l-.914-.914h-5.086v-1h5.5l1.5 1.5z" id="iconBg"/><path class="icon-white" d="M14 4.914v4.172l-.914.914h-2.621l-.297.445-1.168 1.752v-2.197h-4l-1-.914v-1.086h2v-2h2v-2h5.086l.914.914z" id="iconFg"/><path class="icon-vs-action-green" d="M5 7v-2h2v-2h-2v-2h-2v2h-2v2h2v2h2z" id="colorAction"/></svg>