<svg xmlns="http://www.w3.org/2000/svg" width="32" height="96"><style type="text/css">.icon-canvas-transparent{opacity:0;fill:#F6F6F6;} .icon-f12-grey-primary{fill:#555555;} .icon-f12-blue-hover{fill:#2279BF;} .icon-f12-ltgrey-disabled{fill:#ABABAC;}</style><path class="icon-canvas-transparent" d="M32 96h-32v-96h32v96z" id="canvas"/><g id="iconBg"><path class="icon-f12-grey-primary" d="M16 15l-6.222 6h-4.149l4.148-4h-7.777v-4h7.778l-4.149-4h4.148l6.223 6zm2-12h-16v2h16v-2zm0 23h-16v2h16v-2zm8-16h-8v4h8v-4zm4 7h-12v4h12v-4z"/><path class="icon-f12-blue-hover" d="M16 47l-6.222 6h-4.149l4.148-4h-7.777v-4h7.778l-4.148-4h4.148l6.222 6zm2-12h-16v2h16v-2zm0 23h-16v2h16v-2zm8-16h-8v4h8v-4zm4 7h-12v4h12v-4z"/><path class="icon-f12-ltgrey-disabled" d="M16 79l-6.222 6h-4.149l4.148-4h-7.777v-4h7.778l-4.148-4h4.148l6.222 6zm2-12h-16v2h16v-2zm0 23h-16v2h16v-2zm8-16h-8v4h8v-4zm4 7h-12v4h12v-4z"/></g></svg>