<svg xmlns="http://www.w3.org/2000/svg" width="16" height="16"><style type="text/css">.icon-canvas-transparent{opacity:0;fill:#F6F6F6;} .icon-vs-out{fill:#F6F6F6;} .icon-vs-fg{fill:#F0EFF1;} .graph-frame-lime{fill:#9ECA00;}</style><path class="icon-canvas-transparent" d="M16 16h-16v-16h16v16z" id="canvas"/><path class="icon-vs-out" d="M4 15c-.97 0-2-.701-2-2v-10c0-1.299 1.03-2 2-2h6.061l3.939 3.556v8.444c0 .97-.701 2-2 2h-8z" id="outline"/><path class="graph-frame-lime" d="M9.641 2h-5.677s-.964 0-.964 1v10c0 1 .965 1 .965 1h8l1.035-1v-8l-3.359-3zm2.359 11h-8v-10h5v3h3v7z" id="iconBg"/><path class="icon-vs-fg" d="M4 3h5v3h3v7h-8v-10z" id="iconFg"/><g id="colorImportance"><path class="graph-frame-lime" d="M7 12c-.512 0-.884-.076-1.116-.227-.232-.151-.349-.421-.349-.81v-.682c0-.349-.179-.523-.535-.523v-.522c.357 0 .535-.181.535-.543v-.633c0-.39.115-.664.345-.822.23-.159.603-.238 1.12-.238v.531c-.376 0-.563.165-.563.494v.605c0 .455-.181.742-.542.861v.011c.362.117.542.408.542.872v.582c0 .186.044.317.132.395.088.079.232.118.431.118v.531zm4-2.241c-.36 0-.54.177-.54.531v.656c0 .4-.114.675-.344.827-.229.151-.601.227-1.116.227v-.531c.198 0 .341-.038.43-.115.09-.077.134-.207.134-.391v-.605c0-.452.18-.736.54-.849v-.012c-.36-.119-.54-.416-.54-.889v-.582c0-.33-.188-.494-.564-.494v-.532c.513 0 .884.079 1.115.237.231.158.346.428.346.811v.651c0 .358.18.537.54.537v.523z"/></g></svg>