<svg xmlns="http://www.w3.org/2000/svg" width="16" height="16"><style type="text/css">.icon-canvas-transparent{opacity:0;fill:#F6F6F6;} .icon-white{fill:#FFFFFF;} .icon-vso-bg{fill:#656565;} .icon-vs-action-blue{fill:#00539C;}</style><path class="icon-canvas-transparent" d="M16 16h-16v-16h16v16z" id="canvas"/><path class="icon-white" d="M16 1v15h-16v-15h1.6l1-1h.816l1.006 1h11.578z" id="outline"/><path class="icon-vso-bg" d="M15 2v13h-14v-10.577l1 1.006v8.571h12v-11h-7.565l-1.006-1h9.571zm-2.012 10v-1h-.988v1h.988zm.012-2h-1.993v-1h1.993v1zm0-2h-1.993v-.455l-.548-.545h2.541v1zm-2.012 4h-.988v-.994l.988-.001v.995zm2.012-6h-3.547l-.453-.45v-.55h4v1zm-10 1h.562l.994 1h-.556v3h3v-.541l.545.548h.455v.993h-5v-5z" id="iconBg"/><path class="icon-white" d="M6.425 3l4.575 4.561v3.437l-3.444.002-5.556-5.577v8.577h12v-11h-7.575zm1.575 9h-5v-5h.562l.994 1h-.556v3h3v-.541l.545.548h.455v.993zm2.988 0h-.988v-.994l.988-.001v.995zm2 0h-.988v-1h.988v1zm.012-2h-1.993v-1h1.993v1zm0-2h-1.993v-.455l-.548-.545h2.541v1zm0-2h-3.547l-.453-.45v-.55h4v1z" id="iconFg"/><g id="colorAction"><path class="icon-vs-action-blue" d="M9 6.999l-2 2-4-3.999 2-2 4 3.999zm-6-5.999l-2 2 1 1 2-2-1-1zm5 9l2-.001v-1.999l-2 2z"/></g></svg>