<svg xmlns="http://www.w3.org/2000/svg" width="16" height="16"><style type="text/css">.icon-white{fill:#FFFFFF;} .icon-vs-action-red{fill:#A1260D;} .icon-vso-bg{fill:#656565;} .icon-canvas-transparent{opacity:0;fill:#F6F6F6;}</style><path class="icon-canvas-transparent" d="M16 16h-16v-16h16v16z" id="canvas"/><path class="icon-white" d="M16 9v7h-9v-7h1.225l-3.114-2.705-2.048 2.249c-.363.367-.81.586-1.284.586-.475 0-.922-.188-1.26-.529-.697-.707-.697-1.813-.001-2.519l2.243-1.975-1.115-1.04c-.718-.727-.716-1.858-.024-2.551.321-.324.787-.512 1.275-.512.502 0 .969.204 1.28.56l1.043 1.392 2.489-1.956h2.957l-3.538 4.09 1.062 1.323c.459-1.398 1.759-2.413 3.31-2.413 1.934 0 3.5 1.566 3.5 3.5 0 .98-.35 1.865-1 2.5h2z" id="outline"/><path class="icon-vso-bg" d="M11.5 4c1.379 0 2.5 1.12 2.5 2.5 0 1.381-1.121 2.5-2.5 2.5-.161 0-.317-.018-.469-.047l-2.024-2.522c.037-1.347 1.136-2.431 2.493-2.431zm1.5 6l-1.5 2-1.5-2h-2v5h7v-5h-2z" id="iconBg"/><path class="icon-vs-action-red" d="M5.834 4.129l2.666-3.129h-.445l-3.023 2.375-1.605-2.152c-.275-.312-.829-.271-1.098 0-.278.278-.334.775 0 1.113l1.921 1.793-3.02 2.656c-.307.31-.307.802 0 1.112.307.309.791.309 1.099 0l2.713-2.939 3.563 3.167h.395l-3.166-3.996z" id="colorAction"/></svg>