<svg xmlns="http://www.w3.org/2000/svg" width="16" height="16"><style type="text/css">.icon-canvas-transparent{opacity:0;fill:#F6F6F6;} .icon-vs-out{fill:#F6F6F6;} .icon-vs-bg{fill:#424242;} .icon-vs-fg{fill:#F0EFF1;} .icon-vs-action-blue{fill:#00539C;}</style><path class="icon-canvas-transparent" d="M16 16h-16v-16h16v16z" id="canvas"/><path class="icon-vs-out" d="M13 5v.303c1.698.438 3 1.346 3 2.697v5c0 1.97-2.768 3-5.5 3s-5.5-1.03-5.5-3v-5h-5l2-2h-2v-4h2l-2-2h6l1 1v-1h3v1h1v-1h3v1h2v3h-2v1h-1z" id="outline"/><path class="icon-vs-bg" d="M9 6l1 1v-3h1v3l1-1v1l-1.5 1.5-1.5-1.5v-1zm4-3h-1v1h1v-1zm-2-1h-1v1h1v-1zm3 0v1h1v-1h-1zm-1-1h-1v1h1v-1zm-4 0h-1v1h1v-1zm4 5.338v1.076l-.025.025c.633.272 1.025.647 1.025 1.061 0 .828-1.566 1.5-3.5 1.5s-3.5-.672-3.5-1.5c0-.414.392-.789 1.025-1.061l-.025-.025v-1.076c-.186.055-.358.119-.523.185l-1.477 1.477v5c0 1.104 2.015 2 4.5 2s4.5-.896 4.5-2v-5c0-.693-.795-1.303-2-1.662z" id="iconBg"/><path class="icon-vs-fg" d="M14 8.5c0 .828-1.566 1.5-3.5 1.5s-3.5-.672-3.5-1.5c0-.414.392-.789 1.025-1.061l2.475 2.475 2.475-2.475c.633.272 1.025.647 1.025 1.061z" id="iconFg"/><path class="icon-vs-action-blue" d="M8 4l-3 3h-2l2-2h-4v-2h4l-2-2h2l3 3z" id="colorAction"/></svg>