<svg xmlns="http://www.w3.org/2000/svg" width="16" height="16"><style type="text/css">.icon_x002D_canvas_x002D_transparent{opacity:0;fill:#F6F6F6;} .icon_x002D_vs_x002D_out{fill:#F6F6F6;} .icon_x002D_vs_x002D_bg{fill:#424242;} .icon_x002D_vs_x002D_fg{fill:#F0EFF1;} .icon_x002D_3d_x002D_gradient{fill:url(#SVGID_1_);} .st0{fill:url(#SVGID_2_);} .st1{fill:url(#SVGID_3_);}</style><radialGradient id="SVGID_1_" cx="0" cy="0" r="1" gradientUnits="userSpaceOnUse"><stop offset="0" stop-color="#B5B5B5"/><stop offset=".715" stop-color="#424242"/></radialGradient><path class="icon_x002D_canvas_x002D_transparent" d="M16 16h-16v-16h16v16z" id="canvas"/><path class="icon_x002D_vs_x002D_out" d="M12.755 11.666v1.061l-4.464 3.273-5.124-3.227v-2.467l-.329-.026-.238-.03-.326-.046-.327-.047c-.915-.172-1.561-.453-1.947-.833v-1.958l4.208-7.268 1.831 3.162.218.358c.977-1.35 2.555-2.238 4.344-2.238 2.962 0 5.372 2.41 5.372 5.372 0 2.195-1.327 4.081-3.218 4.914z" id="outline"/><g id="iconBg"><radialGradient id="SVGID_2_" cx="2.857" cy="4.605" r="4.03" gradientUnits="userSpaceOnUse"><stop offset="0" stop-color="#B5B5B5"/><stop offset=".715" stop-color="#424242"/></radialGradient><path class="st0" d="M3.167 9.294l-.244-.018v.008l-.279-.038-.22-.03-.275-.038c-.948-.179-1.571-.477-1.571-.815l3.63-6.27.966 1.667 1.129 1.856-3.136 1.587v2.091z"/><radialGradient id="SVGID_3_" cx="9.821" cy="5.224" r="5.125" gradientUnits="userSpaceOnUse"><stop offset="0" stop-color="#B5B5B5"/><stop offset=".715" stop-color="#424242"/></radialGradient><path class="st1" d="M14.973 6.752c0 1.627-.899 3.03-2.218 3.783v-3.32l-4.704-2.482-1.638.829c.522-1.832 2.189-3.182 4.188-3.182 2.415 0 4.372 1.957 4.372 4.372z"/><path class="icon_x002D_vs_x002D_bg" d="M11.755 12.221v-4.403l-3.714-1.959-3.874 1.959v4.402l4.081 2.57 3.507-2.569zm-3.76-5.686l3.07 1.512-2.864 1.72-3.095-1.765 2.889-1.467zm-.024 7.373v.016l-.01-.008-.008.008v-.016l-3.167-2.064v-3.319l3.209 1.791v3.574l-.024.018zm3.219-1.963l-2.576 1.856v-3.463l2.576-1.567v3.174z"/></g><path class="icon_x002D_vs_x002D_fg" d="M7.995 6.535l3.07 1.512-2.864 1.72-3.095-1.765 2.889-1.467zm-.024 7.373v.016l-.01-.008-.008.008v-.016l-3.167-2.064v-3.319l3.209 1.791v3.574l-.024.018zm3.219-1.963l-2.576 1.856v-3.463l2.576-1.567v3.174z" id="iconFg"/></svg>