<svg xmlns="http://www.w3.org/2000/svg" width="16" height="16"><style type="text/css">.icon-canvas-transparent{opacity:0;fill:#F6F6F6;} .icon-vs-out{fill:#F6F6F6;} .icon-vs-bg{fill:#424242;} .icon-vs-fg{fill:#F0EFF1;}</style><path class="icon-canvas-transparent" d="M16 16h-16v-16h16v16z" id="canvas"/><path class="icon-vs-out" d="M5 14v-3h-.914l-2.086-2.086v-4.828l2.086-2.086h7.828l2.086 2.086v4.828l-2.086 2.086h-2.379l-2 3h-2.535z" id="outline"/><path class="icon-vs-bg" d="M11.086 4l.914.914v3.172l-.914.914h-2.621l-.297.445-1.168 1.752v-2.197h-2.086l-.914-.914v-3.172l.914-.914h6.172m.414-1h-7l-1.5 1.5v4l1.5 1.5h1.5v3h1l2-3h2.5l1.5-1.5v-4l-1.5-1.5z" id="iconBg"/><path class="icon-vs-fg" d="M11.086 4l.914.914v3.172l-.914.914h-2.621l-.297.445-1.168 1.752v-2.197h-2.086l-.914-.914v-3.172l.914-.914h6.172" id="iconFg"/></svg>