<svg xmlns="http://www.w3.org/2000/svg" width="16" height="16"><style type="text/css">.icon-canvas-transparent{opacity:0;fill:#F6F6F6;} .icon-white{fill:#FFFFFF;} .icon-vso-bg{fill:#656565;}</style><path class="icon-canvas-transparent" d="M16 16h-16v-16h16v16z" id="canvas"/><path class="icon-white" d="M16 5.408v4.634c0 .971-.701 3.029-2 3.029h-4c-.971 0-2-.701-2-2v-1.023c-.002.973-.703 3.023-2 3.023h-4c-.971 0-2-.701-2-2v-6.028c0-1.299 1.029-2 1.999-2h4.376l1.625 2.061v-.061c0-1.299 1.03-2 1.999-2h4.084l1.917 2.365z" id="outline"/><path class="icon-vso-bg" d="M5.313,3.972h-3.35c0,0-0.963,0-0.963,1C1,5.777,1,8.443,1,11 c0,1,0.964,1,0.964,1s3,0,4,0S7,11,7,11V6.108L5.313,3.972z M6,7.972V11H2V5h2v2h2V7.972z M13.313,3.972h-3.35c0,0-0.963,0-0.963,1 C9,5.777,9,8.443,9,11c0,1,0.963,1,0.963,1s3,0,4,0S15,11,15,11V6.108L13.313,3.972z M14,7.972V11h-4V5h2v2h2V7.972z"/><path class="icon-white" d="M4 5v2h2v4h-4v-6h2zm6 0v6h4v-4h-2v-2h-2z" id="iconFg"/></svg>