<svg xmlns="http://www.w3.org/2000/svg" width="16" height="16"><style type="text/css">.icon-canvas-transparent{opacity:0;fill:#F6F6F6;} .icon-vs-out{fill:#F6F6F6;} .icon-vs-bg{fill:#424242;} .icon-vs-fg{fill:#F0EFF1;}</style><path class="icon-canvas-transparent" d="M16 16h-16v-16h16v16z" id="canvas"/><path class="icon-vs-out" d="M16 0v6.979h-3v3.021h-2v3h-2.134l.134.234v.568l-1.465 2.198h-6.07l-1.465-2.197v-.568l2-3.5v-.735h-1v-3h3v-1.978h-1.996v-4.022h13.996z" id="outline"/><path class="icon-vs-bg" d="M8 3h-5v-2h5v2zm-3 3h5v-2h-5v2zm4-5v2h6v-2h-6zm2 5h4v-2h-4v2zm-3 3h4v-2h-4v2zm0 1h-.848l1.143 2h1.705v-2h-2zm-2 0v-2h1v-1h-5v1h1v2l-2 3.5 1 1.5h5l1-1.5-2-3.5zm-2.968 2l.968-1.697v-2.303h1v2.303l.968 1.697h-2.936z" id="iconBg"/><path class="icon-vs-fg" d="M3.032 12l.968-1.697v-2.303h1v2.303l.968 1.697h-2.936z" id="iconFg"/></svg>