<svg xmlns="http://www.w3.org/2000/svg" width="16" height="16"><style type="text/css">.icon-canvas-transparent{opacity:0;fill:#F6F6F6;} .icon-white{fill:#FFFFFF;} .icon-vso-bg{fill:#656565;}</style><path class="icon-canvas-transparent" d="M16 16h-16v-16h16v16z" id="canvas"/><path class="icon-white" d="M12.762 11c.025-.183.477-.535.723-.734.325-.27.62-.691.885-.945.299-.288.559-.6.772-.924.225-.339.4-.712.526-1.114.124-.402.186-.851.186-1.332 0-.553-.094-1.06-.278-1.507-.193-.467-.476-.867-.836-1.185-.35-.309-.773-.544-1.254-.7-.447-.144-.949-.217-1.479-.217-.317 0-.628.022-.909.064-.292.043-.601.113-.869.205-.266.09-.574.204-.82.339-.242.131-.578.284-.812.46l-.597.3v2.086c-.657-.627-1.489-.738-2.016-.738-.438 0-.984.068-.984.204v-3.262h-4v12h15v-3h-3.238z" id="outline"/><path class="icon-vso-bg" d="M15 12.999h-5.961v-.735c0-.3.042-.582.125-.845.084-.263.197-.51.338-.742.141-.231.307-.45.497-.655.189-.205.393-.404.609-.597.216-.191.436-.377.662-.556l.662-.539c.203-.172.389-.341.557-.507.168-.166.312-.337.431-.513.119-.177.212-.363.278-.56.066-.196.1-.41.1-.639 0-.252-.039-.471-.116-.659-.077-.188-.185-.344-.324-.47-.14-.126-.304-.221-.494-.285-.19-.065-.398-.097-.623-.097-.389 0-.784.09-1.187.271-.401.181-.788.453-1.159.815v-1.477c.194-.146.39-.272.589-.381.198-.108.404-.199.616-.271.212-.073.435-.127.669-.162.234-.035.483-.053.748-.053.429 0 .817.057 1.166.169.349.113.647.278.894.497.247.218.439.491.573.818.135.327.202.702.202 1.126 0 .384-.048.73-.143 1.037-.096.307-.229.593-.404.857-.175.265-.386.517-.633.755s-.523.483-.828.735l-.765.606c-.254.196-.482.389-.686.576-.203.188-.368.375-.494.563-.125.188-.188.377-.188.566v.033h4.289v1.319zm-6.972.001h-1.537v-3.71c0-1.342-.449-2.013-1.345-2.013-.451 0-.831.194-1.14.583-.308.388-.463.885-.463 1.49v3.65h-1.543v-10.042h1.543v4.385h.027c.512-.856 1.245-1.285 2.199-1.285 1.506 0 2.259.921 2.259 2.763v4.179z" id="iconBg"/></svg>