<svg xmlns="http://www.w3.org/2000/svg" width="16" height="16"><style type="text/css">.icon-canvas-transparent{opacity:0;fill:#F6F6F6;} .icon-vs-out{fill:#F6F6F6;} .icon-vs-bg{fill:#424242;} .icon-vs-fg{fill:#F0EFF1;}</style><path class="icon-canvas-transparent" d="M16 16h-16v-16h16v16z" id="canvas"/><path class="icon-vs-out" d="M16 13h-16v-10h16v10z" id="outline"/><path class="icon-vs-fg" d="M2 5v6h12v-6h-12zm4.5 4.8l-.6.6-2.4-2.4 2.4-2.4.6.6-1.8 1.8 1.8 1.8zm3.6.6l-.6-.6 1.8-1.8-1.8-1.8.6-.6 2.4 2.4-2.4 2.4z" id="iconFg"/><path class="icon-vs-bg" d="M1.007 4v8h14v-8h-14zm13 7h-12v-6h12v6zm-4.507-1.2l1.8-1.8-1.8-1.8.6-.6 2.4 2.4-2.4 2.4-.6-.6zm-3.6.6l-2.4-2.4 2.4-2.4.6.6-1.8 1.8 1.8 1.8-.6.6z" id="iconBg"/></svg>