<svg xmlns="http://www.w3.org/2000/svg" width="16" height="16"><style type="text/css">.icon-canvas-transparent{opacity:0;fill:#F6F6F6;} .icon-vs-out{fill:#F6F6F6;} .icon-vs-bg{fill:#424242;} .icon-vs-action-blue{fill:#00539C;}</style><path class="icon-canvas-transparent" d="M16 16h-16v-16h16v16z" id="canvas"/><path class="icon-vs-out" d="M16 0v16h-4v-4h-8v4h-4v-16h4v4h8v-4h4z" id="outline"/><path class="icon-vs-bg" d="M15 9v6h-2v-4l2-2zm0-2v-6h-2v4l2 2zm-12-2v-4h-2v6l2-2zm-2 4v6h2v-4l-2-2z" id="iconBg"/><path class="icon-vs-action-blue" d="M11 9l-2 2h2l3-3-3-3h-2l2 2h-6l2-2h-2l-3 3 3 3h2l-2-2h6z" id="iconFg"/></svg>