<svg xmlns="http://www.w3.org/2000/svg" width="16" height="16"><style type="text/css">.icon-canvas-transparent{opacity:0;fill:#F6F6F6;} .icon-vs-out{fill:#F6F6F6;} .icon-vs-bg{fill:#424242;} .icon-vs-fg{fill:#F0EFF1;} .icon-vs-action-red{fill:#A1260D;}</style><path class="icon-canvas-transparent" d="M16 16h-16v-16h16v16z" id="canvas"/><path class="icon-vs-out" d="M16 4v12h-14v-8.074c-.143.044-.29.075-.44.075-.439 0-.862-.194-1.16-.532-.249-.282-.368-.628-.4-.979v-.307c.032-.351.153-.697.403-.977l1.608-1.591-.762-.798c-.587-.667-.586-1.66-.025-2.292.295-.332.723-.521 1.176-.521.471 0 .902.207 1.185.569l.613.919 1.691-1.492h2.728l-2.777 3.656.243.344h9.917z" id="outline"/><path class="icon-vs-bg" d="M15 5v10h-12v-7.869l1.08-1.313.183.182h-.263v8h10v-8h-6.505l-.706-1h8.211zm-6.576 7.266c-.087.139-.237.227-.403.234-.156.016-.322-.068-.42-.2l-1.154-1.538-1.447 1.445v.793h8v-1.34l-1.972-2.761-2.604 3.367zm-3.424-1.473l1.146-1.146c.103-.103.237-.154.39-.145.145.01.277.082.363.198l1.063 1.417 2.614-3.382c.089-.142.241-.229.408-.235.188.003.326.074.423.209l1.593 2.23v-2.939h-4.799l.704.998h-2.64l-1-.998h-.265v3.793z" id="iconBg"/><path class="icon-vs-fg" d="M7.495 6l.706 1h4.799v2.939l-1.593-2.23c-.097-.135-.235-.207-.423-.209-.167.005-.319.093-.408.235l-2.614 3.382-1.063-1.417c-.086-.116-.218-.188-.363-.198-.152-.01-.287.042-.39.145l-1.146 1.146v-3.793h.265l-1.002-1h-.263v8h10v-8h-6.505zm5.505 7h-8v-.793l1.446-1.445 1.155 1.538c.098.132.264.216.42.2.166-.008.316-.096.403-.234l2.604-3.367 1.972 2.761v1.34z" id="iconFg"/><path class="icon-vs-action-red" d="M6.976 6.998h-.297l-2.672-2.665-2.035 2.474c-.23.259-.594.259-.822 0-.231-.263-.231-.677 0-.937l2.264-2.236-1.442-1.508c-.25-.285-.208-.703 0-.937.203-.228.619-.263.824 0l1.204 1.811 2.267-1.999h.334l-2 2.633 2.375 3.364z" id="colorAction"/></svg>