<svg xmlns="http://www.w3.org/2000/svg" width="16" height="16"><style type="text/css">.icon-canvas-transparent{opacity:0;fill:#F6F6F6;} .icon-white{fill:#FFFFFF;} .icon-vso-bg{fill:#656565;}</style><path class="icon-canvas-transparent" d="M16 16h-16v-16h16v16z" id="canvas"/><path class="icon-white" d="M16 6v-6h-6v3h-4v-3h-6v6h2v4h-2v6h6v-3h4v3h6v-6h-2v-4h2z" id="outline"/><path class="icon-vso-bg" d="M5 15h-4v-4h1v3h3v1zm9-4v3h-3v1h4v-4h-1zm-9-10h-4v4h1v-3h3v-1zm6 0v1h3v3h1v-4h-4zm2 3v8h-10v-8h10zm-1 1h-8v6h8v-6z" id="iconBg"/><path class="icon-white" d="M12 5h-8v6h8v-6z" id="iconFg"/></svg>