<svg xmlns="http://www.w3.org/2000/svg" width="16" height="16"><style type="text/css">.icon-canvas-transparent{opacity:0;fill:#F6F6F6;} .icon-vs-out{fill:#F6F6F6;} .icon-vs-bg{fill:#424242;} .icon-vs-fg{fill:#F0EFF1;} .icon-vs-action-blue{fill:#00539C;}</style><path class="icon-canvas-transparent" d="M16 16h-16v-16h16v16z" id="canvas"/><path class="icon-vs-out" d="M16 10.209v.453l-1.279 2.338h-6.721v3h-7v-9h4.542l1.458-2.291v-.709h-1v-3h7v3h-1v.709l4 5.5z" id="outline"/><path class="icon-vs-bg" d="M14.5 10.5l-.5 1.5h-6v-4h3.724l-1.567-2.463-.157-.246v-2.291h-1v2.291l-.156.246-.844 1.326-.241.137h-1.077l.682-1 .636-1v-2h-1v-1h5v1h-1v2l3.5 5.5z" id="iconBg"/><path class="icon-vs-fg" d="M8 6.863l.844-1.326.156-.246v-2.291h1v2.291l.156.246 1.568 2.463h-3.724v-1.137zm-4 6.137h-1v1h1v-1zm2 0h-1v1h1v-1zm0-4h-3v3h3v-3z" id="iconFg"/><path class="icon-vs-action-blue" d="M2 8v7h5v-7h-5zm2 6h-1v-1h1v1zm2 0h-1v-1h1v1zm0-2h-3v-3h3v3z" id="colorImportance"/></svg>