<svg xmlns="http://www.w3.org/2000/svg" width="16" height="16"><style type="text/css">.icon-canvas-transparent{opacity:0;fill:#F6F6F6;} .icon-vs-out{fill:#F6F6F6;} .icon-vs-bg{fill:#424242;} .icon-vs-action-green{fill:#388A34;}</style><path class="icon-canvas-transparent" d="M16 16h-16v-16h16v16z" id="canvas"/><path class="icon-vs-out" d="M16 11v4h-1c-.618 0-1.32-.144-2-.412v1.412h-4v-5l-2 2v-5.433l-4.879 4.879-2.121-2.121 3.424-3.424c-2.625-.455-3.361-2.341-3.361-3.401 0-2.467 2.069-3.443 3.46-3.499h.002c1.679 0 2.817.688 3.534 1.673.712-.986 1.843-1.674 3.504-1.674 1.432.057 3.5 1.033 3.5 3.5 0 .52-.181 1.239-.672 1.891l1.609 1.609v4h1z" id="outline"/><path class="icon-vs-bg" d="M7.506 6.494l1.494-1.494h-.937v-.634c.001-.282.095-2.366 2.333-2.366 0 0 1.666.061 1.666 1.5 0 0-.004.197-.116.446l.72.72c.392-.596.397-1.166.397-1.166 0-2.4-2.5-2.5-2.5-2.5-3.034 0-3.439 2.83-3.492 3.724l-.018-.019c-.058-.914-.479-3.705-3.49-3.705 0 0-2.5.1-2.5 2.5 0 0 0 2.5 3.6 2.5h1.076l-4.324 4.325.707.707 4.961-4.961.423.423zm-1.443-1.494h-1.6c-2.4 0-2.4-1.5-2.4-1.5 0-1.439 1.667-1.5 1.667-1.5 2.237 0 2.331 2.084 2.333 2.366v.634z" id="iconBg"/><path class="icon-vs-action-green" d="M15 12v2c-.97 0-2.167-.288-3-1v2h-2v-7l-2 2v-2l3-3 3 3v2l-2-2v2c0 1.153 1.898 2 3 2z" id="notificationBg"/></svg>