<?xml version="1.0" encoding="utf-8"?>
<!-- Generator: Adobe Illustrator 18.1.1, SVG Export Plug-In . SVG Version: 6.00 Build 0)  -->
<!DOCTYPE svg PUBLIC "-//W3C//DTD SVG 1.1//EN" "http://www.w3.org/Graphics/SVG/1.1/DTD/svg11.dtd">
<svg version="1.1" xmlns="http://www.w3.org/2000/svg" xmlns:xlink="http://www.w3.org/1999/xlink" x="0px" y="0px" width="18px"
	 height="18px" viewBox="0 0 18 18" style="enable-background:new 0 0 18 18;" xml:space="preserve">
<style type="text/css">
	.icon-canvas-transparent{opacity:0;fill:#F6F6F6;}
	.icon-f12-event-mark{fill:#A51F00;}
</style>
<g id="canvas">
	<path class="icon-canvas-transparent" d="M18,18H0V0h18V18z"/>
</g>
<g id="iconBg">
	<path class="icon-f12-event-mark" d="M9.5,0C6.463,0,4,2.463,4,5.5c0,2.273,1.38,4.224,3.347,5.061L9,18h1
		l1.653-7.439C13.62,9.724,15,7.773,15,5.5C15,2.463,12.537,0,9.5,0z M9.5,8C8.121,8,7,6.879,7,5.5S8.121,3,9.5,3
		C10.879,3,12,4.121,12,5.5S10.879,8,9.5,8z"/>
</g>
</svg>
