<svg xmlns="http://www.w3.org/2000/svg" width="16" height="16"><style type="text/css">.icon-canvas-transparent{opacity:0;fill:#F6F6F6;} .icon-vs-out{fill:#F6F6F6;} .icon-vs-bg{fill:#424242;} .icon-vs-fg{fill:#F0EFF1;} .icon-vs-action-green{fill:#388A34;}</style><path class="icon-canvas-transparent" d="M16 16h-16v-16h16v16z" id="canvas"/><path class="icon-vs-out" d="M14 11.435v.565h2v3h-2v1h-6v-1h-2v-3h2v-.565c-1.254-.536-2-1.406-2-2.435v-1h-4v-2h-2v-4h2v-2h4v2h1.251l.253-.179c.927-.529 2.168-.821 3.496-.821s2.569.292 3.496.821c.97.554 1.504 1.328 1.504 2.179v5c0 1.029-.746 1.899-2 2.435z" id="outline"/><path class="icon-vs-bg" d="M12 10.93v1.07h1v1h2v1h-2v1h-4v-1h-2v-1h2v-1h1v-1.07c-1.722-.224-3-.999-3-1.93v-3h1v-1.503c.505.423 1.576.829 3 .829 1.999 0 3.325-.798 3.325-1.325s-1.326-1.326-3.325-1.326c-1.424 0-2.495.405-3 .829v-.815c.733-.418 1.799-.689 3-.689s2.267.271 3 .689c.615.352 1 .807 1 1.311v5c0 .931-1.278 1.706-3 1.93z" id="iconBg"/><path class="icon-vs-fg" d="M14.325 4c0 .527-1.326 1.325-3.325 1.325-1.424 0-2.495-.405-3-.829v-.993c.505-.423 1.576-.829 3-.829 1.999.001 3.325.799 3.325 1.326z" id="iconFg"/><path class="icon-vs-action-green" d="M7 5h-2v2h-2v-2h-2v-2h2v-2h2v2h2v2z" id="colorAction"/></svg>