<svg xmlns="http://www.w3.org/2000/svg" width="16" height="16"><style type="text/css">.icon-canvas-transparent{opacity:0;fill:#F6F6F6;} .icon-vs-out{fill:#F6F6F6;} .icon-vs-fg{fill:#F0EFF1;} .icon-folder{fill:#DCB67A;} .icon-vs-action-blue{fill:#00539C;}</style><path class="icon-canvas-transparent" d="M16 16h-16v-16h16v16z" id="canvas"/><path class="icon-vs-out" d="M13.586 16l-2.586-2.586v.985c0 .6-.278 1.104-.764 1.382-.331.191-.666.219-.836.219h-7.745c-.832 0-1.655-.55-1.655-1.601v-4.726c0-1.028.825-1.628 1.601-1.671l1.795-.002 1.007-2h.358l.239-.293v-2.034c0-1.028.825-1.628 1.601-1.671l1.795-.002 1.007-2h6.597v8.399c0 .6-.278 1.104-.764 1.382-.331.191-.666.219-.836.219h-1.679l-.072.235 3.351 3.351v.828l-1.586 1.586h-.828z" id="outline"/><path class="icon-folder" d="M10 12.722v1.678c0 .636-.617.6-.617.6h-7.727s-.656.036-.656-.601v-4.726c0-.637.656-.673.656-.673h2.344v.025l.044-.088c.224 2.274 2.124 4.063 4.456 4.063.516 0 1.019-.106 1.5-.278zm-4-7.96v-1.089c0-.637.656-.673.656-.673h2.344v.025l1.019-2.025h4.981v7.399c0 .637-.617.601-.617.601h-1.433c.019-.167.05-.331.05-.5 0-2.481-2.019-4.5-4.5-4.5-.925 0-1.784.282-2.5.762zm4.519-1.762h3.481v-1h-2.981l-.5 1z" id="iconBg"/><path class="icon-vs-fg" d="M11 8.5c0 1.381-1.119 2.5-2.5 2.5s-2.5-1.119-2.5-2.5 1.119-2.5 2.5-2.5 2.5 1.119 2.5 2.5zm.03-6.5l-.5 1h3.47v-1h-2.97z" id="iconFg"/><path class="icon-vs-action-blue" d="M11.422 10.422c.363-.553.578-1.211.578-1.922 0-1.933-1.567-3.5-3.5-3.5s-3.5 1.567-3.5 3.5 1.567 3.5 3.5 3.5c.711 0 1.369-.215 1.922-.578l3.578 3.578 1-1-3.578-3.578zm-2.922.578c-1.381 0-2.5-1.119-2.5-2.5s1.119-2.5 2.5-2.5 2.5 1.119 2.5 2.5-1.119 2.5-2.5 2.5z" id="colorAction"/></svg>