<svg xmlns="http://www.w3.org/2000/svg" width="16" height="16"><style type="text/css">.icon-canvas-transparent{opacity:0;fill:#F6F6F6;} .icon-vs-out{fill:#F6F6F6;} .icon-vs-blue{fill:#1BA1E2;} .graph-frame-lime{fill:#9ECA00;}</style><rect class="icon-canvas-transparent" width="16" height="16" id="canvas"/><path class="icon-vs-out" d="M16 6.586l-4-4-2.414 2.414 1.038 1.038c-.447.086-.836.323-1.124.653-.367-.42-.9-.691-1.5-.691s-1.133.271-1.5.691c-.288-.33-.677-.567-1.124-.653l1.038-1.038-2.414-2.414-4 4v2.828l4 4 2.414-2.414-1.038-1.038c.447-.086.836-.323 1.124-.653.367.42.9.691 1.5.691s1.133-.271 1.5-.691c.288.33.677.568 1.124.653l-1.038 1.038 2.414 2.414 4-4v-2.828z" id="outline"/><g id="iconBg"><circle class="graph-frame-lime" cx="8" cy="8" r="1"/><circle class="graph-frame-lime" cx="5" cy="8" r="1"/><circle class="graph-frame-lime" cx="11" cy="8" r="1"/><polygon class="icon-vs-blue" points="4,4 0,8 4,12 5,11 2,8 5,5"/><polygon class="icon-vs-blue" points="12,4 11,5 14,8 11,11 12,12 16,8"/></g></svg>