<svg xmlns="http://www.w3.org/2000/svg" width="16" height="16"><style type="text/css">.icon-canvas-transparent{opacity:0;fill:#F6F6F6;} .icon-vs-out{fill:#F6F6F6;} .icon-vs-bg{fill:#424242;}</style><rect class="icon-canvas-transparent" width="16" height="16" id="canvas"/><path class="icon-vs-out" d="M16 6.586l-4-4-2.414 2.414 1.038 1.038c-.447.086-.836.323-1.124.653-.367-.42-.9-.691-1.5-.691s-1.133.271-1.5.691c-.288-.33-.677-.567-1.124-.653l1.038-1.038-2.414-2.414-4 4v2.828l4 4 2.414-2.414-1.038-1.038c.447-.086.836-.323 1.124-.653.367.42.9.691 1.5.691s1.133-.271 1.5-.691c.288.33.677.568 1.124.653l-1.038 1.038 2.414 2.414 4-4v-2.828z" id="outline"/><path class="icon-vs-bg" d="M9 8c0 .552-.448 1-1 1s-1-.448-1-1 .448-1 1-1 1 .448 1 1zm-4-1c-.552 0-1 .448-1 1s.448 1 1 1 1-.448 1-1-.448-1-1-1zm6 0c-.552 0-1 .448-1 1s.448 1 1 1 1-.448 1-1-.448-1-1-1zm-7-3l-4 4 4 4 1-1-3-3 3-3-1-1zm8 0l-1 1 3 3-3 3 1 1 4-4-4-4z" id="iconBg"/></svg>