<svg xmlns="http://www.w3.org/2000/svg" width="16" height="16"><style type="text/css">.icon-canvas-transparent{opacity:0;fill:#F6F6F6;} .icon-white{fill:#FFFFFF;} .icon-vso-bg{fill:#656565;}</style><path class="icon-canvas-transparent" d="M16 16h-16v-16h16v16z" id="canvas"/><path class="icon-vso-bg" d="M16 16h-16v-16h16v16z" id="iconBg"/><path class="icon-white" d="M1.6 2.91c0-1.044.846-1.891 1.891-1.891 1.043 0 1.891.847 1.891 1.891s-.848 1.89-1.891 1.89c-1.045 0-1.891-.846-1.891-1.89m8.825 0c0 1.044.846 1.89 1.89 1.89 1.043 0 1.891-.846 1.891-1.89s-.848-1.891-1.891-1.891c-1.043 0-1.89.847-1.89 1.891m-.825 7.49l-1.483 2.131-1.717-2.131h-2.4v4.8h8v-4.8h-2.4zm-4.8-3.2c0-.96.434-1.813 1.106-2.4h-1.106l-1.2 1.6-1.2-1.6h-1.6v4h4.445c-.276-.473-.445-1.015-.445-1.6zm8.825-2.4l-1.2 1.6-1.2-1.6h-1.131c.672.587 1.106 1.44 1.106 2.4 0 .585-.169 1.127-.445 1.6h4.47v-4h-1.6zm-5.625 0c-1.325 0-2.4 1.075-2.4 2.4s1.075 2.4 2.4 2.4 2.4-1.075 2.4-2.4-1.075-2.4-2.4-2.4z" id="iconFg"/></svg>