<svg xmlns="http://www.w3.org/2000/svg" width="20" height="20"><style type="text/css">.icon-canvas-transparent{opacity:0;fill:#F6F6F6;} .icon-white{fill:#FFFFFF;} .icon-vso-bg{fill:#656565;}</style><path class="icon-canvas-transparent" d="M20 20h-20v-20h20v20z" id="canvas"/><path class="icon-vso-bg" d="M20 20h-20v-20h20v20z" id="iconBg"/><path class="icon-white" d="M2 3.637c0-1.305 1.058-2.364 2.363-2.364 1.303 0 2.363 1.059 2.363 2.364s-1.059 2.363-2.363 2.363c-1.305 0-2.363-1.058-2.363-2.363m11.032 0c0 1.305 1.058 2.363 2.363 2.363 1.303 0 2.363-1.058 2.363-2.363s-1.06-2.364-2.363-2.364c-1.305.001-2.363 1.059-2.363 2.364m-1.032 9.363l-1.854 2.663-2.146-2.663h-3v6h10v-6h-3zm-6-4c0-1.2.542-2.266 1.382-3h-1.382l-1.5 2-1.5-2h-2v5h5.556c-.344-.591-.556-1.268-.556-2zm11.032-3l-1.5 2-1.5-2h-1.414c.84.734 1.382 1.8 1.382 3 0 .732-.212 1.409-.556 2h5.588v-5h-2zm-7.032 0c-1.657 0-3 1.343-3 3s1.343 3 3 3 3-1.343 3-3-1.343-3-3-3z" id="iconFg"/></svg>