<svg xmlns="http://www.w3.org/2000/svg" width="16" height="16"><style type="text/css">.icon-canvas-transparent{opacity:0;fill:#F6F6F6;} .icon-vs-out{fill:#F6F6F6;} .icon-vs-bg{fill:#424242;} .icon-vs-fg{fill:#F0EFF1;}</style><path class="icon-canvas-transparent" d="M16 16h-16v-16h16v16z" id="canvas"/><path class="icon-vs-out" d="M16.017 9.279c0 1.888-1.403 3.465-3.264 3.668-.042.014-.18.027-.314.027h-8.565c-2.143-.037-3.871-1.803-3.871-3.938 0-1.608.944-3.013 2.364-3.621.49-1.986 2.25-3.415 4.335-3.415 1.142 0 2.209.426 3.024 1.188.296-.077.602-.117.909-.117 1.777 0 3.258 1.303 3.555 3.012 1.115.653 1.827 1.866 1.827 3.196z" id="outline"/><path class="icon-vs-bg" d="M12.439 11.975l.206-.021c1.342-.147 2.372-1.293 2.372-2.674 0-1.17-.74-2.168-1.771-2.539v-.025c0-1.457-1.171-2.643-2.609-2.643-.427 0-.833.102-1.193.29-.637-.839-1.632-1.363-2.742-1.363-1.797 0-3.279 1.394-3.452 3.176-1.285.299-2.247 1.468-2.247 2.861 0 1.594 1.28 2.91 2.871 2.938h8.565zm-10.436-2.95c0-1.068.85-1.934 1.897-1.934.146 0 .285.02.42.052-.051-.201-.087-.407-.087-.624 0-1.392 1.106-2.519 2.469-2.519 1.233 0 2.246.922 2.434 2.125.233-.616.813-1.057 1.5-1.057.889 0 1.609.734 1.609 1.641 0 .34-.101.656-.273.919.123-.031.252-.052.387-.052.916 0 1.658.758 1.658 1.69 0 .905-.699 1.639-1.578 1.684v.008h-8.565v-.002c-1.035-.016-1.871-.871-1.871-1.931z" id="iconBg"/><path class="icon-vs-fg" d="M3.874 10.956c-1.035-.016-1.871-.871-1.871-1.931 0-1.068.85-1.934 1.897-1.934.146 0 .285.02.42.052-.051-.201-.087-.407-.087-.624 0-1.392 1.106-2.519 2.469-2.519 1.233 0 2.246.922 2.434 2.125.233-.616.813-1.057 1.5-1.057.889 0 1.609.734 1.609 1.641 0 .34-.101.656-.273.919.123-.031.252-.052.387-.052.916 0 1.658.758 1.658 1.69 0 .905-.699 1.639-1.578 1.684v.008h-8.565v-.002z" id="iconFg"/></svg>