<svg xmlns="http://www.w3.org/2000/svg" width="16" height="16"><style type="text/css">.icon-canvas-transparent{opacity:0;fill:#F6F6F6;} .icon-vs-out{fill:#F6F6F6;} .icon-vs-bg{fill:#424242;} .icon-vs-fg{fill:#F0EFF1;} .icon-vs-action-blue{fill:#00539C;}</style><path class="icon-canvas-transparent" d="M16 16h-16v-16h16v16z" id="canvas"/><path class="icon-vs-out" d="M16 15.2l-.3.8h-10.4l-.9-2.6 3.6-5.7v-.7h-1v-1.8l-4 2.7v.1h-3v-8h3v.1l4 2.7v-2.8h3v4h4v3h-1v.7l3 4.7v2.8z" id="outline"/><path class="icon-vs-bg" d="M15.5 13.5l-.5 1.5h-9l-.5-1.5 3.5-5.5h1v.3l-.2.2-1.5 2.5h4.4l-1.6-2.5-.1-.2v-2.3h-1v-1h3v1h-1v2l3.5 5.5z" id="iconBg"/><path class="icon-vs-fg" d="M8.3 11l1.6-2.5.1-.2v-2.3h1v2.3l.2.2 1.6 2.5h-4.5z" id="iconFg"/><path class="icon-vs-action-blue" d="M7 4l-3 2v-4l3 2zm-6 3h1v-6h-1v6zm8-6h-1v6h1v-6z" id="colorAction"/></svg>