<svg xmlns="http://www.w3.org/2000/svg" width="16" height="16"><style type="text/css">.icon-canvas-transparent{opacity:0;fill:#F6F6F6;} .icon-vs-out{fill:#F6F6F6;} .icon-vs-fg{fill:#F0EFF1;} .icon-vs-bg{fill:#424242;}</style><path class="icon-canvas-transparent" d="M16 16h-16v-16h16v16z" id="canvas"/><path class="icon-vs-out" d="M16 15h-8.703c-.77.616-1.734 1-2.797 1s-2.027-.384-2.797-1h-1.703v-14h1.703c.77-.616 1.734-1 2.797-1s2.027.384 2.797 1h8.703v14z" id="outline"/><path class="icon-vs-bg" d="M15 2v12h-6.76c.205-.307.358-.646.484-1h5.276v-8h-5.05c.018-.167.05-.329.05-.5 0-.925-.281-1.785-.76-2.5h6.76zm-7 9.5c0 1.933-1.567 3.5-3.5 3.5s-3.5-1.567-3.5-3.5 1.567-3.5 3.5-3.5 3.5 1.567 3.5 3.5zm-2.793 0l1.146-1.146-.707-.708-1.146 1.147-1.146-1.147-.707.707 1.146 1.147-1.146 1.146.707.707 1.146-1.146 1.146 1.147.707-.707-1.146-1.147zm2.793-7c0 1.93-1.57 3.5-3.5 3.5s-3.5-1.57-3.5-3.5 1.57-3.5 3.5-3.5 3.5 1.57 3.5 3.5zm-1.25-2.5h-1.125l-1.687 3.75-.563-.75h-1.125l1.125 2h1.125l2.25-5z" id="iconBg"/><path class="icon-vs-fg" d="M6.354 10.354l-1.147 1.146 1.146 1.146-.707.707-1.146-1.146-1.146 1.147-.707-.707 1.146-1.147-1.146-1.146.707-.707 1.146 1.146 1.146-1.147.708.708zm2.596-5.354c-.137 1.215-.747 2.274-1.653 3 1.03.825 1.703 2.077 1.703 3.5 0 .529-.108 1.028-.275 1.5h5.275v-8h-5.05zm-2.2-3h-1.125l-1.687 3.75-.563-.75h-1.125l1.125 2h1.125l2.25-5z" id="iconFg"/></svg>