<svg xmlns="http://www.w3.org/2000/svg" width="32" height="96"><style type="text/css">.icon-canvas-transparent{opacity:0;fill:#F6F6F6;} .icon-f12-grey-primary{fill:#555555;} .icon-f12-blue-hover{fill:#2279BF;} .icon-f12-ltgrey-disabled{fill:#ABABAC;} .icon-f12-error-negative{fill:#ED1123;}</style><path class="icon-canvas-transparent" d="M32 96h-32v-96h32v96z" id="canvas"/><g id="iconBg"><path class="icon-f12-grey-primary" d="M32 12.087c0 3.589-4.018 6.499-8.975 6.499-1.845 0-3.502-.408-4.878-1.102l-4.007-4.876c-.036-.173-.07-.346-.09-.522-.644-5.576 5.195-7.471 5.195-7.471.686-.155 1.469-.219 2.399-.123.667.068 2.696.713 3.238 1.255 0 2.168-.808 6.03 4.332 6.03.995 0 1.915-.253 2.671-.679.069.323.115.652.115.989zm-14.785 11.69c-4.465 0-4.441-2.914-4.358-5.101l-2.168-1.938c-.429-.13-.817-.223-1.044-.246-.93-.095-1.714-.032-2.399.124 0 0-.784.257-1.743.852l-1.133 1.359c-.365.405-.805.702-1.286.899-.751 1.101-1.245 2.529-1.033 4.361.412 3.566 4.019 6.499 8.975 6.499 4.957 0 8.975-2.91 8.975-6.499 0-.337-.046-.666-.115-.989-.756.427-1.677.679-2.671.679z"/><path class="icon-f12-error-negative" d="M1.718 6.036c-.712-.701-.594-1.725 0-2.301.574-.561 1.756-.646 2.341 0l3.974 4.769 5.841-5.221h.844l-5.519 6.623 6.745 8.094h-.844l-7.248-6.479-5.021 6.025c-.585.646-1.767.56-2.341 0-.594-.575-.713-1.601 0-2.299l5.765-5.154-4.537-4.057z"/><path class="icon-f12-blue-hover" d="M32 44.087c0 3.589-4.018 6.499-8.975 6.499-1.845 0-3.502-.407-4.878-1.102l-4.007-4.876c-.036-.173-.07-.346-.09-.522-.644-5.576 5.195-7.471 5.195-7.471.686-.155 1.469-.219 2.399-.124.667.068 2.696.713 3.238 1.255 0 2.169-.808 6.03 4.332 6.03.995 0 1.915-.253 2.671-.679.069.324.115.653.115.99zm-14.785 11.69c-4.465 0-4.441-2.914-4.358-5.101l-2.168-1.938c-.429-.13-.817-.223-1.044-.246-.93-.095-1.714-.032-2.399.124 0 0-.784.257-1.743.852l-1.133 1.359c-.365.405-.805.702-1.286.899-.751 1.101-1.245 2.529-1.033 4.361.412 3.566 4.019 6.499 8.975 6.499 4.957 0 8.975-2.91 8.975-6.499 0-.337-.046-.666-.115-.989-.756.427-1.677.679-2.671.679z"/><path class="icon-f12-error-negative" d="M1.718 38.036c-.712-.701-.594-1.725 0-2.301.574-.561 1.756-.646 2.341 0l3.974 4.769 5.841-5.221h.844l-5.519 6.624 6.745 8.093h-.844l-7.248-6.479-5.021 6.025c-.585.646-1.767.561-2.341 0-.594-.575-.713-1.601 0-2.299l5.765-5.154-4.537-4.057z"/><path class="icon-f12-ltgrey-disabled" d="M32 76.087c0 3.589-4.018 6.499-8.975 6.499-1.845 0-3.502-.408-4.878-1.102l-4.007-4.876c-.036-.173-.07-.346-.09-.522-.644-5.576 5.195-7.471 5.195-7.471.686-.155 1.469-.219 2.399-.123.667.068 2.696.713 3.238 1.255 0 2.169-.808 6.03 4.332 6.03.995 0 1.915-.253 2.671-.679.069.323.115.652.115.989zm-14.785 11.69c-4.465 0-4.441-2.914-4.358-5.101l-2.168-1.938c-.429-.13-.817-.223-1.044-.246-.93-.095-1.714-.032-2.399.123 0 0-.784.257-1.743.852l-1.133 1.359c-.365.405-.805.702-1.286.899-.751 1.101-1.245 2.529-1.033 4.361.412 3.566 4.019 6.499 8.975 6.499 4.957 0 8.975-2.91 8.975-6.499 0-.337-.046-.665-.115-.989-.756.428-1.677.68-2.671.68z"/><path class="icon-f12-ltgrey-disabled" d="M6.256 74.094l-5.765 5.154c-.713.698-.594 1.724 0 2.299.574.561 1.756.646 2.341 0l5.021-6.025 7.247 6.478h.844l-6.745-8.094 5.519-6.623h-.844l-5.841 5.221-3.974-4.769c-.585-.646-1.767-.561-2.341 0-.594.576-.712 1.6 0 2.301l4.538 4.058z"/></g></svg>