<svg xmlns="http://www.w3.org/2000/svg" width="16" height="16"><style type="text/css">.icon-canvas-transparent{opacity:0;fill:#F6F6F6;} .icon-vso-bg{fill:#656565;} .icon-white{fill:#FFFFFF;}</style><path class="icon-canvas-transparent" d="M16 16h-16v-16h16v16z" id="canvas"/><path class="icon-white" d="M13.859 3h1.141v-3h-13v3h1.019c.158 2.05 1.283 3.901 3.039 4.998-1.753 1.095-2.88 2.955-3.038 5.002h-1.02v3h13v-3h-1.141c-.158-2.047-1.285-3.907-3.039-5.002 1.756-1.097 2.881-2.948 3.039-4.998z" id="outline"/><path class="icon-vso-bg" d="M14 1h-11v1h1.036c-.015.166-.036.33-.036.5 0 2.106 1.19 3.923 2.929 4.846l-.007.013c.172.156.305.324.305.656 0 .27-.184.501-.38.678-1.695.936-2.847 2.733-2.847 4.807 0 .17.021.334.036.5h-1.036v1h11v-1h-1.157c.016-.166.036-.33.036-.5 0-2.074-1.152-3.871-2.847-4.807-.196-.177-.38-.408-.38-.678 0-.332.133-.5.305-.656l-.007-.013c1.738-.923 2.929-2.739 2.929-4.846 0-.17-.02-.334-.036-.5h1.157v-1zm-2.121 1.5c0 1.595-.835 2.987-2.086 3.787l-.271.239-.109.096-.003.003v.001c-.351.36-.568.849-.568 1.39 0 .632.297 1.189.753 1.556l.006.038c1.355.775 2.278 2.218 2.278 3.891 0 .172-.027.335-.049.5h-1.035c-.35-.841-1.266-1.656-2.352-1.656-1.085 0-2.001.815-2.351 1.656h-1.043c-.022-.166-.049-.329-.049-.501 0-1.673.924-3.115 2.278-3.891l.006-.038c.456-.366.753-.924.753-1.555 0-.541-.218-1.029-.568-1.39v-.001l-.003-.003-.11-.096-.27-.239c-1.251-.8-2.086-2.192-2.086-3.787 0-.171.027-.335.049-.5h6.781c.022.165.049.329.049.5zm-5.371 1.5h4.287c-.319.879-1.154 1.51-2.144 1.51s-1.824-.631-2.143-1.51z" id="iconBg"/></svg>