<svg xmlns="http://www.w3.org/2000/svg" width="16" height="16"><style type="text/css">.icon-canvas-transparent{opacity:0;fill:#F6F6F6;} .icon-vs-out{fill:#F6F6F6;} .icon-vs-bg{fill:#424242;} .icon-vs-fg{fill:#F0EFF1;}</style><path class="icon-canvas-transparent" d="M16 16h-16v-16h16v16z" id="canvas"/><path class="icon-vs-out" d="M16 3v6c0 1.711-2.149 3-5 3-.345 0-.679-.021-1-.057v4.057h-10v-11h6v-2c0-1.71 2.149-3 5-3s5 1.29 5 3z" id="outline"/><path class="icon-vs-bg" d="M3 12h4v1h-4v-1zm3-2h-3v1h3v-1zm-3-1h4v-1h-4v1zm-2-3h8v9h-8v-9zm1 8h6v-7h-6v7zm13-11v6c0 1.104-1.791 2-4 2-.348 0-.679-.029-1-.07v-5.93h-3v-2c0-1.104 1.791-2 4-2s4 .896 4 2zm-.675 0c0-.527-1.326-1.325-3.325-1.325s-3.325.798-3.325 1.325 1.326 1.325 3.325 1.325 3.325-.798 3.325-1.325z" id="iconBg"/><path class="icon-vs-fg" d="M2 14h6v-7h-6v7zm1-6h4v1h-4v-1zm0 2h3v1h-3v-1zm0 2h4v1h-4v-1zm11.325-9c0 .527-1.326 1.325-3.325 1.325s-3.325-.798-3.325-1.325 1.326-1.325 3.325-1.325 3.325.798 3.325 1.325z" id="iconFg"/></svg>