<svg xmlns="http://www.w3.org/2000/svg" width="16" height="16"><style type="text/css">.icon-canvas-transparent{opacity:0;fill:#F6F6F6;} .icon-white{fill:#FFFFFF;} .icon-vso-bg{fill:#656565;}</style><path class="icon-canvas-transparent" d="M16 16h-16v-16h16v16z" id="canvas"/><path class="icon-white" d="M11.895 7.78l1.105-.061v5.281h-10v-4.227c0-2.042 1.244-4.028 2.126-4.787.445-.383.964-.67 1.766-.852l1.108-.277v3.708l-.323.298c-.34.233-.636.567-.783.917l1.106-.061v1.054c0-2.041 1.243-4.027 2.126-4.787.445-.383.965-.67 1.766-.852l1.108-.277v3.708l-.323.298c-.34.232-.635.567-.782.917z" id="outline"/><path class="icon-vso-bg" d="M5.882 8.843l1.345-.07v3.227h-3.227v-3.227c0-1.75 1.124-3.466 1.778-4.028.347-.298.868-.503 1.449-.635v1.927c-.905.617-1.345 1.707-1.345 2.608v.198zm5 0l1.345-.07v3.227h-3.227v-3.227c0-1.75 1.124-3.466 1.778-4.028.347-.298.868-.503 1.449-.635v1.927c-.905.617-1.345 1.707-1.345 2.608v.198z" id="iconBg"/></svg>