<svg xmlns="http://www.w3.org/2000/svg" width="16" height="16"><style type="text/css">.icon-canvas-transparent{opacity:0;fill:#F6F6F6;} .icon-vs-out{fill:#F6F6F6;} .icon-vs-bg{fill:#424242;} .icon-vs-blue{fill:#1BA1E2;} .icon-f12-information{fill:#00BCF2;} .icon-f12-pressed-bg{fill:#B2D7F0;}</style><path class="icon-canvas-transparent" d="M16 16h-16v-16h16v16z" id="canvas"/><polygon class="icon-vs-out" points="5,16 6.366,13.634 8,14.25 9.634,13.634 11,16 11.538,16 16,13.416 16,2.554 11.532,0 11,0 9.634,2.366 8,2 6.366,2.366 5,0 4.468,0 0,2.554 0,13.416 4.463,16" id="outline"/><g id="iconBg"><path class="icon-vs-bg" d="M2 12.268l3 1.732-.5.866-3.5-2.026v-9.706l3.5-2 .5.866-3 1.732v8.536zm12 0l-3 1.732.5.866 3.5-2.026v-9.706l-3.5-2-.5.866 3 1.732v8.536z"/><polygon class="icon-vs-blue" points="12.25,5.188 8,7.438 3.75,5.188 8,2.938"/><polygon class="icon-f12-information" points="3.5,10.438 7.629,13.063 7.625,8.188 3.5,5.938"/><polygon class="icon-f12-pressed-bg" points="8.382,8.188 8.375,13.063 12.5,10.438 12.5,5.938"/></g></svg>