<svg xmlns="http://www.w3.org/2000/svg" width="16" height="16"><style type="text/css">.icon-canvas-transparent{opacity:0;fill:#F6F6F6;} .icon-vs-out{fill:#F6F6F6;} .icon-vs-bg{fill:#424242;}</style><path class="icon-canvas-transparent" d="M16 16h-16v-16h16v16z" id="canvas"/><polygon class="icon-vs-out" points="5,16 6.366,13.634 8,14.25 9.634,13.634 11,16 11.538,16 16,13.416 16,2.554 11.532,0 11,0 9.634,2.366 8,2 6.366,2.366 5,0 4.468,0 0,2.554 0,13.416 4.463,16" id="outline"/><g id="iconBg"><path class="icon-vs-bg" d="M2 12.268l3 1.732-.5.866-3.5-2.026v-9.706l3.5-2 .5.866-3 1.732v8.536zm12 0l-3 1.732.5.866 3.5-2.026v-9.706l-3.5-2-.5.866 3 1.732v8.536z"/><path class="icon-vs-bg" d="M12.25 5.188l-4.25 2.25-4.25-2.25 4.25-2.25 4.25 2.25zm-8.75 5.25l4.129 2.625-.004-4.875-4.125-2.25v4.5zm4.882-2.25l-.007 4.875 4.125-2.625v-4.5l-4.118 2.25z"/></g></svg>