<?xml version="1.0" encoding="utf-8"?>
<!-- Generator: Adobe Illustrator 19.1.0, SVG Export Plug-In . SVG Version: 6.00 Build 0)  -->
<svg version="1.1" xmlns="http://www.w3.org/2000/svg" xmlns:xlink="http://www.w3.org/1999/xlink" x="0px" y="0px" width="16px"
	 height="16px" viewBox="0 0 16 16" style="enable-background:new 0 0 16 16;" xml:space="preserve">
<style type="text/css">
	.icon-canvas-transparent{opacity:0;fill:#F6F6F6;}
	.icon-vs-out{fill:#F6F6F6;}
	.icon-vs-bg{fill:#424242;}
	.icon-vs-fg{fill:#F0EFF1;}
</style>
<g id="canvas">
	<path class="icon-canvas-transparent" d="M16,16H0V0h16V16z"/>
</g>
<g id="outline">
	<path class="icon-vs-out" d="M12,16H5V0h7V16z"/>
</g>
<g id="iconBg">
	<path class="icon-vs-bg" d="M6,7h5v2H6V7z M11,10v5H6v-5H11z M10,11H7l1.5,3L10,11z M11,1v5H6V1H11z M9.998,5l-1.5-3
		l-1.5,3H9.998z"/>
</g>
<g id="iconFg">
	<path class="icon-vs-fg" d="M8.5,14L7,11h3L8.5,14z M8.498,2l1.5,3h-3L8.498,2z"/>
</g>
</svg>
