<svg xmlns="http://www.w3.org/2000/svg" width="16" height="16"><style type="text/css">.icon-canvas-transparent{opacity:0;fill:#F6F6F6;} .icon-vs-out{fill:#F6F6F6;} .icon-vs-fg{fill:#F0EFF1;} .icon-vs-blue{fill:#1BA1E2;}</style><path class="icon-canvas-transparent" d="M16 16h-16v-16h16v16z" id="canvas"/><path class="icon-vs-out" d="M11.167 16l-3.186-.078-7.903-7.903-.078-3.019 1.754-.441c.996-.441 2.163-.573 3.297-.386.177-.29.383-.596.66-.873 3.286-3.286 8.773-2.944 9.005-2.928l.367.026.518.518.026.367c.017.232.358 5.719-2.928 9.005-.278.278-.583.483-.873.66.187 1.133.056 2.3-.385 3.297l-.274 1.755z" id="outline"/><path class="icon-vs-blue" d="M10.727 10.509c.429-.279.932-.511 1.307-.887 2.999-2.999 2.602-8.259 2.602-8.259s-5.26-.397-8.259 2.602c-.375.377-.607.879-.886 1.308-1.096-.337-4.432.906-5.491 1.369l1.201 1.086s1.156 1.173 1.164 1.164c.565-.564 1.307-1.292 2.018-1.518-.318.996-.459 2.206-.539 2.996l1.786 1.786c.791-.081 2-.222 2.996-.539-.225.712-.954 1.454-1.518 2.018-.008.008 1.164 1.164 1.164 1.164l1.224 1.201c.463-1.059 1.568-4.395 1.231-5.491zm-2.101.401l-3.52-3.52c.118-.354 1.856-3.801 5.36-4.539l2.7 2.7c-.489 3.252-4.187 5.241-4.54 5.359zm2.475-3.889c-.586.586-1.536.586-2.121 0-.586-.586-.586-1.536 0-2.121.586-.586 1.536-.586 2.121 0 .585.585.585 1.535 0 2.121z" id="iconBg"/><path class="icon-vs-fg" d="M13.165 5.55l-2.7-2.7c-3.503.739-5.242 4.186-5.36 4.54l3.52 3.52c.354-.118 4.052-2.107 4.54-5.36zm-4.186 1.471c-.586-.586-.586-1.536 0-2.121.586-.586 1.536-.586 2.121 0 .586.586.586 1.536 0 2.121-.585.586-1.535.586-2.121 0z" id="iconFg"/></svg>