<svg xmlns="http://www.w3.org/2000/svg" width="16" height="16"><style type="text/css">.icon-canvas-transparent{opacity:0;fill:#F6F6F6;} .icon-vs-out{fill:#F6F6F6;} .icon-vs-fg{fill:#F0EFF1;} .icon-vs-red{fill:#E51400;}</style><path class="icon-canvas-transparent" d="M16 16h-16v-16h16v16z" id="canvas"/><path class="icon-vs-out" d="M8 16c-4.411 0-8-3.589-8-8s3.589-8 8-8 8 3.589 8 8-3.589 8-8 8z" id="outline"/><path class="icon-vs-red" d="M8 1c-3.866 0-7 3.134-7 7s3.134 7 7 7 7-3.134 7-7-3.134-7-7-7zm0 13c-3.309 0-6-2.691-6-6s2.691-6 6-6 6 2.691 6 6-2.691 6-6 6zm0-4.349l-2.5 2.349-2.5-2.349v-1.867l2 1.882v-4.666h1v4.667l2-1.882v1.866zm0-3.302l2.5-2.349 2.5 2.349v1.867l-2-1.882v4.666h-1v-4.667l-2 1.883v-1.867z" id="iconBg"/><g id="iconFg"><path class="icon-vs-fg" d="M8 2c-3.309 0-6 2.691-6 6s2.691 6 6 6 6-2.691 6-6-2.691-6-6-6zm3 4.333v4.667h-1v-4.667l-2 1.883v1.436l-2.5 2.348-2.5-2.349v-1.867l2 1.882v-4.666h1v4.667l2-1.882v-1.436l2.5-2.349 2.5 2.349v1.867l-2-1.883z"/></g></svg>