<svg xmlns="http://www.w3.org/2000/svg" width="28" height="28"><style type="text/css">.icon-canvas-transparent{opacity:0;fill:#F6F6F6;} .icon-f12-error-negative{fill:#ED1123;}</style><path class="icon-canvas-transparent" d="M28 28h-28v-28h28v28z" id="canvas"/><path class="icon-f12-error-negative" d="M14 3c6.065 0 11 4.935 11 11s-4.935 11-11 11-11-4.935-11-11 4.935-11 11-11m0-3c-7.732 0-14 6.268-14 14s6.268 14 14 14 14-6.268 14-14-6.268-14-14-14zm-1 9.5v3l3-3v9.5h3v-9.5l3 3v-3l-4.5-4.5-4.5 4.5zm2 6l-3 3v-8.5h-3v8.5l-3-3v3l4.5 4.5 4.5-4.5v-3z" id="iconBg"/></svg>