<svg xmlns="http://www.w3.org/2000/svg" width="16" height="16"><style type="text/css">.icon-canvas-transparent{opacity:0;fill:#F6F6F6;} .icon-vs-out{fill:#F6F6F6;} .icon-vs-bg{fill:#424242;} .icon-vs-fg{fill:#F0EFF1;}</style><path class="icon-canvas-transparent" d="M16 16h-16v-16h16v16z" id="canvas"/><path class="icon-vs-out" d="M0 0h16v15h-16v-15z" id="outline"/><path class="icon-vs-bg" d="M10 7h5v1h-5v-1zm-2.499-3c-.83 0-1.501.674-1.501 1.502s.671 1.498 1.501 1.498c.828 0 1.499-.67 1.499-1.498s-.671-1.502-1.499-1.502zm7.499-3v5h-5v-4h-8v7l3.173-1.772 4.827 5.355v-3.583h5v5h-14v-13h14zm-4 9l1.5 2 1.5-2h-3zm-9 .306v2.694h6.901l-3.859-4.333-3.042 1.639zm12-5.306l-1.5-1.969-1.483 1.969h2.983z" id="iconBg"/><path class="icon-vs-fg" d="M5.042 8.667l3.859 4.333h-6.901v-2.694l3.042-1.639zm4.958-2.667h5v1h-5v1h5v1h-5v3.583l-4.827-5.355-2.173 1.187v.026l-1 .559v-7h8v4zm-1-.498c0-.828-.671-1.502-1.499-1.502-.83 0-1.501.674-1.501 1.502s.671 1.498 1.501 1.498c.828 0 1.499-.67 1.499-1.498zm3.5-2.471l-1.483 1.969h2.983l-1.5-1.969zm1.5 6.969h-3l1.5 2 1.5-2z" id="iconFg"/></svg>