<svg xmlns="http://www.w3.org/2000/svg" width="24" height="18"><style type="text/css">.icon-canvas-transparent{opacity:0;fill:#F6F6F6;} .icon-vs-out{fill:#F6F6F6;} .icon-vs-bg{fill:#424242;} .icon-vs-action-blue{fill:#00539C;}</style><path class="icon-canvas-transparent" d="M24 18h-24v-18h24v18z" id="canvas"/><path class="icon-vs-out" d="M22 5v6l-4 4-4-4v-6l2 2v-4h4v4l2-2zm-14.5-3c-3.59 0-6.5 2.91-6.5 6.5s2.91 6.5 6.5 6.5 6.5-2.91 6.5-6.5-2.91-6.5-6.5-6.5z" id="outline"/><path class="icon-vs-bg" d="M13 8.5l-.009-.186c-.099-2.951-2.516-5.314-5.491-5.314-3.037 0-5.5 2.463-5.5 5.5l.024.475.055.417.002.014c.384 2.312 2.205 4.131 4.518 4.514l.015.002.414.054.472.024c.182 0 .361-.01.538-.027 2.785-.271 4.962-2.617 4.962-5.473zm-3.167-1.305c.571-.09 1.175-.242 1.82-.475.234.546.365 1.148.365 1.78l-.014.294c-.816.355-1.549.568-2.237.678.087-.481.131-.938.126-1.369-.003-.315-.028-.615-.06-.908zm1.398-1.24c-.539.185-1.048.314-1.533.389-.168-.811-.432-1.508-.721-2.109.925.32 1.713.927 2.254 1.72zm-3.731 7.063l-.396-.02c-.395-.877-.698-1.747-.886-2.597.411.041.838.067 1.278.072l.316.002c.273 0 .549-.008.828-.021-.239.778-.595 1.632-1.062 2.561l-.078.003zm.004-3.402c-.499-.005-.98-.042-1.443-.096-.067-.479-.102-.95-.098-1.409.004-.303.025-.593.053-.876.474.054.967.089 1.48.095l.316.002c.384 0 .772-.012 1.169-.042.03.266.051.537.055.822.005.453-.054.945-.164 1.468-.459.033-.91.039-1.368.036zm-.004-5.634l.384.019c.367.637.742 1.45.959 2.441-.448.031-.89.035-1.338.031-.472-.005-.928-.037-1.367-.087.183-.955.486-1.739.787-2.363.188-.024.38-.041.575-.041zm-1.637.311c-.227.568-.436 1.222-.575 1.971-.543-.095-1.04-.215-1.495-.343.509-.731 1.229-1.3 2.07-1.628zm-2.881 4.207c0-.644.137-1.254.379-1.809.539.159 1.138.309 1.807.424-.034.318-.057.645-.06.988-.005.419.027.85.077 1.285-.845-.153-1.576-.364-2.186-.571l-.017-.317zm.186 1.277c.626.192 1.344.376 2.156.506.162.823.426 1.663.771 2.51-1.406-.461-2.507-1.591-2.927-3.016zm5.42 3.104c.429-.901.759-1.74.973-2.51.702-.09 1.449-.269 2.267-.577-.455 1.521-1.691 2.703-3.24 3.087z" id="iconBg"/><path class="icon-vs-action-blue" d="M21 8v2l-3 3-3-3v-2l2 2v-6h2v6l2-2z" id="colorAction"/></svg>