<svg xmlns="http://www.w3.org/2000/svg" width="16" height="16"><style type="text/css">.icon-canvas-transparent{opacity:0;fill:#F6F6F6;} .icon-white{fill:#FFFFFF;} .icon-vs-action-blue{fill:#00539C;} .icon-vso-bg{fill:#656565;}</style><path class="icon-canvas-transparent" d="M16 16h-16v-16h16v16z" id="canvas"/><path class="icon-white" d="M6.117 16l-1.125-9h-.992v-3h3v-1h6v1h3v3h-.992l-1.125 9h-7.766z" id="outline"/><g id="iconBg"><path class="icon-white" d="M4.503 0c-.573 0-1.004.088-1.503.349v-.349h-1.398l-1.602 1.515v3.485h3.062l.494-.006-1.957 1.715 2.099 2.099 3.08-2.649c.776-.666 1.222-1.635 1.222-2.659 0-1.93-1.569-3.5-3.497-3.5z"/><path class="icon-vso-bg" d="M15 5v1h-8.074c.302-.293.555-.627.732-1h.342v-1h4v1h3zm-1 2l-1 8h-6l-1-8h8zm-1 1h-6l.5 3h5l.5-3z"/></g><g id="colorAction"><path class="icon-vs-action-blue" d="M7 3.5c0-1.378-1.12-2.5-2.497-2.5-.593 0-.924.097-1.616.594l-.887.768v-1.362l-1 .945v2.055h2.062l-.032-.031.97-.969h-1.24l.773-.644c.32-.207.614-.356.97-.356.826 0 1.498.673 1.498 1.5 0 .438-.191.854-.53 1.145l-2.409 2.112.688.688 2.378-2.046c.555-.476.872-1.169.872-1.899z"/></g></svg>