<svg xmlns="http://www.w3.org/2000/svg" width="30" height="18"><style type="text/css">.icon-canvas-transparent{opacity:0;fill:#F6F6F6;} .icon-vs-out{fill:#F6F6F6;} .icon-vs-fg{fill:#F0EFF1;} .icon-vs-bg{fill:#424242;}</style><path class="icon-canvas-transparent" d="M30 18h-30v-18h30v18z" id="canvas"/><path class="icon-vs-out" d="M29 14.639v1.361h-2.07l-5.422-4.848-3.432 4.118c-.427.474-1.032.728-1.687.728-.647 0-1.263-.238-1.688-.653-.443-.43-.699-1.034-.701-1.655-.002-.619.247-1.204.699-1.648l3.901-3.488-2.867-2.563c-.487-.478-.735-1.064-.733-1.683.002-.621.258-1.225.703-1.656.424-.414 1.039-.652 1.686-.652.654 0 1.26.254 1.662.698l2.604 3.125 4.275-3.823h2.07v1.362l-4.198 5.038 5.198 6.239zm-17-11.639h-12v12h12v-12z" id="outline"/><path class="icon-vs-bg" d="M27.312 15l-5.909-5.283-4.094 4.913c-.477.527-1.44.457-1.908 0-.484-.469-.581-1.305 0-1.874l4.7-4.203-3.7-3.308c-.581-.571-.484-1.406 0-1.876.468-.457 1.432-.526 1.908 0l3.24 3.889 4.763-4.258h.688l-4.5 5.4 5.5 6.6h-.688zm-26.312-11v10h10v-10h-10zm9 9h-8v-8h8v8z" id="iconBg"/><path class="icon-vs-fg" d="M10 13h-8v-8h8v8z" id="iconFg"/></svg>