<svg xmlns="http://www.w3.org/2000/svg" width="16" height="16"><style type="text/css">.icon-canvas-transparent{opacity:0;fill:#F6F6F6;} .icon-vs-out{fill:#F6F6F6;} .icon-vs-bg{fill:#424242;} .icon-vs-fg{fill:#F0EFF1;}</style><path class="icon-canvas-transparent" d="M16 16h-16v-16h16v16z" id="canvas"/><path class="icon-vs-out" d="M16 12h-1.71l-2.186-2.182-1.336 1.623c-.325.367-.747.559-1.184.559-.438 0-.861-.194-1.16-.532-.563-.638-.561-1.632.004-2.265l1.607-1.59-.762-.797c-.586-.668-.585-1.661-.025-2.292.295-.332.724-.52 1.176-.52.471 0 .902.207 1.185.569l.613.919 1.691-1.492h2.087v.844l-2.136 2.813 2.136 3.025v1.318zm-16 0h8v-8h-8v8z" id="outline"/><path class="icon-vs-bg" d="M1 11h6v-6h-6v6zm1-5h4v4h-4v-4zm13 5h-.297l-2.672-2.667-2.035 2.473c-.23.259-.594.259-.822 0-.231-.263-.231-.677 0-.937l2.264-2.236-1.442-1.508c-.25-.285-.208-.703 0-.937.203-.228.619-.263.824 0l1.204 1.811 2.267-1.999h.334l-2 2.635 2.375 3.365z" id="iconBg"/><g id="iconFg"><path class="icon-vs-fg" d="M2 10v-4h4v4h-4z"/></g></svg>