<svg xmlns="http://www.w3.org/2000/svg" width="16" height="16"><style type="text/css">.icon-canvas-transparent{opacity:0;fill:#F6F6F6;} .icon-vs-action-blue{fill:#00539C;} .icon-white{fill:#FFFFFF;} .icon-vso-bg{fill:#656565;}</style><path class="icon-canvas-transparent" d="M16 16h-16v-16h16v16z" id="canvas"/><path class="icon-white" d="M16 5.586v9.414h-12v-7h-4v-8h10v3h3.414l2.586 2.586z" id="outline"/><path class="icon-vs-action-blue" d="M12 6h-2v-2h2v2zm1-2v4h-8v6h10v-8l-2-2z" id="iconBg"/><path class="icon-white" d="M5.75 4l2.25-2h-1.5l-1.5 1.334-1.5-1.334h-1.5l2.25 2-2.25 2h1.5l1.5-1.334 1.5 1.334h1.5l-2.25-2zm7.25 0v4h-3v-2h2v-2h1z" id="iconFg"/><g id="colorAction"><path class="icon-vso-bg" d="M9 1v6h-8v-6h8zm-3.25 3l2.25-2h-1.5l-1.5 1.334-1.5-1.334h-1.5l2.25 2-2.25 2h1.5l1.5-1.334 1.5 1.334h1.5l-2.25-2z"/></g></svg>