<svg xmlns="http://www.w3.org/2000/svg" width="16" height="16"><style type="text/css">.icon-canvas-transparent{opacity:0;fill:#F6F6F6;} .icon-vs-out{fill:#F6F6F6;} .icon-vs-bg{fill:#424242;} .icon-vs-action-blue{fill:#00539C;}</style><path class="icon-canvas-transparent" d="M16 16h-16v-16h16v16z" id="canvas"/><path class="icon-vs-out" d="M12.414 10h3.586v3h-9.471l-.667-2h-1.724l-.667 2h-3.471v-.413l3.529-10.587h2.941l1.53 4.588v-2.588h1.586l-.586-.586v-1.414h3.414l3.586 3.586v.828l-3.586 3.586z" id="outline"/><path class="icon-vs-bg" d="M4.25 3l-3 9h1.5l.667-2h3.166l.667 2h1.5l-3-9h-1.5zm-.5 6l1.25-3.75 1.25 3.75h-2.5zm6.25 2h1v1h-1v-1zm2 0h1v1h-1v-1zm3 0v1h-1v-1h1z" id="iconBg"/><path class="icon-vs-action-blue" d="M12 7h-3v-2h3l-2-2h2l3 3-3 3h-2l2-2z" id="colorAction"/></svg>