<svg xmlns="http://www.w3.org/2000/svg" width="16" height="16"><style type="text/css">.icon-canvas-transparent{opacity:0;fill:#F6F6F6;} .icon-folder{fill:#DCB67A;} .icon-white{fill:#FFFFFF;} .icon-vso-bg{fill:#656565;}</style><path class="icon-canvas-transparent" d="M16 16h-16v-16h16v16z" id="canvas"/><path class="icon-white" d="M16 2.5v10c0 .827-.673 1.5-1.5 1.5h-7.5v2h-7v-7h1.004v-4.5c0-.827.673-1.5 1.5-1.5h2.886l1-2h8.11c.827 0 1.5.673 1.5 1.5z" id="outline"/><g id="iconBg"><path class="icon-folder" d="M14.5 2h-7.492l-1 2h-3.504c-.277 0-.5.224-.5.5v4.5h.996v-3h7v7h4.5c.275 0 .5-.224.5-.5v-10c0-.276-.225-.5-.5-.5zm-.496 2h-6.496l.5-1h5.996v1z"/><path class="icon-vso-bg" d="M9 7h-5v3h-3v5h5v-3h3v-5zm-4 7h-3v-2h3v2zm3-3h-2v-1h-1v-1h3v2z"/></g><path class="icon-white" d="M14 3v1h-6.5l.5-1h6zm-9 11h-3v-2h3v2zm0-5v1h1v1h2v-2h-3z" id="iconFg"/></svg>