<svg xmlns="http://www.w3.org/2000/svg" width="16" height="16"><style type="text/css">.icon-canvas-transparent{opacity:0;fill:#F6F6F6;} .icon-vs-out{fill:#F6F6F6;} .icon-vs-bg{fill:#424242;} .icon-vs-fg{fill:#F0EFF1;}</style><path class="icon-canvas-transparent" d="M16 16h-16v-16h16v16z" id="canvas"/><path class="icon-vs-out" d="M0 0h16v15h-16v-15z" id="outline"/><path class="icon-vs-bg" d="M6 10h1v1h-1v-1zm0-1h1v-1h-1v1zm0-2h1v-1h-1v1zm-2 0h1v-1h-1v1zm11-6v13h-14v-13h14zm-1 1h-7v1h-1v-1h-4v4h1v1h-1v6h4v-1h1v1h7v-11zm-3 4h-1v1h1v-1zm-2 0h-1v1h1v-1zm-3-1h1v-1h-1v1zm7 1h-1v1h1v-1z" id="iconBg"/><path class="icon-vs-fg" d="M7 2v1h-1v-1h-4v4h1v1h-1v6h4v-1h1v1h7v-11h-7zm-2 4v1h-1v-1h1zm2 5h-1v-1h1v1zm0-3v1h-1v-1h1zm0-2v1h-1v-1h1zm2 0v1h-1v-1h1zm2 0v1h-1v-1h1zm2 0v1h-1v-1h1zm-7-1v-1h1v1h-1z" id="iconFg"/></svg>