<svg xmlns="http://www.w3.org/2000/svg" width="16" height="16"><style type="text/css">.icon-canvas-transparent{opacity:0;fill:#F6F6F6;} .icon-vs-out{fill:#F6F6F6;} .icon-vs-bg{fill:#424242;} .icon-vs-fg{fill:#F0EFF1;} .icon-cpp-purple{fill:#9B4F96;}</style><path class="icon-canvas-transparent" d="M16 16h-16v-16h16v16z" id="canvas"/><path class="icon-vs-out" d="M16 15h-5.293l-.854 1h-7.707l-.854-1h-1.292v-14h16v14z" id="outline"/><polygon class="icon-vs-bg" points="1,2 1,11.343 2,10.172 2,5 14,5 14,13 12.414,13 11.561,14 15,14 15,2" id="iconBg"/><polygon class="icon-vs-fg" points="2,5 2,10.172 2.146,10 9.854,10 12.414,13 14,13 14,5" id="iconFg"/><g id="colorImportance"><path class="icon-cpp-purple" d="M11 13l-2 2.5h-1.6l1.2-1.5h-5.198l1.198 1.5h-1.6l-2-2.5 2-2.5h1.6l-1.198 1.5h5.198l-1.2-1.5h1.6l2 2.5z"/></g></svg>