<svg xmlns="http://www.w3.org/2000/svg" width="16" height="16"><style type="text/css">.icon-canvas-transparent{opacity:0;fill:#F6F6F6;} .icon-white{fill:#FFFFFF;} .icon-vs-action-blue{fill:#00539C;} .icon-asp-html-wpf-blue{fill:#0095D7;} .icon-vso-bg{fill:#656565;}</style><path class="icon-canvas-transparent" d="M16 16h-16v-16h16v16z" id="canvas"/><path class="icon-white" d="M12.061 0h-10.465l1.988 2h-.084c-1.93 0-3.5 1.57-3.5 3.5s1.57 3.5 3.5 3.5h.086l-3.586 3.586v.828l2.586 2.586h6.828l2-2h4.586v-10.444l-3.939-3.556z" id="outline"/><path class="icon-vso-bg" d="M6 7v3h-1v-3h1zm5.676-6h-4.266l.994 1h2.596v3h3v7h-2.586l1 1h1.586c.552 0 1-.448 1-1v-8l-3.324-3z" id="iconBg"/><path class="icon-white" d="M14 5v7h-2.586l-3.414-3.414v2.194c-.532-.479-1.229-.78-2-.78v-3h.413l3.501-3.481-1.51-1.519h2.596v3h3z" id="iconFg"/><g id="colorAction"><path class="icon-vs-action-blue" d="M6 1h-2l1.988 2h-2.488c-1.381 0-2.5 1.119-2.5 2.5s1.119 2.5 2.5 2.5h.5v-1h-.5c-.827 0-1.5-.674-1.5-1.5 0-.828.673-1.5 1.5-1.5h2.513l-2.013 2h2l2.5-2.485-2.5-2.515z"/><path class="icon-vs-action-blue" d="M6 1h-2l1.988 2h-2.488c-1.381 0-2.5 1.119-2.5 2.5s1.119 2.5 2.5 2.5h.5v-1h-.5c-.827 0-1.5-.674-1.5-1.5 0-.828.673-1.5 1.5-1.5h2.513l-2.013 2h2l2.5-2.485-2.5-2.515z"/></g><g id="colorImportance"><path class="icon-asp-html-wpf-blue" d="M8 13c0 1.104-.896 2-2 2s-2-.896-2-2c0-1.106.896-2 2-2s2 .894 2 2z"/><path class="icon-vso-bg" d="M9 11l2 2-2 2v-1l1-1-1-1v-1zm-6 4l-2-2 2-2v1l-1 1 1 1v1z"/></g></svg>