<svg xmlns="http://www.w3.org/2000/svg" width="24" height="24"><style type="text/css">.icon-canvas-transparent{opacity:0;fill:#F6F6F6;} .icon-vs-out{fill:#F6F6F6;} .icon-vs-bg{fill:#424242;} .icon-vs-fg{fill:#F0EFF1;}</style><path class="icon-canvas-transparent" d="M24 24h-24v-24h24v24z" id="canvas"/><path class="icon-vs-out" d="M24 23h-24v-23h24v23z" id="outline"/><path class="icon-vs-bg" d="M23 14v2l-3 3-3-3v-2l2 2v-11h2v11l2-2zm0-13h-22v2h22v-2zm-15 6h10v-1h-10v1zm0 10h8.586l-.586-.586v-.414h-8v1zm0-5h8v-.414l.414.414h1.586v-1h-10v1zm-5 6h3v-3h-3v3zm16.586 2h-18.586v2h22v-2h-3.414zm-13.586-15h-3v3h3v-3zm0 5h-3v3h3v-3z" id="iconBg"/><path class="icon-vs-fg" d="M20.414 20l2.586-2.586v2.586h-2.586zm-4.414-8h.414l-.414-.414v.414zm7-9v9.586l-1 1v-9.586h-4v2h-10v1h10v4h-10v1h8v4h-8v1h8.586l3 3h-18.586v-17h22zm-17 12h-3v3h3v-3zm0-5h-3v3h3v-3zm0-5h-3v3h3v-3zm12 8.586v-1.586h-1.586l1.586 1.586z" id="iconFg"/></svg>