<svg xmlns="http://www.w3.org/2000/svg" width="16" height="16"><style type="text/css">.icon-canvas-transparent{opacity:0;fill:#F6F6F6;} .icon-vs-out{fill:#F6F6F6;} .icon-vs-bg{fill:#424242;} .icon-vs-fg{fill:#F0EFF1;}</style><path class="icon-canvas-transparent" d="M16 16h-16v-16h16v16z" id="canvas"/><path class="icon-vs-out" d="M16 7.5c0-1.168-.378-2.24-1-3.13v-4.37h-15v6h5.219c-.137.478-.219.978-.219 1.5s.082 1.022.219 1.5h-4.219v5h5v2h9v-5.378c.621-.888 1-1.956 1-3.122z" id="outline"/><path class="icon-vs-bg" d="M10.5 13c1.176 0 2.263-.372 3.156-1h.344v1h-3.5zm3.5 1h-7v1h7v-1zm-8.395-9h-4.605v-4h13v2.257c-.445-.368-.952-.663-1.5-.876v-.381h-10.5v2h2v-1h3.345c-.731.514-1.329 1.2-1.74 2zm0 5c.183.357.399.693.652 1h-4.257v-1h3.605zm1.74 2c.894.628 1.98 1 3.155 1h-8.5v-1h5.345zm7.655-4.5c0 2.429-2.07 4.5-4.5 4.5-2.428 0-4.5-2.071-4.5-4.5s2.072-4.5 4.5-4.5c2.43 0 4.5 2.071 4.5 4.5zm-1 0c0-1.823-1.678-3.5-3.5-3.5-1.821 0-3.5 1.677-3.5 3.5 0 1.822 1.679 3.5 3.5 3.5 1.822 0 3.5-1.678 3.5-3.5zm-.934-.5l-1.066-1.065-1.499 1.7-1.501-1.7-1.065 1.065 2.566 2.566 2.565-2.566z" id="iconBg"/><path class="icon-vs-fg" d="M7.345 3h-3.345v1h-2v-2h8.5c-1.175 0-2.262.372-3.155 1zm5.155-1h-2c.706 0 1.38.138 2 .381v-.381zm1.5 5.5c0 1.822-1.678 3.5-3.5 3.5-1.821 0-3.5-1.678-3.5-3.5 0-1.823 1.679-3.5 3.5-3.5 1.822 0 3.5 1.677 3.5 3.5zm-.934-.5l-1.066-1.065-1.499 1.7-1.501-1.7-1.065 1.065 2.566 2.566 2.565-2.566z" id="iconFg"/></svg>