<svg xmlns="http://www.w3.org/2000/svg" width="12" height="12"><style type="text/css">.icon-canvas-transparent{opacity:0;fill:#F6F6F6;} .icon-vs-out{fill:#F6F6F6;} .icon-vs-bg{fill:#424242;} .icon-vs-fg{fill:#F0EFF1;}</style><path id="XMLID_17_" class="icon-canvas-transparent" d="M12 12h-12v-12h12v12z"/><path id="XMLID_14_" class="icon-vs-out" d="M12 12h-12v-12h12v12z"/><path class="icon-vs-bg" d="M8 2h-7v-1h10v1h-3zm1.086 8h-8.086v1h10v-1h-1.9140000000000001zm.914-3v-4h-1v4l-1-1v1.5l1.5 1.5 1.5-1.5v-1.5l-1 1zm-6 1h3.086l-.086-.086v-.914h-3v1zm0-3h3v-1h-3v1zm4-.414v-.586h-.586l.586.586zm-5-.586h-1v1h1v-1zm-1 4h1v-1h-1v1z" id="iconBg"/><g id="iconFg"><path class="icon-vs-fg" d="M7.086 8h-3.086v-1h3v-2h-3v-1h3v-.414l.414.414h.586v-2h-7v8h8.086l-2-2zm-4.086 0h-1v-1h1v1zm0-3h-1v-1h1v1zm6.914 5l1.086-1.086v1.086h-1.086z"/></g></svg>