<svg xmlns="http://www.w3.org/2000/svg" width="16" height="16"><style type="text/css">.icon-canvas-transparent{opacity:0;fill:#F6F6F6;} .icon-white{fill:#FFFFFF;} .icon-vs-action-green{fill:#388A34;} .icon-vso-bg{fill:#656565;}</style><path class="icon-canvas-transparent" d="M16 16h-16v-16h16v16z" id="canvas"/><path class="icon-white" d="M16 9v7h-9v-7h2c-.65-.635-1-1.52-1-2.5 0-1.934 1.566-3.5 3.5-3.5s3.5 1.566 3.5 3.5c0 .98-.35 1.865-1 2.5h2zm-8-7h-2v-2h-4v2h-2v4h2v2h4v-2h2v-4z" id="outline"/><path class="icon-vso-bg" d="M9 6.5c0-1.38 1.119-2.5 2.5-2.5 1.379 0 2.5 1.12 2.5 2.5 0 1.381-1.121 2.5-2.5 2.5-1.381 0-2.5-1.119-2.5-2.5m4 3.5l-1.5 2-1.5-2h-2v5h7v-5h-2z" id="iconBg"/><path class="icon-vs-action-green" d="M7 5h-2v2h-1.982v-2h-2.018v-1.982h2.018v-2.018h1.982v2.018h2v1.982z" id="colorAction"/></svg>