<svg xmlns="http://www.w3.org/2000/svg" width="16" height="16"><style type="text/css">.icon-canvas-transparent{opacity:0;fill:#F6F6F6;} .icon-vs-out{fill:#F6F6F6;} .icon-vs-bg{fill:#424242;}</style><path class="icon-canvas-transparent" d="M16 16h-16v-16h16v16z" id="canvas"/><path class="icon-vs-out" d="M16 3v6c0 1.503-1.662 2.68-4 2.943v1.057c0 1.71-2.149 3-5 3-1.479 0-2.761-.352-3.66-.926l-.926.926h-2.032l1.5-3h-1.882v-1.236l2-4v-.764c0-1.504 1.662-2.68 4-2.943v-1.057c0-1.71 2.149-3 5-3s5 1.29 5 3z" id="outline"/><path class="icon-vs-bg" d="M11 1c-2.209 0-4 .896-4 2v1c.345 0 .678.021 1 .057v-.272c.221.165.51.299.827.415.235.052.452.118.665.19.449.094.947.157 1.508.157 1.328 0 2.371-.287 3-.754v5.207c0 .201-.708.736-2 .935v.995c1.722-.224 3-.999 3-1.93v-6c0-1.104-1.791-2-4-2zm0 2.875c-1.919 0-2.979-.611-2.996-.867.017-.256 1.077-1.008 2.996-1.008 1.902 0 2.958.753 2.993 1.016-.035.261-1.091.859-2.993.859zm0 3.125v6c0 1.104-1.791 2-4 2-1.165 0-2.204-.253-2.936-.65l.738-.738c.509.218 1.247.404 2.198.404 1.936 0 3-.767 3-1.016v-5.207c-.629.467-1.672.754-3 .754-.045 0 0-.133 0-.133v-.539c1.902 0 2.958-.598 2.993-.859-.035-.262-1.091-1.016-2.993-1.016s-2.957.738-2.992 1h-1.008c0-1.104 1.791-2 4-2s4 .896 4 2zm-5 1l-3 3h3l-4 4 1.5-3h-2.5l2-4h3z" id="iconBg"/></svg>