<svg xmlns="http://www.w3.org/2000/svg" width="16" height="16"><style type="text/css">.icon-canvas-transparent{opacity:0;fill:#F6F6F6;} .icon-vs-out{fill:#F6F6F6;} .icon-vs-bg{fill:#424242;} .icon-vs-fg{fill:#F0EFF1;}</style><path class="icon-canvas-transparent" d="M16 16h-16v-16h16v16z" id="canvas"/><path class="icon-vs-out" d="M16 0v14h-4v2h-12v-12h2v-4h14z" id="outline"/><path class="icon-vs-bg" d="M15 1v12h-3v-2h1v-8h-8v1h-2v-3h12zm-4 4v10h-10v-10h10zm-8 4h2v-2h-2v2zm0 4h2v-2h-2v2zm6 0v-2h-2v2h2zm0-6h-2v2h2v-2z" id="iconBg"/><path class="icon-vs-fg" d="M5 9h-2v-2h2v2zm4-2h-2v2h2v-2zm0 4h-2v2h2v-2zm-4 0h-2v2h2v-2z" id="iconFg"/></svg>