<svg xmlns="http://www.w3.org/2000/svg" width="16" height="16"><style type="text/css">.icon-canvas-transparent{opacity:0;fill:#F6F6F6;} .icon-vs-out{fill:#F6F6F6;} .icon-vs-bg{fill:#424242;} .icon-vs-fg{fill:#F0EFF1;}</style><path class="icon-canvas-transparent" d="M16 16h-16v-16h16v16z" id="canvas"/><path class="icon-vs-out" d="M16 13h-6.132l-1.333 2h-6.07l-1.465-2.197v-.568l2-3.5v-.735h-1v-3h4v-5h10v13z" id="outline"/><path class="icon-vs-bg" d="M7 9v-2h1v-1h-5v1h1v2l-2 3.5 1 1.5h5l1-1.5-2-3.5zm-2.968 2l.8-1.445.168-.252v-2.303h1v2.303l.168.252.8 1.445h-2.936zm4.968-3h6v-3h-6v3zm4-2h1v1h-1v-1zm-3.134 6h5.134v-3h-6.848l1.714 3zm3.134-2h1v1h-1v-1zm-6-9v3h8v-3h-8zm7 2h-1v-1h1v1z" id="iconBg"/><path class="icon-vs-fg" d="M6.168 9.555l.8 1.445h-2.936l.8-1.445.168-.252v-2.303h1v2.303l.168.252zm7.832.445h-1v1h1v-1zm-1-7h1v-1h-1v1zm1 3h-1v1h1v-1z" id="iconFg"/></svg>