<svg xmlns="http://www.w3.org/2000/svg" width="16" height="16"><style type="text/css">.icon-canvas-transparent{opacity:0;fill:#F6F6F6;} .icon-vs-out{fill:#F6F6F6;} .icon-vs-bg{fill:#424242;} .icon-vs-fg{fill:#F0EFF1;}</style><path class="icon-canvas-transparent" d="M16 16h-16v-16h16v16z" id="canvas"/><path class="icon-vs-out" d="M2.586 14l-2.586-2.586v-6.828l2.586-2.586h10.828l2.586 2.586v6.828l-2.586 2.586h-10.828z" id="outline"/><path class="icon-vs-bg" d="M14 4l-1-1h-10l-1 1-1 1v6l1 1 1 1h10l1-1 1-1v-6l-1-1zm-10.586 8l-1.414-1.414v-5.172l1.414-1.414h4.586v8h-4.586z" id="iconBg"/><polygon class="icon-vs-fg" points="2,5.414 2,10.586 3.414,12 8,12 8,4 3.414,4" id="iconFg"/></svg>