<svg xmlns="http://www.w3.org/2000/svg" width="16" height="16"><style type="text/css">.icon-canvas-transparent{opacity:0;fill:#F6F6F6;} .icon-vs-out{fill:#F6F6F6;} .icon-vs-bg{fill:#424242;}</style><path class="icon-canvas-transparent" d="M16 16h-16v-16h16v16z" id="canvas"/><path class="icon-vs-out" d="M2.62 13.101l1.408-2.101h-4.028v-3h1v-1h-1v-3h4.309l-.569-1.006 5.25 1.577 3.684-4.267-.014 5.561 3.34 1.043v1.44l-3.333 1.19v6.462h-.304l-3.576-4.74-6.167 1.841z" id="outline"/><path class="icon-vs-bg" d="M1 5h3v1h-3v-1zm1 3h2v-1h-2v1zm-1 2h3v-1h-3v1zm14-2.356l-3.342-1.044.009-3.6-2.344 2.715-3.49-1.048 1.667 2.951-2.5 3.728 4.167-1.243 2.5 3.314v-4.584l3.333-1.189z" id="iconBg"/></svg>