<svg xmlns="http://www.w3.org/2000/svg" viewBox="0 0 16 16" enable-background="new 0 0 16 16"><style type="text/css">.icon-canvas-transparent{opacity:0;fill:#F6F6F6;} .icon-white{fill:#FFFFFF;} .icon-vso-bg{fill:#656565;}</style><path class="icon-canvas-transparent" d="M16 16h-16v-16h16v16z" id="canvas"/><path class="icon-white" d="M14 13h-2v1h-10v-12h12v11z" id="outline"/><path class="icon-vso-bg" d="M3 5v8h8v-8h-8zm7 7h-6v-5h6v5zm-5-8h-1v-1h1v1zm2 0h-1v-1h1v1zm2 0h-1v-1h1v1zm2 0h-1v-1h1v1zm2 0h-1v-1h1v1zm0 2h-1v-1h1v1zm0 2h-1v-1h1v1zm0 2h-1v-1h1v1zm0 2h-1v-1h1v1z" id="iconBg"/><g id="iconFg"><path class="icon-white" d="M10 12h-6v-5h6v5z"/></g></svg>