<svg xmlns="http://www.w3.org/2000/svg" width="16" height="16"><style type="text/css">.icon-canvas-transparent{opacity:0;fill:#F6F6F6;} .icon-white{fill:#FFFFFF;}</style><path class="icon-canvas-transparent" d="M16 16h-16v-16h16v16z" id="canvas"/><g id="iconBg"><path class="icon-black" d="M8 16c-4.411 0-8-3.589-8-8s3.589-8 8-8 8 3.589 8 8-3.589 8-8 8z"/><path class="icon-white" d="M8 1c-3.866 0-7 3.134-7 7s3.134 7 7 7 7-3.134 7-7-3.134-7-7-7zm1.973 4s1 .396 1 1.5c0 .5-.447.5-1 .5s-1 0-1-.5c0-1.104 1-1.5 1-1.5zm-4 0s1 .396 1 1.5c0 .5-.447.5-1 .5-.553 0-1 0-1-.5 0-1.104 1-1.5 1-1.5zm4.912 7c-.473-1.146-1.635-2-2.912-2-1.276 0-2.41.854-2.869 2h-.96c.475-1.678 2-2.917 3.83-2.917s3.354 1.239 3.828 2.917h-.917z"/></g></svg>