<svg xmlns="http://www.w3.org/2000/svg" width="16" height="16"><style type="text/css">.icon-canvas-transparent{opacity:0;fill:#F6F6F6;} .icon-vs-out{fill:#F6F6F6;} .icon-vs-bg{fill:#424242;} .icon-vs-fg{fill:#F0EFF1;}</style><path class="icon-canvas-transparent" d="M16 16h-16v-16h16v16z" id="canvas"/><path class="icon-vs-out" d="M16 3v5c0 1.711-1.935 3-4.5 3-.94 0-1.793-.176-2.5-.481v2.481c0 1.711-1.935 3-4.5 3s-4.5-1.289-4.5-3v-5c0-1.711 1.935-3 4.5-3 .94 0 1.793.176 2.5.48v-2.48c0-1.711 1.935-3 4.5-3s4.5 1.289 4.5 3z" id="outline"/><path class="icon-vs-bg" d="M11.5 1c-1.933 0-3.5.896-3.5 2v3h3l-1-1h1.5l1.5 1.5-1.5 1.5h-1.5l1-1h-2.251c.159.31.251.644.251 1v1.396c.636.372 1.519.604 2.5.604 1.933 0 3.5-.896 3.5-2v-5c0-1.104-1.567-2-3.5-2zm0 3.325c-1.749 0-2.91-.798-2.91-1.325s1.161-1.325 2.91-1.325 2.91.798 2.91 1.325-1.161 1.325-2.91 1.325zm-3.5 6.675v-3c0-1.104-1.567-2-3.5-2s-3.5.896-3.5 2v5c0 1.104 1.567 2 3.5 2s3.5-.896 3.5-2v-1h-3l1 1h-1.5l-1.5-1.5 1.5-1.5h1.5l-1 1h3zm-3.5-1.675c-1.749 0-2.91-.798-2.91-1.325s1.161-1.325 2.91-1.325 2.91.798 2.91 1.325-1.161 1.325-2.91 1.325z" id="iconBg"/><path class="icon-vs-fg" d="M14.41 3c0 .527-1.161 1.325-2.91 1.325s-2.91-.798-2.91-1.325 1.161-1.325 2.91-1.325 2.91.798 2.91 1.325zm-9.91 3.675c-1.749 0-2.91.798-2.91 1.325s1.161 1.325 2.91 1.325 2.91-.798 2.91-1.325-1.161-1.325-2.91-1.325z" id="iconFg"/></svg>