<svg xmlns="http://www.w3.org/2000/svg" width="16" height="16"><style type="text/css">.icon-canvas-transparent{opacity:0;fill:#F6F6F6;} .icon-vs-out{fill:#F6F6F6;} .icon-vs-bg{fill:#424242;} .icon-vs-fg{fill:#F0EFF1;}</style><path class="icon-canvas-transparent" d="M16 16h-16v-16h16v16z" id="canvas"/><path class="icon-vs-out" d="M6 5v1h10v4h-10v1h10v4h-10v1h-6v-16h6v1h10v4h-10z" id="outline"/><path class="icon-vs-bg" d="M1 15h4v-4h-4v4zm1-3h2v2h-2v-2zm13-10v2h-8v-2h8zm-14 3h4v-4h-4v4zm1-3l2 .001v1.999h-2v-2zm5 10h8v2h-8v-2zm-6-2h4v-4h-4v4zm1-3h2v2h-2v-2zm5 0h8v2h-8v-2z" id="iconBg"/><path class="icon-vs-fg" d="M4 4h-2v-2h2v2zm0 3h-2v2h2v-2zm0 5h-2v2h2v-2z" id="iconFg"/></svg>