<?xml version="1.0" encoding="utf-8"?>
<!-- Generator: Adobe Illustrator 18.1.1, SVG Export Plug-In . SVG Version: 6.00 Build 0)  -->
<!DOCTYPE svg PUBLIC "-//W3C//DTD SVG 1.1//EN" "http://www.w3.org/Graphics/SVG/1.1/DTD/svg11.dtd">
<svg version="1.1" xmlns="http://www.w3.org/2000/svg" xmlns:xlink="http://www.w3.org/1999/xlink" x="0px" y="0px" width="16px"
	 height="16px" viewBox="0 0 16 16" style="enable-background:new 0 0 16 16;" xml:space="preserve">
<style type="text/css">
	.icon-canvas-transparent{opacity:0;fill:#F6F6F6;}
	.icon-vs-out{fill:#F6F6F6;}
	.icon-vs-bg{fill:#424242;}
	.icon-vs-fg{fill:#F0EFF1;}
</style>
<g id="canvas">
	<path class="icon-canvas-transparent" d="M16,16H0V0h16V16z"/>
</g>
<g id="outline">
	<path class="icon-vs-out" d="M16,3v6c0,1.711-2.149,3-5,3c-0.38,0-0.745-0.026-1.097-0.07l-0.048,0.375l-0.782,0.191
		L8.719,12.54l0.698,0.896L8.941,14.05c-0.258,0.332-0.557,0.632-0.89,0.891l-0.614,0.477L6.54,14.719L6.4,15.842l-0.77,0.1
		C5.359,15.979,5.184,16,5,16s-0.359-0.021-0.535-0.046l-0.77-0.099l-0.191-0.783L3.46,14.719l-0.897,0.698L1.948,14.94
		c-0.333-0.259-0.632-0.559-0.89-0.891l-0.475-0.614l0.697-0.896L0.158,12.4l-0.1-0.769C0.021,11.359,0,11.184,0,11
		s0.021-0.359,0.046-0.535l0.099-0.769l0.782-0.191L1.281,9.46L0.583,8.563l0.476-0.614c0.258-0.331,0.557-0.63,0.89-0.889
		l0.614-0.477l0.896,0.699L3.6,6.156l0.874-0.111C4.646,6.021,4.82,6,5,6s0.354,0.021,0.526,0.045L6,6.105V3c0-1.711,2.149-3,5-3
		C13.851,0,16,1.289,16,3z"/>
</g>
<g id="iconBg">
	<path class="icon-vs-bg" d="M6,11c0,0.553-0.446,1-1,1s-1-0.447-1-1s0.446-1,1-1S6,10.447,6,11z M8.949,10.496
		C8.971,10.663,9,10.827,9,11s-0.029,0.337-0.051,0.504l-1.235,0.154c-0.068,0.285-0.182,0.551-0.331,0.795l0.768,0.984
		c-0.207,0.268-0.445,0.506-0.712,0.713l-0.985-0.768c-0.243,0.148-0.51,0.262-0.796,0.331l-0.153,1.235C5.337,14.971,5.173,15,5,15
		s-0.337-0.029-0.504-0.051l-0.153-1.235c-0.286-0.069-0.553-0.183-0.796-0.331L2.562,14.15c-0.267-0.207-0.505-0.445-0.712-0.713
		l0.768-0.984c-0.149-0.244-0.263-0.51-0.331-0.795l-1.235-0.154C1.029,11.337,1,11.173,1,11s0.029-0.337,0.051-0.504l1.235-0.154
		c0.068-0.285,0.182-0.551,0.331-0.795L1.85,8.562C2.057,8.295,2.295,8.057,2.562,7.85l0.985,0.767
		c0.243-0.149,0.51-0.262,0.796-0.331l0.153-1.235C4.663,7.03,4.827,7,5,7s0.337,0.03,0.504,0.051l0.153,1.235
		C5.943,8.355,6.21,8.468,6.453,8.617L7.438,7.85C7.705,8.057,7.943,8.295,8.15,8.562L7.383,9.547
		c0.149,0.244,0.263,0.51,0.331,0.795L8.949,10.496z M7,11c0-1.104-0.894-2-2-2s-2,0.896-2,2c0,1.104,0.894,2,2,2S7,12.104,7,11z
		 M15,3v6c0,1.104-1.791,2-4,2c-0.349,0-0.682-0.029-1.004-0.071c-0.005-0.16-0.022-0.322-0.055-0.561L9.842,9.6L8.719,9.46
		l0.698-0.896L8.941,7.949c-0.258-0.331-0.557-0.63-0.89-0.889L7.438,6.583L7,6.924V3c0-1.104,1.791-2,4-2C13.209,1,15,1.896,15,3z
		 M14.325,3c0-0.527-1.326-1.325-3.325-1.325C9.001,1.675,7.675,2.473,7.675,3S9.001,4.325,11,4.325
		C12.999,4.325,14.325,3.527,14.325,3z"/>
</g>
<g id="iconFg">
	<path class="icon-vs-fg" d="M5,9c-1.104,0-2,0.896-2,2c0,1.104,0.896,2,2,2s2-0.896,2-2C7,9.896,6.104,9,5,9z M5,12
		c-0.552,0-1-0.447-1-1s0.448-1,1-1s1,0.447,1,1S5.552,12,5,12z M14.325,3c0,0.527-1.326,1.325-3.325,1.325
		C9.001,4.325,7.675,3.527,7.675,3S9.001,1.675,11,1.675C12.999,1.675,14.325,2.473,14.325,3z"/>
</g>
</svg>
