<svg xmlns="http://www.w3.org/2000/svg" width="16" height="16"><style type="text/css">.icon-canvas-transparent{opacity:0;fill:#F6F6F6;} .icon-vs-out{fill:#F6F6F6;} .icon-vs-bg{fill:#424242;} .icon-vs-fg{fill:#F0EFF1;}</style><path class="icon-canvas-transparent" d="M16 16h-16v-16h16v16z" id="canvas"/><path class="icon-vs-out" d="M15 4v8c0 2.28-3.01 4-7 4l-.551-.015-.24.015h-4.275c-1.624-.023-2.934-1.291-2.934-2.826 0-.828.382-1.575 1-2.101v-7.073c0-2.28 3.01-4 7-4s7 1.72 7 4z" id="outline"/><path class="icon-vs-bg" d="M8.063 11.775c-.191-.746-.904-1.301-1.753-1.301-.166 0-.327.022-.481.061-.396-.326-.916-.522-1.481-.522-1.004 0-1.854.619-2.136 1.469-.711.272-1.212.928-1.212 1.692 0 .99.86 1.811 1.934 1.826h4.275l.17-.014c.917-.1 1.618-.828 1.618-1.709 0-.644-.378-1.207-.934-1.502zm-1.063 2.221v.004h-4.066c-.516-.008-.934-.379-.934-.838 0-.463.425-.838.946-.838l.21.022-.043-.272c0-.603.553-1.092 1.233-1.092.614 0 1.121.4 1.214.922.117-.268.406-.459.749-.459.443 0 .803.318.803.711 0 .148-.05.285-.136.4l.193-.023c.457 0 .723.33.723.734.001.393.108.71-.892.729zm1-12.996c-3.313 0-6 1.343-6 3v5.977c.596-.6 1.433-.963 2.347-.963.613 0 1.209.165 1.722.471l.241-.01c1.141 0 2.146.657 2.58 1.643.691.511 1.107 1.307 1.107 2.16 0 .613-.221 1.177-.581 1.635 2.629-.319 4.584-1.5 4.584-2.913v-8c0-1.657-2.686-3-6-3zm-.003 5c-3.052 0-5-1.185-5-2s1.948-2 5-2 5 1.185 5 2-1.948 2-5 2z" id="iconBg"/><path class="icon-vs-fg" d="M7.893 13.268c0 .392.107.709-.893.728v.004h-4.066c-.516-.008-.934-.379-.934-.838 0-.463.425-.838.946-.838l.21.022-.043-.272c0-.603.553-1.092 1.233-1.092.614 0 1.121.4 1.214.922.117-.268.406-.459.749-.459.443 0 .803.318.803.711 0 .148-.05.285-.136.4l.193-.023c.458 0 .724.33.724.735zm.104-11.268c-3.052 0-5 1.185-5 2s1.948 2 5 2 5-1.185 5-2-1.948-2-5-2z" id="iconFg"/></svg>