<svg xmlns="http://www.w3.org/2000/svg" width="32" height="32"><style type="text/css">.icon-canvas-transparent{opacity:0;fill:#F6F6F6;} .icon-vs-out{fill:#F6F6F6;} .icon-vs-bg{fill:#424242;} .icon-vs-fg{fill:#F0EFF1;}</style><path class="icon-canvas-transparent" d="M32 32h-32v-32h32v32z" id="canvas"/><path class="icon-vs-out" d="M31 30h-30v-28h30v28z" id="outline"/><path class="icon-vs-bg" d="M3 4v24h26v-24h-26zm10 6h6v4h-6v-4zm-2 16h-6v-4h6v4zm0-6h-6v-4h6v4zm0-6h-6v-4h6v4zm16 6h-2v2h2v4h-6v-1h-2v1h-6v-4h1v-2h-1v-4h6v2h2v-2h6v4zm0-6h-6v-4h6v4zm-12 5h-1v-1h1v1zm2 0h-1v-1h1v1zm2 0h-1v-1h1v1zm2 0h-1v-1h1v1zm2 0h-1v-1h1v1zm2 0h-1v-1h1v1zm0 2h-1v-1h1v1zm0 2h-1v-1h1v1zm0 2h-1v-1h1v1zm-2 0h-1v-1h1v1zm-2 0h-1v-1h1v1zm-2 0h-1v-1h1v1zm-2 0h-1v-1h1v1zm-2 0h-1v-1h1v1zm0-2h-1v-1h1v1zm0-2h-1v-1h1v1z" id="iconBg"/><path class="icon-vs-fg" d="M19 14h-6v-4h6v4zm-14 6h6v-4h-6v4zm0 6h6v-4h-6v4zm0-12h6v-4h-6v4zm16 2h6v4h-3v1h1v1h-1v1h1v-1h2v4h-6v-2h-1v1h-1v-1h-1v1h1v1h-6v-4h1v1h1v-1h-1v-1h1v-1h-2v-4h6v2h-1v1h1v-1h1v1h1v-3zm-6 8h-1v1h1v-1zm0-6h-1v1h1v-1zm2 6h-1v1h1v-1zm0-6h-1v1h1v-1zm7 1h1v-1h-1v1zm0 6h1v-1h-1v1zm-2-6h1v-1h-1v1zm0 6h1v-1h-1v1zm-1-15v4h6v-4h-6z" id="iconFg"/></svg>