<svg xmlns="http://www.w3.org/2000/svg" width="16" height="16"><style type="text/css">.icon-canvas-transparent{opacity:0;fill:#F6F6F6;} .icon-vs-out{fill:#F6F6F6;} .icon-vs-bg{fill:#424242;}</style><path class="icon-canvas-transparent" d="M16 16h-16v-16h16v16z" id="canvas"/><path class="icon-vs-out" d="M13.333 2.815l-.28-.194c-1.044-.652-2.34-1.078-3.741-1.245l-1.111-.747h-.401l-1.105.742c-1.417.163-2.727.59-3.775 1.249l-.253.176c-1.28.889-1.991 2.055-1.993 3.316l-.007 3.193c-.004 1.363.806 2.621 2.283 3.543.521.327 1.113.599 1.76.812l.872.286.01-3.93.263-.016 1.469.979c-.364.318-1.389 1.156-1.389 1.156l.519.522c.961.962 1.731 1.641 2.84 2.499l.229.177.286-.047c.741-.12 1.443-.315 2.089-.578l1.19-.486-1.083-.693-.117-.076c.426-.173.824-.376 1.193-.607 1.447-.91 2.245-2.151 2.247-3.495l.007-3.192c.002-1.269-.71-2.444-2.002-3.344z" id="outline"/><path class="icon-vs-bg" d="M3.309 9.755c.489.306 1.034.555 1.615.745l-.006 2.526c-.581-.19-1.127-.438-1.615-.744-1.315-.822-1.972-1.9-1.969-2.975l.002-.69-.002.024.006-2.528c.003-.876.449-1.749 1.327-2.482.185-.154.383-.305.607-.446.594-.373 1.275-.657 2-.859l-1.94 1.303v2.045l-.066.037c-.22.138-.419.285-.601.436-.568.474-.953 1.007-1.156 1.562.269.749.864 1.463 1.798 2.046zm11.358-3.596c.003-.883-.447-1.765-1.333-2.507-.193-.161-.398-.319-.633-.465-.579-.362-1.241-.638-1.943-.84l1.909 1.282v2.069l.027.015c.234.147.448.302.639.463.572.48.956 1.02 1.156 1.58-.268.732-.85 1.429-1.759 1.999-.687.432-1.49.75-2.348.953.534-.645.785-.971 1.275-1.664-.605.247-1.263.427-1.943.538-.088.048-.163.175-.232.25-1.046 1.121-2.183 2.05-2.557 2.354.939.941 1.692 1.604 2.777 2.443.68-.111 1.337-.29 1.943-.538-.501-.322-.75-.488-1.268-.857.858-.202 1.66-.52 2.348-.952 1.289-.81 1.934-1.87 1.936-2.931l.007-2.526-.001.023v-.689zm-10.667-2.197v4l3.837 2.558c.367-.337.767-.724 1.153-1.138l.033-.042c.076-.098.192-.246.377-.345l.098-.052.111-.018c.564-.092 1.092-.241 1.589-.426l.802-.537v-4l-4 2.667-4-2.667zm.601-.4l3.399 2.266 3.4-2.266-3.4-2.266-3.399 2.266z" id="iconBg"/></svg>