<svg xmlns="http://www.w3.org/2000/svg" width="24" height="24"><style type="text/css">.icon-canvas-transparent{opacity:0;fill:#F6F6F6;} .icon-vs-out{fill:#F6F6F6;} .icon-vs-bg{fill:#424242;}</style><path class="icon-canvas-transparent" d="M24 24h-24v-24h24v24z" id="canvas"/><path class="icon-vs-out" d="M20 4.223l-.42-.291c-1.566-.978-3.51-1.617-5.611-1.868l-1.668-1.121h-.6l-1.658 1.113c-2.126.244-4.091.885-5.664 1.874l-.379.264c-1.92 1.334-2.986 3.083-2.99 4.974l-.01 4.789c-.006 2.045 1.209 3.932 3.424 5.315.781.49 1.67.898 2.641 1.219l1.309.43.015-5.894.393-.027 2.203 1.469c-.546.477-2.084 1.734-2.084 1.734l.778.783c1.441 1.443 2.596 2.461 4.26 3.748l.344.266.43-.07c1.111-.18 2.164-.473 3.133-.867l1.785-.729-1.625-1.039-.176-.113c.639-.26 1.236-.564 1.789-.91 2.17-1.365 3.367-3.227 3.371-5.242l.01-4.789c.006-1.906-1.062-3.668-3-5.018z" id="outline"/><path class="icon-vs-bg" d="M4.963 14.633c.733.459 1.552.832 2.423 1.117l-.01 3.789c-.871-.285-1.69-.656-2.423-1.115-1.972-1.233-2.957-2.85-2.953-4.463l.003-1.035-.003.035.01-3.791c.004-1.314.674-2.623 1.99-3.723.277-.232.574-.459.911-.67.891-.56 1.912-.985 3-1.289l-2.911 1.955v3.067l-.098.056c-.33.207-.628.427-.902.655-.853.711-1.43 1.511-1.734 2.343.404 1.124 1.296 2.194 2.697 3.069zm17.037-5.395c.004-1.324-.67-2.647-2-3.76-.289-.243-.598-.478-.949-.698-.869-.542-1.861-.958-2.914-1.26l2.863 1.923v3.104l.041.022c.352.221.672.454.959.696.857.72 1.434 1.53 1.734 2.37-.402 1.098-1.275 2.143-2.639 2.998-1.031.648-2.234 1.125-3.521 1.43.801-.967 1.178-1.457 1.912-2.496-.908.371-1.894.641-2.914.807-.133.072-.246.262-.35.375-1.568 1.682-3.275 3.074-3.835 3.531 1.409 1.412 2.539 2.406 4.165 3.664 1.02-.166 2.006-.436 2.914-.807-.752-.482-1.125-.732-1.902-1.285 1.287-.303 2.49-.779 3.521-1.428 1.934-1.215 2.9-2.805 2.904-4.396l.01-3.79-.002.034.003-1.034zm-15.999-3.295v6l5.755 3.836c.551-.506 1.151-1.086 1.729-1.707l.051-.063c.113-.146.287-.369.564-.518l.147-.078.166-.027c.846-.139 1.639-.361 2.383-.639l1.204-.804v-6l-6 4-5.999-4zm.901-.601l5.098 3.4 5.1-3.399-5.1-3.4-5.098 3.399z" id="iconBg"/></svg>