<svg xmlns="http://www.w3.org/2000/svg" width="16" height="16"><style type="text/css">.icon-canvas-transparent{opacity:0;fill:#F6F6F6;} .icon-vs-out{fill:#F6F6F6;} .icon-vs-bg{fill:#424242;} .icon-vs-fg{fill:#F0EFF1;}</style><path class="icon-canvas-transparent" d="M16 16h-16v-16h16v16z" id="canvas"/><path class="icon-vs-out" d="M5 0v10h-1.97c-1.833 0-2.942 1.059-3.011 2.832l-.019.17.017.156c.058 1.775 1.06 2.803 2.78 2.836l.053.006h12.15v-16h-10z" id="outline"/><path class="icon-vs-bg" d="M6 1v9h1v-3h6v3h-5.872c1.027 0 1.797.357 2.284 1h3.588v3h-3.139c-.105.386-.272.72-.5 1h4.639v-14h-8zm7 5h-6v-3h6v3zm-4 6.998c0 1.502-.899 2.002-2.024 2.002h-2.179s-.089-.281-.531-1.012c-.286-.639.175-1.114.463-.926.415.272.834.938.834.938h1.662c.775 0 .775-.625.775-1 0-1-.625-1-1-1l-.536-1h.664c1.125 0 1.872.498 1.872 1.998zm-7.994.004c0-1.502.899-2.002 2.024-2.002h2.179s.089.281.531 1.012c.286.639-.175 1.114-.463.926-.415-.272-.834-.938-.834-.938h-1.662c-.775 0-.775.625-.775 1 0 1 .625 1 1 1l.512 1h-.64c-1.125 0-1.872-.498-1.872-1.998z" id="iconBg"/><path class="icon-vs-fg" d="M13 11v3h-3.139c.083-.307.139-.635.139-1.002 0-.833-.211-1.499-.588-1.998h3.588zm0-8h-6v3h6v-3zm-6 7h6v-3h-6v3z" id="iconFg"/></svg>