<svg xmlns="http://www.w3.org/2000/svg" width="16" height="16"><style type="text/css">.icon-canvas-transparent{opacity:0;fill:#F6F6F6;} .icon-vs-out{fill:#F6F6F6;} .icon-vs-bg{fill:#424242;} .icon-vs-fg{fill:#F0EFF1;} .icon-vs-action-blue{fill:#00539C;}</style><path class="icon-canvas-transparent" d="M16 16h-16v-16h16v16z" id="canvas"/><path class="icon-vs-out" d="M16 7v6c0 1.711-2.149 3-5 3s-5-1.289-5-3v-6h-2.413l-3.5-3.5 3.5-3.5h5.828l3.5 3.5-.607.607c2.169.33 3.692 1.457 3.692 2.893z" id="outline"/><path class="icon-vs-bg" d="M15 7v6c0 1.104-1.791 2-4 2s-4-.896-4-2v-6h.675c0 .527 1.326 1.325 3.325 1.325s3.325-.798 3.325-1.325-1.326-1.325-3.325-1.325l-.273.014.669-.668c2.02.1 3.604.942 3.604 1.979z" id="iconBg"/><path class="icon-vs-fg" d="M14.325 7c0 .527-1.326 1.325-3.325 1.325s-3.325-.798-3.325-1.325h1.74l1.312-1.312.273-.013c1.999 0 3.325.798 3.325 1.325z" id="iconFg"/><path class="icon-vs-action-blue" d="M9.001 1h-2l2 2h-5l2-2h-2l-2.5 2.5 2.5 2.5h2l-2-2h5l-2 2h2l2.5-2.5-2.5-2.5z" id="colorAction"/></svg>