<svg xmlns="http://www.w3.org/2000/svg" width="16" height="16"><style type="text/css">.icon-canvas-transparent{opacity:0;fill:#F6F6F6;} .icon-vs-out{fill:#F6F6F6;} .icon-vs-bg{fill:#424242;} .icon-vs-fg{fill:#F0EFF1;}</style><rect class="icon-canvas-transparent" width="16" height="16" id="canvas"/><path class="icon-vs-out" d="M14 0h-11c-1.103 0-2 .897-2 2v3h-1v11h10v-8h4c1.103 0 2-.897 2-2v-4c0-1.103-.897-2-2-2z" id="outline"/><path class="icon-vs-bg" d="M10 5h-6v-2h6v2zm5-3v4c0 .55-.45 1-1 1h-5v8h-8v-9h1v-4c0-.55.45-1 1-1h11c.55 0 1 .45 1 1zm-1 0h-11v4h11v-4z" id="iconBg"/><path class="icon-vs-fg" d="M3 6h11v-4h-11v4zm1-3h6v2h-6v-2z" id="iconFg"/></svg>