<?xml version="1.0" encoding="utf-8"?>
<!-- Generator: Adobe Illustrator 18.1.1, SVG Export Plug-In . SVG Version: 6.00 Build 0)  -->
<!DOCTYPE svg PUBLIC "-//W3C//DTD SVG 1.1//EN" "http://www.w3.org/Graphics/SVG/1.1/DTD/svg11.dtd">
<svg version="1.1" xmlns="http://www.w3.org/2000/svg" xmlns:xlink="http://www.w3.org/1999/xlink" x="0px" y="0px" width="64px"
	 height="64px" viewBox="0 0 64 64" style="enable-background:new 0 0 64 64;" xml:space="preserve">
<style type="text/css">
	.st0{fill:#231F20;}
	.st1{fill:#FFFFFF;}
</style>
<g id="canvas">
	<path class="st0" d="M64,64H0V0h64V64z"/>
</g>
<g id="iconBg">
	<path class="st1" d="M15.355,21.057v9.133h7.831v1.37h-7.831V42H14V19.672h10.499v1.384H15.355z M34.562,19.692V42h-1.313V21.899
		c-0.7,0.67-1.406,1.248-2.304,1.734c-0.897,0.487-1.879,0.918-2.945,1.294v-1.278c0.64-0.213,1.233-0.455,1.781-0.723
		c0.548-0.269,1.073-0.566,1.575-0.891c0.502-0.324,0.988-0.682,1.46-1.073c0.472-0.39,0.95-0.813,1.439-1.271H34.562z M39,42.019
		v-1.021c0-0.679,0.055-1.763,0.168-2.306c0.111-0.543,0.281-1.043,0.51-1.498c0.228-0.456,0.512-0.886,0.852-1.287
		c0.339-0.399,0.735-0.802,1.188-1.202c0.451-0.399,0.964-0.812,1.536-1.232c0.573-0.421,1.199-0.879,1.878-1.376
		c0.661-0.477,1.277-0.949,1.85-1.415c0.572-0.467,1.072-0.969,1.499-1.507c0.425-0.538,0.762-1.128,1.011-1.772
		c0.249-0.644,0.374-1.382,0.374-2.214c0-1.44-0.398-2.56-1.195-3.355c-0.797-0.796-1.915-1.194-3.354-1.194
		c-0.975,0-1.912,0.213-2.815,0.638c-0.904,0.426-1.785,1.021-2.647,1.781v-1.643c0.83-0.639,1.729-1.142,2.693-1.507
		c0.963-0.365,1.967-0.547,3.013-0.547c0.872,0,1.663,0.132,2.373,0.396c0.709,0.263,1.316,0.639,1.818,1.126
		c0.502,0.487,0.891,1.075,1.165,1.765c0.272,0.689,0.409,1.461,0.409,2.313c0,1.003-0.145,1.894-0.433,2.67
		c-0.289,0.776-0.684,1.48-1.179,2.115c-0.497,0.634-1.079,1.217-1.743,1.75c-0.665,0.532-1.366,1.063-2.107,1.59
		c-0.984,0.701-1.815,1.321-2.495,1.863c-0.681,0.544-1.233,1.073-1.658,1.591c-0.427,0.517-0.733,1.051-0.922,1.598
		c-0.187,0.548-0.28,1.181-0.28,1.901v0.702h11.132v1.278H39z"/>
</g>
</svg>
