<svg xmlns="http://www.w3.org/2000/svg" width="32" height="96"><style type="text/css">.icon-canvas-transparent{opacity:0;fill:#F6F6F6;} .icon-white{fill:#FFFFFF;} .icon-f12-grey-primary{fill:#555555;} .icon-f12-ltgrey-disabled{fill:#ABABAC;} .icon-f12-error-negative{fill:#ED1123;} .icon-f12-start-positive{fill:#009E49;}</style><path class="icon-canvas-transparent" d="M32 96h-32v-96h32v96z" id="canvas"/><g id="iconBg"><path class="icon-f12-grey-primary" d="M17 3c-.681 0-1.345.065-2 .159v7.841h-4v4h-7.841c-.094.655-.159 1.319-.159 2 0 7.732 6.268 14 14 14s14-6.268 14-14-6.268-14-14-14zm-2.814 24h-.915l4.06-8h-5.331l4.204-9h7.064l-6.837 7h7.979l-10.224 10z"/><path class="icon-f12-error-negative" d="M17 35c-.681 0-1.345.065-2 .159v7.841h-4v4h-7.841c-.094.654-.159 1.319-.159 2 0 7.732 6.268 14 14 14s14-6.268 14-14-6.268-14-14-14zm-2.814 24h-.915l4.06-8h-5.331l4.204-9h7.064l-6.837 7h7.979l-10.224 10z"/><path class="icon-f12-ltgrey-disabled" d="M17 67c-.681 0-1.346.065-2 .159v7.841h-4v4h-7.841c-.095.654-.159 1.319-.159 2 0 7.732 6.268 14 14 14s14-6.268 14-14-6.268-14-14-14zm-2.813 24h-.915l4.06-8h-5.332l4.203-9h7.064l-6.837 7h7.978l-10.221 10z"/></g><g id="iconFg"><path class="icon-white" d="M16.431 17h7.979l-10.224 10h-.915l4.06-8h-5.331l4.204-9h7.064l-6.837 7z"/><path class="icon-white" d="M16.431 49h7.979l-10.224 10h-.915l4.06-8h-5.331l4.204-9h7.064l-6.837 7z"/><path class="icon-white" d="M16.431 81h7.979l-10.224 10h-.915l4.06-8h-5.331l4.203-9h7.064l-6.836 7z"/></g><g id="colorAction"><path class="icon-f12-start-positive" d="M12 8h-4v4h-3v-4h-4v-3h4v-4h3v4h4v3z"/><path class="icon-f12-start-positive" d="M12 40h-4v4h-3v-4h-4v-3h4v-4h3v4h4v3z"/><path class="icon-f12-ltgrey-disabled" d="M12 72h-4v4h-3v-4h-4v-3h4v-4h3v4h4v3z"/></g></svg>