<svg xmlns="http://www.w3.org/2000/svg" width="16" height="16"><style type="text/css">.icon-canvas-transparent{opacity:0;fill:#F6F6F6;} .icon-vs-out{fill:#F6F6F6;} .icon-vs-bg{fill:#424242;} .icon-vs-fg{fill:#F0EFF1;}</style><path class="icon-canvas-transparent" d="M16 16h-16v-16h16v16z" id="canvas"/><path class="icon-vs-out" d="M16 4.586v9.414c0 .987-.701 1.999-1.999 2h-10.001c-.988 0-2-.701-2-2v-6h-2v-4.717c0-1.1.809-2.321 2-2.915v-.368h9.414l4.586 4.586z" id="outline"/><path class="icon-vs-bg" d="M13 13v-7h-1l-6 7h1l1.714-2h3.286v2h1zm-3.429-3l2.429-2.833v2.833h-2.429zm-7.571-3h-1v-3.717c0-.889 1.002-2.284 2.5-2.283 1.502-.001 2.5 1.394 2.5 2.283v4.289c0 1.428-1.5 1.428-1.5 1.428-.004 0-1.52 0-1.5-1.428v-4.572h1s-.012 4.516 0 4.572c.002.008-.043.428.5.428.5 0 .498-.418.5-.428.006-.029.04-3.29 0-4.289-.01-.256.001-1.283-1.5-1.283-1.5 0-1.5 1.188-1.5 1.283v3.717zm13-2v9.035s0 .965-1 .965h-10.035s-.965 0-.965-1v-4.457c.347.232.712.35 1 .405v4.052h10v-9h-3v-3h-4.345c-.185-.362-.438-.703-.752-1h5.097l4 4z" id="iconBg"/><path class="icon-vs-fg" d="M11 5v-3h-4.345c.215.419.345.859.345 1.283v4.289c0 1.782-1.495 2.428-2.5 2.428-.071 0-.259-.006-.5-.052v4.052h10v-9h-3zm2 8h-1v-2h-3.286l-1.714 2h-1l6-7h1v7zm-3.429-3l2.429-2.833v2.833h-2.429z" id="iconFg"/></svg>