<svg xmlns="http://www.w3.org/2000/svg" width="16" height="16"><style type="text/css">.icon-canvas-transparent{opacity:0;fill:#F6F6F6;} .icon-vs-out{fill:#F6F6F6;} .icon-vs-bg{fill:#424242;} .icon-vs-fg{fill:#F0EFF1;}</style><path class="icon-canvas-transparent" d="M16 16h-16v-16h16v16z" id="canvas"/><path class="icon-vs-out" d="M15 4v8c0 2.28-3.01 4-7 4-1.907 0-3.585-.396-4.823-1.055l-1.118 1.055h-2.059l1.523-2.428c-.129-.183-.229-.375-.311-.572h-1.212v-1.236l1-2v-5.764c0-2.28 3.01-4 7-4s7 1.72 7 4z" id="outline"/><path class="icon-vs-bg" d="M8 1c-3.313 0-6 1.343-6 3v3.764l.382-.764h6.032l-3 3h3l-4.46 4.211c1.068.488 2.485.789 4.046.789 3.313 0 6-1.343 6-3v-8c0-1.657-2.687-3-6-3zm-.003 4.875c-2.931 0-4.875-1.129-4.875-1.875 0-.747 1.944-1.875 4.875-1.875s4.875 1.128 4.875 1.875c0 .746-1.944 1.875-4.875 1.875zm-1.997 2.125l-3 3h3l-4 4 1.5-3h-2.5l2-4h3z" id="iconBg"/><g id="iconFg"><path class="icon-vs-fg" d="M12.872 4c0 .746-1.944 1.875-4.875 1.875s-4.875-1.129-4.875-1.875c0-.747 1.944-1.875 4.875-1.875s4.875 1.128 4.875 1.875z"/></g></svg>