<svg xmlns="http://www.w3.org/2000/svg" width="28" height="28"><style type="text/css">.icon-canvas-transparent{opacity:0;fill:#F6F6F6;} .icon-f12-grey-primary{fill:#555555;}</style><path class="icon-canvas-transparent" d="M28 28h-28v-28h28v28z" id="canvas"/><g id="iconBg"><polygon class="icon-f12-grey-primary" points="10,14 4,20 10,20 2,28 5,22 0,22 4,14"/><path class="icon-f12-grey-primary" d="M10 14l-6 6h6l-8 8 3-6h-5l4-8h6zm4-14c-6.627 0-12 2.686-12 6v7.527l.764-1.527h12.064l-6 6h6l-8.578 8.578c2.092.885 4.795 1.422 7.75 1.422 6.627 0 12-2.686 12-6v-16c0-3.314-5.373-6-12-6zm-.006 9.666c-6.104 0-10-2.035-10-3.666s3.896-4 10-4 10 2.369 10 4-3.896 3.666-10 3.666z"/></g></svg>