<svg xmlns="http://www.w3.org/2000/svg" width="16" height="16"><style type="text/css">.icon-canvas-transparent{opacity:0;fill:#F6F6F6;} .icon-vs-out{fill:#F6F6F6;} .icon-vs-bg{fill:#424242;} .icon-vs-fg{fill:#F0EFF1;} .icon-vs-action-blue{fill:#00539C;}</style><path class="icon-canvas-transparent" d="M16 16h-16v-16h16v16z" id="canvas"/><path class="icon-vs-out" d="M15.951 11.517c-.166-.893-.845-1.839-2.249-2.033.916-.863 1.808-1.836 1.82-3.011.005-.448-.127-1.115-.784-1.746-.5-.482-1.295-.727-2.363-.727-.872 0-1.942.188-3.022.552-.417-1.468-1.754-2.552-3.353-2.552h-.084l1.988-2h-4.82l-3.084 3.103v.828l3.087 3.069h1.413v1.318c-.317.65-.502 1.373-.502 2.169 0 3.808 3.356 5.513 6.682 5.513 1.027 0 2.012-.162 2.773-.455 1.699-.654 2.796-2.424 2.498-4.028z" id="outline"/><path class="icon-vs-bg" d="M12.617 10.487s-1.904.458-.476-.917c1.213-1.168 3.333-2.75 1.903-4.124-.656-.632-2.619-.578-4.55.1-.016 1.177-.613 2.215-1.52 2.838l.024.116c0 .276-.224.5-.5.5-.16 0-.296-.08-.388-.197-.351.118-.72.197-1.11.197h-.704c-.186.459-.298.953-.298 1.487 0 4.583 5.715 5.041 8.096 4.124 2.381-.916 2.856-4.582-.477-4.124zm-6.119.513c-.276 0-.5-.224-.5-.5s.224-.5.5-.5.5.224.5.5-.224.5-.5.5zm1 2c-.276 0-.5-.224-.5-.5s.224-.5.5-.5.5.224.5.5-.224.5-.5.5zm2 1c-.276 0-.5-.224-.5-.5s.224-.5.5-.5.5.224.5.5-.224.5-.5.5zm0-6c-.276 0-.5-.224-.5-.5s.224-.5.5-.5.5.224.5.5-.224.5-.5.5z" id="iconBg"/><path class="icon-vs-fg" d="M9.498 7c.276 0 .5.224.5.5s-.224.5-.5.5-.5-.224-.5-.5.224-.5.5-.5zm-3 3c-.276 0-.5.224-.5.5s.224.5.5.5.5-.224.5-.5-.224-.5-.5-.5zm.612-1.197c.092.117.228.197.388.197.276 0 .5-.224.5-.5l-.023-.115c-.263.181-.557.314-.865.418zm.388 3.197c-.276 0-.5.224-.5.5s.224.5.5.5.5-.224.5-.5-.224-.5-.5-.5zm2 1c-.276 0-.5.224-.5.5s.224.5.5.5.5-.224.5-.5-.224-.5-.5-.5z" id="iconFg"/><path class="icon-vs-action-blue" d="M3.5 1h2l-1.988 2h2.488c1.381 0 2.5 1.119 2.5 2.5s-1.119 2.5-2.5 2.5h-.5v-1h.5c.827 0 1.5-.673 1.5-1.5s-.673-1.5-1.5-1.5h-2.513l2.013 2h-2l-2.5-2.485 2.5-2.515z" id="colorAction"/></svg>