<svg xmlns="http://www.w3.org/2000/svg" width="16" height="16"><style type="text/css">.icon-canvas-transparent{opacity:0;fill:#F6F6F6;} .icon-vs-out{fill:#F6F6F6;} .icon-vs-bg{fill:#424242;} .icon-vs-action-blue{fill:#00539C;}</style><path class="icon-canvas-transparent" d="M16 16h-16v-16h16v16z" id="canvas"/><path class="icon-vs-out" d="M13.279 13.874l-2.104 2.126-3.171-3.17-3.171 3.168-2.109-2.121 1.932-1.932c-1.33-.609-1.671-1.854-1.671-2.424 0-.959.419-1.673 1.016-2.141v-3.794l3.585-3.586h.828l3.586 3.586v3.815c.589.468.996 1.176.996 2.121 0 .568-.338 1.804-1.653 2.416l1.936 1.936z" id="outline"/><path class="icon-vs-bg" d="M9.521 11.297c2.445 0 2.475-1.758 2.475-1.775 0-1.345-1.155-1.746-1.772-1.77-1.402 0-1.988.878-2.234 1.635-.247-.755-.836-1.635-2.238-1.635-.612.023-1.768.424-1.768 1.769 0 .018.027 1.775 2.475 1.775h.26l-2.583 2.582.699.703 3.169-3.166 3.167 3.166.697-.704-2.581-2.581h.234zm.589-2.555c.064.003.897.057.897.777-.002.033-.033.785-1.356.785h-.844v-.227c0-.222.063-1.333 1.303-1.335zm-2.934 1.336v.227h-.846c-1.321 0-1.353-.752-1.354-.783 0-.722.826-.776.89-.779 1.246.001 1.31 1.112 1.31 1.335z" id="iconBg"/><path class="icon-vs-action-blue" d="M7 4l-2 2v-2l3-3 3 3v2l-2-2v3h-2v-3z" id="colorAction"/></svg>