<svg xmlns="http://www.w3.org/2000/svg" viewBox="0 0 16 16" enable-background="new 0 0 16 16"><style type="text/css">.icon-canvas-transparent{opacity:0;fill:#F6F6F6;} .icon-vs-out{fill:#F6F6F6;} .icon-vs-bg{fill:#424242;} .icon-vs-fg{fill:#F0EFF1;}</style><path class="icon-canvas-transparent" d="M16 16h-16v-16h16v16z" id="canvas"/><path class="icon-vs-out" d="M4 16v-3.108h-1.939l-2.061-2.075v-8.754l2.063-2.063h11.702l2.235 2.036v8.81l-2.233 2.046h-5.299l-1.982 3.108h-2.486z" id="outline"/><path class="icon-vs-bg" d="M13.378 1h-10.901l-1.477 1.46v7.928l1 1.092.477.52h2.523v3h.938l1.322-2 .66-1h5.458l.622-.618 1-.994v-7.928l-1.622-1.46zm.622 8.978l-1.032 1.022h-5.578l-.263.383-1.086 1.617h-.041v-2h-3.1130000000000004l-.887-1.022v-7.107l.887-.871h10.081l1.032.871v7.107zm-9-6.478l-1 1 1 1-.5.5-1.5-1.5 1.5-1.5.5.5zm6.5-.5l1.5 1.5-1.5 1.5-.5-.5 1-1-1-1 .5-.5zm-5.5 1h4v1h-4v-1zm-1 3.5l-1 1 1 1-.5.5-1.5-1.5 1.5-1.5.5.5zm6.5-.5l1.5 1.5-1.5 1.5-.5-.5 1-1-1-1 .5-.5zm-5.5 1h4v1h-4v-1z" id="iconBg"/><g id="iconFg"><path class="icon-vs-fg" d="M12.968 2h-10.081l-.887.871v7.107l.887 1.022h3.113v2h.041l1.086-1.617.263-.383h5.578l1.032-1.022v-7.107l-1.032-.871zm-7.968 7.5l-.5.5-1.5-1.5 1.5-1.5.5.5-1 1 1 1zm0-4l-.5.5-1.5-1.5 1.5-1.5.5.5-1 1 1 1zm5 3.5h-4v-1h4v1zm0-4h-4v-1h4v1zm1.5 5l-.5-.5 1-1-1-1 .5-.5 1.5 1.5-1.5 1.5zm0-4l-.5-.5 1-1-1-1 .5-.5 1.5 1.5-1.5 1.5z"/></g></svg>