<svg xmlns="http://www.w3.org/2000/svg" width="16" height="16"><style type="text/css">.icon-canvas-transparent{opacity:0;fill:#F6F6F6;} .icon-white{fill:#FFFFFF;} .icon-cocoapods-red{fill:#FA2A01;}</style><path class="icon-canvas-transparent" d="M16 16h-16v-16h16v16z" id="canvas"/><path class="icon-white" d="M16 16h-16v-16h16v16z" id="outline"/><path class="icon-cocoapods-red" d="M1 15v-14h14v14h-14z" id="iconBg"/><path class="icon-white" d="M11.076 11.23l.601-1.41c.245-.574.489-1.148.739-1.72.049-.111.047-.203-.001-.314-.423-.979-.84-1.959-1.259-2.94l-.075-.187 1.127-.484.098.221c.482 1.133.965 2.266 1.442 3.402.031.073.045.178.017.246-.502 1.197-1.011 2.39-1.519 3.585l-.043.079-1.127-.478zm-1.038-2.168c-.581-.002-1.162-.006-1.743 0l-.118.106c-.147.224-.255.486-.439.674-.823.836-2.388.708-3.165-.245-.403-.493-.56-1.067-.545-1.699.028-1.176.847-2.356 2.384-2.294.887.036 1.564.552 1.784 1.411.033.129.089.152.203.151l1.511-.002.155-.013.006-.068c-.197-1.255-.848-2.179-2.01-2.716-.753-.348-1.55-.424-2.368-.33-.982.113-1.831.503-2.486 1.255-.815.936-1.099 2.041-.948 3.258.147 1.183.705 2.135 1.711 2.79.971.633 2.05.778 3.17.572 1.329-.245 2.29-.979 2.789-2.262.071-.183.112-.377.165-.56l-.056-.028z" id="iconFg"/></svg>