<svg xmlns="http://www.w3.org/2000/svg" width="26" height="26"><style type="text/css">.icon-canvas-transparent{opacity:0;fill:#F6F6F6;} .icon-white{fill:#FFFFFF;} .icon-cocoapods-red{fill:#FA2A01;}</style><path class="icon-canvas-transparent" d="M26 26h-26v-26h26v26z" id="canvas"/><path class="icon-white" d="M26 26h-26v-26h26v26z" id="outline"/><path class="icon-cocoapods-red" d="M1 25v-24h24v24h-24z" id="iconBg"/><path class="icon-white" d="M17.791 17.906l.94-2.207c.384-.898.765-1.797 1.157-2.692.076-.173.073-.318-.001-.491-.662-1.532-1.315-3.067-1.97-4.602l-.118-.293 1.765-.757.153.346c.754 1.774 1.51 3.547 2.257 5.325.048.114.071.278.026.386-.785 1.874-1.582 3.742-2.378 5.611l-.067.124-1.764-.75zm-1.624-3.393c-.909-.003-1.819-.009-2.728-.001-.063.001-.14.097-.185.166-.231.352-.399.762-.687 1.055-1.288 1.31-3.737 1.109-4.955-.382-.631-.773-.875-1.671-.852-2.659.044-1.841 1.325-3.688 3.731-3.591 1.389.056 2.448.863 2.792 2.209.052.201.139.238.318.237.788-.007 1.577-.002 2.365-.004l.243-.02.009-.106c-.309-1.964-1.327-3.411-3.146-4.252-1.179-.545-2.427-.664-3.707-.517-1.537.175-2.867.786-3.891 1.963-1.275 1.465-1.72 3.195-1.483 5.1.231 1.853 1.103 3.342 2.679 4.368 1.52.99 3.21 1.218 4.962.895 2.081-.384 3.584-1.532 4.365-3.54.111-.286.175-.59.257-.877l-.087-.044z" id="iconFg"/></svg>