<svg xmlns="http://www.w3.org/2000/svg" width="16" height="16"><style type="text/css">.icon-canvas-transparent{opacity:0;fill:#F6F6F6;} .icon-vs-out{fill:#F6F6F6;} .icon-vs-bg{fill:#424242;}</style><path class="icon-canvas-transparent" d="M16 16h-16v-16h16v16z" id="canvas"/><path class="icon-vs-out" d="M15 7.697l-2.697-1.697h2.42c.8 0 1.277-.748 1.277-2 0-1.654-1.346-3-3-3h-6c-1.654 0-3 1.346-3 3 0 1.252.478 2 1.277 2h-4.691l2 2h-2.586v4h2.586l-2 2h4.828l2.586-2.788v1.121l4 2.667 4-2.667v-4.097l-.984-.6-.016.061zm-9.586-1.697h3.586v-2h2v2h.697l-2.697 1.697-.021-.064-.979.598v.152l-2.586-2.383z" id="outline"/><path class="icon-vs-bg" d="M1 11v-2h4l-2-2h2l3 3-3 3h-2l2-2h-4zm12-9h-6c-1.104 0-2 .895-2 2 0 .365.105 1 .277 1h2.723v-2h4v2h2.723c.171 0 .277-.635.277-1 0-1.105-.896-2-2-2zm1.099 6.398l-2.099-1.398-2.099 1.398 2.099 1.4 2.099-1.4zm-2.099 2.602l-3-2v3l3 2 3-2v-3l-3 2z" id="iconBg"/></svg>