<svg xmlns="http://www.w3.org/2000/svg" width="16" height="16"><style type="text/css">.icon-canvas-transparent{opacity:0;fill:#F6F6F6;} .icon-vs-out{fill:#F6F6F6;} .icon-vs-bg{fill:#424242;} .icon-vs-fg{fill:#F0EFF1;}</style><path class="icon-canvas-transparent" d="M16 16h-16v-16h16v16z" id="canvas"/><path class="icon-vs-out" d="M15 4v8c0 2.28-3.01 4-7 4-.342 0-.674-.018-1-.042v.042h-7v-9h1v-3c0-2.28 3.01-4 7-4s7 1.72 7 4z" id="outline"/><path class="icon-vs-bg" d="M8 1c-3.313 0-6 1.343-6 3v3h5v7.955c.326.027.659.045 1 .045 3.314 0 6-1.343 6-3v-8c0-1.657-2.686-3-6-3zm-.003 4.875c-2.931 0-4.875-1.129-4.875-1.875 0-.747 1.944-1.875 4.875-1.875s4.875 1.128 4.875 1.875c0 .746-1.944 1.875-4.875 1.875zm-6.997 2.125v7h2v-2h1v2h2v-7h-5zm2 4h-1v-1h1v1zm0-2h-1v-1h1v1zm2 2h-1v-1h1v1zm0-2h-1v-1h1v1z" id="iconBg"/><path class="icon-vs-fg" d="M3 13h1v2h-1v-2zm0-4h-1v1h1v-1zm0 2h-1v1h1v-1zm1 1h1v-1h-1v1zm0-2h1v-1h-1v1zm3.997-7.875c-2.931 0-4.875 1.128-4.875 1.875 0 .746 1.944 1.875 4.875 1.875s4.875-1.129 4.875-1.875c0-.747-1.944-1.875-4.875-1.875z" id="iconFg"/></svg>