<svg xmlns="http://www.w3.org/2000/svg" width="16" height="16"><style type="text/css">.icon-canvas-transparent{opacity:0;fill:#F6F6F6;} .icon-white{fill:#FFFFFF;} .icon-vso-bg{fill:#656565;}</style><path class="icon-canvas-transparent" d="M16 16h-16v-16h16v16z" id="canvas"/><path class="icon-white" d="M12.028 2l-.276.333c-.228.164-.463.455-.676.582-.213.127-.453.243-.66.346-.206.101-.474.193-.684.275-.221.086-.569.168-.808.246l-.924.226v1.788c-.657-.627-1.489-.738-2.016-.738-.438 0-.984.068-.984.204v-3.262h-4v12h8v-5.18c0-.677-.083-1.229-.221-1.686l.473-.122c.263-.067.748-.141.748-.223v7.211h4v-12h-1.972z" id="outline"/><path class="icon-vso-bg" d="M8.028 13h-1.537v-3.71c0-1.342-.449-2.013-1.345-2.013-.451 0-.831.194-1.14.583-.308.388-.463.885-.463 1.49v3.65h-1.543v-10.042h1.543v4.385h.027c.512-.856 1.245-1.285 2.199-1.285 1.506 0 2.259.921 2.259 2.763v4.179zm4.972-9.711v9.711h-1.537v-7.83c-.278.199-.577.368-.898.506-.32.139-.686.262-1.097.368v-1.311c.257-.084.504-.172.742-.265.238-.093.474-.197.706-.312.231-.115.466-.243.702-.384.235-.141.48-.302.732-.483h.65z" id="iconBg"/></svg>