<svg xmlns="http://www.w3.org/2000/svg" width="16" height="16"><style type="text/css">.icon-canvas-transparent{opacity:0;fill:#F6F6F6;} .icon-vs-out{fill:#F6F6F6;} .icon-vs-bg{fill:#424242;}</style><path class="icon-canvas-transparent" d="M16 16h-16v-16h16v16z" id="canvas"/><path class="icon-vs-out" d="M16 10c0 3.309-2.691 6-6 6h-2v-4h-2.413l-5.587-5.553v-.828l5.584-5.619h6.82l-3.976 4h1.572c3.309 0 6 2.691 6 6z" id="outline"/><path class="icon-vs-bg" d="M15 10c0 2.762-2.238 5-5 5h-1v-2h1c1.654 0 3-1.346 3-3s-1.346-3-3-3h-4.025l4.025 4h-4l-5-4.969 5-5.031h4l-3.977 4h3.977c2.762 0 5 2.238 5 5z" id="iconBg"/></svg>