<svg xmlns="http://www.w3.org/2000/svg" width="16" height="16"><style type="text/css">.icon-canvas-transparent{opacity:0;fill:#F6F6F6;} .icon-vs-out{fill:#F6F6F6;} .icon-vs-bg{fill:#424242;} .icon-vs-fg{fill:#F0EFF1;}</style><path class="icon-canvas-transparent" d="M16 16h-16v-16h16v16z" id="canvas"/><path class="icon-vs-out" d="M15 12h-5.76c-.808 1.205-2.181 2-3.74 2-2.485 0-4.5-2.015-4.5-4.5 0-1.56.795-2.933 2-3.74v-3.76h12v10z" id="outline"/><path class="icon-vs-bg" d="M5.5 6c-1.933 0-3.5 1.567-3.5 3.5 0 1.934 1.567 3.5 3.5 3.5s3.5-1.566 3.5-3.5c0-1.933-1.567-3.5-3.5-3.5zm0 6c-1.381 0-2.5-1.119-2.5-2.5 0-.815.396-1.532 1-1.989v3.489h3.489c-.457.604-1.174 1-1.989 1zm.5-3v-1.95c.979.199 1.751.971 1.949 1.95h-1.949zm8-6v8h-4.275c.113-.318.187-.652.225-1h3.05v-5h-8v.05c-.347.039-.682.112-1 .225v-2.275h10z" id="iconBg"/><path class="icon-vs-fg" d="M4 11h3.489c-.457.604-1.174 1-1.989 1-1.381 0-2.5-1.119-2.5-2.5 0-.815.396-1.532 1-1.989v3.489zm1.5-6c2.485 0 4.5 2.015 4.5 4.5 0 .172-.032.334-.051.5h3.051v-5h-7.5zm.5 2.05v1.95h1.949c-.198-.979-.97-1.751-1.949-1.95z" id="iconFg"/></svg>