<?xml version="1.0" encoding="utf-8"?>
<!-- Generator: Adobe Illustrator 19.0.0, SVG Export Plug-In . SVG Version: 6.00 Build 0)  -->
<!DOCTYPE svg PUBLIC "-//W3C//DTD SVG 1.1//EN" "http://www.w3.org/Graphics/SVG/1.1/DTD/svg11.dtd">
<svg version="1.1" xmlns="http://www.w3.org/2000/svg" xmlns:xlink="http://www.w3.org/1999/xlink" x="0px" y="0px" width="32px"
	 height="32px" viewBox="0 0 32 32" style="enable-background:new 0 0 32 32;" xml:space="preserve">
<style type="text/css">
	.icon_x002D_canvas_x002D_transparent{opacity:0;fill:#F6F6F6;}
	.icon_x002D_vs_x002D_out{fill:#F6F6F6;}
	.icon_x002D_vs_x002D_bg{fill:#424242;}
	.icon_x002D_vs_x002D_fg{fill:#F0EFF1;}
	.st0{fill:#A4C439;}
</style>
<g id="canvas">
	<path class="icon_x002D_canvas_x002D_transparent" d="M32,32H0V0h32V32z"/>
</g>
<g id="outline">
	<path class="icon_x002D_vs_x002D_out" d="M32,0v32H10v-0.677C9.461,31.747,8.843,32,8.106,32C6.36,32,5,30.579,5,28.833v-0.807
		c0-0.146-0.74-0.358-1.015-0.634c-0.273-0.274-0.521-0.601-0.675-0.964c-0.037,0.001-0.091,0.002-0.128,0.002
		C1.436,26.431,0,25.01,0,23.264v-4.885c0-1.619,1.221-2.958,2.789-3.145c0.186-1.537,0.92-2.983,2.042-4.077
		c-0.251-0.471-0.313-1.058-0.157-1.596c0.16-0.555,0.545-1.032,1.054-1.305l0.443-0.241l0.58-0.027
		c0.793,0,1.521,0.419,1.899,1.117l0.046,0.057C9.12,9.09,9.552,9,9.99,9C9.994,9,9.997,9,10,9V0H32z"/>
</g>
<g id="iconBg">
	<path class="icon_x002D_vs_x002D_bg" d="M12,2v6.414C12.359,8.158,12.787,8,13.247,8h0.492L14,8.126V4h14v20h-8.096
		c-0.322,1.336-1.489,2.337-2.904,2.413V28h-1.911c-0.031,0.01-0.057,0.022-0.089,0.031v0.799c0,0.414-0.081,0.807-0.221,1.17H30V13
		V2H12z M22,28h-2v-2h2V28z M27,28h-2v-2h2V28z"/>
</g>
<g id="iconFg">
	<path id="XMLID_14_" class="icon_x002D_vs_x002D_fg" d="M25,26h2v2h-2V26z M20,26h2v2h-2V26z M28,4v20h-8.096
		C19.962,23.762,20,23.518,20,23.263v-4.886c0-1.62-1.223-2.961-2.794-3.145c-0.186-1.535-0.92-2.979-2.041-4.073
		c0.254-0.487,0.313-1.044,0.165-1.577c-0.155-0.558-0.52-1.022-1.076-1.334L14,8.126V4H28z M17,26.413V28h-1.911
		c0.928-0.299,1.27-0.851,1.574-1.572c0.036,0.001,0.174,0.002,0.174,0.002C16.893,26.43,16.945,26.416,17,26.413z M13,13.5
		c0,0.276-0.224,0.5-0.5,0.5S12,13.776,12,13.5s0.224-0.5,0.5-0.5S13,13.224,13,13.5z M7.5,13C7.776,13,8,13.224,8,13.5
		C8,13.776,7.776,14,7.5,14C7.224,14,7,13.776,7,13.5C7,13.224,7.224,13,7.5,13z"/>
</g>
<g id="colorImportance">
	<path id="XMLID_21_" class="st0" d="M5,17h10v8.002C15,25.69,14.659,26,13.972,26H13v2.831c0,0.644-0.356,1.168-1,1.167
		c-0.643,0.001-1-0.523-1-1.166V26H9v2.833C9,29.476,8.644,30,7.999,30C7.357,30,7,29.477,7,28.833V26H6.032
		C5.344,26,4.999,25.692,5,25.003V17z M4,18.378v4.886c0,0.646-0.355,1.167-1,1.167c-0.644,0-1-0.521-1-1.167v-4.885
		c0-0.644,0.355-1.167,1-1.167C3.644,17.211,4,17.734,4,18.378z M18,23.262c0,0.646-0.356,1.167-1,1.167c-0.645,0-1-0.521-1-1.167
		v-4.885c0-0.644,0.356-1.167,1-1.167c0.644,0,1,0.522,1,1.166V23.262z M4.743,16h10.509c0-1.555-0.804-2.986-2.049-3.882
		l0.708-1.682c0.107-0.253-0.013-0.548-0.267-0.655c-0.253-0.107-0.548,0.013-0.655,0.267l-0.451,1.071l-0.256,0.468
		c-0.692-0.308-1.467-0.481-2.286-0.48c-0.817-0.001-1.591,0.171-2.281,0.478l-0.253-0.461L7.01,10.048
		C6.904,9.795,6.609,9.675,6.355,9.781c-0.253,0.107-0.373,0.401-0.267,0.655l0.707,1.68C5.549,13.011,4.742,14.444,4.743,16z
		 M12.5,13c0.276,0,0.5,0.224,0.5,0.5c0,0.276-0.224,0.5-0.5,0.5S12,13.776,12,13.5C12,13.224,12.224,13,12.5,13z M7.5,13
		C7.776,13,8,13.224,8,13.5C8,13.776,7.776,14,7.5,14C7.224,14,7,13.776,7,13.5C7,13.224,7.224,13,7.5,13z"/>
	<g id="XMLID_26_">
	</g>
	<g id="XMLID_27_">
	</g>
	<g id="XMLID_28_">
	</g>
	<g id="XMLID_29_">
	</g>
	<g id="XMLID_30_">
	</g>
	<g id="XMLID_31_">
	</g>
</g>
</svg>
