<svg xmlns="http://www.w3.org/2000/svg" width="16" height="16"><style type="text/css">.icon-canvas-transparent{opacity:0;fill:#F6F6F6;} .icon-vs-out{fill:#F6F6F6;} .icon-vs-bg{fill:#424242;} .icon-vs-fg{fill:#F0EFF1;} .icon-vs-action-red{fill:#A1260D;}</style><path class="icon-canvas-transparent" d="M16 16h-16v-16h16v16z" id="canvas"/><path class="icon-vs-out" d="M16 6v9h-4.16c-.579 0-.861.04-.997.075l-.389.925h-.906l-.391-.925c-.135-.035-.417-.075-.997-.075h-4.16v-7.447l-.94 1.019c-.365.366-.811.553-1.285.553-.475 0-.921-.188-1.259-.528-.689-.695-.688-1.827.001-2.522l2.239-1.974-1.112-1.042c-.72-.727-.718-1.861-.025-2.555.286-.289.688-.466 1.117-.504h.322c.438.037.839.212 1.117.529l1.041 1.36 2.488-1.889h2.824l-3.404 4.086 1.46 1.922c.602.024 1.056.242 1.418.537.382-.309.862-.545 1.498-.545h4.5z" id="outline"/><path class="icon-vs-bg" d="M15 7v7h-3c-.549 0-1.779-.025-2 .5-.222-.525-1.451-.5-2-.5h-3v-7h.833l1.123 1h-.956v5h2c.436 0 .67-.205 1 0v-3.876l2-.003v3.879c.33-.205.565 0 1 0h2v-5h-2c-.59 0-1 .615-1 1v.085l-.923-1.175c.474-.574.832-.91 1.423-.91h3.5z" id="iconBg"/><path class="icon-vs-fg" d="M9 9v4c-.33-.205-.564 0-1 0h-2v-5h.957l1.263 1h.78zm3-1c-.59 0-1 .615-1 1v.085l.028-.085h-.028v4c.33-.205.565 0 1 0h2v-5h-2z" id="iconFg"/><path class="icon-vs-action-red" d="M5.042 4.896l-2.713 3c-.309.311-.792.311-1.098 0-.309-.311-.309-.801 0-1.111l3.019-2.656-1.921-1.793c-.334-.338-.278-.834 0-1.113.27-.271.824-.313 1.098 0l1.605 2.152 3.022-2.375h.446l-2.667 3.066 3.167 3.934h-.396l-3.562-3.104z" id="colorAction"/></svg>