<svg xmlns="http://www.w3.org/2000/svg" width="16" height="16"><style type="text/css">.icon-canvas-transparent{opacity:0;fill:#F6F6F6;} .icon-vs-out{fill:#F6F6F6;} .icon-vs-bg{fill:#424242;} .icon-vs-fg{fill:#F0EFF1;}</style><path class="icon-canvas-transparent" d="M16 16h-16v-16h16v16z" id="canvas"/><path class="icon-vs-out" d="M16 4v8c0 2.28-3.01 4-7 4h-9v-9h2v-3c0-2.28 3.01-4 7-4s7 1.72 7 4z" id="outline"/><path class="icon-vs-bg" d="M9 1c-3.313 0-6 1.343-6 3v3h6v8c3.314 0 6-1.343 6-3v-8c0-1.657-2.686-3-6-3zm-.003 5c-3.052 0-5-1.185-5-2s1.948-2 5-2 5 1.185 5 2-1.948 2-5 2zm-7.997 9h7v-7h-7v7zm1-6h5v5h-5v-5zm2 1h2v2l-1 1v-1.5l-1.5 1.5-.5-.5 1.5-1.5h-1.5l1-1z" id="iconBg"/><path class="icon-vs-fg" d="M2 14h5v-5h-5v5zm1-3l1-1h2v2l-1 1v-1.5l-1.5 1.5-.5-.5 1.5-1.5h-1.5zm11-7c0 .815-1.948 2-5 2s-5-1.185-5-2 1.948-2 5-2 5 1.185 5 2z" id="iconFg"/></svg>