<svg xmlns="http://www.w3.org/2000/svg" width="16" height="16"><style type="text/css">.icon-canvas-transparent{opacity:0;fill:#F6F6F6;} .icon-vs-out{fill:#F6F6F6;} .icon-vs-bg{fill:#424242;} .icon-vs-fg{fill:#F0EFF1;} .icon-vs-action-blue{fill:#00539C;}</style><path class="icon-canvas-transparent" d="M16 16h-16v-16h16v16z" id="canvas"/><path class="icon-vs-out" d="M13 8v-7h-10v7h1v5l3 3h2l3-3v-5h1zm-3 1v-1h1l-1 1zm-5-1h1v1l-1-1z" id="outline"/><path class="icon-vs-bg" d="M10 5h-4v-1h4v1zm2-3v5h-8v-5h8zm-1 1h-6v3h6v-3z" id="iconBg"/><path class="icon-vs-fg" d="M11 6v-3h-6v3h6zm-1-1h-4v-1h4v1z" id="iconFg"/><path class="icon-vs-action-blue" d="M9 12l2-2v2l-3 3-3-3v-2l2 2v-4h2v4z" id="colorAction"/></svg>