<svg xmlns="http://www.w3.org/2000/svg" width="16" height="16"><style type="text/css">.icon-canvas-transparent{opacity:0;fill:#F6F6F6;} .icon-vs-out{fill:#F6F6F6;} .graph-yellow{fill:#FCB714;} .icon-vs-fg{fill:#F0EFF1;}</style><path class="icon-canvas-transparent" d="M16 16h-16v-16h16v16z" id="canvas"/><path class="icon-vs-out" d="M9.514 16l-1.982-3h-5.299l-2.233-2.172v-8.81l2.235-2.018h11.702l2.063 2.046v8.754l-2.061 2.2h-1.939v3h-2.486z" id="outline"/><path class="graph-yellow" d="M15 7h-12l3 3v-2h9v2.388l-1.477 1.612h-2.523v3h-.938l-1.982-3h-5.458l-1.622-1.612v-4.388h12l-3-3v2h-9v-2.54l1.622-1.46h10.901l1.477 1.46v4.54z" id="iconBg"/><path class="icon-vs-fg" d="M10 5v-2l3 3h-12v-1h9zm-4 3v2l-3-3h12v1h-9z" id="iconFg"/></svg>