<svg xmlns="http://www.w3.org/2000/svg" width="16" height="16"><style type="text/css">.icon-canvas-transparent{opacity:0;fill:#F6F6F6;} .icon-vs-out{fill:#F6F6F6;} .icon-vs-bg{fill:#424242;} .icon-vs-fg{fill:#F0EFF1;}</style><path class="icon-canvas-transparent" d="M16 16h-16v-16h16v16z" id="canvas"/><path class="icon-vs-out" d="M4 16v-3h-1.939l-2.061-2.2v-8.754l2.063-2.046h11.702l2.235 2.018v8.81l-2.233 2.172h-5.299l-1.982 3h-2.486z" id="outline"/><g id="iconBg"><polygon class="icon-vs-bg" points="10,5 10,3 13,6 2,6 2,5"/><polygon class="icon-vs-bg" points="6,8 6,10 3,7 14,7 14,8"/><path class="icon-vs-bg" d="M13.523 1h-10.901l-1.622 1.46v7.928l1.622 1.612h5.458l1.982 3h.938v-3h2.523l1.477-1.612v-7.928l-1.477-1.46zm.477 6h-11l3 3v-2h8v1.999l-.917 1.001h-3.083v2.091l-1.381-2.091h-5.584l-1.035-1.028v-3.972h11l-3-3v2h-8v-2.095l1.006-.905h10.106l.888.877v4.123z"/></g><path class="icon-vs-fg" d="M14 7h-11l3 3v-2h8v1.999l-.917 1.001h-3.083v2.091l-1.381-2.091h-5.584l-1.035-1.028v-3.972h11l-3-3v2h-8v-2.095l1.006-.905h10.106l.888.877v4.123z" id="iconFg"/></svg>