<svg xmlns="http://www.w3.org/2000/svg" width="12" height="12"><style type="text/css">.icon-canvas-transparent{opacity:0;fill:#F6F6F6;} .icon-vs-out{fill:#F6F6F6;} .icon-vs-bg{fill:#424242;}</style><path class="icon-canvas-transparent" d="M12 12h-12v-12h12v12z" id="canvas"/><path class="icon-vs-out" d="M12 10.837v1.163h-2.769l-.468-1.399h-1.126l-.467 1.399h-3.158l1.334-4h-3.328v-2h-2.018v-3.982h2.018v-2.018h3.982v2.018h2v.982h1.387l2.613 7.837z" id="outline"/><path class="icon-vs-bg" d="M8.846 3.75h-1.292l-2.501 7.5h1.577l.467-1.399h2.207l.468 1.399h1.575l-2.501-7.5zm-1.58 4.799l.935-2.799.932 2.799h-1.867zm-.266-3.549h-2v2h-1.982v-2h-2.018v-1.982h2.018v-2.018h1.982v2.018h2v1.982z" id="iconBg"/></svg>