<svg xmlns="http://www.w3.org/2000/svg" width="32" height="96"><style type="text/css">.icon-canvas-transparent{opacity:0;fill:#F6F6F6;} .icon-white{fill:#FFFFFF;} .icon-f12-grey-primary{fill:#555555;} .icon-f12-blue-hover{fill:#2279BF;} .icon-f12-ltgrey-disabled{fill:#ABABAC;}</style><path class="icon-canvas-transparent" d="M32 96h-32v-96h32v96z" id="canvas"/><g id="iconBg"><path class="icon-f12-grey-primary" d="M16 2c-7.732 0-14 6.268-14 14s6.268 14 14 14 14-6.268 14-14-6.268-14-14-14zm-2 20h-4v-12h4v12zm8 0h-4v-12h4v12z"/><path class="icon-f12-blue-hover" d="M16 34c-7.732 0-14 6.268-14 14s6.268 14 14 14 14-6.268 14-14-6.268-14-14-14zm-2 20h-4v-12h4v12zm8 0h-4v-12h4v12z"/><path class="icon-f12-ltgrey-disabled" d="M16 66c-7.732 0-14 6.268-14 14s6.268 14 14 14 14-6.268 14-14-6.268-14-14-14zm-2 20h-4v-12h4v12zm8 0h-4v-12h4v12z"/></g><g id="iconFg"><path class="icon-white" d="M14 22h-4v-12h4v12zm8-12h-4v12h4v-12z"/><path class="icon-white" d="M14 54h-4v-12h4v12zm8-12h-4v12h4v-12z"/><path class="icon-white" d="M14 86h-4v-12h4v12zm8-12h-4v12h4v-12z"/></g></svg>