<svg xmlns="http://www.w3.org/2000/svg" width="16" height="16"><style type="text/css">.icon-f12-blue-hover{fill:#2279BF;} .icon-f12-pressed-bg{fill:#B2D7F0;} .icon-canvas-transparent{opacity:0;fill:#F6F6F6;} .icon-asp-html-wpf-blue{fill:#0095D7;} .icon-white{fill:#FFFFFF;} .st0{fill:#0095D7;}</style><path class="icon-canvas-transparent" d="M16 16h-16v-16h16v16z" id="canvas"/><g id="outline"><path class="icon-white" d="M2.401 4.803c-1.324 0-2.401-1.077-2.401-2.402 0-1.324 1.077-2.401 2.401-2.401 1.324 0 2.401 1.077 2.401 2.401.001 1.325-1.076 2.402-2.401 2.402z"/><path class="icon-white" d="M16 12c0 2.209-1.791 4-4 4h-5c-2.209 0-4-1.791-4-4v-5c0-2.209 1.791-4 4-4h5c2.209 0 4 1.791 4 4v5z"/></g><g id="iconBg"><path class="icon-f12-pressed-bg" d="M2.4 4.2c-.993 0-1.8-.807-1.8-1.8s.807-1.8 1.8-1.8 1.8.807 1.8 1.8-.807 1.8-1.8 1.8z"/><path class="icon-f12-blue-hover" d="M2.4 3.794c-.769 0-1.394-.625-1.394-1.394s.625-1.394 1.394-1.394 1.394.625 1.394 1.394-.625 1.394-1.394 1.394z"/><path class="icon-f12-pressed-bg" d="M12.229 15.229h-5.458c-1.657 0-3-1.343-3-3v-5.458c0-1.657 1.343-3 3-3h5.457c1.657 0 3 1.343 3 3v5.457c.001 1.657-1.343 3.001-2.999 3.001z"/><path class="icon-f12-blue-hover" d="M11.776 14.804h-4.552c-1.672 0-3.028-1.356-3.028-3.028v-4.552c0-1.672 1.355-3.028 3.028-3.028h4.553c1.672 0 3.028 1.355 3.028 3.028v4.553c-.001 1.671-1.357 3.027-3.029 3.027z"/><path class="st0" d="M4.196 11.776l-.024-4.557c0-1.672 1.344-2.99 3.016-2.99l4.479-.042c1.617 0 3.036 1.182 3.121 2.778-2.708 2.807-10.592 4.859-10.592 4.811z"/><path class="icon-asp-html-wpf-blue" d="M1.649 2.562c-.215 0-.424-.026-.628-.063l-.015-.146c0-.767.624-1.39 1.39-1.39.603 0 1.112.387 1.304.925-.577.419-1.282.674-2.051.674z"/></g><g id="iconFg"><path class="icon-white" d="M14.042 11.623c0 1.339-1.085 2.424-2.424 2.424s-2.424-1.085-2.424-2.424 1.085-2.424 2.424-2.424 2.424 1.085 2.424 2.424z"/><path class="icon-white" d="M8.487 6.757c0 .86-.697 1.557-1.557 1.557s-1.557-.697-1.557-1.557.697-1.557 1.557-1.557 1.557.697 1.557 1.557z"/></g></svg>