<svg xmlns="http://www.w3.org/2000/svg" width="26" height="26"><style type="text/css">.icon-canvas-transparent{opacity:0;fill:#F6F6F6;} .icon-white{fill:#FFFFFF;} .icon-asp-html-wpf-blue{fill:#0095D7;} .icon-f12-blue-hover{fill:#2279BF;} .icon-f12-pressed-bg{fill:#B2D7F0;}</style><path class="icon-canvas-transparent" d="M26 26h-26v-26h26v26z" id="canvas"/><path class="icon-white" d="M4.619 8.227c-1.995 0-3.619-1.623-3.619-3.619 0-1.918 1.504-3.477 3.392-3.597h.454c1.888.12 3.392 1.679 3.392 3.596.001 1.997-1.623 3.62-3.619 3.62zm14.387-2.605h-7.378c-3.305 0-5.994 2.689-5.994 5.994v7.378c0 3.305 2.689 5.994 5.994 5.994h7.378c3.305 0 5.994-2.689 5.994-5.994v-7.378c0-3.304-2.689-5.994-5.994-5.994z" id="outline"/><g id="iconBg"><path class="icon-f12-pressed-bg" d="M4.619 7.305c-1.488 0-2.697-1.21-2.697-2.697 0-1.488 1.21-2.697 2.697-2.697 1.488 0 2.697 1.21 2.697 2.697.001 1.487-1.209 2.697-2.697 2.697zm13.959 16.761h-6.522c-3.038 0-5.5-2.462-5.5-5.5v-6.522c0-3.038 2.462-5.5 5.5-5.5h6.522c3.038 0 5.5 2.462 5.5 5.5v6.522c0 3.038-2.463 5.5-5.5 5.5z"/><path class="icon-f12-blue-hover" d="M4.619 6.697c-1.152 0-2.089-.937-2.089-2.089s.937-2.089 2.089-2.089 2.089.937 2.089 2.089-.937 2.089-2.089 2.089zm13.037 16.447h-4.677c-3.038 0-5.5-2.462-5.5-5.5v-4.677c0-3.038 2.462-5.5 5.5-5.5h4.677c3.038 0 5.5 2.462 5.5 5.5v4.677c0 3.038-2.463 5.5-5.5 5.5z"/><path class="icon-asp-html-wpf-blue" d="M3.494 4.851c-.323 0-.635-.039-.942-.095l-.021-.218c0-1.149.935-2.084 2.084-2.084.903 0 1.666.581 1.955 1.386-.867.629-1.923 1.011-3.076 1.011zm19.662 7.688v.186c-4.577 3.151-9.873 5.332-15.593 6.245-.052-.292-.084-.591-.084-.898v-5.533c0-2.801 2.271-5.072 5.072-5.072h5.533c2.801 0 5.072 2.271 5.072 5.072z"/></g><g id="iconFg"><circle class="icon-white" cx="11.408" cy="11.138" r="2.333"/><path class="icon-white" d="M22.066 18.429c0 2.006-1.626 3.632-3.632 3.632-2.006 0-3.632-1.626-3.632-3.632s1.626-3.632 3.632-3.632c2.006 0 3.632 1.626 3.632 3.632zm-8.325-7.291c0 1.289-1.045 2.333-2.333 2.333s-2.333-1.045-2.333-2.333c0-1.289 1.045-2.333 2.333-2.333s2.333 1.044 2.333 2.333z"/></g></svg>