<svg xmlns="http://www.w3.org/2000/svg" width="16" height="16"><style type="text/css">.icon-canvas-transparent{opacity:0;fill:#F6F6F6;} .icon-vs-out{fill:#F6F6F6;} .icon-vs-bg{fill:#424242;} .icon-vs-fg{fill:#F0EFF1;}</style><path class="icon-canvas-transparent" d="M16 16h-16v-16h16v16z" id="canvas"/><path class="icon-vs-out" d="M2 16v-16h12v16h-12z" id="outline"/><path class="icon-vs-bg" d="M3 1v14h10v-14h-10zm9 11h-8v-10h8v10z" id="iconBg"/><path class="icon-vs-fg" d="M12 12h-8v-10h8v10zm-3 1.5c0 .552-.448 1-1 1s-1-.448-1-1 .448-1 1-1 1 .448 1 1z" id="iconFg"/><path class="icon-vs-bg" d="M8 4l-3 1.75v3.5l3 1.75 3-1.75v-3.5l-3-1.75zm-.429 6l-1.871-1v-2.5l1.871 1v2.5zm-1.671-4.1l2.1-1.2 2.1 1.2-2.1 1.096-2.1-1.096zm4.4 3.1l-1.871 1v-2.5l1.871-1v2.5z" id="colorAction"/></svg>