<?xml version="1.0" encoding="utf-8"?>
<!-- Generator: Adobe Illustrator 18.1.1, SVG Export Plug-In . SVG Version: 6.00 Build 0)  -->
<!DOCTYPE svg PUBLIC "-//W3C//DTD SVG 1.1//EN" "http://www.w3.org/Graphics/SVG/1.1/DTD/svg11.dtd">
<svg version="1.1" xmlns="http://www.w3.org/2000/svg" xmlns:xlink="http://www.w3.org/1999/xlink" x="0px" y="0px" width="64px"
	 height="64px" viewBox="0 0 64 64" style="enable-background:new 0 0 64 64;" xml:space="preserve">
<style type="text/css">
	.icon-canvas-transparent{opacity:0;fill:#F6F6F6;}
	.icon-white{fill:#FFFFFF;}
</style>
<g id="canvas">
	<path class="icon-canvas-transparent" d="M64,64H0V0h64V64z"/>
</g>
<g id="iconBg">
	<path class="icon-white" d="M24,46v3h-5h-4v-4v-8h3v9H24z M34,45c0,8.285-6.715,15-15,15S4,53.285,4,45s6.715-15,15-15
		S34,36.715,34,45z M30.64,45c0-6.428-5.212-11.643-11.64-11.643S7.357,38.572,7.357,45S12.572,56.643,19,56.643
		S30.64,51.428,30.64,45z M52.002,4H24c-6.627,0-12,5.371-12,11.998v11.35l0,0C14.168,26.487,16.525,26,19,26
		c0.337,0,0.667,0.033,1,0.051V16c0-2.211,1.787-4,4-4h20v34.999c0,2.762-2.238,5-5,5c-0.043,0-0.083-0.006-0.125-0.008
		c-0.275-0.021-1.028-0.129-2.003-0.593c-0.889,2.48-2.272,4.72-4.042,6.602H37v-0.001h1c6.627,0,12-5.375,12-12V16h10v-4.002
		C60,7.582,56.418,4,52.002,4z"/>
</g>
</svg>
