<svg xmlns="http://www.w3.org/2000/svg" width="16" height="16"><style type="text/css">.icon-canvas-transparent{opacity:0;fill:#F6F6F6;} .icon-vs-out{fill:#F6F6F6;} .icon-vs-bg{fill:#424242;} .icon-vs-action-blue{fill:#00539C;}</style><path class="icon-canvas-transparent" d="M16 16h-16v-16h16v16z" id="canvas"/><path class="icon-vs-out" d="M16 8v4h-1c-.618 0-1.32-.144-2-.412v1.412h-3v3h-10v-8h7v-4l4-4 4 4v4h1z" id="outline"/><path class="icon-vs-bg" d="M15 9v2c-.97 0-2.167-.288-3-1v2h-2v-7l-2 2v-2l3-3 3 3v2l-2-2v2c0 1.153 1.898 2 3 2z" id="iconBg"/><path class="icon-vs-action-blue" d="M1 9h1v6h-1v-6zm7 6h1v-6h-1v6zm-4-1l3-2-3-2v4z" id="colorAction"/></svg>