<svg xmlns="http://www.w3.org/2000/svg" width="16" height="16"><style type="text/css">.icon-canvas-transparent{opacity:0;fill:#F6F6F6;} .icon-vs-out{fill:#F6F6F6;} .icon-vs-bg{fill:#424242;} .icon-vs-action-red{fill:#A1260D;}</style><path class="icon-canvas-transparent" d="M16 16h-16v-16h16v16z" id="canvas"/><path class="icon-vs-out" d="M15 1v14h-5v-14h5zm-9.907 4.951l-1.197-1.437c-.296-.326-.733-.514-1.202-.514-.452 0-.887.171-1.191.467-.318.308-.502.74-.503 1.184-.001.446.175.867.533 1.216l1.268 1.133-1.302 1.165c-.324.317-.5.738-.499 1.184.001.444.185.876.501 1.183.306.297.741.468 1.194.468.468 0 .906-.188 1.228-.544l1.171-1.405 2.18 1.949h1.726v-1.361l-2.198-2.639 2.198-2.638v-1.362h-1.726l-2.181 1.951z" id="outline"/><path class="icon-vs-bg" d="M11 11h3v3h-3v-3zm0-9v7h3v-7h-3z" id="iconBg"/><path class="icon-vs-action-red" d="M7.656 5l-2.668 2.385-1.834-2.2c-.238-.263-.72-.229-.955 0-.242.234-.29.652 0 .938l2.101 1.877-2.1 1.878c-.29.285-.242.703 0 .937.234.228.716.264.955 0l1.833-2.201 2.668 2.386h.344l-2.5-3 2.5-3h-.344z" id="colorAction"/></svg>