<svg xmlns="http://www.w3.org/2000/svg" width="16" height="16"><style type="text/css">.icon-canvas-transparent{opacity:0;fill:#F6F6F6;} .icon-vs-out{fill:#F6F6F6;} .icon-vs-bg{fill:#424242;} .icon-vs-fg{fill:#F0EFF1;}</style><path class="icon-canvas-transparent" d="M16 16h-16v-16h16v16z" id="canvas"/><path class="icon-vs-out" d="M16 11.162l-.279.838h-6.721v4h-9v-7h2.053c-.65-.636-1.053-1.521-1.053-2.5 0-1.93 1.57-3.5 3.5-3.5 1.229 0 2.308.64 2.932 1.601l.568-.892v-.709h-1v-3h7v3h-1v.709l3 4.714v2.739z" id="outline"/><path class="icon-vs-bg" d="M12 4v-2h1v-1h-5v1h1v2l-1.095 1.72c.058.252.095.511.095.78 0 .979-.403 1.864-1.053 2.5h2.053v2h6l.5-1.5-3.5-5.5zm-3.724 3l1.724-2.709v-2.291h1v2.291l1.724 2.709h-4.448zm-6.276-.5c0-1.38 1.119-2.5 2.5-2.5 1.379 0 2.5 1.12 2.5 2.5 0 1.381-1.121 2.5-2.5 2.5-1.381 0-2.5-1.119-2.5-2.5zm2.5 5.5l-1.5-2h-2v5h7v-5h-2l-1.5 2z" id="iconBg"/><path class="icon-vs-fg" d="M8.276 7l1.724-2.709v-2.291h1v2.291l1.724 2.709h-4.448z" id="iconFg"/></svg>