<svg xmlns="http://www.w3.org/2000/svg" width="16" height="16"><style type="text/css">.icon-canvas-transparent{opacity:0;fill:#F6F6F6;} .icon-vs-out{fill:#F6F6F6;} .icon-vs-bg{fill:#424242;} .icon-vs-fg{fill:#F0EFF1;} .icon-folder{fill:#DCB67A;}</style><path class="icon-canvas-transparent" d="M16 16h-16v-16h16v16z" id="canvas"/><path class="icon-vs-out" d="M16 2.5v10c0 .827-.673 1.5-1.5 1.5h-2.587c-.42 1.039-1.348 1.818-2.487 1.959-.061.013-.187.041-.317.041h-5.694c-1.827 0-3.245-1.533-3.245-3.393-.001-.845-.17-1.638.83-2.246v-5.861c0-.827.677-1.5 1.504-1.5h2.886l1-2h8.11c.827 0 1.5.673 1.5 1.5z" id="outline"/><g id="iconBg"><path class="icon-folder" d="M14.5 2h-7.492l-1 2h-3.504c-.277 0-.504.224-.504.5v4.688c1-1.307 1.844-2.184 3.293-2.184.813 0 1.599.281 2.23.789l.387-.026c1.433 0 2.656 1.026 2.984 2.419.79.599 1.264 1.545 1.264 2.58l-.021.234h2.363c.275 0 .5-.224.5-.5v-10c0-.276-.225-.5-.5-.5zm-.5 2h-6.492l.5-1h5.992v1z"/><path class="icon-vs-bg" d="M9.975 10.785c-.072-1.126-.971-2.02-2.064-2.02-.236 0-.466.043-.682.123-.482-.551-1.172-.888-1.933-.888-1.313 0-2.404 1.019-2.607 2.349-.882.324-1.517 1.207-1.517 2.243 0 1.311.978 2.354 2.243 2.378h5.694l.193-.019c1.051-.13 1.855-1.064 1.855-2.186.001-.869-.482-1.621-1.182-1.98zm-.866 3.196v.005h-5.694v-.001c-.688-.012-1.243-.627-1.243-1.393 0-.768.564-1.391 1.261-1.391l.279.037c-.034-.146-.058-.294-.058-.451 0-1.003.735-1.813 1.642-1.813.819 0 1.493.665 1.618 1.531.154-.444.54-.761.997-.761.591 0 1.069.527 1.069 1.181 0 .246-.067.473-.182.662l.258-.036c.608 0 1.102.545 1.102 1.216 0 .653-.465 1.18-1.049 1.214z"/></g><path class="icon-vs-fg" d="M14 3v1h-6.5l.5-1h6zm-4.891 10.981v.005h-5.694v-.001c-.688-.012-1.243-.627-1.243-1.393 0-.768.564-1.391 1.261-1.391l.279.037c-.034-.146-.058-.294-.058-.451 0-1.003.735-1.813 1.642-1.813.819 0 1.493.665 1.618 1.531.154-.444.54-.761.997-.761.591 0 1.069.527 1.069 1.181 0 .246-.067.473-.182.662l.258-.036c.608 0 1.102.545 1.102 1.216 0 .653-.465 1.18-1.049 1.214z" id="iconFg"/></svg>