<svg xmlns="http://www.w3.org/2000/svg" width="16" height="16"><style type="text/css">.icon-canvas-transparent{opacity:0;fill:#F6F6F6;} .icon-vs-out{fill:#F6F6F6;} .icon-vs-bg{fill:#424242;} .icon-vs-action-blue{fill:#00539C;}</style><path class="icon-canvas-transparent" d="M16 16h-16v-16h16v16z" id="canvas"/><path class="icon-vs-out" d="M1.212 13h-1.212v-1.292l1-1.99v-5.737c0-2.269 3.01-3.981 7-3.981s7 1.712 7 3.981v5.08l.571.47-.571.469v.225l.623-.249.268 1.125c.072.304.109.614.109.92 0 2.188-1.783 3.969-3.981 3.979h-.04c-.542-.003-1.06-.106-1.531-.304-.757.152-1.576.247-2.448.247-1.81 0-3.413-.336-4.63-.934l-.956.991h-2.032l1.186-2.367c-.149-.199-.265-.633-.356-.633z" id="outline"/><path class="icon-vs-bg" d="M6 8l-3 3h3l-4 4 1.5-3h-2.5l2-4h3zm2.502 5.976l-.502.024c-1.238 0-2.282-.199-3.101-.485l-.774.774c1.046.442 2.397.711 3.875.711.417 0 .823-.021 1.216-.061-.287-.28-.52-.609-.714-.963zm-.518-7.392c-2.082 0-3.781-.459-4.984-1.396v1.812h-.618l-.382.764v-3.764c0-1.657 2.687-3 6-3 3.314 0 6 1.343 6 3v4.279l-.989-.816.005-2.296c-.449.338-1.043.638-1.727.875l-.009-.007-.28.094v.01c-.892.276-1.922.445-3.016.445zm.013-.584c3.052 0 5-1.185 5-2s-1.948-2-5-2-5 1.185-5 2 1.948 2 5 2z" id="iconBg"/><path class="icon-vs-action-blue" d="M15 12.075c0 1.656-1.342 3-3 3-1.657 0-3-1.344-3-3s1.343-2.999 3-2.999v-1.15l2 1.65-2 1.649v-1.15c-1.104 0-2.001.896-2.001 2 0 1.106.897 2 2.001 2 1.106 0 2-.894 2-2l-.031-.311.949-.381c.053.223.082.454.082.692z" id="notificationBg"/></svg>