<?xml version="1.0" encoding="utf-8"?>
<!-- Generator: Adobe Illustrator 18.1.1, SVG Export Plug-In . SVG Version: 6.00 Build 0)  -->
<!DOCTYPE svg PUBLIC "-//W3C//DTD SVG 1.1//EN" "http://www.w3.org/Graphics/SVG/1.1/DTD/svg11.dtd">
<svg version="1.1" xmlns="http://www.w3.org/2000/svg" xmlns:xlink="http://www.w3.org/1999/xlink" x="0px" y="0px" width="16px"
	 height="16px" viewBox="0 0 16 16" style="enable-background:new 0 0 16 16;" xml:space="preserve">
<style type="text/css">
	.icon-canvas-transparent{opacity:0;fill:#F6F6F6;}
	.icon-vs-out{fill:#F6F6F6;}
	.icon-vs-bg{fill:#424242;}
</style>
<g id="canvas">
	<path class="icon-canvas-transparent" d="M16,16H0V0h16V16z"/>
</g>
<g id="outline">
	<path class="icon-vs-out" d="M15.996,7.084v1.831l-0.386,0.3C15.352,9.416,15.128,9.673,15,9.832V14
		c0,1.299-1.03,2-2,2h-3v-2.021l-4-0.017V16H3c-0.97,0-2-0.701-2-2V9.831C0.87,9.669,0.645,9.412,0.387,9.213L0,8.912V7.088
		l0.386-0.3C0.643,6.59,0.866,6.334,1,6.169V2c0-1.298,1.03-2,2-2h3v3H4v3.5c0,0.656-0.147,1.153-0.365,1.524
		C3.854,8.392,4,8.875,4,9.5V8h1.773C5.29,7.465,4.985,6.763,4.985,5.986c0-1.662,1.353-3.015,3.015-3.015
		c1.662,0,3.015,1.353,3.015,3.015c0,0.777-0.304,1.479-0.788,2.014H12v1.5c0-0.63,0.154-1.116,0.382-1.485
		C12.151,7.637,12,7.139,12,6.5V3h-2v-3h3c0.97,0,2,0.702,2,2v4.169c0.162,0.202,0.385,0.441,0.61,0.616L15.996,7.084z"/>
</g>
<g id="iconBg">
	<path class="icon-vs-bg" d="M11,9v3.982l-6-0.024V9h2.071L8,10.991L9.051,9H11z M10.015,5.985
		C10.015,4.873,9.113,3.97,8,3.97c-1.112,0-2.014,0.902-2.014,2.015C5.986,7.099,6.888,8,8,8C9.113,8,10.015,7.099,10.015,5.985
		 M3,6.5V2h2V1H3c0,0-1,0-1,1v4.273c0,0.144-0.031,0.273-0.087,0.349C1.761,6.829,1.418,7.253,1,7.578v0.844
		c0.403,0.313,0.735,0.717,0.895,0.932C1.963,9.443,2,9.567,2,9.688V14c0,1,1,1,1,1h2v-1H3V9.5C3,8.137,2.068,8,2.068,8
		S3,7.955,3,6.5 M14.996,7.574c-0.417-0.324-0.758-0.746-0.909-0.952C14.031,6.546,14,6.417,14,6.273V2c0-1-1-1-1-1h-2v1h2v4.5
		C13,7.954,13.988,8,13.988,8S13,8.136,13,9.5V14h-2v1h2c0,0,1,0,1-1V9.688c0-0.12,0.037-0.244,0.106-0.334
		c0.159-0.214,0.49-0.616,0.891-0.928V7.574z"/>
</g>
</svg>
