<svg xmlns="http://www.w3.org/2000/svg" width="16" height="16"><style type="text/css">.icon-canvas-transparent{opacity:0;fill:#F6F6F6;} .icon-vs-out{fill:#F6F6F6;} .icon-vs-bg{fill:#424242;} .icon-vs-fg{fill:#F0EFF1;} .icon-vs-action-red{fill:#A1260D;}</style><path class="icon-canvas-transparent" d="M16 16h-16v-16h16v16z" id="canvas"/><path class="icon-vs-out" d="M16 0v11h-2v2h-2v2h-12v-11h2v-.651l-.455-.404c-.368-.366-.546-.796-.545-1.249.001-.452.186-.893.506-1.21.309-.308.756-.486 1.222-.486.481 0 .93.195 1.23.534l.042.053v-.587h12z" id="outline"/><path class="icon-vs-bg" d="M8 8h2l-3 3h-2l-2.719-2.719c.23-.095.442-.234.612-.403l.502-.483 2.605 2.605 2-2zm-2.88-6.01l1.339-.99h-1.459v.84l.12.15zm4.656-.99l-.999 1h5.223v8h1v-9h-5.224zm-2.899 2.901l.083.099h5.04v8h1v-9h-5.222l-.901.901zm1.766 2.099h1.357l-.737.737 1.062 1.263h-.325v5h-8v-4.63l-.291.035c-.249 0-.488-.058-.709-.16v5.755h10v-9h-3.199l.842 1z" id="iconBg"/><path class="icon-vs-action-red" d="M5.537 3.943l2.673-2.746-.335-.001-2.936 2.171-1.729-2.17c-.249-.281-.755-.244-1 0-.253.25-.304.696 0 1l1.964 1.746-2.965 2.254c-.279.278-.279.721 0 1 .279.277.72.277 1 0l2.747-2.573 2.868 2.573h.385l-2.672-3.254z" id="colorAction"/><path class="icon-vs-fg" d="M8.643 6h1.357l-.737.737-.62-.737zm-3.643 5l-2.719-2.719-.281.089v4.63h8v-5l-3 3h-2zm3-3h-.558l-2.333-2h-.261l-1.453 1.395 2.605 2.605 2-2z" id="iconFg"/></svg>