<svg xmlns="http://www.w3.org/2000/svg" width="12" height="12"><style type="text/css">.icon-canvas-transparent{opacity:0;fill:#F6F6F6;} .icon-white{fill:#FFFFFF;} .icon-hyperlink-blue{fill:#0E70C0;}</style><path class="icon-canvas-transparent" d="M12 12h-12v-12h12v12z" id="canvas"/><path class="icon-hyperlink-blue" d="M5.414 1l-1.414 1.414v.024l1.367 1.367-.195.195h-4.172v7h7v-4.172l.195-.195 1.367 1.367h.024l1.414-1.414v-5.586h-5.586zm1.586 9h-5v-5h2.172l-1.415 1.414 2.828 2.828 1.415-1.414v2.172zm3-3.828l-.426.426-1.379-1.379-2.609 2.609-1.415-1.414 2.609-2.609-1.378-1.379.426-.426h4.172v4.172z" id="iconBg"/><path class="icon-white" d="M4.171 6.414l2.609-2.609-1.378-1.379.426-.426h4.172v4.172l-.426.426-1.379-1.379-2.609 2.609-1.415-1.414zm1.415 2.829l-2.829-2.829 1.415-1.414h-2.172v5h5v-2.172l-1.414 1.415z" id="iconFg"/></svg>