<svg xmlns="http://www.w3.org/2000/svg" width="16" height="16"><style type="text/css">.icon-canvas-transparent{opacity:0;fill:#F6F6F6;} .icon-vs-out{fill:#F6F6F6;} .icon-vs-bg{fill:#424242;} .icon-vs-fg{fill:#F0EFF1;}</style><path class="icon-canvas-transparent" d="M16 16h-16v-16h16v16z" id="canvas"/><path class="icon-vs-out" d="M4.5 16c-2.565 0-4.5-1.29-4.5-3v-10c0-1.71 1.935-3 4.5-3s4.5 1.29 4.5 3v2.319l3-2.4v3.667l4-4v13.414h-11.5zm-1.601-13c.332.162.871.325 1.601.325s1.269-.163 1.601-.325c-.332-.162-.871-.325-1.601-.325s-1.269.163-1.601.325z" id="outline"/><path class="icon-vs-bg" d="M11 9v-4l-3 2.4v-4.4c0-1.104-1.567-2-3.5-2s-3.5.896-3.5 2v10c0 1.104 1.567 2 3.5 2h10.5v-10l-4 4zm-6.5-4.675c-1.749 0-2.91-.798-2.91-1.325s1.16-1.325 2.91-1.325 2.91.798 2.91 1.325-1.161 1.325-2.91 1.325zm6.5 7.675h-2v-2h2v2zm3 0h-2v-2h2v2z" id="iconBg"/><path class="icon-vs-fg" d="M14 12h-2v-2h2v2zm-3-2h-2v2h2v-2zm-6.5-5.675c1.749 0 2.91-.798 2.91-1.325s-1.161-1.325-2.91-1.325-2.91.798-2.91 1.325 1.161 1.325 2.91 1.325z" id="iconFg"/></svg>