<svg xmlns="http://www.w3.org/2000/svg" width="32" height="96"><style type="text/css">.icon-canvas-transparent{opacity:0;fill:#F6F6F6;} .icon-white{fill:#FFFFFF;} .icon-f12-grey-primary{fill:#555555;} .icon-f12-ltgrey-disabled{fill:#ABABAC;} .icon-f12-error-negative{fill:#ED1123;} .icon-f12-start-positive{fill:#009E49;}</style><path class="icon-canvas-transparent" d="M32 96h-32v-96h32v96z" id="canvas"/><g id="iconBg"><path class="icon-f12-grey-primary" d="M17 3c-.681 0-1.345.065-2 .159v7.841h-4v4h-7.841c-.094.655-.159 1.319-.159 2 0 7.732 6.268 14 14 14s14-6.268 14-14-6.268-14-14-14zm1 20.5l-4.5 4.5-4.5-4.5v-3l3 3v-8.5h3v8.5l3-3v3zm8-9l-3-3v9.5h-3v-9.5l-3 3v-3l4.5-4.5 4.5 4.5v3z"/><path class="icon-f12-error-negative" d="M17 35c-.681 0-1.345.065-2 .159v7.841h-4v4h-7.841c-.094.654-.159 1.319-.159 2 0 7.732 6.268 14 14 14s14-6.268 14-14-6.268-14-14-14zm1 20.5l-4.5 4.5-4.5-4.5v-3l3 3v-8.5h3v8.5l3-3v3zm8-9l-3-3v9.5h-3v-9.5l-3 3v-3l4.5-4.5 4.5 4.5v3z"/><path class="icon-f12-ltgrey-disabled" d="M17 67c-.681 0-1.346.064-2 .159v7.841h-4v4h-7.841c-.095.654-.159 1.319-.159 2 0 7.732 6.268 14 14 14s14-6.268 14-14-6.268-14-14-14zm1 20.5l-4.5 4.5-4.5-4.5v-3l3 3v-8.5h3v8.5l3-3v3zm8-9l-3-3v9.5h-3v-9.5l-3 3v-3l4.5-4.5 4.5 4.5v3z"/></g><g id="iconFg"><path class="icon-white" d="M21.5 7l4.5 4.5v3l-3-3v9.5h-3v-9.5l-3 3v-3l4.5-4.5zm-3.5 13.5l-3 3v-8.5h-3v8.5l-3-3v3l4.5 4.5 4.5-4.5v-3z"/><path class="icon-white" d="M18 55.5l-4.5 4.5-4.5-4.5v-3l3 3v-8.5h3v8.5l3-3v3zm8-12l-4.5-4.5-4.5 4.5v3l3-3v9.5h3v-9.5l3 3v-3z"/><path class="icon-white" d="M18 87.5l-4.5 4.5-4.5-4.5v-3l3 3v-8.5h3v8.5l3-3v3zm8-12l-4.5-4.5-4.5 4.5v3l3-3v9.5h3v-9.5l3 3v-3z"/></g><g id="colorAction"><polygon class="icon-f12-start-positive" points="12,5 8,5 8,1 5,1 5,5 1,5 1,8 5,8 5,12 8,12 8,8 12,8"/><path class="icon-f12-start-positive" d="M12 40h-4v4h-3v-4h-4v-3h4v-4h3v4h4v3z"/><polygon class="icon-f12-ltgrey-disabled" points="12,69 8,69 8,65 5,65 5,69 1,69 1,72 5,72 5,76 8,76 8,72 12,72"/></g></svg>