<svg xmlns="http://www.w3.org/2000/svg" width="16" height="16"><style type="text/css">.icon-canvas-transparent{opacity:0;fill:#F6F6F6;} .icon-vs-out{fill:#F6F6F6;} .icon-vs-bg{fill:#424242;}</style><path class="icon-canvas-transparent" d="M16 16h-16v-16h16v16z" id="canvas"/><path class="icon-vs-out" d="M9.499 16.007c-.007 0-.476-.033-.685-.069-1.354-.286-2.404-1.314-2.714-2.627l-.038-.176c-.034-.191-.061-.563-.061-.563l-.001-3.58h-2v-4.5c0-.314.044-.6.076-.787l.047-.219c.414-1.725 1.763-3.041 3.447-3.396.288-.049.544-.084.829-.09h.181c.306.005.563.041.814.084 1.72.361 3.068 1.677 3.473 3.358l.056.259c.049.29.077.559.077.791v8.015c0 .002-.026.429-.06.613l-.032.154c-.326 1.357-1.375 2.379-2.683 2.656-.267.056-.698.077-.726.077z" id="outline"/><path class="icon-vs-bg" d="M12 4.492v8.017l-.044.436-.031.147c-.225.932-.965 1.662-1.906 1.861-.167.035-.519.055-.52.055-.005 0-.359-.028-.518-.055-.945-.2-1.688-.933-1.909-1.871l-.027-.128-.046-.446v-8.016l.029-.276.019-.079.068-.221.007-.016c.19-.443.588-.776 1.071-.877l.307-.031.309.032c.478.1.871.428 1.063.865l.017.041.057.184.027.114.021.214.005 7.55h-.999l-.001-7.495v-.005l-.002-.013c-.007-.256-.205-.457-.456-.479l-.042-.007-.02.004c-.262.011-.47.221-.477.483l-.001.014-.001.004v8.009l.027.273.006.038c.074.403.33 1.014 1.14 1.151l.327.038.327-.038c.806-.136 1.064-.745 1.14-1.149l.007-.047.026-.262v-8.019c0-.151-.019-.297-.044-.44l-.024-.117c-.135-.656-.571-1.645-1.877-1.875-.171-.04-.348-.064-.532-.065l-.023-.003c-1.748 0-2.272 1.198-2.431 1.936l-.025.123c-.025.144-.044.29-.044.441v3.5h-1v-3.5c0-.21.026-.414.062-.614l.043-.202c.313-1.306 1.351-2.33 2.671-2.607.203-.035.411-.064.642-.069h.162c.232.004.44.034.645.069 1.319.278 2.356 1.301 2.67 2.606l.044.202c.037.221.061.432.061.615z" id="iconBg"/></svg>