<svg xmlns="http://www.w3.org/2000/svg" width="16" height="16"><style type="text/css">.icon-canvas-transparent{opacity:0;fill:#F6F6F6;} .icon-vs-out{fill:#F6F6F6;} .icon-vs-bg{fill:#424242;} .icon-vs-fg{fill:#F0EFF1;} .icon-vs-action-blue{fill:#00539C;}</style><path class="icon-canvas-transparent" d="M16 16h-16v-16h16v16z" id="canvas"/><path class="icon-vs-out" d="M15.999 9.403l-.778 2.597h-5.045c-.244.212-.518.504-.743.795-.555.715-1.077 1.319-1.784 1.603l-.15.047c-.232.125-.455.224-.67.318-.034.123-.08.235-.139.352-.21.418-.537.702-.922.81-.19.053-.397.075-.617.075-1.075 0-2.799-.686-4.119-2.617-.867-1.262-1.213-2.706-.942-3.904-.119-2.235.922-3.432 1.829-4.044.618-.5 2.372-1.72 4.501-1.72.48 0 .944.085 1.398.21l.182-.25v-.675h-1v-3h7v3h-1v.745l2.999 5.658z" id="outline"/><path class="icon-vs-bg" d="M15 9.5l-.5 1.5h-2.308c.051-.158.075-.307.085-.415l.006-.36-.155-2.232c-.028-.084-.234-.577-.68-.993h1.304l-1.58-2.463-.172-.246v-2.291h-1v2.291l-.235.246-.203.159c-.222-.145-.482-.283-.765-.417l.203-.279v-2h-1v-1h5v1h-1v2l3 5.5z" id="iconBg"/><path class="icon-vs-fg" d="M11.183 6.77c-.146-.582-.517-1.378-1.581-2.074l.163-.159.235-.246v-2.291h1v2.291l.172.246 1.58 2.463h-1.304l-.265-.23" id="iconFg"/><path class="icon-vs-action-blue" d="M10.814 9.133c-.636-.523-1.273-.506-1.527-.517.342-.091.779-.04.951-.662.127-.161.947.371.947.371s-.26-.733-.926-.882c.014-.163.059-1.507-2.256-2.427-2.788-1.112-5.463 1.207-5.524 1.247-.997.674-1.501 1.757-1.381 3.308-.213.745-.131 1.952.759 3.247 1.196 1.75 2.854 2.359 3.642 2.139.241-.067.509-.564.349-.981.361.054 1.232-.497 1.428-.576.959-.385 1.886-2.522 2.994-2.905.4-.14.981.082 1.012-.278.025-.284-.063-.751-.468-1.084m-4.699-3.289c2.855-.328 3.492.941 3.48 1.483 0 .031-1.362.011-2.556 1.357-1.084-.42-1.686-1.105-3.562-.903-.496.054-.683.174-1.003.352-.235-.129-.271-.564-.056-.971 0 0 .752-1.164 3.697-1.318m-2.813 7.742c-.535-.201-1.641-1.144-1.274-2.674.353-.01 1.148.361 1.408.685.67.834.78 1.393.724 1.774-.08.532-.755.215-.858.215m1.215-1.41c-.384-.82-.625-2.178-1.484-2.721.514-.684 2.607-.184 3.537-.214-.537.558-.831.938-1.18 2.1-.101.34-.587 1.09-.873.835m4.901-2.314c-.849.313-1.479 1.102-1.691 1.371-.473.614-.965 1.673-1.855 1.727l-.006-.091c-.01-.219.01-.462.05-.693.279-.381.665-1.034.91-1.346.964-1.239 2.135-1.935 2.174-1.985.152.02.988.05 1.225.312.47.517-.272.506-.807.705" id="colorImportance"/></svg>