<svg xmlns="http://www.w3.org/2000/svg" width="16" height="16"><style type="text/css">.icon-vs-out{fill:#F6F6F6;} .icon-vs-bg{fill:#424242;} .icon-vs-yellow{fill:#FFCC00;} .icon-canvas-transparent{opacity:0;} .icon-vs-fg{fill:#F0EFF1;}</style><path class="icon-canvas-transparent" d="M16 16h-16v-16h16v16z" id="canvas"/><path class="icon-vs-out" d="M13 5v3l3 6-1 2h-7l-.5-1h-1.18c-.625.611-1.63 1-2.82 1-1.995 0-3.5-1.074-3.5-2.5v-3c0-1.033.802-1.869 2-2.254v-4.246c0-2.205 1.794-4 4-4h7c1.654 0 3 1.346 3 3v2h-3z" id="outline"/><path class="icon-vs-bg" d="M3.5 9c-1.381 0-2.5.672-2.5 1.5v3c0 .828 1.119 1.5 2.5 1.5s2.5-.672 2.5-1.5v-3c0-.828-1.119-1.5-2.5-1.5zm0 2.5c-1.145 0-2-.527-2-1s.855-1 2-1 2 .527 2 1-.855 1-2 1zm4.5 0c0 .135.023.263.057.387l-1.057 2.113h-.066c.042-.16.066-.326.066-.5v-2.5h1v.5zm7-8.5v1h-3v3h-1v-4h-5c-.553 0-1 .447-1 1v4.232c-.451-.146-.954-.232-1.5-.232-.173 0-.336.02-.5.035v-4.035c0-1.656 1.343-3 3-3h7c1.104 0 2 .895 2 2z" id="iconBg"/><path class="icon-vs-fg" d="M5.5 10.5c0 .473-.855 1-2 1s-2-.527-2-1 .855-1 2-1 2 .527 2 1zm.5-7.5c-.553 0-1 .447-1 1v4.232c1.2.389 2 1.233 2 2.268v.5h1v.5c0 .135.023.263.057.387l2.443-4.887h.5v-4h-5z" id="iconFg"/><path class="icon-vs-yellow" d="M11.891 8.016h-.781l-3.016 6 .515.984h5.766l.484-1-2.968-5.984zm.109 5.984h-1v-1h1v1zm0-2h-1v-2h1v2z" id="notificationBg"/><path class="icon-black" d="M12 12h-1v-2h1v2zm0 1h-1v1h1v-1z" id="notificationFg"/></svg>