<svg xmlns="http://www.w3.org/2000/svg" width="16" height="16"><style type="text/css">.icon-canvas-transparent{opacity:0;fill:#F6F6F6;} .icon-vs-out{fill:#F6F6F6;} .icon-vs-bg{fill:#424242;} .icon-vs-fg{fill:#F0EFF1;}</style><path class="icon-canvas-transparent" d="M16 16h-16v-16h16v16z" id="canvas"/><path class="icon-vs-out" d="M16 2v14h-16v-14h3v-2h9v2h4z" id="outline"/><path class="icon-vs-bg" d="M6 3.5l1 2.5h-1l-.5-1.25-.5 1.25h-1l1-2.5-1-2.5h1l.5 1.25.5-1.25h1l-1 2.5zm4-2.5l-.5 1.5-.5-1.5h-1l1 3v2h1v-2l1-3h-1zm2 2v1h2v10h-12v-10h1v-1h-2v12h14v-12h-3z" id="iconBg"/><path class="icon-vs-fg" d="M14 4v10h-12v-10h1v3h8v-3h3z" id="iconFg"/></svg>