<svg xmlns="http://www.w3.org/2000/svg" width="16" height="16"><style type="text/css">.icon-canvas-transparent{opacity:0;fill:#F6F6F6;} .icon-white{fill:#FFFFFF;} .icon-vso-bg{fill:#656565;}</style><path class="icon-canvas-transparent" d="M16 16h-16v-16h16v16z" id="canvas"/><path class="icon-white" d="M4 16v-3h-1.96l-2.04-2.203v-8.734l2.063-2.063h11.702l2.235 2.036v8.789l-2.213 2.175h-5.261l-2.063 3h-2.463z" id="outline"/><path class="icon-vso-bg" d="M12.968 1.982l1.032 1.018v7l-1 1h-6l-1 2v-2h-3l-1.019-1.005v-7.107l.906-.906h10.081zm.41-.982h-10.901l-1.477 1.478v7.928l1.477 1.594h2.523v3h.938l2.062-3h5.378l1.622-1.595v-7.927l-1.622-1.478zm-4.378 2.036h-1.982v3.964h1.982v-3.964zm0 4.964h-2v2h2v-2z" id="iconBg"/><path class="icon-white" d="M12.968 2h-10.081l-.887.888v7.108l.887 1.004h3.113v2.5l1.265-2.5h5.703l1.032-1.004v-7.108l-1.032-.888zm-3.968 8h-2v-2h2v2zm0-3h-2v-4h2v4z" id="iconFg"/></svg>