<svg xmlns="http://www.w3.org/2000/svg" width="16" height="16"><style type="text/css">.icon-canvas-transparent{opacity:0;fill:#F6F6F6;} .icon-vs-out{fill:#F6F6F6;} .icon-vs-bg{fill:#424242;} .icon-vs-fg{fill:#F0EFF1;}</style><path class="icon-canvas-transparent" d="M16 16h-16v-16h16v16z" id="canvas"/><path class="icon-vs-out" d="M2 16v-3h-2v-13h16v13h-2v3h-12z" id="outline"/><path class="icon-vs-bg" d="M15 12v-11h-14v11h5v2h-3v1h10v-1h-3v-2h5zm-13-1v-9h12v9h-12z" id="iconBg"/><path class="icon-vs-fg" d="M2 11v-9h12v9h-12z" id="iconFg"/><path class="icon-vs-bg" d="M8 3l-3 1.75v3.5l3 1.75 3-1.75v-3.5l-3-1.75zm-.429 6l-1.871-1v-2.5l1.871 1v2.5zm-1.671-4.1l2.1-1.2 2.1 1.2-2.1 1.096-2.1-1.096zm4.4 3.1l-1.871 1v-2.5l1.871-1v2.5z" id="colorImportance"/></svg>