<svg xmlns="http://www.w3.org/2000/svg" width="16" height="16"><style type="text/css">.icon-canvas-transparent{opacity:0;fill:#F6F6F6;} .icon-vs-out{fill:#F6F6F6;} .icon-vs-blue_x0020_2{fill:#1BA1E2;} .icon-vs-fg_x0020_2{fill:#F0EFF1;} .icon-vs-action-blue{fill:#00539C;} .icon-hyperlink-blue{fill:#0E70C0;} .icon-vs-blue_x0020_3{fill:#1BA1E2;}</style><path class="icon-canvas-transparent" d="M16 16h-16v-16h16v16z" id="canvas"/><path class="icon-vs-out" d="M2 16v-3h-2v-13h16v13h-2v3h-12z" id="outline"/><path class="icon-vs-blue_x0020_2" d="M15 12v-11h-14v11h5v2h-3v1h10v-1h-3v-2h5zm-13-1v-9h12v9h-12z" id="iconBg"/><path class="icon-vs-fg_x0020_2" d="M2 11v-9h12v9h-12z" id="iconFg"/><g id="colorImportance"><polygon class="icon-vs-action-blue" points="11.358,4.278 8,6.056 4.642,4.278 8,2.5"/><polygon class="icon-hyperlink-blue" points="4.444,8.426 7.707,10.5 7.704,6.648 4.444,4.87"/><polygon class="icon-vs-blue_x0020_3" points="8.302,6.648 8.296,10.5 11.556,8.426 11.556,4.87"/></g></svg>