<svg xmlns="http://www.w3.org/2000/svg" width="16" height="16"><style type="text/css">.icon-canvas-transparent{opacity:0;fill:#F6F6F6;} .icon-vs-out{fill:#F6F6F6;} .icon-vs-bg{fill:#424242;} .icon-vs-action-red{fill:#A1260D;}</style><path class="icon-canvas-transparent" d="M16 16h-16v-16h16v16z" id="canvas"/><path class="icon-vs-out" d="M10.976 10.976c-.242 2.814-2.6 5.024-5.476 5.024-3.037 0-5.5-2.463-5.5-5.5 0-.922.229-1.79.631-2.553-.11-.069-.213-.147-.305-.237-.133-.128-.237-.281-.326-.442v-1.846c.088-.156.189-.304.321-.434l1.104-.988-1.059-.946c-.154-.152-.27-.317-.366-.488v-1.833c.09-.162.194-.315.328-.445.119-.116.259-.207.406-.288h1.895c.167.094.324.204.452.346l1.039 1.245 1.779-1.591h2.101v.605c.751-.384 1.599-.605 2.5-.605 3.037 0 5.5 2.462 5.5 5.5 0 2.877-2.21 5.234-5.024 5.476z" id="outline"/><path class="icon-vs-bg" d="M10 10.5c0 2.485-2.015 4.5-4.5 4.5s-4.5-2.015-4.5-4.5c0-.826.239-1.591.627-2.256l.067.006c.539 0 1.045-.217 1.42-.634l1.006-1.207 2.059 1.841h1.821v-1.49c1.205.807 2 2.18 2 3.74zm.5-9.5c-.959 0-1.835.313-2.561.826l-1.488 1.786c-.079.17-.153.343-.21.524l.955 1.146c2.037.662 3.559 2.469 3.777 4.67 2.259-.239 4.027-2.128 4.027-4.452 0-2.485-2.015-4.5-4.5-4.5z" id="iconBg"/><path class="icon-vs-action-red" d="M4.5 4l2.5 3h-.344l-2.668-2.385-1.834 2.2c-.238.264-.721.229-.955 0-.241-.234-.289-.652 0-.938l2.101-1.877-2.101-1.878c-.289-.285-.241-.703 0-.938.234-.229.717-.263.955 0l1.834 2.201 2.668-2.385h.344l-2.5 3z" id="colorAction"/></svg>