<svg xmlns="http://www.w3.org/2000/svg" width="16" height="16"><style type="text/css">.icon-canvas-transparent{opacity:0;fill:#F6F6F6;} .icon-vs-out{fill:#F6F6F6;} .icon-vs-bg{fill:#424242;} .icon-vs-blue{fill:#1BA1E2;} .icon-white{fill:#FFFFFF;}</style><path class="icon-canvas-transparent" d="M16 16h-16v-16h16v16z" id="canvas"/><path class="icon-vs-out" d="M16 0h-5.414l-2.586 2.586-2.586-2.586h-5.414v5.414l4 4v-2.551c.516.605.944 1.284 1.274 1.933-.174.537-.272 1.108-.272 1.704 0 1.175.371 2.261.998 3.153v.347h.259c1.009 1.222 2.534 2 4.241 2 3.039 0 5.5-2.462 5.5-5.5 0-1.414-.538-2.698-1.414-3.673l1.414-1.413v-5.414zm-6.807 4c-.42.466-.823.988-1.193 1.545-.37-.557-.773-1.079-1.193-1.545h2.386z" id="outline"/><path class="icon-vs-bg" d="M11.586 3h-2.586l2-2h4v4l-1.146 1.147c-.267-.206-.552-.387-.854-.543v-1.19l-.841.842c-.524-.166-1.081-.256-1.659-.256-.313 0-.617.032-.915.082.228-.278.463-.545.708-.789l1.293-1.293zm-4.41 3.127c-.441-.668-.934-1.3-1.469-1.834l-1.293-1.293h2.586l-2-2h-4v4l2 2v-2.586l1.293 1.293c.573.573 1.08 1.261 1.5 1.962.36-.598.83-1.121 1.383-1.542z" id="iconBg"/><path class="icon-vs-blue" d="M10.5 6c-2.481 0-4.5 2.019-4.5 4.5s2.019 4.5 4.5 4.5 4.5-2.019 4.5-4.5-2.019-4.5-4.5-4.5zm0 8c-1.933 0-3.5-1.567-3.5-3.5s1.567-3.5 3.5-3.5c1.692 0 3.102 1.2 3.429 2.795.047.228.071.464.071.705s-.024.477-.071.705c-.327 1.595-1.737 2.795-3.429 2.795zm-1.918-4.948l1.811 1.812-1.824 1.825-.605-.607 1.182-1.184.035-.035-.035-.035-1.168-1.17.604-.606zm3.236.795l1.182 1.182-.606.607-1.824-1.825 1.811-1.811.605.606-1.168 1.17-.035.035.035.036z" id="notificationBg"/><path class="icon-white" d="M13.929 9.795c-.327-1.595-1.738-2.795-3.429-2.795-1.932 0-3.5 1.567-3.5 3.5s1.568 3.5 3.5 3.5c1.691 0 3.102-1.2 3.429-2.795.047-.228.071-.464.071-.705s-.024-.477-.071-.705zm-5.361 2.894l-.605-.607 1.182-1.184.035-.035-.035-.035-1.168-1.17.605-.606 1.811 1.812-1.825 1.825zm3.826-1.052l-1.824-1.826 1.811-1.811.605.606-1.168 1.17-.035.035.035.035 1.182 1.183-.606.608z" id="notificationFg"/></svg>