<svg xmlns="http://www.w3.org/2000/svg" width="32" height="32"><style type="text/css">.icon-canvas-transparent{opacity:0;fill:#F6F6F6;} .icon-white{fill:#FFFFFF;}</style><path class="icon-canvas-transparent" d="M32 32h-32v-32h32v32z" id="canvas"/><g id="iconBg"><path class="icon-white" d="M5 2v28h23v-28h-23zm21 26h-19v-24h19v24zm-9.5-21c-3.584 0-6.5 2.916-6.5 6.5s2.916 6.5 6.5 6.5 6.5-2.916 6.5-6.5-2.916-6.5-6.5-6.5zm.125 11.053c-2.608 0-4.724-2.044-4.724-4.565 0-2.521 2.116-4.565 4.724-4.565.863 0 1.671.223 2.366.61l-2.366 3.954 4.104 2.265c-.813 1.374-2.347 2.301-4.104 2.301zm6.375 6.947h-13v-3h13v3z"/></g></svg>