<svg xmlns="http://www.w3.org/2000/svg" width="16" height="16"><style type="text/css">.icon-canvas-transparent{opacity:0;fill:#F6F6F6;} .icon-vs-out{fill:#F6F6F6;} .icon-vs-bg{fill:#424242;} .icon-vs-fg{fill:#F0EFF1;} .icon-vs-action-red{fill:#A1260D;}</style><path class="icon-canvas-transparent" d="M16 16h-16v-16h16v16z" id="canvas"/><path class="icon-vs-out" d="M14 2v12h-12v-6.031l-.305.031c-.453 0-.888-.171-1.193-.469-.316-.306-.5-.738-.502-1.182-.002-.445.176-.866.498-1.184l1.302-1.165-1.267-1.133c-.357-.349-.535-.77-.533-1.216.002-.444.186-.876.504-1.185.303-.295.738-.466 1.19-.466.468 0 .906.188 1.202.514l1.197 1.436 2.18-1.95h1.727v1.362l-.531.638h6.531z" id="outline"/><path class="icon-vs-bg" d="M13 3v10h-10v-5.638l1-1.2v5.131l2-2 .707.707-2.001 2h6.588l-2.001-2 .707-.707 2 2v-6.586l-2 2-.707-.707 1.999-2h-5.49l.833-1h6.365z" id="iconBg"/><path class="icon-vs-fg" d="M10 9.293l-.707.707 2 2h-6.586l2-2-.707-.707-2 2v-5.131l.093-.112 2.18 1.95h1.727v-1.361l-2.199-2.639h5.491l-2 2 .708.707 2-2v6.586l-2-2z" id="iconFg"/><path class="icon-vs-action-red" d="M3.988 4.615l-1.834 2.2c-.238.264-.721.229-.955 0-.241-.234-.289-.652 0-.938l2.101-1.877-2.101-1.878c-.289-.285-.241-.703 0-.938.234-.229.717-.263.955 0l1.833 2.201 2.669-2.385h.344l-2.5 3 2.5 3h-.344l-2.668-2.385z" id="colorAction"/></svg>