<svg xmlns="http://www.w3.org/2000/svg" width="16" height="16"><style type="text/css">.icon-canvas-transparent{opacity:0;fill:#F6F6F6;} .icon-white{fill:#FFFFFF;}</style><path class="icon-canvas-transparent" d="M16 16h-16v-16h16v16z" id="canvas"/><path class="icon-white" d="M5 14h-4v-12h14v7c0-.737-.405-1.375-1-1.722v-2.278h-12v8h3v1zm8-6h-1c-.553 0-1 .447-1 1v1c0 .553.447 1 1 1h1c.553 0 1-.447 1-1v-1c0-.553-.447-1-1-1zm-6 1v-1c0-.553.447-1 1-1h1c.553 0 1 .447 1 1v1c0 .553-.447 1-1 1h-1c-.553 0-1-.447-1-1zm5.5 4l2.5-1v3h-5v-3l2.5 1zm-3.5-1.333v2.333h-3v-3l2.5 1 .5-.333z" id="iconBg"/></svg>