<svg xmlns="http://www.w3.org/2000/svg" viewBox="0 0 16 16" enable-background="new 0 0 16 16"><style type="text/css">.icon-canvas-transparent{opacity:0;fill:#F6F6F6;} .icon-vs-out{fill:#F6F6F6;} .icon-vs-bg{fill:#424242;} .icon-vs-fg{fill:#F0EFF1;}</style><path class="icon-canvas-transparent" d="M16 16h-16v-16h16v16z" id="canvas"/><path class="icon-vs-out" d="M16 3.413l-2 1.994v5.417l-2.213 2.176h-3.33l-1.981 3h-2.476v-3h-1.96l-2.04-2.203v-5.734l2.063-2.063h7.45l3.065-3h.837l2.585 2.586v.827z" id="outline"/><path class="icon-vs-bg" d="M13 6.404v4.001l-1.622 1.595h-3.459l-1.981 3h-.938v-3h-2.523l-1.477-1.595v-4.927l1.477-1.478h6.014l-1.022 1h-4.582l-.887.888v4.107l.887 1.005h3.113v2.078l1.127-1.686.263-.392h3.578l1.032-1.005v-2.594l1-.997zm-6 .595l2 2 4-3.999-2-2-4 3.999zm6-5.999l2 2-1 1-2-2 1-1zm-5 9l-2-.001v-1.999l2 2zm-5-4v1h2.426l1.022-1h-3.448zm0 3h2v-1h-2v1zm8-.602l-.603.602h.603v-.602z" id="iconBg"/><g id="iconFg"><path class="icon-vs-fg" d="M2.887 5l-.887.888v4.107l.887 1.005h2.113v-2h-2v-1h2v-.583l2.469-2.417h-4.582zm.113 2v-1h3.448l-1.022 1h-2.426zm9 .401v2.594l-1.032 1.005h-2.577l2.006-2h.603v-.602l1-.997z"/></g></svg>