<svg xmlns="http://www.w3.org/2000/svg" viewBox="0 0 16 16" enable-background="new 0 0 16 16"><style type="text/css">.icon-canvas-transparent{opacity:0;fill:#F6F6F6;} .icon-vs-out{fill:#F6F6F6;} .icon-vs-bg{fill:#424242;}</style><rect class="icon-canvas-transparent" width="16" height="16" id="canvas"/><path class="icon-vs-out" d="M16 4.914l-3.086 3.086h3.086v1.414l-6.586 6.586h-2.532l1.5-3h-8.382v-7h2c-.65-.635-1-1.52-1-2.5 0-1.933 1.567-3.5 3.5-3.5 1.934 0 3.5 1.567 3.5 3.5 0 .98-.35 1.865-1 2.5h1.882l1-2h6.118v.914z" id="outline"/><g id="iconBg"><path class="icon-vs-bg" d="M2 3.5c0-1.38 1.119-2.5 2.5-2.5 1.379 0 2.5 1.12 2.5 2.5s-1.121 2.5-2.5 2.5c-1.381 0-2.5-1.119-2.5-2.5m12.5 1.5h-4l-3 6h3l-2 4h.5l6-6h-4.5l4-4zm-6.5 2h-2l-1.5 2-1.5-2h-2v5h4.882l2.118-4.236v-.764z"/></g></svg>