<svg xmlns="http://www.w3.org/2000/svg" width="32" height="96"><style type="text/css">.icon-canvas-transparent{opacity:0;fill:#F6F6F6;} .icon-f12-grey-primary{fill:#555555;} .icon-f12-blue-hover{fill:#2279BF;} .icon-f12-ltgrey-disabled{fill:#ABABAC;} .icon-f12-error-negative{fill:#ED1123;}</style><path class="icon-canvas-transparent" d="M32 96h-32v-96h32v96z" id="canvas"/><g id="iconBg"><path class="icon-f12-grey-primary" d="M32 21.862c0 5.599-6.268 10.138-14 10.138s-14-4.539-14-10.138c0-.307-.019-1.494.387-3.101l3.677-4.398.219.196c-1.168 1.217-1.929 4.583-1.929 4.583l-.024.092c-.333 1.309-.331 2.268-.33 2.628 0 4.411 5.495 8.138 12 8.138 5.856 0 10.893-3.02 11.84-6.84-.71.145-1.442.219-2.184.219-3.016 0-5.3-.786-6.791-2.336-.317-.329-.574-.681-.802-1.043l-.31-.563c-1.034-2.057-.884-6.363-.883-6.393-.953-.444-2.576-.971-3.227-1.038-.387-.04-.767-.06-1.129-.06-.302 0-.593.018-.881.045l-1.473-1.792c1.057-.233 2.26-.329 3.687-.182 1.041.107 4.206 1.112 5.051 1.957 0 3.383-1.26 9.406 6.757 9.406 1.552 0 2.987-.394 4.166-1.059.106.503.179 1.015.179 1.541z"/><path class="icon-f12-error-negative" d="M1.718 5.977c-.712-.701-.594-1.725 0-2.301.574-.561 1.756-.646 2.341 0l3.974 4.768 5.841-5.221h.844l-5.519 6.624 6.745 8.094h-.844l-7.248-6.478-5.021 6.025c-.585.647-1.767.561-2.341 0-.594-.575-.713-1.601 0-2.299l5.765-5.154-4.537-4.058z"/><path class="icon-f12-blue-hover" d="M32 53.862c0 5.599-6.268 10.138-14 10.138s-14-4.539-14-10.138c0-.307-.019-1.494.387-3.101l3.677-4.398.219.196c-1.168 1.216-1.929 4.583-1.929 4.583l-.024.092c-.333 1.309-.331 2.268-.33 2.628 0 4.411 5.495 8.138 12 8.138 5.855 0 10.893-3.02 11.84-6.84-.71.145-1.442.219-2.184.219-3.016 0-5.3-.786-6.791-2.336-.317-.329-.574-.681-.802-1.043l-.31-.563c-1.034-2.057-.884-6.362-.883-6.393-.953-.444-2.576-.971-3.227-1.038-.387-.04-.767-.06-1.129-.06-.302 0-.593.018-.881.045l-1.473-1.792c1.057-.233 2.26-.329 3.687-.182 1.041.107 4.206 1.112 5.051 1.957 0 3.383-1.26 9.406 6.757 9.406 1.552 0 2.987-.394 4.166-1.059.107.503.179 1.015.179 1.541z"/><path class="icon-f12-error-negative" d="M1.718 37.977c-.712-.701-.594-1.725 0-2.301.574-.561 1.756-.646 2.341 0l3.974 4.769 5.841-5.221h.844l-5.519 6.624 6.745 8.094h-.844l-7.248-6.479-5.021 6.025c-.585.646-1.767.56-2.341 0-.594-.575-.713-1.601 0-2.299l5.765-5.154-4.537-4.058z"/><path class="icon-f12-ltgrey-disabled" d="M32 85.862c0 5.599-6.268 10.138-14 10.138s-14-4.539-14-10.138c0-.307-.019-1.494.387-3.101l3.677-4.398.219.196c-1.168 1.216-1.929 4.583-1.929 4.583l-.024.092c-.333 1.309-.331 2.268-.33 2.628 0 4.411 5.495 8.138 12 8.138 5.856 0 10.893-3.02 11.84-6.84-.71.145-1.442.219-2.184.219-3.016 0-5.3-.786-6.791-2.336-.317-.329-.574-.681-.802-1.043l-.31-.563c-1.034-2.057-.884-6.362-.883-6.393-.953-.444-2.576-.971-3.227-1.038-.387-.04-.767-.06-1.129-.06-.302 0-.593.018-.881.045l-1.473-1.792c1.057-.234 2.26-.329 3.687-.183 1.041.107 4.206 1.112 5.051 1.957 0 3.383-1.26 9.406 6.757 9.406 1.552 0 2.987-.394 4.166-1.059.106.504.179 1.016.179 1.542z"/><path class="icon-f12-ltgrey-disabled" d="M1.718 69.977c-.712-.701-.594-1.725 0-2.301.574-.561 1.756-.646 2.341 0l3.974 4.769 5.841-5.221h.844l-5.519 6.624 6.745 8.094h-.844l-7.248-6.479-5.021 6.025c-.585.646-1.767.561-2.341 0-.594-.575-.713-1.601 0-2.299l5.765-5.154-4.537-4.058z"/></g></svg>