<?xml version="1.0" encoding="utf-8"?>
<!-- Generator: Adobe Illustrator 19.0.0, SVG Export Plug-In . SVG Version: 6.00 Build 0)  -->
<!DOCTYPE svg PUBLIC "-//W3C//DTD SVG 1.1//EN" "http://www.w3.org/Graphics/SVG/1.1/DTD/svg11.dtd">
<svg version="1.1" xmlns="http://www.w3.org/2000/svg" xmlns:xlink="http://www.w3.org/1999/xlink" x="0px" y="0px" width="13px"
	 height="13px" viewBox="0 0 13 13" style="enable-background:new 0 0 13 13;" xml:space="preserve">
<style type="text/css">
	.icon_x002D_canvas_x002D_transparent{opacity:0;fill:#F6F6F6;}
	.icon_x002D_vs_x002D_out{fill:#F6F6F6;}
	.icon_x002D_vs_x002D_bg{fill:#424242;}
</style>
<g id="canvas">
	<path id="XMLID_22_" class="icon_x002D_canvas_x002D_transparent" d="M13,13H0V0h13V13z"/>
</g>
<g id="outline">
	<path id="XMLID_20_" class="icon_x002D_vs_x002D_out" d="M13,8h-3v2H8v3H5v-3H3V8H0V5h3V3h2V0h3v3h2v2h3V8z"/>
</g>
<g id="iconBg">
	<path id="XMLID_23_" class="icon_x002D_vs_x002D_bg" d="M9,9H4V4h5V9z M7,1H6v2h1V1z M12,6h-2v1h2V6z M7,10H6v2h1V10z M3,6H1v1h2V6
		z"/>
	<g id="XMLID_24_">
	</g>
	<g id="XMLID_25_">
	</g>
	<g id="XMLID_26_">
	</g>
	<g id="XMLID_27_">
	</g>
	<g id="XMLID_28_">
	</g>
	<g id="XMLID_29_">
	</g>
</g>
</svg>
