<svg xmlns="http://www.w3.org/2000/svg" width="32" height="96"><style type="text/css">.icon-canvas-transparent{opacity:0;fill:#F6F6F6;} .icon-f12-grey-primary{fill:#555555;} .icon-f12-blue-hover{fill:#2279BF;} .icon-f12-ltgrey-disabled{fill:#ABABAC;}</style><path class="icon-canvas-transparent" d="M32 96h-32v-96h32v96z" id="canvas"/><g id="iconBg"><path class="icon-f12-grey-primary" d="M22.222 11h4.148l-4.148 4h7.778v4h-7.778l4.148 4h-4.148l-6.222-6 6.222-6zm-8.222-5h16v-2h-16v2zm0 22h16v-2h-16v2zm-8-14h8v-4h-8v4zm-4 9h12v-4h-12v4z"/><path class="icon-f12-blue-hover" d="M22.222 43h4.148l-4.148 4h7.778v4h-7.778l4.148 4h-4.148l-6.222-6 6.222-6zm-8.222-5h16v-2h-16v2zm0 22h16v-2h-16v2zm-8-14h8v-4h-8v4zm-4 9h12v-4h-12v4z"/><path class="icon-f12-ltgrey-disabled" d="M22.222 75h4.148l-4.148 4h7.778v4h-7.778l4.148 4h-4.148l-6.222-6 6.222-6zm-8.222-5h16v-2h-16v2zm0 22h16v-2h-16v2zm-8-14h8v-4h-8v4zm-4 9h12v-4h-12v4z"/></g></svg>