<svg xmlns="http://www.w3.org/2000/svg" width="32" height="96"><style type="text/css">.icon-canvas-transparent{opacity:0;fill:#F6F6F6;} .icon-white{fill:#FFFFFF;} .icon-f12-grey-primary{fill:#555555;} .icon-f12-ltgrey-disabled{fill:#ABABAC;} .icon-f12-error-negative{fill:#ED1123;} .icon-f12-start-positive{fill:#009E49;}</style><path class="icon-canvas-transparent" d="M32 96h-32v-96h32v96z" id="canvas"/><g id="iconBg"><path class="icon-f12-grey-primary" d="M17 3l-2 2v6h-4v4h-6l-2 2 14 14 14-14-14-14zm-2.814 24h-.915l4.06-8h-5.331l4.203-9h7.064l-6.837 7h7.979l-10.223 10z"/><path class="icon-f12-error-negative" d="M17 35l-2 2v6h-4v4h-6l-1 1-1 1 14 14 14-14-14-14zm-2.814 24h-.915l4.06-8h-5.331l4.203-9h7.064l-6.837 7h7.979l-10.223 10z"/><path class="icon-f12-ltgrey-disabled" d="M17 67l-2 1.998v6.002h-4v4h-6.009l-1.892 1.891h.011l-.11.109 14 14 14-14-14-14zm-2.814 24h-.915l4.06-8h-5.331l4.203-9h7.064l-6.837 7h7.979l-10.223 10z"/></g><g id="iconFg"><path class="icon-white" d="M24.409 17l-10.223 10h-.915l4.06-8h-5.331l4.203-9h7.064l-6.837 7h7.979z"/><polygon class="icon-white" points="16.431,49 23.268,42 16.203,42 12,51 17.331,51 13.271,59 14.186,59 24.409,49"/><path class="icon-white" d="M24.409 81l-10.223 10h-.915l4.06-8h-5.331l4.203-9h7.064l-6.837 7h7.979z"/></g><g id="colorAction"><path class="icon-f12-start-positive" d="M12 8h-4v4h-3v-4h-4v-3h4v-4h3v4h4v3z"/><path class="icon-f12-start-positive" d="M12 40h-4v4h-3v-4h-4v-3h4v-4h3v4h4v3z"/><path class="icon-f12-ltgrey-disabled" d="M12 72h-4v4h-3v-4h-4v-3h4v-4h3v4h4v3z"/></g></svg>