<svg xmlns="http://www.w3.org/2000/svg" width="16" height="16"><style type="text/css">.icon-canvas-transparent{opacity:0;fill:#F6F6F6;} .icon-white{fill:#FFFFFF;} .st0{fill:#9DBFE9;} .st1{fill:#E0EBF9;}</style><path class="icon-canvas-transparent" d="M16 16h-16v-16h16v16z" id="canvas"/><path class="icon-white" d="M16 5v1.515l-4.21 3.008 2.082 6.477h-1.752l-4.12-3.662-4.12 3.662h-1.752l2.083-6.478-4.211-3.007v-1.515h5.665l1.608-5h1.457l1.607 5h5.663z" id="outline"/><path class="st0" d="M15 6h-5.393l-1.606-5-1.607 5h-5.394l4.387 3.133-1.887 5.867 4.5-4 4.5 4-1.886-5.867 4.386-3.133zm-7 3.662l-2.427 2.157.989-3.076-2.441-1.743h3.001l.878-2.732.878 2.732h3.001l-2.441 1.744.989 3.076-2.427-2.158z" id="iconBg"/><path class="st1" d="M8 9.662l-2.427 2.157.989-3.076-2.441-1.743h3.001l.878-2.732.878 2.732h3.001l-2.441 1.744.989 3.076-2.427-2.158z" id="iconFg"/></svg>