<svg xmlns="http://www.w3.org/2000/svg" width="16" height="16"><style type="text/css">.icon-canvas-transparent{opacity:0;fill:#F6F6F6;} .icon-white{fill:#FFFFFF;} .icon-visualstudio-online{fill:#007ACC;} .st0{fill:#9DBFE9;} .st1{fill:#E0EBF9;}</style><path class="icon-canvas-transparent" d="M16 16h-16v-16h16v16z" id="canvas"/><path class="icon-white" d="M16 5v1.515l-4.21 3.008 2.082 6.477h-1.752l-4.12-3.662-4.12 3.662h-1.752l2.083-6.478-4.211-3.007v-1.515h5.665l1.608-5h1.457l1.607 5h5.663z" id="outline"/><path class="st0" d="M10.614 9.133l1.886 5.867-4.5-4v-9.997l.001-.003 1.606 5h5.393l-4.386 3.133z" id="iconBg"/><path class="st1" d="M9.438 8.744l.989 3.076-2.427-2.158v-5.394l.878 2.732h3.001l-2.441 1.744z" id="iconFg"/><path class="icon-visualstudio-online" d="M3.5 15l1.887-5.867-4.387-3.133h5.394l1.606-4.997v9.997l-4.5 4z" id="colorAction"/></svg>