<svg xmlns="http://www.w3.org/2000/svg" width="16" height="16"><style type="text/css">.icon-canvas-transparent{opacity:0;fill:#F6F6F6;} .icon-vs-out{fill:#F6F6F6;} .icon-vs-bg{fill:#424242;}</style><path class="icon-canvas-transparent" d="M16 16h-16v-16h16v16z" id="canvas"/><path class="icon-vs-out" d="M16 0v5h-1v2h-2v2h-4v7h-9v-7h2c-.65-.635-1-1.52-1-2.5 0-1.934 1.566-3.5 3.5-3.5 1.762 0 3.205 1.306 3.45 3h.05v-3h-2v-3h10z" id="outline"/><path class="icon-vs-bg" d="M2 6.5c0-1.38 1.119-2.5 2.5-2.5 1.379 0 2.5 1.12 2.5 2.5 0 1.381-1.121 2.5-2.5 2.5-1.381 0-2.5-1.119-2.5-2.5m6 3.5v5h-7v-5h2l1.5 2 1.5-2h2zm1-6h3v-1h-3v1zm1-3h-3v1h3v-1zm1 0v1h4v-1h-4zm2 3h2v-1h-2v1zm-4 2h5v-1h-5v1zm-1.045 1c-.046.354-.135.689-.274 1h4.319v-1h-4.045z" id="iconBg"/></svg>