<svg xmlns="http://www.w3.org/2000/svg" width="16" height="16"><style type="text/css">.icon-canvas-transparent{opacity:0;fill:#F6F6F6;} .icon-vs-out{fill:#F6F6F6;} .icon-vs-bg{fill:#424242;} .icon-vs-fg{fill:#F0EFF1;}</style><path class="icon-canvas-transparent" d="M16 16h-16v-16h16v16z" id="canvas"/><path class="icon-vs-out" d="M16 3v6c0 1.711-2.149 3-5 3-.379 0-.743-.025-1.094-.069-.436 2.315-2.463 4.069-4.906 4.069-2.761 0-5-2.238-5-5 0-1.643.804-3.088 2.027-4h-.027v-3h4v-1c0-1.71 2.149-3 5-3s5 1.29 5 3z" id="outline"/><path class="icon-vs-bg" d="M5 7c-2.209 0-4 1.791-4 4s1.791 4 4 4 4-1.791 4-4-1.791-4-4-4zm0 7c-1.657 0-3-1.344-3-3 0-.196.019-.387.055-.573.252-1.296 1.346-2.286 2.688-2.402l-.743 2.975c0 .553.448 1 1 1s1-.447 1-1l-.743-2.975c1.534.133 2.743 1.407 2.743 2.975 0 1.656-1.344 3-3 3zm6-13c-2.209 0-4 .896-4 2v1h1v3h-.031c1.207.898 2.004 2.317 2.027 3.929.322.042.655.071 1.004.071 2.209 0 4-.896 4-2v-6c0-1.104-1.791-2-4-2zm0 3.325c-1.999 0-3.325-.798-3.325-1.325s1.326-1.325 3.325-1.325 3.325.798 3.325 1.325-1.326 1.325-3.325 1.325zm-7 1.675h-1v-1h4v1h-1v.5h-2v-.5z" id="iconBg"/><path class="icon-vs-fg" d="M8 11c0 1.656-1.344 3-3 3-1.657 0-3-1.344-3-3 0-1.568 1.209-2.842 2.743-2.975l-.743 2.975c0 .553.448 1 1 1s1-.447 1-1l-.743-2.975c1.534.133 2.743 1.407 2.743 2.975zm3-9.325c-1.999 0-3.325.798-3.325 1.325s1.326 1.325 3.325 1.325 3.325-.798 3.325-1.325-1.326-1.325-3.325-1.325z" id="iconFg"/></svg>