<svg xmlns="http://www.w3.org/2000/svg" width="16" height="16"><style type="text/css">.icon-canvas-transparent{opacity:0;fill:#F6F6F6;} .icon-vs-out{fill:#F6F6F6;} .icon-vs-bg{fill:#424242;}</style><path class="icon-canvas-transparent" d="M16 16h-16v-16h16v16z" id="canvas"/><path class="icon-vs-out" d="M16 14h-6.586l-2 2h-.242l-2-2h-.344l-2 2h-.242l-2.586-2.586v-.242l2-2v-.344l-2-2v-.242l2-2v-6.586h14v14z" id="outline"/><path class="icon-vs-bg" d="M4 5h-1v-4h4v1h-3v3zm7-4v1h3v3h1v-4h-4zm3 11h-3v1h4v-4h-1v3zm-8-4.828l1.293-1.293 2.828 2.828-2.293 2.293h4.172v-8h-6v4.172z" id="iconBg"/><path class="icon-vs-bg" d="M6.414 11l2.293 2.293-1.414 1.414-2.293-2.293-2.293 2.293-1.414-1.414 2.293-2.293-2.293-2.293 1.414-1.414 2.293 2.293 2.293-2.293 1.414 1.414-2.293 2.293z" id="iconFg"/></svg>