<?xml version="1.0" encoding="utf-8"?>
<!-- Generator: Adobe Illustrator 18.1.1, SVG Export Plug-In . SVG Version: 6.00 Build 0)  -->
<!DOCTYPE svg PUBLIC "-//W3C//DTD SVG 1.1//EN" "http://www.w3.org/Graphics/SVG/1.1/DTD/svg11.dtd">
<svg version="1.1" xmlns="http://www.w3.org/2000/svg" xmlns:xlink="http://www.w3.org/1999/xlink" x="0px" y="0px" width="16px"
	 height="16px" viewBox="0 0 16 16" style="enable-background:new 0 0 16 16;" xml:space="preserve">
<style type="text/css">
	.icon-canvas-transparent{opacity:0;fill:#F6F6F6;}
	.icon-vs-out{fill:#F6F6F6;}
	.icon-vs-bg{fill:#424242;}
	.icon-vs-fg{fill:#F0EFF1;}
	.icon-folder{fill:#DCB67A;}
</style>
<g id="canvas">
	<path class="icon-canvas-transparent" d="M16,16H0V0h16V16z"/>
</g>
<g id="outline">
	<path class="icon-vs-out" d="M14.5,1H6.39l-1,2H2.504C1.677,3,1,3.673,1,4.5v4.511C0,9.739-0.002,10.793-0.002,12
		c0,2.243,1.32,4,3.002,4h5c1.129,0,2.083-0.801,2.595-2H14.5c0.827,0,1.5-0.673,1.5-1.5v-10C16,1.673,15.327,1,14.5,1z"/>
</g>
<g id="iconBg">
	<path class="icon-folder" d="M14.5,2H7.008l-1,2H2.504C2.227,4,2,4.224,2,4.5v3.736C2,8.093,2.647,8,3,8h5
		c1.683,0,3,1.757,3,4c0,0.349-0.042,0.68-0.102,1H14.5c0.275,0,0.5-0.224,0.5-0.5v-10C15,2.224,14.775,2,14.5,2z M14,4H7.508l0.5-1
		h0.004H14V4z"/>
	<path class="icon-vs-bg" d="M1,12c0,1.657,0.896,3,2,3h1h4c1.104,0,2-1.343,2-3c0-1.657-0.896-3-2-3H4H3
		C1.896,9,1,10.343,1,12z M4.5,12c0,1.502-0.792,2.625-1.5,2.625S1.5,13.502,1.5,12S2.292,9.375,3,9.375S4.5,10.498,4.5,12z"/>
</g>
<g id="iconFg">
	<path class="icon-vs-fg" d="M14,3v1H7.5L8,3H14z M4.5,12c0,1.502-0.792,2.625-1.5,2.625S1.5,13.502,1.5,12
		S2.292,9.375,3,9.375S4.5,10.498,4.5,12z"/>
</g>
</svg>
