<?xml version="1.0" encoding="utf-8"?>
<!-- Generator: Adobe Illustrator 19.0.1, SVG Export Plug-In . SVG Version: 6.00 Build 0)  -->
<!DOCTYPE svg PUBLIC "-//W3C//DTD SVG 1.1//EN" "http://www.w3.org/Graphics/SVG/1.1/DTD/svg11.dtd">
<svg version="1.1" xmlns="http://www.w3.org/2000/svg" xmlns:xlink="http://www.w3.org/1999/xlink" x="0px" y="0px" width="16px"
	 height="16px" viewBox="0 0 16 16" style="enable-background:new 0 0 16 16;" xml:space="preserve">
<style type="text/css">
	.icon_x002D_canvas_x002D_transparent{opacity:0;fill:#F6F6F6;}
	.icon_x002D_vs_x002D_out{fill:#F6F6F6;}
	.icon_x002D_vs_x002D_bg{fill:#424242;}
</style>
<g id="canvas">
	<path id="XMLID_1_" class="icon_x002D_canvas_x002D_transparent" d="M16,16H0V0h16V16z"/>
</g>
<g id="outline">
	<path id="XMLID_3_" class="icon_x002D_vs_x002D_out" d="M15,4v8c0,2.28-3.01,4-7,4c-1.81,0-3.413-0.356-4.63-0.956L2.414,16H0.382
		l1.186-2.371c-0.148-0.2-0.265-0.411-0.355-0.629H0v-1.236l1-2V4c0-2.28,3.01-4,7-4C11.99,0,15,1.72,15,4z"/>
</g>
<g id="iconBg">
	<path id="XMLID_5_" class="icon_x002D_vs_x002D_bg" d="M6,8l-3,3h3l-4,4l1.5-3H1l2-4H6z M14,4v8c0,1.657-2.686,3-6,3
		c-1.478,0-2.829-0.269-3.875-0.711l0.774-0.774C5.718,13.801,6.762,14,8,14c3.052,0,5-1.185,5-2l0.016-6.833
		C11.94,5.978,10.07,6.584,7.984,6.584C5.902,6.584,4.203,6.125,3,5.188V7H2.382L2,7.764V4c0-1.657,2.687-3,6-3
		C11.314,1,14,2.343,14,4z M12.997,4c0-0.815-1.948-2-5-2c-3.052,0-5,1.185-5,2s1.948,1.833,5,1.833
		C11.049,5.833,12.997,4.815,12.997,4z M14,4v8c0,1.657-2.686,3-6,3c-1.478,0-2.829-0.269-3.875-0.711l0.774-0.774
		C5.718,13.801,6.762,14,8,14c3.052,0,5-1.185,5-2l0.016-6.833C11.94,5.978,10.07,6.584,7.984,6.584
		C5.902,6.584,4.203,6.125,3,5.188V7H2.382L2,7.764V4c0-1.657,2.687-3,6-3C11.314,1,14,2.343,14,4z M12.997,4c0-0.815-1.948-2-5-2
		c-3.052,0-5,1.185-5,2s1.948,1.833,5,1.833C11.049,5.833,12.997,4.815,12.997,4z"/>
	<g id="XMLID_11_">
	</g>
	<g id="XMLID_12_">
	</g>
	<g id="XMLID_13_">
	</g>
	<g id="XMLID_14_">
	</g>
	<g id="XMLID_15_">
	</g>
	<g id="XMLID_16_">
	</g>
</g>
</svg>
