<svg xmlns="http://www.w3.org/2000/svg" width="28" height="28"><style type="text/css">.icon-canvas-transparent{opacity:0;fill:#F6F6F6;} .icon-f12-grey-primary{fill:#555555;}</style><path class="icon-canvas-transparent" d="M28 28h-28v-28h28v28z" id="canvas"/><path class="icon-f12-grey-primary" d="M10 14l-6 6h6l-8 8 3-6h-5l4-8h6zm16-8v16c0 3.314-5.373 6-12 6-2.955 0-5.658-.537-7.75-1.422l1.549-1.549c1.637.573 3.724.971 6.201.971 6.104 0 10-2.369 10-4l.031-13.666c-2.15 1.621-5.062 2.834-10.062 2.834-4.719 0-7.563-.918-9.969-2.793v3.625h-1.236l-.764 1.527v-7.527c0-3.314 5.373-6 12-6s12 2.686 12 6zm-2.006 0c0-1.631-3.897-4-10-4-6.104 0-10 2.369-10 4s3.896 3.666 10 3.666 10-2.035 10-3.666z" id="iconBg"/></svg>