<svg xmlns="http://www.w3.org/2000/svg" width="16" height="16"><style type="text/css">.icon-canvas-transparent{opacity:0;fill:#F6F6F6;} .icon-white{fill:#FFFFFF;}</style><path class="icon-canvas-transparent" d="M16 16h-16v-16h16v16z" id="canvas"/><path class="icon-white" d="M15 6v9h-14v-3h4v-3h5v-3h5z" id="iconBg"/><path class="icon-white" d="M1.2 6.815c.234.229.716.264.955 0l1.833-2.201 2.668 2.386h.344l-2.5-3 2.5-3h-.344l-2.668 2.385-1.834-2.2c-.238-.263-.72-.229-.955 0-.242.234-.29.652 0 .938l2.101 1.877-2.1 1.878c-.29.285-.242.703 0 .937z" id="colorAction"/></svg>