<svg xmlns="http://www.w3.org/2000/svg" width="16" height="16"><style type="text/css">.icon-canvas-transparent{opacity:0;fill:#F6F6F6;} .icon-vs-out{fill:#F6F6F6;} .icon-vs-bg{fill:#424242;} .icon-vs-fg{fill:#F0EFF1;}</style><path class="icon-canvas-transparent" d="M16 16h-16v-16h16v16z" id="canvas"/><path class="icon-vs-out" d="M14 3v13h-14v-9h2.004l.006-4h1.99v-1h1.01c.414-1.164 1.707-2 3.01-2 1.305 0 2.578.836 2.99 2h.99v1h2z" id="outline"/><path class="icon-vs-bg" d="M1 15h6v-7h-6v7zm1-6h4v5h-4v-5zm9-5v-1h-.99c0-1.104-.895-2-2-2-1.104 0-2 .896-2 2h-1.01v1h-2v3h1v-2h8v9h-4v1h5v-11h-2zm-2.98 0c-.551 0-1.01-.447-1.01-1s.449-1 1-1c.553 0 1 .447 1 1s-.438 1-.99 1z" id="iconBg"/><g id="iconFg"><path class="icon-vs-fg" d="M12 5v9h-4v-7h-4v-2h8zm-6 4h-4v5h4v-5zm2.01-5c.553 0 1.053-.447 1.053-1s-.5-1.047-1.053-1.047c-.552 0-1.088.494-1.088 1.047s.536 1 1.088 1z"/></g></svg>