<?xml version="1.0" encoding="utf-8"?>
<!-- Generator: Adobe Illustrator 18.0.0, SVG Export Plug-In . SVG Version: 6.00 Build 0)  -->
<!DOCTYPE svg PUBLIC "-//W3C//DTD SVG 1.1//EN" "http://www.w3.org/Graphics/SVG/1.1/DTD/svg11.dtd">
<svg version="1.1" xmlns="http://www.w3.org/2000/svg" xmlns:xlink="http://www.w3.org/1999/xlink" x="0px" y="0px" width="16px"
	 height="16px" viewBox="0 0 16 16" style="enable-background:new 0 0 16 16;" xml:space="preserve">
<style type="text/css">
	.icon-canvas-transparent{opacity:0;fill:#F6F6F6;}
	.icon-vs-out{fill:#F6F6F6;}
	.icon-vs-bg{fill:#424242;}
	.st0{fill:#F0EFF1;}
</style>
<g id="canvas">
	<path class="icon-canvas-transparent" d="M16,16H0V0h16V16z"/>
</g>
<g id="outline">
	<path class="icon-vs-out" d="M16,6.084v4.82l-2.083-2.07c-0.324,1.836-1.681,4.595-5.252,5.25
		c-0.516,0.113-1.063,0.174-1.591,0.174c-0.728,0-1.441-0.117-2.065-0.339c-0.247-0.088-0.427-0.169-0.554-0.234
		c-1.898-0.826-3.271-2.577-3.614-4.656C0.813,8.857,0.79,8.7,0.776,8.539C0.76,8.365,0.75,8.184,0.75,8
		c0-3.446,2.804-6.25,6.25-6.25c1.677,0,3.252,0.669,4.436,1.886l1.043-1.05L16,6.084z"/>
</g>
<g id="iconBg">
	<path class="icon-vs-bg" d="M15,8.5v-2L12.484,4L10,6.5v2l2-2.014v1.371v0.12c-0.004,0.16-0.151,3.626-3.951,4.181
		c0.398-0.841,0.706-1.623,0.908-2.343C9.04,9.49,9.116,9.162,9.174,8.852c0.074-0.431,0.114-0.843,0.109-1.23
		c-0.001-0.215-0.022-0.416-0.04-0.619C9.192,6.563,9.114,6.107,9.034,5.711c-0.16-0.67-0.378-1.27-0.624-1.782
		c0.643,0.222,1.205,0.598,1.666,1.075l0.655-0.659C9.784,3.367,8.472,2.75,7,2.75C4.101,2.75,1.75,5.101,1.75,8
		c0,0.153,0.009,0.304,0.022,0.453c0.012,0.135,0.031,0.268,0.053,0.398C1.826,8.856,1.826,8.86,1.827,8.865
		c0.294,1.774,1.482,3.23,3.082,3.929c0.1,0.051,0.24,0.113,0.417,0.177c0.006,0.002,0.012,0.004,0.018,0.006
		c0.626,0.223,1.704,0.438,3.141,0.124C12.882,12.294,13,8,13,8c0.004-0.051,0-0.095,0.002-0.143H13V6.512L15,8.5z M7.074,12.309
		C7.049,12.31,7.025,12.313,7,12.313c-0.127,0-0.254-0.008-0.378-0.019c-0.377-0.837-0.666-1.668-0.846-2.479
		c0.393,0.039,0.8,0.064,1.22,0.068c0.101,0.002,0.201,0.002,0.302,0.002c0.261,0,0.524-0.008,0.79-0.021
		C7.859,10.607,7.52,11.422,7.074,12.309z M6.451,3.727C6.631,3.703,6.813,3.688,7,3.688c0.124,0,0.245,0.008,0.366,0.019
		c0.351,0.608,0.708,1.384,0.915,2.33c-0.428,0.029-0.85,0.033-1.277,0.029C6.555,6.061,6.119,6.03,5.7,5.982
		C5.875,5.071,6.164,4.322,6.451,3.727z M5.584,6.793c0.452,0.051,0.923,0.085,1.412,0.09c0.101,0.002,0.201,0.002,0.302,0.002
		c0.366,0,0.737-0.012,1.116-0.04c0.028,0.254,0.049,0.513,0.053,0.784C8.471,8.063,8.415,8.531,8.31,9.031
		C7.871,9.063,7.441,9.068,7.004,9.065c-0.477-0.005-0.936-0.04-1.378-0.092C5.563,8.517,5.529,8.066,5.533,7.629
		C5.537,7.34,5.557,7.063,5.584,6.793z M5.438,3.984C5.221,4.526,5.021,5.15,4.889,5.865C4.37,5.774,3.896,5.66,3.462,5.538
		C3.947,4.841,4.635,4.297,5.438,3.984z M2.688,8c0-0.614,0.131-1.197,0.361-1.727c0.515,0.151,1.087,0.295,1.726,0.404
		C4.742,6.981,4.72,7.293,4.717,7.621c-0.005,0.4,0.025,0.812,0.073,1.227C3.983,8.701,3.286,8.5,2.703,8.303
		C2.695,8.202,2.688,8.102,2.688,8z M2.865,9.219c0.598,0.184,1.283,0.359,2.058,0.483c0.154,0.785,0.406,1.587,0.736,2.396
		C4.316,11.658,3.266,10.579,2.865,9.219z"/>
</g>
<g id="iconFg">
	<path class="st0" d="M4.889,5.865C4.37,5.774,3.896,5.66,3.462,5.538c0.485-0.697,1.173-1.241,1.976-1.554
		C5.221,4.526,5.021,5.15,4.889,5.865z M4.717,7.621c0.003-0.328,0.025-0.64,0.058-0.943C4.136,6.568,3.563,6.425,3.049,6.273
		C2.818,6.803,2.688,7.386,2.688,8c0,0.102,0.008,0.202,0.016,0.303C3.286,8.5,3.983,8.701,4.79,8.848
		C4.742,8.433,4.712,8.021,4.717,7.621z M8.281,6.036C8.074,5.09,7.717,4.314,7.366,3.706C7.245,3.696,7.124,3.688,7,3.688
		c-0.187,0-0.369,0.016-0.549,0.039C6.164,4.322,5.875,5.071,5.7,5.982C6.119,6.03,6.555,6.061,7.004,6.065
		C7.432,6.069,7.854,6.065,8.281,6.036z M7.004,9.065C7.441,9.068,7.871,9.063,8.31,9.031c0.105-0.5,0.161-0.969,0.157-1.402
		c-0.004-0.271-0.024-0.53-0.053-0.784c-0.379,0.028-0.75,0.04-1.116,0.04c-0.101,0-0.201,0-0.302-0.002
		c-0.489-0.005-0.96-0.039-1.412-0.09C5.557,7.063,5.537,7.34,5.533,7.629C5.529,8.066,5.563,8.517,5.626,8.974
		C6.068,9.025,6.527,9.061,7.004,9.065z M7.298,9.885c-0.101,0-0.201,0-0.302-0.002c-0.42-0.004-0.827-0.029-1.22-0.068
		c0.18,0.811,0.469,1.642,0.846,2.479C6.746,12.305,6.873,12.313,7,12.313c0.025,0,0.049-0.003,0.074-0.004
		c0.445-0.887,0.785-1.701,1.014-2.444C7.822,9.877,7.559,9.885,7.298,9.885z M2.865,9.219c0.4,1.36,1.451,2.439,2.794,2.879
		c-0.33-0.809-0.582-1.61-0.736-2.396C4.148,9.578,3.463,9.402,2.865,9.219z M10.176,4.904l-0.1,0.1
		C9.615,4.527,9.053,4.15,8.41,3.929c0.246,0.513,0.464,1.112,0.624,1.782C9.053,5.802,9.069,5.903,9.087,6L10.176,4.904
		L10.176,4.904z M10.346,9.568L9,10.914V9.811C8.984,9.812,8.957,9.815,8.957,9.815c-0.202,0.72-0.51,1.502-0.908,2.343
		c2.438-0.356,3.363-1.902,3.72-3.014C11.299,9.326,10.8,9.466,10.346,9.568z"/>
</g>
</svg>
