<svg xmlns="http://www.w3.org/2000/svg" width="32" height="96"><style type="text/css">.icon-canvas-transparent{opacity:0;fill:#F6F6F6;} .icon-f12-grey-primary{fill:#555555;} .icon-f12-blue-hover{fill:#2279BF;} .icon-f12-ltgrey-disabled{fill:#ABABAC;} .icon-f12-error-negative{fill:#ED1123;}</style><path class="icon-canvas-transparent" d="M32 96h-32v-96h32v96z" id="canvas"/><g id="iconBg"><path class="icon-f12-error-negative" d="M1.718 5.98c-.712-.701-.594-1.725 0-2.301.574-.561 1.756-.646 2.341 0l3.974 4.769 5.841-5.221h.844l-5.519 6.623 6.745 8.094h-.844l-7.248-6.479-5.021 6.025c-.585.646-1.767.56-2.341 0-.594-.575-.713-1.601 0-2.299l5.765-5.154-4.537-4.057z"/><path class="icon-f12-grey-primary" d="M31.821 20.322c-1.179.665-2.614 1.059-4.166 1.059-8.017 0-6.757-6.024-6.757-9.406-.846-.845-4.01-1.851-5.051-1.957-1.451-.149-2.673-.05-3.743.193l8.111 9.733h-5.878l-6.273-5.608-3.672 4.407c-.412 1.618-.392 2.813-.392 3.121 0 5.599 6.268 10.138 14 10.138s14-4.539 14-10.138c0-.525-.073-1.038-.179-1.542zm-22.849 3.659c-1.422 0-2.953-.471-2.953-1.504s1.531-1.504 2.953-1.504 2.952.471 2.952 1.504-1.53 1.504-2.952 1.504zm6.424 5.313c-1.581 0-3.177-.466-3.177-1.506 0-1.041 1.595-1.507 3.177-1.507 1.581 0 3.177.466 3.177 1.507-.001 1.04-1.596 1.506-3.177 1.506zm2.604-5.313c-1.438 0-2.604-.55-2.604-1.229s1.166-1.229 2.604-1.229c1.438 0 2.604.55 2.604 1.229s-1.166 1.229-2.604 1.229zm7.518 2.3c-1.514 0-2.613-.632-2.613-1.503 0-.87 1.099-1.502 2.613-1.502s2.613.632 2.613 1.502c.001.871-1.098 1.503-2.613 1.503z"/><path class="icon-f12-error-negative" d="M1.718 37.977c-.712-.701-.594-1.725 0-2.301.574-.561 1.756-.646 2.341 0l3.974 4.769 5.841-5.221h.844l-5.519 6.624 6.745 8.094h-.844l-7.248-6.479-5.021 6.025c-.585.647-1.767.561-2.341 0-.594-.575-.713-1.601 0-2.299l5.765-5.154-4.537-4.058z"/><path class="icon-f12-blue-hover" d="M31.821 52.32c-1.179.665-2.614 1.059-4.166 1.059-8.017 0-6.758-6.024-6.758-9.406-.846-.846-4.01-1.85-5.051-1.957-1.451-.149-2.673-.05-3.743.193l8.111 9.733h-5.878l-6.273-5.607-3.672 4.407c-.411 1.617-.391 2.812-.391 3.12 0 5.599 6.268 10.138 14 10.138s14-4.539 14-10.138c0-.526-.073-1.038-.179-1.542zm-22.849 3.659c-1.422 0-2.953-.471-2.953-1.504s1.531-1.504 2.953-1.504 2.952.471 2.952 1.504-1.53 1.504-2.952 1.504zm6.424 5.313c-1.581 0-3.177-.466-3.177-1.506 0-1.041 1.595-1.507 3.177-1.507 1.581 0 3.177.466 3.177 1.507-.001 1.04-1.596 1.506-3.177 1.506zm2.604-5.313c-1.438 0-2.604-.55-2.604-1.229s1.166-1.229 2.604-1.229c1.438 0 2.604.55 2.604 1.229 0 .678-1.166 1.229-2.604 1.229zm7.518 2.3c-1.514 0-2.613-.632-2.613-1.503 0-.87 1.099-1.502 2.613-1.502s2.613.632 2.613 1.502c.001.871-1.098 1.503-2.613 1.503z"/><path class="icon-f12-error-negative" d="M1.718 69.977c-.712-.701-.594-1.725 0-2.301.574-.561 1.756-.646 2.341 0l3.974 4.769 5.841-5.221h.844l-5.519 6.624 6.745 8.094h-.844l-7.248-6.479-5.021 6.025c-.585.646-1.767.561-2.341 0-.594-.575-.713-1.601 0-2.299l5.765-5.154-4.537-4.058z"/><path class="icon-f12-ltgrey-disabled" d="M31.821 84.32c-1.179.665-2.614 1.059-4.166 1.059-8.017 0-6.757-6.024-6.757-9.406-.846-.845-4.01-1.85-5.051-1.957-1.451-.149-2.673-.049-3.743.193l8.111 9.733h-5.878l-6.273-5.607-3.672 4.407c-.412 1.616-.392 2.812-.392 3.12 0 5.599 6.268 10.138 14 10.138s14-4.539 14-10.138c0-.526-.073-1.038-.179-1.542zm-22.849 3.659c-1.422 0-2.953-.471-2.953-1.504s1.531-1.504 2.953-1.504 2.952.471 2.952 1.504-1.53 1.504-2.952 1.504zm6.424 5.313c-1.581 0-3.177-.466-3.177-1.506 0-1.041 1.595-1.507 3.177-1.507 1.581 0 3.177.466 3.177 1.507-.001 1.04-1.596 1.506-3.177 1.506zm2.604-5.313c-1.438 0-2.604-.55-2.604-1.229s1.166-1.23 2.604-1.23c1.438 0 2.604.55 2.604 1.229s-1.166 1.23-2.604 1.23zm7.518 2.3c-1.514 0-2.613-.632-2.613-1.503 0-.87 1.099-1.502 2.613-1.502s2.613.632 2.613 1.502c.001.871-1.098 1.503-2.613 1.503z"/></g></svg>