<svg xmlns="http://www.w3.org/2000/svg" width="16" height="16"><style type="text/css">.icon-canvas-transparent{opacity:0;fill:#F6F6F6;} .icon-vs-out{fill:#F6F6F6;} .icon-vs-bg{fill:#424242;} .icon-vs-fg{fill:#F0EFF1;}</style><path class="icon-canvas-transparent" d="M16 16h-16v-16h16v16z" id="canvas"/><path class="icon-vs-out" d="M16 15h-16v-14h16v14z" id="outline"/><path class="icon-vs-bg" d="M1 2v12h14v-12h-14zm13 11h-12v-8h12v8zm-8.506-2l-2-1.992 2-2 .474.526-1.474 1.474 1.5 1.5-.5.492zm5.016 0l-.477-.516 1.477-1.477-1.5-1.5.5-.5 2 2-2 1.993z" id="iconBg"/><path class="icon-vs-fg" d="M2 5.004v8h12v-8h-12zm3.994 5.508l-.5.492-2-1.992 2-2 .5.5-1.5 1.5 1.5 1.5zm4.516.492l-.5-.492 1.5-1.5-1.5-1.5.5-.5 2 2-2 1.992z" id="iconFg"/></svg>