<svg xmlns="http://www.w3.org/2000/svg" width="16" height="16"><style type="text/css">.icon-canvas-transparent{opacity:0;fill:#F6F6F6;} .icon-vs-out{fill:#F6F6F6;} .icon-vs-bg{fill:#424242;}</style><path class="icon-canvas-transparent" d="M16 16h-16v-16h16v16z" id="canvas"/><path class="icon-vs-out" d="M16 0h-6l-2 2-2-2h-6v6l2 2-2 2v6h6l2-2 2 2h6v-6l-2-2 2-2v-6z" id="outline"/><path class="icon-vs-bg" d="M15 15h-4l-2-2h3l-4-4h2l3 3v-3l2 2v4zm-14 0h4l2-2h-3l4-4h-2l-3 3v-3l-2 2v4zm14-14h-4l-2 2h3l-4 4h2l3-3v3l2-2v-4zm-14 4l2 2v-3l3 3h2l-4-4h3l-2-2h-4v4z" id="iconBg"/></svg>