<svg xmlns="http://www.w3.org/2000/svg" width="16" height="16"><style type="text/css">.icon-canvas-transparent{opacity:0;fill:#F6F6F6;} .icon-vs-out{fill:#F6F6F6;} .icon-vs-bg{fill:#424242;} .icon-vs-fg{fill:#F0EFF1;}</style><path class="icon-canvas-transparent" d="M16 16h-16v-16h16v16z" id="canvas"/><path class="icon-vs-out" d="M16 4v9h-3v.414l-2.586 2.586h-2.828l-1.291-1.291c-.688.778-1.776 1.291-2.795 1.291-1.654 0-3-1.346-3-3 0-1.088.589-2.066 1.5-2.592v-.408h-1v-5h1v-1h3v-3h1.414l.586.586v-1.586h4v1.586l.586-.586h1.414v3h3z" id="outline"/><path class="icon-vs-bg" d="M10 12l2-2v2l-3 3-3-3v-2l2 2v-3h2v3zm2-8v-2l-2 2v-3h-2v3l-2-2v2l3 3 3-3zm1.414 1l-1 1h1.586v5h-1v1h2v-7h-1.586zm-10.414 3v-1h-1v-1h1v-1h1v6.07c.861.223 1.5.998 1.5 1.93 0 1.104-.896 2-2 2-1.105 0-2-.896-2-2 0-.932.639-1.707 1.5-1.93v-2.07h-1v-1h1zm.5 4c-.553 0-1 .447-1 1 0 .551.447 1 1 1 .552 0 1-.449 1-1 0-.553-.448-1-1-1z" id="iconBg"/><path class="icon-vs-fg" d="M14 6v5h-1v-1h-1.414l-.586.586v-1.586h-4v1.586l-.586-.586h-1.414v1h-1v-5h2.586l2 2h.828l2-2h2.586z" id="iconFg"/></svg>