<svg xmlns="http://www.w3.org/2000/svg" width="16" height="16"><style type="text/css">.icon-canvas-transparent{opacity:0;fill:#F6F6F6;} .icon-vs-out{fill:#F6F6F6;} .icon-vs-fg{fill:#F0EFF1;} .icon-vs-blue{fill:#1BA1E2;}</style><path class="icon-canvas-transparent" d="M16 16h-16v-16h16v16z" id="canvas"/><path class="icon-vs-out" d="M15.924 12.719l-2.165 3.281h-11.224l-2.215-3.32 4.68-7.952v-1.728h-1v-3h9v3h-1v1.767l3.924 7.952z" id="outline"/><path class="icon-vs-blue" d="M11 5v-3h1v-1h-7v1h1v3l-4.5 7.646 1.57 2.354h10.15l1.553-2.354-3.773-7.646zm-3.202 2l-2.778 4.99-1.952.01 3.932-7v-3h2v3l1.019 2h-2.221z" id="iconBg"/><g id="iconFg"><path class="icon-vs-fg" d="M7.798 7l-2.778 4.99-2.01.01 3.99-7v-3h2v3l1.019 2h-2.221z"/></g></svg>