<svg xmlns="http://www.w3.org/2000/svg" width="16" height="16"><style type="text/css">.icon-canvas-transparent{opacity:0;fill:#F6F6F6;} .icon-vs-out{fill:#F6F6F6;} .icon-vs-bg{fill:#424242;} .icon-vs-fg{fill:#F0EFF1;}</style><path class="icon-canvas-transparent" d="M16 16h-16v-16h16v16z" id="canvas"/><path class="icon-vs-out" d="M16 5v11h-16v-11h3v-5l3 2v-2h4v2l3-2v5h3z" id="outline"/><path class="icon-vs-bg" d="M9 10h-2v-2h2v2zm-4-2h-2v2h2v-2zm9-2h1v9h-14v-9h1v5h12v-5zm-7 6h-2v2h2v-2zm4 0h-2v2h2v-2zm2-4h-2v2h2v-2zm-9-6v2l4 3 4-3v-2l-3 2v-3h-2v3l-3-2z" id="iconBg"/><path class="icon-vs-fg" d="M9 12h2v2h-2v-2zm-4 2h2v-2h-2v2z" id="iconFg"/></svg>