<svg xmlns="http://www.w3.org/2000/svg" width="32" height="32"><style type="text/css">.icon-canvas-transparent{opacity:0;fill:#F6F6F6;} .icon-white{fill:#FFFFFF;}</style><path class="icon-canvas-transparent" d="M32 32h-32v-32h32v32z" id="canvas"/><path class="icon-white" d="M12 20h-3v-3h3v3zm10-9.512v-3.154l-4 3.154v-6.488h-4v6.488l-4-3.154v3.154l6 4.73 6-4.73zm-8 9.512h4v-3h-4v3zm6 0h3v-3h-3v3zm7-6v12.121c0 .887-.86 1.879-1.723 1.879h-18.774c-.862 0-1.503-.992-1.503-1.879v-12.121h2v7h18v-7h2zm-13 9h-3v3h3v-3zm7 0h-3v3h3v-3z" id="iconBg"/></svg>