<?xml version="1.0" encoding="utf-8"?>
<!-- Generator: Adobe Illustrator 19.1.0, SVG Export Plug-In . SVG Version: 6.00 Build 0)  -->
<svg version="1.1" xmlns="http://www.w3.org/2000/svg" xmlns:xlink="http://www.w3.org/1999/xlink" x="0px" y="0px" width="16px"
	 height="16px" viewBox="0 0 16 16" style="enable-background:new 0 0 16 16;" xml:space="preserve">
<style type="text/css">
	.icon_x002D_canvas_x002D_transparent{opacity:0;fill:#F6F6F6;}
	.icon_x002D_vs_x002D_green{fill:#339933;}
	.icon_x002D_white{fill:#FFFFFF;}
</style>
<g id="canvas">
	<path class="icon_x002D_canvas_x002D_transparent" d="M16,16H0V0h16V16z"/>
</g>
<g id="outline">
	<path class="icon_x002D_white" d="M2,8c0-3.314,2.687-6,6-6c3.314,0,6,2.686,6,6c0,3.314-2.686,6-6,6C4.687,14,2,11.314,2,8z"/>
</g>
<g id="iconBg">
	<path class="icon_x002D_vs_x002D_green" d="M8,3C5.238,3,3,5.238,3,8c0,2.762,2.238,5,5,5c2.762,0,5-2.238,5-5
		C13,5.238,10.762,3,8,3z M7,11V5l3.5,3L7,11z"/>
</g>
<g id="iconFg">
	<path class="icon_x002D_white" d="M7,5l3.5,3L7,11V5z"/>
	<g>
	</g>
	<g>
	</g>
	<g>
	</g>
	<g>
	</g>
	<g>
	</g>
	<g>
	</g>
</g>
</svg>
