<?xml version="1.0" encoding="utf-8"?>
<!-- Generator: Adobe Illustrator 18.1.1, SVG Export Plug-In . SVG Version: 6.00 Build 0)  -->
<!DOCTYPE svg PUBLIC "-//W3C//DTD SVG 1.1//EN" "http://www.w3.org/Graphics/SVG/1.1/DTD/svg11.dtd">
<svg version="1.1" xmlns="http://www.w3.org/2000/svg" xmlns:xlink="http://www.w3.org/1999/xlink" x="0px" y="0px" width="16px"
	 height="16px" viewBox="0 0 16 16" style="enable-background:new 0 0 16 16;" xml:space="preserve">
<style type="text/css">
	.icon-canvas-transparent{opacity:0;fill:#F6F6F6;}
	.icon-white{fill:#FFFFFF;}
	.icon-vso-bg{fill:#656565;}
</style>
<g id="canvas">
	<path class="icon-canvas-transparent" d="M16,16H0V0h16V16z"/>
</g>
<g id="outline">
	<path class="icon-white" d="M0,8c0-4.418,3.582-8,8-8c4.418,0,8,3.582,8,8c0,4.418-3.582,8-8,8C3.582,16,0,12.418,0,8z"/>
</g>
<g id="iconBg">
	<path class="icon-vso-bg" d="M8,1C4.135,1,1,4.134,1,8c0,3.865,3.135,7,7,7c3.865,0,7-3.135,7-7C15,4.134,11.865,1,8,1
		z M6,12V4l6,4L6,12z"/>
</g>
</svg>
