<svg xmlns="http://www.w3.org/2000/svg" width="72" height="23"><style type="text/css">.icon-canvas-transparent{opacity:0;fill:#F6F6F6;} .icon-vs-out{fill:#F6F6F6;} .icon-vs-bg{fill:#424242;} .icon-vs-fg{fill:#F0EFF1;}</style><path class="icon-canvas-transparent" d="M72 23h-72v-23h72v23z" id="canvas"/><path class="icon-vs-out" d="M25 1h8v15h-8v7h-25v-23h25v1zm44 15h-8v7h-25v-23h25v1h8v15zm-3-12h-5v.05c2.247.252 4 2.136 4 4.45s-1.753 4.198-4 4.45v.05h5v-9z" id="outline"/><path class="icon-vs-bg" d="M21 16h2v5h-21v-19h14v2h-12v8l4-3 6 5 2-2v3l-2 2-6-5-4 3v4h17v-3zm-9-7.997c0 1.104.894 1.997 2 1.997s2-.893 2-1.997-.894-2.003-2-2.003-2 .898-2 2.003zm5-6.003h15v13h-15v-13zm1 12h13v-11h-13v11zm6.5-9c-1.933 0-3.5 1.567-3.5 3.5s1.567 3.5 3.5 3.5 3.5-1.567 3.5-3.5-1.567-3.5-3.5-3.5zm23.5 3.003c0 1.104.895 1.997 2 1.997s2-.893 2-1.997-.895-2.003-2-2.003-2 .898-2 2.003zm9 10.997h-17v-4l4-3 6 5 2-2v-3l-2 2-6-5-4 3v-8h12v-2h-14v19h21v-5h-2v3zm2-14.725v-.275h-2v1.703c.519-.647 1.203-1.144 2-1.428zm0 8.45c-.797-.283-1.481-.781-2-1.428v.703l-2-1.333v2.333h4v-.275zm1.5-7.725c-1.933 0-3.5 1.567-3.5 3.5s1.567 3.5 3.5 3.5 3.5-1.567 3.5-3.5-1.567-3.5-3.5-3.5zm-6.5-3h-1v1h1v-1zm2 0h-1v1h1v-1zm2 0h-1v1h1v-1zm2 0h-1v1h1v-1zm2 0h-1v1h1v-1zm1 1h1v-1h-1v1zm2 0h1v-1h-1v1zm2-1v1h1v-1h-1zm-13 12h-1v1h1v-1zm2 0h-1v1h1v-1zm2 1v-1h-1v1h1zm1 0h1v-1h-1v1zm2 0h1v-1h-1v1zm2 0h1v-1h-1v1zm2 0h1v-1h-1v1zm2 0h1v-1h-1v1zm-13-11h-1v1h1v-1zm0 2h-1v1h1v-1zm0 2h-1v1h1v-1zm0 2h-1v1h1v-1zm0 2h-1v1h1v-1zm13-7h1v-1h-1v1zm0 2h1v-1h-1v1zm0 2h1v-1h-1v1zm0 2h1v-1h-1v1zm0 2h1v-1h-1v1z" id="iconBg"/><path class="icon-vs-fg" d="M52 16h5v3h-17v-4l4-3 6 5 2-2v1zm-2-2l2-2v-3.997c0 1.104-.895 1.997-2 1.997s-2-.893-2-1.997.895-2.003 2-2.003 2 .898 2 2.003v-4.003h-12v8l4-3 6 5zm7-10h-2v6.667l2 1.333v-.703c-.616-.77-1-1.734-1-2.797s.384-2.027 1-2.797v-1.703zm-39-1h13v11h-13v-11zm3 5.5c0 1.933 1.567 3.5 3.5 3.5s3.5-1.567 3.5-3.5-1.567-3.5-3.5-3.5-3.5 1.567-3.5 3.5zm-7 5.5l2-2v-3.997c0 1.104-.894 1.997-2 1.997s-2-.893-2-1.997.894-2.003 2-2.003 2 .898 2 2.003v-4.003h-12v8l4-3 6 5zm2 1l-2 2-6-5-4 3v4h17v-3h-5v-1z" id="iconFg"/></svg>