<?xml version="1.0" encoding="utf-8"?>
<!-- Generator: Adobe Illustrator 18.1.1, SVG Export Plug-In . SVG Version: 6.00 Build 0)  -->
<!DOCTYPE svg PUBLIC "-//W3C//DTD SVG 1.1//EN" "http://www.w3.org/Graphics/SVG/1.1/DTD/svg11.dtd">
<svg version="1.1" xmlns="http://www.w3.org/2000/svg" xmlns:xlink="http://www.w3.org/1999/xlink" x="0px" y="0px" width="16px"
	 height="16px" viewBox="0 0 16 16" style="enable-background:new 0 0 16 16;" xml:space="preserve">
<style type="text/css">
	.icon-canvas-transparent{opacity:0;fill:#F6F6F6;}
	.icon-vs-out{fill:#F6F6F6;}
	.icon-vs-bg{fill:#424242;}
	.icon-vs-fg{fill:#F0EFF1;}
</style>
<g id="canvas">
	<path class="icon-canvas-transparent" d="M16,16H0V0h16V16z"/>
</g>
<g id="outline">
	<path class="icon-vs-out" d="M3,12c-1.682,0-3-1.757-3-4c0-2.243,1.318-4,3-4h10c1.683,0,3,1.757,3,4
		c0,2.243-1.317,4-3,4H3z"/>
</g>
<g id="iconBg">
	<path class="icon-vs-bg" d="M1,8.031c0,1.657,0.896,3,2,3h1h9c1.104,0,2-1.343,2-3c0-1.657-0.896-3-2-3H4H3
		C1.896,5.031,1,6.374,1,8.031z M4.5,8.031c0,1.502-0.792,2.625-1.5,2.625S1.5,9.533,1.5,8.031c0-1.502,0.792-2.625,1.5-2.625
		S4.5,6.529,4.5,8.031z"/>
</g>
<g id="iconFg">
	<path class="icon-vs-fg" d="M4.5,8.031c0,1.502-0.792,2.625-1.5,2.625S1.5,9.533,1.5,8.031
		c0-1.502,0.792-2.625,1.5-2.625S4.5,6.529,4.5,8.031z"/>
</g>
</svg>
