<svg xmlns="http://www.w3.org/2000/svg" width="16" height="16"><style type="text/css">.icon-canvas-transparent{opacity:0;fill:#F6F6F6;} .icon-vs-out{fill:#F6F6F6;} .icon-vs-bg{fill:#424242;} .icon-vs-fg{fill:#F0EFF1;} .icon-disabled-grey{fill:#848484;} .graph-yellow{fill:#FCB714;}</style><path class="icon-canvas-transparent" d="M16 16h-16v-16h16v16z" id="canvas"/><path class="icon-vs-out" d="M16 15h-15v-14h15v14z" id="outline"/><g id="iconBg"><path class="icon-vs-bg" d="M2 2v12h13v-12h-13zm4 11h-3v-2h3v2zm0-3h-3v-2h3v2zm0-3h-3v-2h3v2zm4 6h-3v-2h3v2zm0-3h-3v-2h3v2zm0-3h-3v-2h3v2zm4 6h-3v-2h3v2zm0-3h-3v-2h3v2zm0-3h-3v-2h3v2z"/><rect x="2" y="5" class="icon-disabled-grey" width="13" height="9"/></g><g id="iconFg"><rect x="11" y="5" class="icon-vs-fg" width="3" height="2"/><rect x="11" y="8" class="graph-yellow" width="3" height="2"/><rect x="7" y="5" class="icon-vs-fg" width="3" height="2"/><rect x="7" y="8" class="graph-yellow" width="3" height="2"/><rect x="3" y="5" class="icon-vs-fg" width="3" height="2"/><rect x="3" y="8" class="icon-vs-fg" width="3" height="2"/><rect x="11" y="11" class="graph-yellow" width="3" height="2"/><rect x="7" y="11" class="graph-yellow" width="3" height="2"/><rect x="3" y="11" class="graph-yellow" width="3" height="2"/></g></svg>