<?xml version="1.0" encoding="utf-8"?>
<!-- Generator: Adobe Illustrator 18.0.0, SVG Export Plug-In . SVG Version: 6.00 Build 0)  -->
<!DOCTYPE svg PUBLIC "-//W3C//DTD SVG 1.1//EN" "http://www.w3.org/Graphics/SVG/1.1/DTD/svg11.dtd">
<svg version="1.1" xmlns="http://www.w3.org/2000/svg" xmlns:xlink="http://www.w3.org/1999/xlink" x="0px" y="0px" width="20px"
	 height="20px" viewBox="0 0 20 20" style="enable-background:new 0 0 20 20;" xml:space="preserve">
<style type="text/css">
	.icon-canvas-transparent{opacity:0;fill:#F6F6F6;}
	.icon-white{fill:#FFFFFF;}
	.icon-vso-bg{fill:#656565;}
</style>
<g id="canvas">
	<path class="icon-canvas-transparent" d="M20,20H0V0h20V20z"/>
</g>
<g id="outline">
	<path class="icon-white" d="M15.2,0h-0.686L7.461,6.466L3.922,3.517L0,5.478v9.045l3.922,1.96l3.539-2.948L14.513,20h0.69
		L20,18.402V1.6L15.2,0z"/>
</g>
<g id="iconBg">
	<path class="icon-vso-bg" d="M15,1.251L7.5,8.126L3.75,5.001l-2.5,1.25v7.5l2.5,1.25l3.75-3.125l7.5,6.875l3.75-1.25
		v-15L15,1.251z M3.75,12.501v-5l2.5,2.5L3.75,12.501z M10,10.001l5-3.75v7.5L10,10.001z"/>
</g>
</svg>
