<svg xmlns="http://www.w3.org/2000/svg" width="16" height="16"><style type="text/css">.icon-vs-out{fill:#F6F6F6;} .icon-vs-bg{fill:#424242;} .icon-vs-fg{fill:#F0EFF1;} .icon-vs-red{fill:#E51400;} .icon-white{fill:#FFFFFF;} .icon-canvas-transparent{opacity:0;fill:#F6F6F6;}</style><path class="icon-canvas-transparent" d="M16 16h-16v-16h16v16z" id="canvas"/><path class="icon-vs-out" d="M13 5v2.275c1.744.62 3 2.268 3 4.225 0 2.485-2.015 4.5-4.5 4.5-1.063 0-2.026-.384-2.797-1h-2.383c-.625.611-1.63 1-2.82 1-1.995 0-3.5-1.074-3.5-2.5v-3c0-1.033.802-1.869 2-2.254v-4.246c0-2.205 1.794-4 4-4h7c1.654 0 3 1.346 3 3v2h-3z" id="outline"/><path class="icon-vs-bg" d="M3.5 9c-1.381 0-2.5.672-2.5 1.5v3c0 .828 1.119 1.5 2.5 1.5s2.5-.672 2.5-1.5v-3c0-.828-1.119-1.5-2.5-1.5zm0 2.5c-1.145 0-2-.527-2-1s.855-1 2-1 2 .527 2 1-.855 1-2 1zm11.5-8.5v1h-3v3.05c-.166-.018-.329-.05-.5-.05l-.5.05v-4.05h-5c-.553 0-1 .447-1 1v4.232c-.451-.146-.954-.232-1.5-.232-.173 0-.336.02-.5.035v-4.035c0-1.656 1.343-3 3-3h7c1.104 0 2 .895 2 2zm-8 8.5c0 .926.281 1.785.76 2.5h-.826c.042-.16.066-.326.066-.5v-2z" id="iconBg"/><path class="icon-vs-fg" d="M5.5 10.5c0 .473-.855 1-2 1s-2-.527-2-1 .855-1 2-1 2 .527 2 1zm.5-7.5c-.553 0-1 .447-1 1v4.232c1.2.389 2 1.233 2 2.268v.5h.05c.234-2.081 1.869-3.716 3.95-3.95v-4.05h-5z" id="iconFg"/><path class="icon-vs-red" d="M11.5 8c-1.933 0-3.5 1.567-3.5 3.5s1.567 3.5 3.5 3.5 3.5-1.567 3.5-3.5-1.567-3.5-3.5-3.5zm-2.5 4v-1h5v1h-5z" id="notificationBg"/><path class="icon-white" d="M14 12h-5v-1h5v1z" id="notificationFg"/></svg>