<svg xmlns="http://www.w3.org/2000/svg" width="16" height="16"><style type="text/css">.icon-canvas-transparent{opacity:0;fill:#F6F6F6;} .icon-vs-out{fill:#F6F6F6;} .icon-vs-bg{fill:#424242;} .icon-vs-fg{fill:#F0EFF1;} .icon-vs-action-blue{fill:#00539C;}</style><path class="icon-canvas-transparent" d="M16 16h-16v-16h16v16z" id="canvas"/><path class="icon-vs-out" d="M0 4.414v-.828l3.587-3.586h4.828l-2 2h2.585v2.233c1-.15 1.281-.233 2-.233 2.846 0 4.994 1.287 5 2.994v6.012c-.006 1.708-2.154 2.994-5 2.994-2.851 0-5-1.289-5-3v-5h-2.413l-3.587-3.586z" id="outline"/><path class="icon-vs-bg" d="M15 7v6c0 1.104-1.791 2-4 2s-4-.896-4-2v-5h1.415l-1.345-1.345c.082-.237.252-.455.485-.655h1.397c-.8.28-1.277.687-1.277 1 0 .527 1.326 1.325 3.325 1.325s3.325-.798 3.325-1.325-1.326-1.325-3.325-1.325c-.785 0-1.462.125-2 .307v-.705c.591-.172 1.268-.277 2-.277 2.209 0 4 .896 4 2z" id="iconBg"/><path class="icon-vs-fg" d="M14.325 7c0 .527-1.326 1.325-3.325 1.325s-3.325-.798-3.325-1.325 1.326-1.325 3.325-1.325 3.325.798 3.325 1.325z" id="iconFg"/><path class="icon-vs-action-blue" d="M4.001 5l2 2h-2l-3.001-3 3.001-3h2l-2 2h3.999v2h-3.999z" id="colorAction"/></svg>