<svg xmlns="http://www.w3.org/2000/svg" width="24" height="24"><style type="text/css">.icon-canvas-transparent{opacity:0;fill:#F6F6F6;} .icon-white{fill:#FFFFFF;} .icon-vso-bg{fill:#656565;}</style><path class="icon-canvas-transparent" d="M24 24h-24v-24h24v24z" id="canvas"/><path class="icon-white" d="M10.6 17l-5-5 5-5h5.8l-3 3h5.6v4h-5.6l3 3h-5.8zm13.3-5c0-6.6-5.4-11.9-11.9-11.9-6.6 0-11.9 5.3-11.9 11.9 0 6.6 5.4 11.9 11.9 11.9 6.6 0 11.9-5.3 11.9-11.9zm-3.5 0c0 4.7-3.8 8.4-8.4 8.4s-8.4-3.7-8.4-8.4 3.7-8.4 8.4-8.4 8.4 3.7 8.4 8.4z" id="outline"/><path class="icon-vso-bg" d="M12 1.1c-6 0-10.9 4.9-10.9 10.9s4.9 10.9 10.9 10.9 10.9-4.9 10.9-10.9-4.9-10.9-10.9-10.9zm0 20.3c-5.2 0-9.4-4.2-9.4-9.4s4.2-9.4 9.4-9.4 9.4 4.2 9.4 9.4-4.2 9.4-9.4 9.4zm-5-9.4l4-4h3l-3 3h7v2h-7l3 3h-3l-4-4z" id="iconBg"/></svg>