<svg xmlns="http://www.w3.org/2000/svg" width="16" height="16"><style type="text/css">.icon-canvas-transparent{opacity:0;fill:#F6F6F6;} .icon-vs-out{fill:#F6F6F6;} .icon-vs-fg{fill:#F0EFF1;} .icon-folder{fill:#DCB67A;} .icon-vs-action-orange{fill:#C27D1A;}</style><path class="icon-canvas-transparent" d="M16 16h-16v-16h16v16z" id="canvas"/><path class="icon-vs-out" d="M16 5.5v9c0 .827-.673 1.5-1.5 1.5h-11c-.827 0-1.5-.673-1.5-1.5v-6.137l-1.743-1.742.621-.621h-.878v-3h.878l-.621-.621 2.122-2.122.621.621v-.878h3v.878l.621-.622 2.121 2.122-.621.622h.879v1h5.5c.827 0 1.5.673 1.5 1.5z" id="outline"/><path class="icon-folder" d="M15 5.5v9c0 .276-.225.5-.5.5h-11c-.277 0-.5-.224-.5-.5v-5.5h3v-.879l.621.621 2.023-2.023-.14.281h5.496v-1h-4.996l-.295.588-.588-.588h.879v-1h5.5c.275 0 .5.224.5.5z" id="iconBg"/><path class="icon-vs-fg" d="M14.008 6v.999l-.008.001h-5.496l.5-1h5.004z" id="iconFg"/><path class="icon-vs-action-orange" d="M8 4h-2.293l1.621-1.621-.707-.708-1.621 1.621v-2.292h-1v2.292l-1.621-1.621-.708.708 1.622 1.621h-2.293v1h2.293l-1.622 1.621.708.707 1.621-1.621v2.293h1v-2.293l1.621 1.621.707-.707-1.621-1.621h2.293v-1zm-3 1h-1v-1h1v1z" id="colorAction"/></svg>