<svg xmlns="http://www.w3.org/2000/svg" width="16" height="16"><style type="text/css">.icon-canvas-transparent{opacity:0;fill:#F6F6F6;} .icon-vs-out{fill:#F6F6F6;} .icon-vs-bg{fill:#424242;} .icon-vs-fg{fill:#F0EFF1;}</style><path class="icon-canvas-transparent" d="M16 16h-16v-16h16v16z" id="canvas"/><path class="icon-vs-out" d="M13 6.5v2.5h-3v4h-7v-6h3v-.5c0-1.93 1.57-3.5 3.5-3.5s3.5 1.57 3.5 3.5z" id="outline"/><path class="icon-vs-bg" d="M12 6.5v1.5h-1v-1.5c0-.829-.672-1.5-1.5-1.5-.829 0-1.5.671-1.5 1.5v.5h-1v-.5c0-1.381 1.119-2.5 2.5-2.5s2.5 1.119 2.5 2.5zm-8 1.5h5v4h-5v-4zm2 3h1v-2h-1v2z" id="iconBg"/><path class="icon-vs-fg" d="M7 11h-1v-2h1v2z" id="iconFg"/></svg>