<svg xmlns="http://www.w3.org/2000/svg" width="16" height="16"><style type="text/css">.icon-canvas-transparent{opacity:0;fill:#F6F6F6;} .icon-vs-out{fill:#F6F6F6;} .icon-vs-bg{fill:#424242;} .icon-vs-fg{fill:#F0EFF1;}</style><path class="icon-canvas-transparent" d="M16 16h-16v-16h16v16z" id="canvas"/><path class="icon-vs-out" d="M2.01 16c-.023.021 0-13 0-13h1.99v-1h1.01c.413-1.164 1.706-2 3.01-2 1.305 0 2.578.836 2.99 2h1v1h1.99v13h-11.99z" id="outline"/><path class="icon-vs-bg" d="M11 4v-1h-.99c0-1.104-.895-2-2-2-1.104 0-2 .896-2 2h-1l-.001 1h-1.999v11h9.99v-11h-2zm-2.99-2c.553 0 1 .447 1 1s-.438 1-.99 1-1.01-.447-1.01-1 .448-1 1-1zm3.99 12h-8v-9h8v9z" id="iconBg"/><path class="icon-vs-fg" d="M6.922 3c0-.553.536-1.047 1.087-1.047.553 0 1.053.494 1.053 1.047s-.5 1-1.053 1c-.551 0-1.087-.447-1.087-1zm-2.922 2v9h8v-9h-8z" id="iconFg"/></svg>