<?xml version="1.0" encoding="utf-8"?><!DOCTYPE svg PUBLIC "-//W3C//DTD SVG 1.1//EN" "http://www.w3.org/Graphics/SVG/1.1/DTD/svg11.dtd"><svg version="1.1" xmlns="http://www.w3.org/2000/svg" xmlns:xlink="http://www.w3.org/1999/xlink" x="0px" y="0px" width="16px" height="16px" viewBox="0 0 16 16" style="enable-background:new 0 0 16 16;" xml:space="preserve"><style type="text/css">.icon-canvas-transparent{opacity:0;fill:#F6F6F6;}.icon-vs-out{fill:#F6F6F6;}.icon-vs-bg{fill:#424242;}.icon-vs-fg{fill:#F0EFF1;}.icon-folder{fill:#DCB67A;}</style><g id="canvas"><path  class="icon-canvas-transparent" d="M16,16H0V0h16V16z"/></g><g id="outline"><path  class="icon-vs-out" d="M16,11v3h-1v2H2v-2H0V0h3v3h3.376l1-2H15v10H16z"/></g><g id="iconBg">	<path  class="icon-vs-bg" d="M2,12h13v1H1V1h1V12z M3,14h1v1H3V14z M5,14h1v1H5V14z M7,14h1v1H7V14z M9,14h1v1H9V14z M11,14h1v1h-1V14z M13,14h1v1h-1V14z"/></g><g id="colorAction"><path  class="icon-vs-fg" d="M12.994,3v1h-4.5l0.5-1H12.994z"/></g><g id="colorImportance"><path  class="icon-folder" d="M7.994,2l-1,2H4c0,0-1.005,0-1.005,1s0,5,0,5S2.999,11,4,11s8,0,9,0 s0.994-1,0.994-1V2H7.994z M12.994,3v1h-4.5l0.5-1H12.994z"/></g></svg>
