<?xml version="1.0" encoding="utf-8"?>
<!-- Generator: Adobe Illustrator 18.1.1, SVG Export Plug-In . SVG Version: 6.00 Build 0)  -->
<!DOCTYPE svg PUBLIC "-//W3C//DTD SVG 1.1//EN" "http://www.w3.org/Graphics/SVG/1.1/DTD/svg11.dtd">
<svg version="1.1" xmlns="http://www.w3.org/2000/svg" xmlns:xlink="http://www.w3.org/1999/xlink" x="0px" y="0px" width="64px"
	 height="64px" viewBox="0 0 64 64" style="enable-background:new 0 0 64 64;" xml:space="preserve">
<style type="text/css">
	.icon-canvas-transparent{opacity:0;fill:#F6F6F6;}
	.icon-white{fill:#FFFFFF;}
</style>
<g id="canvas">
	<path class="icon-canvas-transparent" d="M64,64H0V0h64V64z"/>
</g>
<g id="iconBg">
	<path class="icon-white" d="M40.445,34.006c0,4.756-3.855,8.611-8.612,8.611c-4.756,0-8.61-3.855-8.61-8.611
		c0-4.756,3.854-8.611,8.61-8.611C36.59,25.395,40.445,29.25,40.445,34.006z M58,23.481v25.213L53.84,53H9.828L6,48.694V23.481
		l4.036-4.446h7.654L25.136,12H38.53l7.449,7h7.654L58,23.481z M44.272,34.006c0-6.869-5.569-12.438-12.439-12.438
		c-6.869,0-12.438,5.568-12.438,12.438c0,6.87,5.568,12.438,12.438,12.438C38.703,46.444,44.272,40.876,44.272,34.006z M54,23h-6v6
		l6.031,0.031L54,23z"/>
</g>
</svg>
