<svg xmlns="http://www.w3.org/2000/svg" width="64" height="192"><style type="text/css">.icon-canvas-transparent{opacity:0;fill:#F6F6F6;} .icon-f12-grey-primary{fill:#555555;} .icon-f12-blue-hover{fill:#2279BF;} .icon-f12-ltgrey-disabled{fill:#ABABAC;}</style><path class="icon-canvas-transparent" d="M64 192h-64v-192h64v192z" id="canvas"/><g id="iconBg"><path class="icon-f12-grey-primary" d="M40.445 37.006c0 4.756-3.855 8.612-8.612 8.612-4.756 0-8.61-3.855-8.61-8.612 0-4.756 3.854-8.611 8.61-8.611 4.757 0 8.612 3.855 8.612 8.611zm17.555-10.525v25.213l-4.16 4.306h-44.012l-3.828-4.306v-25.213l4.036-4.446h7.654l7.446-7.035h13.394l7.449 7h7.654l4.367 4.481zm-13.728 10.525c0-6.869-5.569-12.438-12.439-12.438-6.869 0-12.438 5.569-12.438 12.438 0 6.87 5.568 12.438 12.438 12.438 6.87 0 12.439-5.568 12.439-12.438zm9.728-11.006h-6v6l6.031.031-.031-6.031z"/><path class="icon-f12-blue-hover" d="M40.445 101.006c0 4.756-3.855 8.611-8.612 8.611-4.756 0-8.61-3.855-8.61-8.611s3.854-8.611 8.61-8.611c4.757 0 8.612 3.855 8.612 8.611zm17.555-10.525v25.213l-4.16 4.306h-44.012l-3.828-4.306v-25.213l4.036-4.446h7.654l7.446-7.035h13.394l7.449 7h7.654l4.367 4.481zm-13.728 10.525c0-6.869-5.569-12.437-12.439-12.437-6.869 0-12.438 5.568-12.438 12.437 0 6.87 5.568 12.438 12.438 12.438 6.87 0 12.439-5.568 12.439-12.438zm9.728-11.006h-6v6l6.031.031-.031-6.031z"/><path class="icon-f12-ltgrey-disabled" d="M40.445 165.006c0 4.756-3.855 8.611-8.612 8.611-4.756 0-8.61-3.855-8.61-8.611s3.854-8.611 8.61-8.611c4.757 0 8.612 3.855 8.612 8.611zm17.555-10.525v25.213l-4.16 4.306h-44.012l-3.828-4.306v-25.213l4.036-4.446h7.654l7.446-7.035h13.394l7.449 7h7.654l4.367 4.481zm-13.728 10.525c0-6.869-5.569-12.438-12.439-12.438-6.869 0-12.438 5.568-12.438 12.438 0 6.87 5.568 12.438 12.438 12.438 6.87 0 12.439-5.568 12.439-12.438zm9.728-11.006h-6v6l6.031.031-.031-6.031z"/></g></svg>