<svg xmlns="http://www.w3.org/2000/svg" width="20" height="20"><style type="text/css">.icon-canvas-transparent{opacity:0;fill:#F6F6F6;} .icon-vs-bg{fill:#424242;} .icon-vs-fg{fill:#F0EFF1;}</style><path class="icon-canvas-transparent" d="M20 20h-20v-20h20v20z" id="canvas"/><path class="icon-vs-bg" d="M0 0v5.05c.162-.032.329-.05.5-.05 1.381 0 2.5 1.119 2.5 2.5s-1.119 2.5-2.5 2.5c-.171 0-.338-.018-.5-.05v2.092l.602.717 1.398-1.759h1v5h-3v4h20v-4h-3v-5h1l1.398 1.759.602-.717v-2.092c-.162.032-.329.05-.5.05-1.381 0-2.5-1.119-2.5-2.5s1.119-2.5 2.5-2.5c.171 0 .338.018.5.05v-5.05h-20zm9.998 3c1.654 0 2.998 1.343 2.998 3s-1.344 3-2.998 3c-1.655 0-2.998-1.343-2.998-3s1.343-3 2.998-3zm5.002 14h-10v-7h3l2 3 2-3h3v7z" id="iconBg"/><g id="iconFg"><path class="icon-vs-fg" d="M19.398 12.759l.602-.717v3.958h-3v-5h1l1.398 1.759zm-9.398.241l-2-3h-3v7h10v-7h-3l-2 3zm-7-2h-1l-1.398 1.759-.602-.717v3.958h3v-5zm6.998-2c1.654 0 2.998-1.343 2.998-3s-1.344-3-2.998-3c-1.655 0-2.998 1.343-2.998 3s1.343 3 2.998 3zm-6.998-1.5c0-1.381-1.119-2.5-2.5-2.5-.171 0-.338.018-.5.05v4.9c.162.032.329.05.5.05 1.381 0 2.5-1.119 2.5-2.5zm14 0c0 1.381 1.119 2.5 2.5 2.5.171 0 .338-.018.5-.05v-4.9c-.162-.032-.329-.05-.5-.05-1.381 0-2.5 1.119-2.5 2.5z"/></g></svg>