<?xml version="1.0" encoding="utf-8"?>
<!-- Generator: Adobe Illustrator 19.1.0, SVG Export Plug-In . SVG Version: 6.00 Build 0)  -->
<svg version="1.1" xmlns="http://www.w3.org/2000/svg" xmlns:xlink="http://www.w3.org/1999/xlink" x="0px" y="0px" width="16px"
	 height="16px" viewBox="0 0 16 16" style="enable-background:new 0 0 16 16;" xml:space="preserve">
<style type="text/css">
	.icon-canvas-transparent{opacity:0;fill:#F6F6F6;}
	.icon-vs-out{fill:#F6F6F6;}
	.icon-vs-bg{fill:#424242;}
	.icon-vs-fg{fill:#F0EFF1;}
</style>
<g id="canvas">
	<path class="icon-canvas-transparent" d="M16,16H0V0h16V16z"/>
</g>
<g id="outline">
	<path class="icon-vs-out" d="M16,0H1v4H0v12h14v-3h2V0z"/>
</g>
<g id="iconBg">
	<path class="icon-vs-bg" d="M1,5v10h12V5H1z M12,14H2V8h10V14z M15,1v11h-1V4H2V1H15z M11,10.998
		C11,12.501,10.117,13,9.012,13h-2.14c0,0-0.087-0.281-0.522-1.012c-0.281-0.639,0.172-1.115,0.455-0.926
		C7.212,11.333,7.624,12,7.624,12h1.633c0.762,0,0.762-0.626,0.762-1.001c0-1.001-0.614-0.999-0.982-0.999L8.509,9h0.652
		C10.266,9,11,9.497,11,10.998z M3.148,11.002C3.148,9.499,4.031,9,5.136,9h2.14c0,0,0.087,0.28,0.522,1.011
		c0.281,0.639-0.172,1.115-0.455,0.927C6.936,10.666,6.524,10,6.524,10H4.892C4.13,10,4.13,10.624,4.13,11c0,1.001,0.614,1,0.982,1
		l0.503,1H4.987C3.882,13,3.148,12.503,3.148,11.002z"/>
</g>
<g id="iconFg">
	<path class="icon-vs-fg" d="M2,8v6h10V8H2z M4.987,13c-1.105,0-1.839-0.497-1.839-1.998C3.148,9.499,4.031,9,5.136,9
		h2.14c0,0,0.087,0.28,0.522,1.011c0.281,0.639-0.172,1.115-0.455,0.927C6.936,10.666,6.524,10,6.524,10H4.892
		C4.13,10,4.13,10.624,4.13,11c0,1.001,0.614,1,0.982,1l0.503,1H4.987z M9.012,13h-2.14c0,0-0.087-0.281-0.522-1.012
		c-0.281-0.639,0.172-1.115,0.455-0.926C7.212,11.333,7.624,12,7.624,12h1.633c0.762,0,0.762-0.626,0.762-1.001
		c0-1.001-0.614-0.999-0.982-0.999L8.509,9h0.652C10.266,9,11,9.497,11,10.998C11,12.501,10.117,13,9.012,13z"/>
	<g>
	</g>
	<g>
	</g>
	<g>
	</g>
	<g>
	</g>
	<g>
	</g>
	<g>
	</g>
</g>
</svg>
