<svg xmlns="http://www.w3.org/2000/svg" width="32" height="96"><style type="text/css">.icon-canvas-transparent{opacity:0;fill:#F6F6F6;} .icon-f12-grey-primary{fill:#555555;} .icon-f12-blue-hover{fill:#2279BF;} .icon-f12-ltgrey-disabled{fill:#ABABAC;}</style><path class="icon-canvas-transparent" d="M32 96h-32v-96h32v96z" id="canvas"/><g id="iconBg"><path class="icon-f12-grey-primary" d="M26 15v13h-22v-22h16v2h-14v18h18v-11h2zm-9 8l11-20h-3l-9.417 14.333-1.416-2.833h-4.25l4.25 8.5h2.833z"/><path class="icon-f12-blue-hover" d="M26 47v13h-22v-22h16v2h-14v18h18v-11h2zm-9 8l11-20h-3l-9.417 14.334-1.416-2.834h-4.25l4.25 8.5h2.833z"/><path class="icon-f12-ltgrey-disabled" d="M26 79v13h-22v-22h16v2h-14v18h18v-11h2zm-9 8l11-20h-3l-9.417 14.334-1.416-2.834h-4.25l4.25 8.5h2.833z"/></g></svg>