<svg xmlns="http://www.w3.org/2000/svg" width="16" height="16"><style type="text/css">.icon-canvas-transparent{opacity:0;fill:#F6F6F6;} .icon-vs-out{fill:#F6F6F6;} .icon-vs-blue{fill:#1BA1E2;} .icon-vs-red{fill:#E51400;}</style><path class="icon-canvas-transparent" d="M16 16h-16v-16h16v16z" id="canvas"/><path class="icon-vs-out" d="M16 9.5v.9l-.4.4c-.2.6-.6 1.1-1 1.4l1.3 1.4v.8l-1.5 1.6h-.8l-1.6-1.6-1.6 1.6h-.8l-2-2 1-1h-2.3c-1.5 0-2.7-1.3-3.2-2.7l-.1-.3c-1.7-.2-3-1.6-3-3.4 0-1.9 1.3-3.4 3-3.6.6-1.2 1.9-2 3.2-2 1.1 0 2.2.6 2.9 1.5l.2.3c1.5 0 2.8.8 3.5 2 1.9.4 3.2 2.2 3.2 4.3v.4z" id="outline"/><g id="iconBg"><path class="icon-vs-blue" d="M6.2 6.6c-.4.1-.7.2-1 .4h2.8c.4-.4.9-.6 1.5-.6 1.1 0 2 .9 2 2 0 .2 0 .4-.1.6l.6.6 2-2 .9.9c-.2-1.6-1.4-2.7-2.7-2.7-.5-1.2-1.6-2-2.9-2-1.6 0-2.9 1.3-3.1 2.8z"/><path class="icon-vs-blue" d="M10.2 7.8z"/><path class="icon-vs-blue" d="M10 7.6l-.5-.1c-.4 0-.7.2-.8.5h-5.7s-.4-.1-.6-.3c-.3-.3-.5-.8-.5-1.3 0-1 .8-1.7 1.8-1.7.3 0 .5.1.7.2v-.1c0-1 .8-1.8 1.8-1.8.5 0 1 .2 1.3.6.3-.2.5-.4.8-.5-.5-.6-1.2-1.1-2.1-1.1-1.2 0-2.2.9-2.6 2h-.2c-1.3 0-2.4 1.1-2.4 2.6 0 1.4 1.2 2.4 2.5 2.4h5.1l1.4-1.4z"/><path class="icon-vs-blue" d="M9.6 12l-2-2h-3.5c.4 1 1.2 2 2.2 2h3.3z"/></g><path class="icon-vs-red" d="M13 12l2 2-1 1-2-2-2 2-1-1 2-2-2-2 1-1 2 2 2-2 1 1-2 2z" id="notificationBg"/></svg>