<svg xmlns="http://www.w3.org/2000/svg" width="16" height="16"><style type="text/css">.icon-canvas-transparent{opacity:0;fill:#F6F6F6;} .icon-white{fill:#FFFFFF;} .icon-vs-action-green{fill:#388A34;} .icon-vso-bg{fill:#656565;}</style><path class="icon-canvas-transparent" d="M16 16h-16v-16h16v16z" id="canvas"/><path class="icon-white" d="M15 9.998c0 2.394-1.486 4.002-3.699 4.002l-6.807-.002c-1.689 0-3.494-1.05-3.494-3.996 0-1.184.365-2.173 1-2.873v-1.129h-2v-4h2v-2h4v2h2v4h3.504c1.69 0 3.496 1.05 3.496 3.998z" id="outline"/><path class="icon-vso-bg" d="M4.316 11.001l1.377 1.999h-1.199c-1.498 0-2.494-.999-2.494-2.997 0-.853.227-1.514.592-2.003h3.408v-1h1.893s.925.604 1.941 1.443c.605.516 1.022.824.522 1.324-.5.501-.897.193-1.486-.195-.552-.361-1.291-.572-1.291-.572h-3.214c-.498 0-.666.502-.666 1.002s.119.999.617.999zm7.188-4.001h-1.504l1.682 1.998c.5 0 .619.5.619 1s-.168 1.063-.668 1.063l-3.225-.02s-.742-.252-1.295-.613c-.592-.389-.99-.696-1.49-.195-.5.5-.082.809.521 1.324 1.022.839 1.95 1.443 1.95 1.443h3.207c1.5 0 2.699-1 2.699-3.002 0-2-.996-2.998-2.496-2.998z" id="iconBg"/><path class="icon-vs-action-green" d="M7 3.018h-2v-2.018h-1.981v2.018h-2.019v1.982h2.019v2h1.981v-2h2v-1.982z" id="colorAction"/></svg>