<svg xmlns="http://www.w3.org/2000/svg" width="16" height="16"><style type="text/css">.icon-canvas-transparent{opacity:0;fill:#F6F6F6;} .icon-vs-out{fill:#F6F6F6;} .icon-vs-bg{fill:#424242;} .icon-vs-fg{fill:#F0EFF1;} .icon-vs-action-blue{fill:#00539C;}</style><path class="icon-canvas-transparent" d="M16 16h-16v-16h16v16z" id="canvas"/><path class="icon-vs-out" d="M16 14h-9.679c-.625.611-1.631 1-2.821 1-1.191 0-2.198-.389-2.824-1h-.676v-13h5v-1h6v1h5v13z" id="outline"/><path class="icon-vs-bg" d="M1 7.717c.626-.447 1.501-.717 2.5-.717.546 0 1.049.086 1.5.232v-5.232h-4v5.717zm1-4.717h2v2h-2v-2zm9-1v11h4v-11h-4zm3 10h-2v-1h2v1zm0-2h-2v-1h2v1zm0-5h-2v-2h2v2zm-8 2.717c.624.447 1 1.072 1 1.783v-.5h2v1h-2v1h2v1h-2v.5c0 .172-.024.34-.066.5h3.066v-12h-4v6.717zm1-5.717h2v1h-2v-1z" id="iconBg"/><path class="icon-vs-fg" d="M14 3v2h-2v-2h2zm-7 6.5v.5h2v-1h-2v.5zm-3-6.5h-2v2h2v-2zm3 9h2v-1h-2v1zm0-9h2v-1h-2v1zm5 7h2v-1h-2v1zm0 2h2v-1h-2v1zm-8.5-3.5c-1.145 0-2 .528-2 1s.855 1 2 1 2-.527 2-1-.855-1-2-1z" id="iconFg"/><path class="icon-vs-action-blue" d="M3.5 8c-1.381 0-2.5.671-2.5 1.5v3c0 .828 1.119 1.5 2.5 1.5s2.5-.672 2.5-1.5v-3c0-.829-1.119-1.5-2.5-1.5zm0 2.5c-1.145 0-2-.527-2-1s.855-1 2-1 2 .528 2 1-.855 1-2 1z" id="colorImportance"/></svg>