<svg xmlns="http://www.w3.org/2000/svg" width="16" height="16"><style type="text/css">.icon-canvas-transparent{opacity:0;fill:#F6F6F6;} .icon-vs-out{fill:#F6F6F6;} .icon-vs-bg{fill:#424242;} .icon-vs-fg{fill:#F0EFF1;} .icon-vs-action-blue{fill:#00539C;}</style><path class="icon-canvas-transparent" d="M16 16h-16v-16h16v16z" id="canvas"/><path class="icon-vs-out" d="M16 12.586l-.586-.586h.586v-9h-3v-3h-9v3h-3v9h3v3h9v-.586l1 1 2-2v-.828zm-11-1.586v-.706c.209.261.445.497.707.706h-.707zm0-6.293v-.707h.707c-.262.209-.498.445-.707.707zm7 0c-.209-.262-.445-.498-.706-.707h.706v.707z" id="outline"/><path class="icon-vs-bg" d="M4 4v7h-2v-7h2zm1-1h7v-2h-7v2zm9.414 8h.586v-7h-2v5.586l1.414 1.414zm-3.829 1h-5.585v2h7v-.585l-1.415-1.415zm-2.085-8c1.933 0 3.5 1.567 3.5 3.5 0 .711-.215 1.369-.578 1.922l3.578 3.578-1 1-3.578-3.578c-.553.363-1.211.578-1.922.578-1.933 0-3.5-1.567-3.5-3.5s1.567-3.5 3.5-3.5zm0 6c1.381 0 2.5-1.119 2.5-2.5s-1.119-2.5-2.5-2.5-2.5 1.119-2.5 2.5 1.119 2.5 2.5 2.5z" id="iconBg"/><path class="icon-vs-fg" d="M8.5 5c-1.38 0-2.5 1.119-2.5 2.5s1.12 2.5 2.5 2.5 2.5-1.119 2.5-2.5-1.119-2.5-2.5-2.5zm1.5 3h-1v1h-1v-1h-1v-1h1v-1h1v1h1v1z" id="iconFg"/><path class="icon-vs-action-blue" d="M9 7h1v1h-1v1h-1v-1h-1v-1h1v-1h1v1z" id="colorAction"/></svg>