<svg xmlns="http://www.w3.org/2000/svg" width="16" height="16"><style type="text/css">.icon-canvas-transparent{opacity:0;fill:#F6F6F6;} .icon-vs-out{fill:#F6F6F6;} .icon-vs-bg{fill:#424242;} .icon-vs-action-green{fill:#388A34;}</style><path class="icon-canvas-transparent" d="M16 16h-16v-16h16v16z" id="canvas"/><path class="icon-vs-out" d="M16 9.999l-2.999-2.999h-2.161l-.105-.105c2.598-.465 3.328-2.34 3.328-3.395 0-2.467-2.068-3.443-3.5-3.5-1.661 0-2.792.688-3.504 1.674-.717-.985-1.856-1.673-3.535-1.673h-.002c-1.39.056-3.459 1.032-3.459 3.499 0 1.06.736 2.946 3.361 3.401l-3.424 3.424 2.121 2.121 1.88-1.88v2.434h1.412c-.268.68-.412 1.382-.412 2v1h4v-1h4l2.999-2.999v-2.002zm-10.433-.999l1.515-1.515 1.515 1.515h-3.03z" id="outline"/><path class="icon-vs-bg" d="M4.001 9h.152l2.929-2.929.929.929h1.414l-1-1h1.038c3.6 0 3.6-2.5 3.6-2.5 0-2.4-2.5-2.5-2.5-2.5-3.034 0-3.439 2.83-3.492 3.724l-.018-.019c-.058-.914-.479-3.705-3.49-3.705 0 0-2.5.1-2.5 2.5 0 0 0 2.5 3.6 2.5h1.076l-4.324 4.325.707.707 1.88-1.88v-.152zm4.061-4.634c.002-.282.096-2.366 2.334-2.366 0 0 1.666.061 1.666 1.5 0 0 0 1.5-2.4 1.5h-1.6v-.634zm-2.666.634h-.933c-2.4 0-2.4-1.5-2.4-1.5 0-1.439 1.667-1.5 1.667-1.5 2.237 0 2.331 2.084 2.333 2.366v.634h-.667z" id="iconBg"/><path class="icon-vs-action-green" d="M8.001 15h-2c0-.97.288-2.167 1-3h-2v-2h7l-2-2h2l3 3-3 3h-2l2-2h-2c-1.153 0-2 1.898-2 3z" id="notificationBg"/></svg>