<svg xmlns="http://www.w3.org/2000/svg" width="16" height="16"><style type="text/css">.icon-canvas-transparent{opacity:0;fill:#F6F6F6;} .icon-vs-out{fill:#F6F6F6;} .icon-vs-bg{fill:#424242;} .icon-vs-fg{fill:#F0EFF1;} .icon-vs-red{fill:#E51400;}</style><path class="icon-canvas-transparent" d="M16 16h-16v-16h16v16z" id="canvas"/><path class="icon-vs-out" d="M16 4v12h-14v-7.586l-2-2v-.824l1.586-1.607-1.586-1.565v-.832l1.586-1.586h.828l1.586 1.586 1.586-1.586h.828l2.005 2.005-2.005 1.977.017.018h9.569z" id="outline"/><path class="icon-vs-bg" d="M13 13h-8v-.793l1.446-1.445 1.155 1.538c.098.132.264.216.42.2.166-.008.316-.096.403-.234l2.604-3.367 1.972 2.761v1.34zm-8-5.586v3.379l1.146-1.147c.103-.103.237-.154.39-.145.145.011.277.083.363.199l1.063 1.417 2.614-3.382c.089-.142.241-.229.408-.235.188.003.326.074.423.209l1.593 2.23v-2.939h-5.586l-1.414 1.414-1-1zm2.418-2.414l.987 1h5.595v8h-10v-7.586l-1 1v7.586h12v-10h-7.582z" id="iconBg"/><path class="icon-vs-fg" d="M8.405 6l.005.005-.996.995h5.586v2.939l-1.593-2.23c-.097-.135-.235-.207-.423-.209-.167.005-.319.093-.408.235l-2.614 3.382-1.063-1.417c-.086-.116-.218-.188-.363-.198-.152-.01-.287.042-.39.145l-1.146 1.146v-3.379l-1-1v7.586h10v-8h-5.595zm4.595 7h-8v-.793l1.446-1.445 1.155 1.538c.098.132.264.216.42.2.166-.008.316-.096.403-.234l2.604-3.367 1.972 2.761v1.34z" id="iconFg"/><path class="icon-vs-red" d="M5 3.973l2 2.027-1 1-2-2-2 2-1-1 2-2.027-2-1.973 1-1 2 2 2-2 1 1-2 1.973z" id="colorAction"/></svg>