<svg xmlns="http://www.w3.org/2000/svg" width="16" height="16"><style type="text/css">.icon-canvas-transparent{opacity:0;fill:#F6F6F6;} .icon-white{fill:#FFFFFF;} .icon-vso-bg{fill:#656565;}</style><path class="icon-canvas-transparent" d="M16 16h-16v-16h16v16z" id="canvas"/><path class="icon-white" d="M16 14h-16v-12h16v12z" id="outline"/><path class="icon-vso-bg" d="M11 5l3 3-3 3h-2l2-2h-3v-2h3l-2-2h2zm4-2v10h-14v-10h14zm-1 1h-6v3h-3l2-2h-2l-3 3 3 3h2l-2-2h3v3h6v-8z" id="iconBg"/><path class="icon-white" d="M8 9h-3l2 2h-2l-3-3 3-3h2l-2 2h3v2zm1 2l2-2h-3v3h6v-4l-3 3h-2zm5-7v4l-3-3h-2l2 2h-3v-3h6zm-6 3v2h-.001l.001-2z" id="iconFg"/></svg>