<svg xmlns="http://www.w3.org/2000/svg" width="16" height="16"><style type="text/css">.icon-canvas-transparent{opacity:0;fill:#F6F6F6;} .icon-vs-out{fill:#F6F6F6;} .icon-vs-bg{fill:#424242;} .icon-vs-fg{fill:#F0EFF1;}</style><path class="icon-canvas-transparent" d="M16 16h-16v-16h16v16z" id="canvas"/><path class="icon-vs-out" d="M16 0v10h-3.75c-.001 2.837-1.868 5.242-4.498 6h-3.077c-2.256-.477-4.055-2.151-4.675-4.368v-3.377c.126-.435.311-.842.523-1.232l-.523-.523v-4.328l1.127 1.127c.331-.994 1.269-1.713 2.373-1.713h1.5v-1.586h11z" id="outline"/><path class="icon-vs-bg" d="M2.5 7.586l-1.5-1.5v-1.5l1 1v-1.5c0-.827.673-1.5 1.5-1.5h1.5v1h-1.5c-.275 0-.5.225-.5.5v1.5l1-1v1.5l-1.5 1.5zm3.5-6.586v2.745c.341 0 .674.034 1 .086v-.831h7v5h-2.079c.106.321.185.657.239 1h2.84v-8h-9zm5.25 9c0 2.727-2.078 4.966-4.736 5.225-.169.015-.34.025-.514.025l-.45-.023-.395-.052-.015-.002c-2.208-.365-3.946-2.102-4.313-4.309l-.002-.014-.053-.398-.022-.452c0-.803.194-1.554.516-2.234l.716.716c-.179.474-.294.981-.294 1.518l.016.303c.583.197 1.28.398 2.087.545-.048-.415-.078-.826-.073-1.227.003-.328.025-.64.058-.944-.279-.047-.539-.103-.792-.161l.693-.693.211.043.082-.336 1.03-1.03v-1.649c.324-.063.657-.101 1-.101 2.84 0 5.146 2.256 5.241 5.072l.009.178zm-3.84-4.071c.275.574.527 1.24.688 2.013.464-.072.949-.195 1.464-.372-.517-.757-1.269-1.336-2.152-1.641zm-2.71 2.053c.419.048.855.079 1.304.083.428.004.85 0 1.277-.029-.207-.946-.564-1.722-.915-2.33l-.366-.018c-.187 0-.369.016-.549.039-.287.595-.576 1.344-.751 2.255zm-.167 1.647c-.004.437.029.888.093 1.345.442.052.901.087 1.378.092.438.003.867-.003 1.306-.034.105-.5.161-.969.157-1.402-.004-.271-.024-.53-.053-.784-.379.028-.75.04-1.116.04l-.302-.002c-.489-.005-.96-.039-1.412-.09-.027.269-.047.546-.051.835zm.126 4.469c-.33-.809-.582-1.61-.736-2.396-.774-.124-1.46-.3-2.058-.483.401 1.36 1.451 2.439 2.794 2.879zm2.429-2.234c-.266.013-.529.021-.79.021l-.302-.002c-.42-.004-.827-.029-1.22-.068.18.811.469 1.642.846 2.479l.378.019.074-.004c.446-.887.785-1.702 1.014-2.445zm3.043-.629c-.781.294-1.494.465-2.164.551-.204.734-.52 1.535-.929 2.395 1.48-.366 2.659-1.493 3.093-2.946zm.182-1.235c0-.604-.125-1.177-.349-1.699-.616.221-1.193.367-1.737.453.031.28.055.566.057.867.005.411-.037.848-.12 1.307.657-.105 1.356-.309 2.136-.647l.013-.281z" id="iconBg"/><path class="icon-vs-fg" d="M14 3v5h-2.079c-.726-2.181-2.608-3.801-4.921-4.169v-.831h7z" id="iconFg"/></svg>