<svg xmlns="http://www.w3.org/2000/svg" width="16" height="16"><style type="text/css">.icon-canvas-transparent{opacity:0;fill:#F6F6F6;} .icon-vs-out{fill:#F6F6F6;} .icon-vs-bg{fill:#424242;} .icon-vs-fg{fill:#F0EFF1;} .icon-vs-yellow{fill:#FFCC00;}</style><path class="icon-canvas-transparent" d="M16 16h-16v-16h16v16z" id="canvas"/><path class="icon-vs-out" d="M14.913 11.89l1.043 2.106-.97 2.004h-6.992l-1.033-1.975.527-1.051h-3.62c-2.141-.036-3.868-1.802-3.868-3.937 0-1.608.943-3.013 2.362-3.621.49-1.987 2.248-3.416 4.331-3.416 1.141 0 2.207.426 3.022 1.188.296-.077.602-.117.909-.117 1.775 0 3.255 1.303 3.552 3.012 1.113.653 1.824 1.866 1.824 3.196 0 1.02-.419 1.94-1.087 2.611z" id="outline"/><path class="icon-vs-bg" d="M8.001 11.975h-4.127c-1.591-.027-2.871-1.344-2.871-2.938 0-1.393.962-2.563 2.247-2.861.173-1.782 1.655-3.176 3.452-3.176 1.109 0 2.104.524 2.74 1.361.36-.188.767-.29 1.193-.29 1.438 0 2.609 1.187 2.609 2.643v.025c1.031.371 1.771 1.369 1.771 2.539 0 .621-.216 1.188-.567 1.645l-.537-1.082c.064-.18.104-.372.104-.575 0-.766-.504-1.406-1.189-1.613l-.316-.638h-.31l.045-.307c0-.906-.721-1.641-1.609-1.641-.688 0-1.267.44-1.5 1.057-.188-1.202-1.201-2.124-2.434-2.124-1.363 0-2.469 1.127-2.469 2.519 0 .218.035.424.086.625-.135-.031-.273-.052-.42-.052-1.047 0-1.897.865-1.897 1.934 0 1.06.836 1.915 1.871 1.931v.002h4.638l-.51 1.016z" id="iconBg"/><path class="icon-vs-fg" d="M3.874 10.958v-.002c-1.035-.016-1.871-.871-1.871-1.931 0-1.068.85-1.934 1.897-1.934.146 0 .285.02.42.052-.051-.201-.087-.407-.087-.624 0-1.392 1.106-2.519 2.469-2.519 1.233 0 2.246.922 2.434 2.125.233-.616.813-1.057 1.5-1.057.889 0 1.609.734 1.609 1.641l-.045.307h-1.707l-1.982 3.942h-4.637zm10.038-1.116c.064-.18.104-.372.104-.575 0-.766-.504-1.406-1.189-1.613l1.085 2.188z" id="iconFg"/><path class="icon-vs-yellow" d="M11.891 8.016h-.781l-3.016 6 .515.984h5.766l.484-1-2.968-5.984zm.109 5.984h-1v-1h1v1zm0-2h-1v-2h1v2z" id="notificationBg"/><path class="icon-black" d="M11.985 13v1h-.985v-1h.985zm0-3h-.985v2h.985v-2z" id="notificationFg"/></svg>