<?xml version="1.0" encoding="utf-8"?>
<!-- Generator: Adobe Illustrator 18.0.0, SVG Export Plug-In . SVG Version: 6.00 Build 0)  -->
<!DOCTYPE svg PUBLIC "-//W3C//DTD SVG 1.1//EN" "http://www.w3.org/Graphics/SVG/1.1/DTD/svg11.dtd">
<svg version="1.1" xmlns="http://www.w3.org/2000/svg" xmlns:xlink="http://www.w3.org/1999/xlink" x="0px" y="0px" width="16px"
	 height="16px" viewBox="0 0 16 16" style="enable-background:new 0 0 16 16;" xml:space="preserve">
<style type="text/css">
	.st0{opacity:0;fill:#F6F6F6;}
	.st1{fill:#F6F6F6;}
	.st2{fill:#DCB67A;}
	.st3{fill:#F0EFF1;}
	.st4{fill:#1BA1E2;}
	.st5{fill:#FFFFFF;}
</style>
<g id="outline">
	<rect class="st0" width="16" height="16"/>
	<path class="st1" d="M14,0H6.884l-1,2H3C2.03,2,1,2.701,1,4v2H0v1.196L2.323,13h3.284c0.912,1.778,2.761,3,4.893,3
		c2.56,0,4.711-1.762,5.321-4.134C15.933,11.616,16,11.328,16,11V2C16,0.697,14.995,0,14,0z"/>
</g>
<g id="icon_x5F_bg">
	<path class="st2" d="M5,10.5c0-1.314,0.465-2.522,1.237-3.469H3v-3h4l1-2h6v4.23c0.381,0.315,0.715,0.682,1,1.087
		c0-1.914,0-4.087,0-5.317c0-1-1-1-1-1H7.5l-1,2H3c0.236,0-1,0-1,1s0,3,0,3H1l2,5h2.221C5.08,11.544,5,11.032,5,10.5z"/>
</g>
<g id="icon_x5F_fg">
	<polygon class="st3" points="3,7 3,4 7,4 8,2 14,2 14,12 11,7 	"/>
</g>
<g id="notification_x5F_bg">
	<g>
		<path class="st4" d="M10.5,6C8.019,6,6,8.019,6,10.5S8.019,15,10.5,15s4.5-2.019,4.5-4.5S12.981,6,10.5,6z M10.5,14
			C8.567,14,7,12.433,7,10.5S8.567,7,10.5,7c1.692,0,3.103,1.2,3.429,2.795C13.976,10.023,14,10.259,14,10.5
			s-0.024,0.477-0.071,0.705C13.603,12.8,12.192,14,10.5,14z"/>
		<g>
			<polygon class="st4" points="7.977,9.658 9.145,10.828 9.18,10.863 9.145,10.898 7.963,12.082 8.568,12.689 10.393,10.863 
				8.582,9.052 			"/>
			<polygon class="st4" points="11.783,9.811 11.818,9.776 12.986,8.606 12.381,8 10.57,9.811 12.395,11.637 13,11.029 
				11.818,9.847 			"/>
		</g>
	</g>
</g>
<g id="notification_x5F_fg">
	<path class="st5" d="M13.929,9.795C13.603,8.2,12.191,7,10.5,7C8.568,7,7,8.567,7,10.5S8.568,14,10.5,14
		c1.691,0,3.103-1.2,3.429-2.795C13.976,10.977,14,10.741,14,10.5S13.976,10.023,13.929,9.795z M8.568,12.689l-0.605-0.607
		l1.182-1.184l0.035-0.035l-0.035-0.035l-1.168-1.17l0.605-0.606l1.811,1.812L8.568,12.689z M12.395,11.637L10.57,9.811L12.381,8
		l0.605,0.606l-1.168,1.17l-0.035,0.035l0.035,0.035L13,11.029L12.395,11.637z"/>
</g>
</svg>
