<svg xmlns="http://www.w3.org/2000/svg" width="16" height="16"><style type="text/css">.icon-canvas-transparent{opacity:0;fill:#F6F6F6;} .icon-vs-out{fill:#F6F6F6;} .icon-vs-bg{fill:#424242;} .icon-vs-fg{fill:#F0EFF1;}</style><path class="icon-canvas-transparent" d="M16 16h-16v-16h16v16z" id="canvas"/><path class="icon-vs-out" d="M16 0v12h-5v4h-11v-15.4l1.1 1.1c.4-1 1.3-1.7 2.4-1.7h12.5z" id="outline"/><path class="icon-vs-bg" d="M2 9h-1v-1h1v1zm0 1h-1v1h1v-1zm-1 5h1v-1h-1v1zm1-8.1l-.9-.9h-.1v1l1-.1zm6-.9h-1v1h1v-1zm-5 9h1v-1h-1v1zm3-6c0 .6.4 1 1 1s1-.4 1-1-.4-1-1-1-1 .4-1 1zm-3-2h1v-1h-.1l-.9 1zm2-1v1h1v-1h-1zm0-1.1l1 .1v-2h-1v1.9zm0 10.1h1v-1h-1v1zm4-6h1v-1h-1v1zm0-2h1v-1h-1v1zm3-3c0-.6-.4-1-1-1s-1 .4-1 1 .4 1 1 1 1-.4 1-1zm-6-3v1h8v5l-1.5-1-1.5.8v2l1.5-.8 1.5 1v1h-3v1h4v-10h-9zm3 14h1v-1h-1v1zm1-2v-1h-1v1h1zm-3 2h1v-1h-1v1zm2-4h1v-1h-1v1zm-5-1l-2 2h-1v1h1l2-2 3 2 2-1v-1l-2 1-3-2zm0-5.5v-1.5l-1 1v-1.5c0-.3.2-.5.5-.5h1.5v-1h-1.5c-.8 0-1.5.7-1.5 1.5v1.5l-1-1v1.5l1.5 1.5 1.5-1.5z" id="iconBg"/><path class="icon-vs-fg" d="M2.5 7.4l-.4-.4h-.1v5l2-2 3 2 2-1v-4h-6.1l-.4.4zm4.5.6c.6 0 1 .4 1 1s-.4 1-1 1-1-.4-1-1 .4-1 1-1zm0 5l2-1v2h-7v-1l2-2 3 2zm5.5-5l1.5 1v1h-3v-1.2l1.5-.8zm1.5-6v5l-1.5-1-1.5.8v-1.8c.6 0 1-.4 1-1s-.4-1-1-1-1 .4-1 1 .4 1 1 1h-5v-3h8z" id="iconFg"/></svg>