<svg xmlns="http://www.w3.org/2000/svg" width="16" height="16"><style type="text/css">.icon-canvas-transparent{opacity:0;fill:#F6F6F6;} .icon-vs-out{fill:#F6F6F6;} .icon-vs-bg{fill:#424242;} .icon-vs-fg{fill:#F0EFF1;}</style><path class="icon-canvas-transparent" d="M16 16h-16v-16h16v16z" id="canvas"/><path class="icon-vs-out" d="M3 15v-8h-2v-6h15v14h-13z" id="outline"/><path class="icon-vs-bg" d="M2 2v4h2v8h11v-12h-13zm1 3v-2h6v2h-6zm11 8h-9v-7h9v7zm-2-8l-2-2h4l-2 2zm-3 3h-1v-1h1v1zm2 0h-1v-1h1v1zm2 0h-1v-1h1v1zm-4 2h-1v-1h1v1zm-2 0h-1v-1h1v1zm2 2h-1v-1h1v1zm-2 0h-1v-1h1v1zm6 0h-3v-3h3v3z" id="iconBg"/><g id="iconFg"><path class="icon-vs-fg" d="M3 3h6v2h-6v-2zm11 0h-4l2 2 2-2zm0 3v7h-9v-7h9zm-4 2h1v-1h-1v1zm-3 3h-1v1h1v-1zm0-2h-1v1h1v-1zm2 2h-1v1h1v-1zm0-2h-1v1h1v-1zm0-2h-1v1h1v-1zm4 2h-3v3h3v-3zm0-2h-1v1h1v-1z"/></g></svg>