<svg xmlns="http://www.w3.org/2000/svg" width="16" height="16"><style type="text/css">.icon-canvas-transparent{opacity:0;fill:#F6F6F6;} .icon-vs-out{fill:#F6F6F6;} .icon-vs-fg{fill:#F0EFF1;} .icon-vs-bg{fill:#424242;}</style><path class="icon-canvas-transparent" d="M16 16h-16v-16h16v16z" id="canvas"/><path class="icon-vs-out" d="M8 16c-4.411 0-8-3.589-8-8s3.589-8 8-8 8 3.589 8 8-3.589 8-8 8" id="outline"/><path class="icon-vs-bg" d="M8 1c-3.866 0-7 3.134-7 7 0 3.865 3.134 7 7 7 3.865 0 7-3.135 7-7 0-3.866-3.135-7-7-7zm1 12h-2v-2h2v2zm0-3h-2v-7h2v7z" id="iconBg"/><g id="iconFg"><path class="icon-vs-fg" d="M9 10h-2v-7h2v7zm0 1h-2v2h2v-2z"/></g></svg>