<svg xmlns="http://www.w3.org/2000/svg" width="16" height="16"><style type="text/css">.icon-canvas-transparent{opacity:0;fill:#F6F6F6;} .icon-vs-out{fill:#F6F6F6;} .icon-vs-bg{fill:#424242;} .icon-vs-action-green{fill:#388A34;}</style><path class="icon-canvas-transparent" d="M16 16h-16v-16h16v16z" id="canvas"/><path class="icon-vs-out" d="M16 4v3h-1.018v4h-1.982v5h-4v-5h-1.996l-.004-4h-1v1h-4v-2h-2v-4h2v-2h4v2h1v-1.097c.354-.526 1.294-.876 2-.876s1.648.35 2 .876c.352-.526 1.275-.876 1.982-.876.707 0 1.666.35 2.018.876v3.097h1z" id="outline"/><path class="icon-vs-bg" d="M10 4h-2v-2.056c0-.484.457-.944 1-.944.544 0 1 .46 1 .944v2.056zm4-2.056c0-.484-.456-.944-1-.944-.543 0-1 .46-1 .944v2.056h2v-2.056zm-7 3.056v1h1v4h2v5h2v-5h2v-4h1v-1h-8z" id="iconBg"/><path class="icon-vs-action-green" d="M7 5h-2v2h-1.982v-2h-2.018v-1.982h2.018v-2.018h1.982v2.018h2v1.982z" id="colorAction"/></svg>