<svg xmlns="http://www.w3.org/2000/svg" width="16" height="16"><style type="text/css">.icon-vs-out{fill:#F6F6F6;} .icon-vs-bg{fill:#424242;} .icon-vs-fg{fill:#F0EFF1;} .icon-canvas-transparent{opacity:0;fill:#F6F6F6;}</style><rect class="icon-canvas-transparent" width="16" height="16" id="canvas"/><path class="icon-vs-out" d="M16 3v2h-3v6.5c0 1.93-1.57 3.5-3.5 3.5h-3.18c-.625.611-1.63 1-2.82 1-1.995 0-3.5-1.075-3.5-2.5v-3c0-1.033.802-1.869 2-2.254v-4.246c0-2.206 1.794-4 4-4h7c1.654 0 3 1.346 3 3z" id="outline"/><path class="icon-vs-bg" d="M15 3v1h-3v7.5c0 1.381-1.119 2.5-2.5 2.5h-2.566c.042-.161.066-.327.066-.5v-2.5h1v.5c0 .828.672 1.5 1.5 1.5s1.5-.672 1.5-1.5v-8.5h-5c-.553 0-1 .447-1 1v4.232c-.451-.146-.954-.232-1.5-.232-.173 0-.336.019-.5.034v-4.034c0-1.657 1.343-3 3-3h7c1.104 0 2 .895 2 2zm-9 7.5v3c0 .828-1.119 1.5-2.5 1.5s-2.5-.672-2.5-1.5v-3c0-.829 1.119-1.5 2.5-1.5s2.5.671 2.5 1.5zm-.5 0c0-.473-.855-1-2-1s-2 .527-2 1 .855 1 2 1 2-.528 2-1z" id="iconBg"/><path class="icon-vs-fg" d="M5.5 10.5c0 .473-.855 1-2 1s-2-.527-2-1 .855-1 2-1 2 .527 2 1zm.5-7.5c-.553 0-1 .447-1 1v4.232c1.2.388 2 1.232 2 2.268v.5h1v.5c0 .828.672 1.5 1.5 1.5s1.5-.672 1.5-1.5v-8.5h-5z" id="iconFg"/></svg>