<svg xmlns="http://www.w3.org/2000/svg" width="16" height="16"><style type="text/css">.icon-canvas-transparent{opacity:0;fill:#F6F6F6;} .icon-vs-out{fill:#F6F6F6;} .icon-vs-bg{fill:#424242;} .icon-vs-fg{fill:#F0EFF1;} .icon-vs-action-blue{fill:#00539C;} .st0{fill:#F6F6F6;}</style><g id="canvas"><path class="st0" d="M16 14.019h-4.952l-.327.981h-10.442l-.279-.836v-14.164h16v14.019z"/><path class="icon-canvas-transparent" d="M16 16h-16v-16h16v16z"/></g><path class="icon-vs-out" d="M16 14.019h-4.952l-.327.981h-10.442l-.279-.836v-14.164h16v14.019z" id="outline"/><path class="icon-vs-bg" d="M15 1v12h-3.612l.112-.338v-.453l-.133-.209h2.633v-8h-5v-1h-7v5.28l-1 1.572v-8.852h14z" id="iconBg"/><path class="icon-vs-action-blue" d="M10.5 12.5l-.5 1.5h-9l-.5-1.5 3.5-5.5v-2h-1v-1h5v1h-1v2l3.5 5.5zm-2.776-2.5l-1.568-2.463-.156-.246v-2.291h-1v2.291l-.156.246-1.568 2.463h4.448z" id="colorImportance"/><path class="icon-vs-fg" d="M6.156 7.537l1.568 2.463h-4.448l1.567-2.463.157-.246v-2.291h1v2.291l.156.246zm2.844-3.537v2h-1v.709l3.367 5.291h2.633v-8h-5z" id="iconFg"/></svg>