<svg xmlns="http://www.w3.org/2000/svg" width="16" height="16"><style type="text/css">.icon-canvas-transparent{opacity:0;fill:#F6F6F6;} .icon-vs-out{fill:#F6F6F6;} .icon-vs-bg{fill:#424242;}</style><path class="icon-canvas-transparent" d="M16 16h-16v-16h16v16z" id="canvas"/><path class="icon-vs-out" d="M14 6v-4.987l-.398-.3c-.617-.467-1.344-.713-2.102-.713-1.93 0-3.5 1.57-3.5 3.5v.5h-3.414l-3.586 3.586v.828l3.586 3.586h3.414v.5c0 1.93 1.57 3.5 3.5 3.5.758 0 1.485-.246 2.102-.713l.398-.3v-4.987h-2v-4h2z" id="outline"/><path class="icon-vs-bg" d="M11.5 1c.565 0 1.081.194 1.5.511v3.489h-2v6h2v3.489c-.419.317-.935.511-1.5.511-1.381 0-2.5-1.119-2.5-2.5v-9c0-1.381 1.119-2.5 2.5-2.5zm-9.5 7l3 3h2l-2-2h3v-2h-3l2-2h-2l-3 3z" id="iconBg"/></svg>