<svg xmlns="http://www.w3.org/2000/svg" width="16" height="16"><style type="text/css">.icon-canvas-transparent{opacity:0;fill:#F6F6F6;} .icon-vs-out{fill:#F6F6F6;} .icon-vs-bg{fill:#424242;} .icon-vs-fg{fill:#F0EFF1;}</style><path class="icon-canvas-transparent" d="M16 16h-16v-16h16v16z" id="canvas"/><path class="icon-vs-out" d="M15 3.556v8.444c0 .97-.701 2-2 2 0 .97-.701 2-2 2h-8c-.97 0-2-.701-2-2v-10c0-1.299 1.03-2 2-2 0-1.299 1.03-2 2-2h6.061l3.939 3.556z" id="outline"/><path class="icon-vs-bg" d="M14 4v8s-.038.97-1 .995v-7.995h-.615l-2.385-2.152v-.848h-6c0-1 .964-1 .964-1h5.677l3.359 3zm-2 2v8s-.035 1-1.035 1h-8s-.965 0-.965-1v-10c0-1 .964-1 .964-1h5.677l3.359 3zm-1 1h-3v-3h-5v10h8v-7z" id="iconBg"/><path class="icon-vs-fg" d="M3 4h5v3h3v7h-8v-10z" id="iconFg"/><g id="colorImportance"><path class="icon-vs-bg" d="M6 13c-.512 0-.884-.076-1.116-.227-.232-.151-.349-.421-.349-.81v-.682c0-.349-.179-.523-.535-.523v-.523c.357 0 .535-.181.535-.543v-.632c0-.39.115-.664.345-.822.23-.159.603-.238 1.12-.238v.531c-.376 0-.563.165-.563.494v.605c0 .455-.181.742-.542.861v.011c.362.117.542.408.542.872v.582c0 .186.044.317.132.395.088.079.232.118.431.118v.531zm4-2.241c-.36 0-.54.177-.54.531v.656c0 .4-.114.675-.344.827-.229.151-.601.227-1.116.227v-.531c.198 0 .341-.038.43-.115.09-.077.134-.207.134-.391v-.605c0-.452.18-.736.54-.849v-.011c-.36-.119-.54-.416-.54-.889v-.583c0-.33-.188-.494-.564-.494v-.532c.513 0 .884.079 1.115.237.23.158.345.429.345.811v.651c0 .358.18.537.54.537v.523z"/></g></svg>