<svg xmlns="http://www.w3.org/2000/svg" width="16" height="16"><style type="text/css">.icon-canvas-transparent{opacity:0;fill:#F6F6F6;} .icon-vs-out{fill:#F6F6F6;} .icon-vs-bg{fill:#424242;} .icon-vs-fg{fill:#F0EFF1;}</style><path class="icon-canvas-transparent" d="M16 16h-16v-16h16v16z" id="canvas"/><path class="icon-vs-out" d="M16 0v16h-14v-1.023c-1.208-.912-2-2.347-2-3.977s.792-3.065 2-3.977v-7.023h14z" id="outline"/><path class="icon-vs-bg" d="M5 5h.005c3.311 0 5.995 2.684 5.995 5.995 0 .704-.128 1.377-.351 2.005h-1.076c.271-.615.427-1.291.427-2.005 0-2.754-2.241-4.995-4.995-4.995h-.005v-1zm-2-4v5.422c.318-.139.651-.251 1-.321v-4.101h10v12h-5.023c-.287.38-.623.716-1.005 1h7.028v-14h-12zm6 10c0 2.209-1.791 4-4 4s-4-1.791-4-4 1.791-4 4-4 4 1.791 4 4zm-1.14-2.79l-.07-.07-2.79 1.86h-1v2h2v-1l1.86-2.79z" id="iconBg"/><path class="icon-vs-fg" d="M7.86 8.21l-1.86 2.79v1h-2v-2h1l2.79-1.86.07.07z" id="iconFg"/></svg>