<svg xmlns="http://www.w3.org/2000/svg" width="16" height="16"><style type="text/css">.icon-canvas-transparent{opacity:0;fill:#F6F6F6;} .icon-vs-out{fill:#F6F6F6;} .icon-vs-bg{fill:#424242;} .icon-vs-fg{fill:#F0EFF1;}</style><path class="icon-canvas-transparent" d="M16 16h-16v-16h16v16z" id="canvas"/><path class="icon-vs-out" d="M16 15h-9v1h-7v-15h16v14z" id="outline"/><path class="icon-vs-bg" d="M15 2v12h-8v-1h7v-8h-12v2h-1v-5h14zm-14 6h5v7h-2v-2h-1v2h-2v-7zm3 2h1v-1h-1v1zm0 2h1v-1h-1v1zm-2-2h1v-1h-1v1zm0 2h1v-1h-1v1zm11-4.5v3c0 .828-1.119 1.5-2.5 1.5s-2.5-.672-2.5-1.5v-3c0-.828 1.119-1.5 2.5-1.5s2.5.672 2.5 1.5zm-.575 0c0-.428-.841-.925-1.925-.925s-1.925.497-1.925.925.841.925 1.925.925 1.925-.497 1.925-.925z" id="iconBg"/><path class="icon-vs-fg" d="M3 10h-1v-1h1v1zm1 0h1v-1h-1v1zm-1 1h-1v1h1v-1zm0 4h1v-2h-1v2zm1-3h1v-1h-1v1zm6.499-5.425c-1.084 0-1.925.497-1.925.925s.841.925 1.925.925 1.925-.497 1.925-.925-.841-.925-1.925-.925zm3.5-1.575v8h-6.999v-6h-5v-2h11.999zm-1 2.5c0-.828-1.119-1.5-2.5-1.5s-2.5.672-2.5 1.5v3c0 .828 1.119 1.5 2.5 1.5s2.5-.672 2.5-1.5v-3z" id="iconFg"/></svg>