<svg xmlns="http://www.w3.org/2000/svg" width="16" height="16"><style type="text/css">.icon-canvas-transparent{opacity:0;fill:#F6F6F6;} .icon-vs-out{fill:#F6F6F6;} .icon-vs-bg{fill:#424242;} .icon-vs-fg{fill:#F0EFF1;}</style><path class="icon-canvas-transparent" d="M16 16h-16v-16h16v16z" id="canvas"/><path class="icon-vs-out" d="M16 13h-5.606c-.911 1.779-2.759 3-4.894 3-3.037 0-5.5-2.463-5.5-5.5 0-1.708.779-3.234 2-4.243v-6.257h14v13z" id="outline"/><path class="icon-vs-bg" d="M15 1v11h-4.213c.092-.322.156-.656.188-1h3.025v-7h-10v1.212c-.349.1-.683.231-1 .393v-4.605h12zm-5 9.5c0 2.485-2.015 4.5-4.5 4.5s-4.5-2.015-4.5-4.5 2.015-4.5 4.5-4.5 4.5 2.015 4.5 4.5z" id="iconBg"/><path class="icon-vs-fg" d="M14 4v7h-3.025l.025-.5c0-3.038-2.463-5.5-5.5-5.5-.521 0-1.022.077-1.5.212v-1.212h10z" id="iconFg"/></svg>