<svg xmlns="http://www.w3.org/2000/svg" width="32" height="96"><style type="text/css">.icon-canvas-transparent{opacity:0;fill:#F6F6F6;} .icon-f12-grey-primary{fill:#555555;} .icon-f12-blue-hover{fill:#2279BF;} .icon-f12-ltgrey-disabled{fill:#ABABAC;}</style><path class="icon-canvas-transparent" d="M32 80h-32v-64h32v64z" id="canvas"/><g id="iconBg"><path class="icon-f12-grey-primary" d="M30 8v12s-.167 2-2 2h-8v-2h8v-11h-4v-5h-8v6.581l-2-2.296v-4.285c0-1.666 2-2 2-2h9l5 6zm-14 22h-12c-1.75 0-2-2-2-2v-16c0-1.666 2-2 2-2h9l5 6v12s-.167 2-2 2zm-4-18h-8v16h12v-11h-4v-5z"/><path class="icon-f12-blue-hover" d="M30 40v12s-.167 2-2 2h-8v-2h8v-11h-4v-5h-8v6.581l-2-2.296v-4.285c0-1.666 2-2 2-2h9l5 6zm-14 22h-12c-1.75 0-2-2-2-2v-16c0-1.666 2-2 2-2h9l5 6v12s-.167 2-2 2zm-4-18h-8v16h12v-11h-4v-5z"/><path class="icon-f12-ltgrey-disabled" d="M30 72v12s-.167 2-2 2h-8v-2h8v-11h-4v-5h-8v6.581l-2-2.296v-4.285c0-1.666 2-2 2-2h9l5 6zm-14 22h-12c-1.75 0-2-2-2-2v-16c0-1.666 2-2 2-2h9l5 6v12s-.167 2-2 2zm-4-18h-8v16h12v-11h-4v-5z"/></g></svg>