<svg xmlns="http://www.w3.org/2000/svg" width="16" height="16"><style type="text/css">.icon-vs-out{fill:#F6F6F6;} .icon-canvas-transparent{opacity:0;fill:#F6F6F6;} .icon-vs-action-blue{fill:#00539C;}</style><path class="icon-canvas-transparent" d="M16 16h-16v-16h16v16z" id="canvas"/><path class="icon-vs-out" d="M10.586 1l-2.586 2.586-2.586-2.586h-5.414v5.414l4 4v-2.551c1.233 1.445 2 3.337 2 4.137v3h4v-3c0-.8.767-2.692 2-4.137v2.551l4-4v-5.414h-5.414zm-2.586 5.545c-.37-.557-.773-1.079-1.193-1.545h2.387c-.421.466-.824.988-1.194 1.545z" id="outline"/><path class="icon-vs-action-blue" d="M15 2v4l-2 2v-2.586l-1.293 1.293c-1.596 1.595-2.707 4.069-2.707 5.293v2h-2v-2c0-1.224-1.111-3.698-2.707-5.293l-1.293-1.293v2.586l-2-2v-4h4l2 2h-2.586l1.293 1.293c.901.901 1.704 2.065 2.293 3.242.589-1.177 1.392-2.341 2.293-3.242l1.293-1.293h-2.586l2-2h4z" id="iconBg"/></svg>