<svg xmlns="http://www.w3.org/2000/svg" width="16" height="16"><style type="text/css">.icon-canvas-transparent{opacity:0;fill:#F6F6F6;} .icon-white{fill:#FFFFFF;} .icon-vso-bg{fill:#656565;}</style><path class="icon-canvas-transparent" d="M16 16h-16v-16h16v16z" id="canvas"/><path class="icon-white" d="M6 14v-4.478c-.177-.811-1-1.522-1-2.019v2.978l-4-3.507v-4.974h5.363l1.637 1.701 1.637-1.701h4.363v4.974l-3 3.507v-2.872c0 .544-.814 1.279-1 1.947v4.444h-4z" id="outline"/><path class="icon-vso-bg" d="M13.5 3v3.571l-1.375 1.429v-2.143c-1.574.37-2.787 2.179-3.125 3.572v3.571h-2v-3.58c-.338-1.727-1.554-3.194-3.125-3.563v2.143l-1.375-1.429v-3.571h3.438l1.375 1.429h-2.09c2.579 1.654 2.777 3.571 2.777 3.571s.192-1.967 2.777-3.571h-2.089l1.375-1.429h3.437z" id="iconBg"/></svg>