<svg xmlns="http://www.w3.org/2000/svg" width="16" height="16"><style type="text/css">.icon-canvas-transparent{opacity:0;fill:#F6F6F6;} .icon-vs-out{fill:#F6F6F6;} .icon-vs-fg{fill:#F0EFF1;} .icon-vs-blue{fill:#1BA1E2;} .graph-yellow{fill:#FCB714;}</style><path class="icon-canvas-transparent" d="M16 16h-16v-16h16v16z" id="canvas"/><path class="icon-vs-out" d="M8.891 0h-2.27c-2.899.23-5.621 1.319-5.621 3.156v9.595c0 1.992 3.313 3.024 6.195 3.249h2.36c2.862-.23 5.445-1.304 5.445-3.155v-9.595c0-1.976-3.325-3.024-6.109-3.25z" id="outline"/><g id="iconBg"><ellipse class="graph-yellow" cx="8" cy="2.75" rx="5" ry="1.75"/><path class="icon-vs-blue" d="M8 5.7c-2.631 0-5.275-.666-6-2.124v9.175c0 1.219 3.289 2.297 6.383 2.297s5.617-1.031 5.617-2.203v-9.269c-.725 1.458-3.369 2.124-6 2.124zm0 6.3h-1v-3.293l-1.217 2.672c-.111.243-.455.243-.566 0l-1.217-2.672v3.293h-1v-5h1l1.231 2.128c.12.207.419.207.538 0l1.231-2.128h1v5zm5 1.471c0 .292-.237.529-.529.529h-3.471v-1h3v-1h-2.471c-.292 0-.529-.237-.529-.529v-2.471h1v2h2v-2h1v4.471z"/></g><path class="icon-vs-fg" d="M8 7v5h-1v-3.293l-1.217 2.672c-.111.243-.455.243-.566 0l-1.217-2.672v3.293h-1v-5h1l1.231 2.128c.12.207.419.207.538 0l1.231-2.128h1zm4 2v2h-2v-2h-1v2.471c0 .292.237.529.529.529h2.471v1h-3v1h3.471c.292 0 .529-.237.529-.529v-4.471h-1z" id="iconFg"/></svg>