<svg xmlns="http://www.w3.org/2000/svg" width="16" height="16"><style type="text/css">.icon-canvas-transparent{opacity:0;fill:#F6F6F6;} .icon-vs-out{fill:#F6F6F6;} .icon-vs-bg{fill:#424242;} .icon-vs-fg{fill:#F0EFF1;}</style><path class="icon-canvas-transparent" d="M16 16h-16v-16h16v16z" id="canvas"/><path class="icon-vs-out" d="M15 3.25v9.595c0 1.852-2.583 2.925-5.445 3.155h-2.36c-2.882-.225-6.195-1.257-6.195-3.249v-9.595c0-1.837 2.722-2.926 5.621-3.156h2.271c2.783.226 6.108 1.274 6.108 3.25z" id="outline"/><path class="icon-vs-bg" d="M7.777.952c-3.14 0-5.777 1.079-5.777 2.204v9.595c0 1.219 3.289 2.297 6.383 2.297s5.617-1.032 5.617-2.204v-9.595c0-1.172-3.082-2.297-6.223-2.297zm.223 10.048h-1v-3.293l-1.217 2.672c-.111.243-.455.243-.566 0l-1.217-2.672v3.293h-1v-5h1l1.231 2.128c.12.207.419.207.538 0l1.231-2.128h1v5zm-.095-6.814c-2.172 0-3.932-.503-3.932-1.124 0-.62 1.761-1.124 3.932-1.124s3.932.503 3.932 1.124c0 .621-1.76 1.124-3.932 1.124zm5.095 8.285c0 .292-.237.529-.529.529h-3.471v-1h3v-1h-2.471c-.292 0-.529-.237-.529-.529v-2.471h1v2h2v-2h1v4.471z" id="iconBg"/><path class="icon-vs-fg" d="M8 6v5h-1v-3.293l-1.217 2.672c-.111.243-.455.243-.566 0l-1.217-2.672v3.293h-1v-5h1l1.231 2.128c.12.207.419.207.538 0l1.231-2.128h1zm4 2v2h-2v-2h-1v2.471c0 .292.237.529.529.529h2.471v1h-3v1h3.471c.292 0 .529-.237.529-.529v-4.471h-1zm-.163-4.938c0-.62-1.761-1.124-3.932-1.124s-3.933.504-3.933 1.124c0 .621 1.761 1.124 3.932 1.124s3.933-.503 3.933-1.124z" id="iconFg"/></svg>