<svg xmlns="http://www.w3.org/2000/svg" width="16" height="16"><style type="text/css">.icon-canvas-transparent{opacity:0;fill:#F6F6F6;} .icon-vs-out{fill:#F6F6F6;} .icon-vs-bg{fill:#424242;} .icon-vs-fg{fill:#F0EFF1;}</style><path class="icon-canvas-transparent" d="M16 16h-16v-16h16v16z" id="canvas"/><path class="icon-vs-out" d="M16 12h-7v4h-9v-7h2c-.65-.637-1-1.519-1-2.5 0-1.762 1.306-3.205 3-3.449v-3.051h12v12z" id="outline"/><path class="icon-vs-bg" d="M2 6.5c0-1.381 1.119-2.5 2.5-2.5 1.379 0 2.5 1.119 2.5 2.5s-1.121 2.5-2.5 2.5c-1.381 0-2.5-1.119-2.5-2.5zm2.5 5.5l-1.5-2h-2v5h7v-5h-2l-1.5 2zm.5-11v2.05c.354.052.689.151 1 .3v-1.35h8v8h-5v1h6v-10h-10z" id="iconBg"/><path class="icon-vs-fg" d="M14 2v8h-5v-1h-2.074c.658-.633 1.074-1.514 1.074-2.5 0-1.394-.821-2.587-2-3.15v-1.35h8z" id="iconFg"/></svg>