<svg xmlns="http://www.w3.org/2000/svg" width="16" height="16"><style type="text/css">.icon-canvas-transparent{opacity:0;fill:#F6F6F6;} .icon-vs-out{fill:#F6F6F6;} .icon-vs-bg{fill:#424242;} .icon-vs-fg{fill:#F0EFF1;}</style><path class="icon-canvas-transparent" d="M16 16h-16v-16h16v16z" id="canvas"/><path class="icon-vs-out" d="M16 8c0 4.418-3.582 8-8 8s-8-3.582-8-8 3.582-8 8-8 8 3.582 8 8z" id="outline"/><path class="icon-vs-bg" d="M8 1c-3.866 0-7 3.134-7 7s3.134 7 7 7 7-3.134 7-7-3.134-7-7-7zm-.022 12.523c-3.085 0-5.588-2.501-5.588-5.588 0-3.086 2.503-5.588 5.588-5.588 3.087 0 5.588 2.502 5.588 5.588 0 3.088-2.501 5.588-5.588 5.588zm.022-5.523h3v1h-4v-5h1v4z" id="iconBg"/><path class="icon-vs-fg" d="M7.978 2.347c-3.085 0-5.588 2.502-5.588 5.588 0 3.087 2.503 5.588 5.588 5.588 3.087 0 5.588-2.501 5.588-5.588 0-3.086-2.501-5.588-5.588-5.588zm3.022 6.653h-4v-5h1v4h3v1z" id="iconFg"/></svg>