<svg xmlns="http://www.w3.org/2000/svg" width="16" height="16"><style type="text/css">.icon-canvas-transparent{opacity:0;fill:#F6F6F6;} .icon-white{fill:#FFFFFF;}</style><path class="icon-canvas-transparent" d="M16 16h-16v-16h16v16z" id="canvas"/><g id="iconBg"><path class="icon-white" d="M8 1c-3.866 0-7 3.134-7 7s3.134 7 7 7 7-3.134 7-7-3.134-7-7-7zm-.022 12.523c-3.085 0-5.588-2.501-5.588-5.588 0-3.086 2.503-5.588 5.588-5.588 3.087 0 5.588 2.502 5.588 5.588 0 3.088-2.501 5.588-5.588 5.588zm.022-5.523h3v1h-4v-5h1v4z"/></g></svg>