<svg xmlns="http://www.w3.org/2000/svg" width="16" height="16"><style type="text/css">.icon-canvas-transparent{opacity:0;fill:#F6F6F6;} .icon-vs-out{fill:#F6F6F6;} .icon-vs-bg{fill:#424242;} .icon-vs-fg{fill:#F0EFF1;}</style><path class="icon-canvas-transparent" d="M16 16h-16v-16h16v16z" id="canvas"/><path class="icon-vs-out" d="M16 14h-6.019l-2.001 2h-.783l-2.002-2h-5.195v-14h16v14z" id="outline"/><path class="icon-vs-bg" d="M3 13h-2v-2.588l1 .996v.592h.595l.224.223.181-.182v.959zm-2-12v6.589l1-1v-2.589h12v8h-3.947l.966.963-.038.037h4.019v-12h-14zm7.215 10.578l-.42.422h-2.795v-2h1.529l-.332.33 1.388 1.385 2.015-2.014-1.389-1.384-.682.684h-2.901l1.185-1.188-1.812-1.812-3.001 3 1.818 1.812 1.182-1.176v3.363h2.796l-.595.592 1.388 1.387 2.015-2.014-1.389-1.387z" id="iconBg"/><path class="icon-vs-fg" d="M14 4v8h-3.947l-.67-.668 1.632-1.633-2.806-2.798-.944.948-3.263-3.263-2.002 2.002v-2.588h12zm-12 7.408v.592h.595l-.595-.592z" id="iconFg"/></svg>