<svg xmlns="http://www.w3.org/2000/svg" width="16" height="16"><style type="text/css">.icon-canvas-transparent{opacity:0;fill:#F6F6F6;} .icon-vs-out{fill:#F6F6F6;} .icon-vs-fg{fill:#F0EFF1;} .icon-vs-blue{fill:#1BA1E2;} .graph-frame-lime{fill:#9ECA00;}</style><path class="icon-canvas-transparent" d="M16 16h-16v-16h16v16z" id="canvas"/><path class="icon-vs-out" d="M15 6.14v7.556c0 1.356-1.74 2.166-4.54 2.166-.585 0-1.489-.011-1.489-.011l-2.497-.041c-2.665-.044-5.474-.759-5.474-2.632v-10.536c0-1.917 3.078-2.598 5.747-2.598 2.792 0 6.253.681 6.253 2.598v1.626c1.356.329 2 .974 2 1.872z" id="outline"/><g id="iconBg"><path class="icon-vs-blue" d="M6 13.736c0 .415.181.771.489 1.073-2.666-.044-4.489-.753-4.489-1.632v-10.177c.313 1.328 3.147 1.506 5.023 1.506l.478-.006c-.95.388-1.501.991-1.501 1.766v7.47zm7.999-7.381c-.186.66-.78 1.129-1.376 1.355l-1.395 2.29h1.67l-3.848 4.191-.965-.013 1.889-3.159-1.998-.032 3.272-3.056c-.264.018-.522.028-.749.028-1.306.001-3.124-.063-3.499-1.601v7.378c0 .604 1.386 1.125 3.459 1.125 2.073 0 3.541-.518 3.541-1.166l-.001-7.34z"/><path class="graph-frame-lime" d="M2.958 2.642c0-.55 1.8-1 4-1s3.95.45 3.95 1-1.8 1-3.95 1c-2.15 0-4-.45-4-1zm7.542 4.358c-1.496 0-2.75-.375-2.75-.75 0-.429 1.254-.75 2.75-.75s2.75.375 2.75.75-1.303.75-2.75.75z"/></g><path class="icon-vs-fg" d="M8.086 14.171l1.889-3.171h-1.998l3.223-3.1 1.423-.19-1.395 2.29h1.67l-3.848 4.177-.964-.006z" id="iconFg"/></svg>