<svg xmlns="http://www.w3.org/2000/svg" width="32" height="96"><style type="text/css">.icon-canvas-transparent{opacity:0;fill:#F6F6F6;} .icon-white{fill:#FFFFFF;} .icon-f12-blue-hover{fill:#2279BF;} .icon-f12-ltgrey-disabled{fill:#ABABAC;}</style><path class="icon-canvas-transparent" d="M32 96h-32v-96h32v96z" id="canvas"/><g id="iconBg"><path class="icon-white" d="M24 18v-11h-10v-5h-12v12h6v9h10v7h12v-12h-6zm-20-6v-8h8v3h-4v5h-4zm24 16h-8v-5h4v-3h4v8z"/><path class="icon-f12-blue-hover" d="M24 50v-11h-10v-5h-12v12h6v9h10v7h12v-12h-6zm-20-6v-8h8v3h-4v5h-4zm24 16h-8v-5h4v-3h4v8z"/><path class="icon-f12-ltgrey-disabled" d="M24 82v-11h-10v-5h-12v12h6v9h10v7h12v-12h-6zm-20-6v-8h8v3h-4v5h-4zm24 16h-8v-5h4v-3h4v8z"/></g></svg>