<svg xmlns="http://www.w3.org/2000/svg" width="16" height="16"><style type="text/css">.icon-canvas-transparent{opacity:0;fill:#F6F6F6;} .icon-white{fill:#FFFFFF;} .icon-vso-bg{fill:#656565;}</style><path class="icon-canvas-transparent" d="M16 16h-16v-16h16v16z" id="canvas"/><path class="icon-white" d="M15 1v14h-14v-14h14z" id="outline"/><path class="icon-vso-bg" d="M2 2v12h12v-12h-12zm11 11h-10v-10h10v10z" id="iconBg"/><path class="icon-white" d="M3 3v10h10v-10h-10zm9 6h-3v3h-2v-3h-3v-2h3v-3h2v3h3v2z" id="iconFg"/><path class="icon-vso-bg" d="M12 9h-3v3h-2v-3h-3v-2h3v-3h2v3h3v2z" id="colorAction"/></svg>