<svg xmlns="http://www.w3.org/2000/svg" width="16" height="16"><style type="text/css">.icon-canvas-transparent{opacity:0;fill:#F6F6F6;} .icon-vs-out{fill:#F6F6F6;} .icon-vs-action-orange{fill:#C27D1A;} .icon-vs-action-red{fill:#A1260D;}</style><path class="icon-canvas-transparent" d="M16 16h-16v-16h16v16z" id="canvas"/><path class="icon-vs-out" d="M16 16h-1.689l-1.897-1.696-.977 1.172c-.31.344-.731.524-1.179.524-.431 0-.847-.163-1.14-.448-.304-.296-.48-.71-.481-1.135-.001-.426.168-.828.476-1.133l1.08-.966-1.044-.934c-.138-.135-.239-.281-.321-.434l-.797.511-1.428-1.428h-2.586v-3.585l-1.5 1.5-2.517-2.517v-1.794l3.637-3.637h.76l3.034 3.034h.172l1.415-1.414 2.914 2.914-1.5 1.5 2.5 2.5-1.1 1.101.582.698 1.897-1.696h1.689v1.362l-1.933 2.319 1.933 2.32v1.362z" id="outline"/><path class="icon-vs-action-orange" d="M11.518 8.487l-.371.372c-.255-.171-.563-.269-.889-.269-.432 0-.847.163-1.14.448-.304.296-.48.71-.481 1.135 0 .184.037.362.101.535l-1.22-1.214.5-.494h-3.018v-4h-.983l-1.5 1.494-2-2.003 3.5-3.502 2 2.006-1 1.005h3l1-1.006 1.5 1.497-2.5 2.498-1.5-1.494.501-.495h-1.018v3h3.018l1-1.006 1.5 1.493z" id="iconBg"/><path class="icon-vs-action-red" d="M11.693 12.318l-1.878 1.679c-.259.255-.216.628 0 .838.21.204.641.235.853 0l1.64-1.967 2.385 2.132h.307l-2.234-2.682 2.234-2.681h-.307l-2.385 2.132-1.64-1.967c-.213-.234-.643-.204-.853 0-.216.21-.259.583 0 .838l1.878 1.678z" id="notificationBg"/></svg>