<svg xmlns="http://www.w3.org/2000/svg" viewBox="0 0 16 16" enable-background="new 0 0 16 16"><style type="text/css">.icon-canvas-transparent{opacity:0;fill:#F6F6F6;} .icon-white{fill:#FFFFFF;}</style><path class="icon-canvas-transparent" d="M16 16h-16v-16h16v16z" id="canvas"/><g id="iconBg"><path class="icon-white" d="M14.969 10.025c0 1.578-1.21 2.5-2.011 2.5h-6.646c-1.018 0-1.885-.635-2.243-1.525h4.049c.875.771 3.024.781 3.298-1.13.247-1.283-.734-2.409-1.973-2.409-.509 0-.989.205-1.353.539h-2.958c.316-.177.669-.305 1.052-.325.201-1.425 1.509-2.527 3.097-2.527 1.302 0 2.418.74 2.888 1.793 1.54.015 2.8 1.356 2.8 3.084zm-5.527-1.485c-.381 0-.729.147-.9.46h-5.64s-.361-.157-.492-.314c-.344-.288-.561-.692-.561-1.143 0-.872.802-1.578 1.791-1.578.262 0 .51.052.734.142l-.011-.104c0-.898.802-1.626 1.791-1.626.533 0 1.007.216 1.335.552.255-.13.526-.259.799-.36-.494-.593-1.261-1.021-2.134-1.021-1.209 0-2.221.778-2.566 1.79l-.231-.023c-1.319 0-2.388 1.069-2.388 2.388 0 1.32 1.164 2.297 2.483 2.297h5.122c.174.299.497.552.868.552.556 0 1.006-.45 1.006-1.006s-.45-1.006-1.006-1.006z"/></g></svg>