<svg xmlns="http://www.w3.org/2000/svg" width="16" height="16"><style type="text/css">.icon-canvas-transparent{opacity:0;fill:#F6F6F6;} .icon-vs-out{fill:#F6F6F6;} .icon-vs-bg{fill:#424242;}</style><path class="icon-canvas-transparent" d="M16 16h-16v-16h16v16z" id="canvas"/><path class="icon-vs-out" d="M8.044 10.452l3.965 3.952 3.991-4.008-.012-5.831-2.115 2.126c-.614-3.235-3.466-5.691-6.888-5.691-1.869.003-3.625.735-4.944 2.06-1.32 1.325-2.044 3.084-2.041 4.953.004 2.433 1.247 4.653 3.324 5.937l.67.414 3.072-3.042-.74-.34.176.018c.585 0 1.116-.21 1.542-.548zm-3.171-4.57c.565-.568 1.318-.881 2.126-.882.348 0 .682.06.994.169l.002 1.338c-.418-.314-.931-.507-1.493-.507-1.313 0-2.381 1.021-2.48 2.311l-.023-.306c-.002-.801.309-1.555.874-2.123z" id="outline"/><path class="icon-vs-bg" d="M7.999 8.5c0 .828-.672 1.5-1.5 1.5s-1.5-.672-1.5-1.5.672-1.5 1.5-1.5 1.5.672 1.5 1.5zm-2.666 3.128c-1.375-.631-2.335-2.009-2.338-3.62-.005-2.21 1.783-4.005 3.992-4.008 2.209-.004 4.004 1.783 4.008 3.992l.002 1-1.998-1.992v3l3.006 2.99 2.994-3.006v-2.984l-2.002 1.988-.002-1c-.006-3.314-2.698-5.995-6.011-5.988-3.314.006-5.995 2.698-5.989 6.011.004 2.153 1.146 4.034 2.852 5.088l1.486-1.471z" id="iconBg"/></svg>