<svg xmlns="http://www.w3.org/2000/svg" width="32" height="32"><style type="text/css">.icon-canvas-transparent{opacity:0;fill:#F6F6F6;} .icon-white{fill:#FFFFFF;}</style><path class="icon-canvas-transparent" d="M32 32h-32v-32h32v32z" id="canvas"/><path class="icon-white" d="M16 3c-7.18 0-13 5.82-13 13s5.82 13 13 13 13-5.82 13-13-5.82-13-13-13zm0 24c-6.065 0-11-4.935-11-11s4.935-11 11-11 11 4.935 11 11-4.935 11-11 11zm1-13v-6h-2v6l-2-2v2l3 3 3-3v-2l-2 2zm6 6v-10h-5v2h3v6h-10v-6h3v-2h-5v10h5v2h-3v2h10v-2h-3v-2h5z" id="iconBg"/></svg>