<?xml version="1.0" encoding="utf-8"?>
<!-- Generator: Adobe Illustrator 18.1.1, SVG Export Plug-In . SVG Version: 6.00 Build 0)  -->
<!DOCTYPE svg PUBLIC "-//W3C//DTD SVG 1.1//EN" "http://www.w3.org/Graphics/SVG/1.1/DTD/svg11.dtd">
<svg version="1.1" xmlns="http://www.w3.org/2000/svg" xmlns:xlink="http://www.w3.org/1999/xlink" x="0px" y="0px" width="64px"
	 height="64px" viewBox="0 0 64 64" style="enable-background:new 0 0 64 64;" xml:space="preserve">
<style type="text/css">
	.icon-canvas-transparent{opacity:0;fill:#F6F6F6;}
	.icon-white{fill:#FFFFFF;}
</style>
<g id="canvas">
	<path class="icon-canvas-transparent" d="M64,64H0V0h64V64z"/>
</g>
<g id="iconBg">
	<path class="icon-white" d="M32,4.5C16.813,4.5,4.5,16.813,4.5,32c0,15.189,12.313,27.5,27.5,27.5S59.5,47.188,59.5,32
		C59.5,16.813,47.188,4.5,32,4.5z M56.75,32c0,6.035-2.174,11.569-5.776,15.869l-35.37-34.387C19.974,9.609,25.715,7.25,32,7.25
		C45.647,7.25,56.75,18.353,56.75,32z M7.25,32c0-6.285,2.359-12.027,6.233-16.396l35.428,34.443
		C44.483,54.199,38.535,56.75,32,56.75C18.353,56.75,7.25,45.647,7.25,32z M51.5,34.5v4h-2v-2h-8h-1L27.5,23.5v-1v-8h-2v-2h4
		c1.104,0,2,0.896,2,2v8l2.091,2.091C34.02,22.265,36.05,20.5,38.5,20.5c0.343,0,0.677,0.035,1,0.101v-6.1h2v7.022
		c0.37,0.28,0.698,0.608,0.978,0.978H49.5v2h-6.101c0.065,0.323,0.101,0.657,0.101,1c0,2.451-1.765,4.48-4.092,4.909L41.5,32.5
		h7.995c0.002,0,0.003-0.001,0.005-0.001C50.604,32.5,51.5,33.395,51.5,34.5z M35.5,43.5v6.995c0,0.002,0,0.003,0,0.005
		c0,1.105-0.896,2-2,2h-4v-2h2v-7l-0.164-0.3c-3.474,2.88-8.188,3.106-10.916,0.38c-2.771-2.771-2.492-7.592,0.521-11.08H20.5V32.5
		h-7v2h-2v-4c0-1.104,0.896-2,2-2h8v0h4l5.002,5.002L34.8,37.8l0,0l0.7,0.7L35.5,43.5L35.5,43.5z"/>
</g>
</svg>
