<svg xmlns="http://www.w3.org/2000/svg" width="16" height="16"><style type="text/css">.icon-canvas-transparent{opacity:0;fill:#F6F6F6;} .icon-vs-out{fill:#F6F6F6;} .icon-vs-bg{fill:#424242;} .icon-vs-fg{fill:#F0EFF1;}</style><path class="icon-canvas-transparent" d="M16 16h-16v-16h16v16z" id="canvas"/><path class="icon-vs-out" d="M13 5c0-2.757-2.243-5-5-5s-5 2.243-5 5c0 1.766.926 3.312 2.312 4.201l-1.569 6.799h2.225l2.032-2.438 2.032 2.438h2.225l-1.568-6.799c1.385-.889 2.311-2.435 2.311-4.201z" id="outline"/><path class="icon-vs-bg" d="M12 5c0-2.21-1.792-4-4-4s-4 1.79-4 4c0 1.661 1.015 3.085 2.456 3.688l-1.456 6.312h.5l2.5-3 2.5 3h.5l-1.456-6.312c1.441-.603 2.456-2.027 2.456-3.688zm-4 1.999c-1.104 0-2-.896-2-2s.896-2 2-2 2 .896 2 2c0 1.105-.896 2-2 2z" id="iconBg"/><path class="icon-vs-fg" d="M10 4.999c0 1.104-.896 2-2 2s-2-.896-2-2 .896-2 2-2 2 .896 2 2z" id="iconFg"/></svg>