<svg xmlns="http://www.w3.org/2000/svg" width="16" height="16"><style type="text/css">.icon-canvas-transparent{opacity:0;fill:#F6F6F6;} .icon-vs-out{fill:#F6F6F6;} .icon-vs-bg{fill:#424242;} .icon-vs-blue{fill:#1BA1E2;} .icon-f12-hover-bg{fill:#D9EBF7;} .icon-f12-pressed-bg{fill:#B2D7F0;} .icon-white{fill:#FFFFFF;}</style><path class="icon-canvas-transparent" d="M16 16h-16v-16h16v16z" id="canvas"/><path class="icon-vs-out" d="M16 3v11h-3v2h-8v-2h-3v-3h-2v-11h14v3h2z" id="outline"/><path class="icon-vs-bg" d="M15 13v-9h-12v9h5v1h-2v1h6v-1h-2v-1h5zm-11-1v-7h10v7h-10zm-2-2h-1v-9h12v2h-1v-1h-10v8z" id="iconBg"/><path class="icon-vs-blue" d="M12 3h-10v-1h10v1zm2 9v-7h-10v7h10z" id="iconFg"/><g id="colorImportance"><path class="icon-white" d="M11.728 6.694l-2.728 1.445-2.728-1.445 2.728-1.444 2.728 1.444z"/><polygon class="icon-f12-hover-bg" points="6.111,10.065 8.762,11.75 8.759,8.62 6.111,7.176"/><polygon class="icon-f12-pressed-bg" points="9.246,8.62 9.241,11.75 11.889,10.065 11.889,7.176"/></g></svg>