<svg xmlns="http://www.w3.org/2000/svg" width="16" height="16"><style type="text/css">.icon-canvas-transparent{opacity:0;fill:#F6F6F6;} .icon-vs-out{fill:#F6F6F6;} .icon-vs-bg{fill:#424242;} .icon-vs-fg{fill:#F0EFF1;}</style><path class="icon-canvas-transparent" d="M16 16h-16v-16h16v16z" id="canvas"/><path class="icon-vs-out" d="M16 3v11h-3v2h-8v-2h-3v-3h-2v-11h14v3h2z" id="outline"/><path class="icon-vs-bg" d="M15 13v-9h-12v9h5v1h-2v1h6v-1h-2v-1h5zm-11-1v-7h10v7h-10zm-2-2h-1v-9h12v2h-1v-1h-10v8z" id="iconBg"/><path class="icon-vs-fg" d="M12 3h-10v-1h10v1zm2 9v-7h-10v7h10z" id="iconFg"/><path class="icon-vs-bg" d="M9 5l-3 1.75v3.5l3 1.75 3-1.75v-3.5l-3-1.75zm-.429 6l-1.871-1v-2.5l1.871 1v2.5zm-1.671-4.1l2.1-1.2 2.1 1.2-2.1 1.096-2.1-1.096zm4.4 3.1l-1.871 1v-2.5l1.871-1v2.5z" id="colorImportance"/></svg>