<svg xmlns="http://www.w3.org/2000/svg" width="16" height="16"><style type="text/css">.icon-canvas-transparent{opacity:0;fill:#F6F6F6;} .icon-vs-action-blue{fill:#00539C;} .icon-vs-out{fill:#F6F6F6;} .icon-vs-bg{fill:#424242;} .icon-vs-fg{fill:#F0EFF1;}</style><path class="icon-canvas-transparent" d="M16 16h-16v-16h16v16z" id="canvas"/><path class="icon-vs-out" d="M16 3v12h-16v-12.127l2.873-2.873h6l-2 2h2.127v1h7z" id="outline"/><path class="icon-vs-bg" d="M9 4v1h5v2h-6.127l1 1h5.127v2h-9v-2h-1v2h-2v-2h.873l-1.873-1.872v7.883h1v-.011h2v.01h1v-.01h9v.01h1v-10.01h-6zm-5 9h-2v-2h2v2zm10 0h-9v-2h9v2z" id="iconBg"/><path class="icon-vs-fg" d="M14 5v2h-6.127l-1-1h2.127v-1h5zm0 3h-9v2h9v-2zm-10 0h-2v2h2v-2zm0 3h-2v2h2v-2zm10 0h-9v2h9v-2z" id="iconFg"/><path class="icon-vs-action-blue" d="M8 5h-4l2 2h-2l-3-3 3-3h2l-2 2h4v2z" id="colorAction"/></svg>