<svg xmlns="http://www.w3.org/2000/svg" width="16" height="16"><style type="text/css">.icon-canvas-transparent{opacity:0;fill:#F6F6F6;} .icon-white{fill:#FFFFFF;} .icon-vs-action-blue{fill:#00539C;} .icon-vso-bg{fill:#656565;}</style><path class="icon-canvas-transparent" d="M16 16h-16v-16h16v16z" id="canvas"/><path class="icon-white" d="M16 3v12h-16v-12.1l2.9-2.9h6l-2 2h2.1v1h7z" id="outline"/><path class="icon-vso-bg" d="M9 4v1h5v2h-6.1l1 1h5.1v2h-9v-2h-1v2h-2v-2h.9l-1.9-1.9v7.9h14v-10h-6zm-5 9h-2v-2h2v2zm10 0h-9v-2h9v2z" id="iconBg"/><path class="icon-white" d="M14 5v2h-6.1l-1-1h2.1v-1h5zm0 3h-9v2h9v-2zm-10 0h-2v2h2v-2zm0 3h-2v2h2v-2zm10 0h-9v2h9v-2z" id="iconFg"/><path class="icon-vs-action-blue" d="M8 5h-4l2 2h-2l-3-3 3-3h2l-2 2h4v2z" id="colorAction"/></svg>