<svg xmlns="http://www.w3.org/2000/svg" width="16" height="16"><style type="text/css">.icon-canvas-transparent{opacity:0;fill:#F6F6F6;} .icon-vs-out{fill:#F6F6F6;} .icon-vs-bg{fill:#424242;} .st0{fill:url(#XMLID_17_);}</style><path class="icon-canvas-transparent" d="M16 16h-16v-16h16v16z" id="canvas"/><path class="icon-vs-out" d="M16 10.414l-5.586 5.586h-10.414v-10.414l5.586-5.586h.414v5.586l5.586-5.586h.828l3.586 3.586v.828l-5.586 5.586h5.586v.414z" id="outline"/><path class="icon-vs-bg" d="M15 4l-3-3-7 7v-6l-4 4v9h9l4-4h-6l7-7zm-3.414 8l-2 2h-7.586v-7.586l2-2v6l1.707-1.707 6.293-6.293 1.586 1.586-6.293 6.293-1.707 1.707h6z" id="iconBg"/><g id="iconFg"><linearGradient id="XMLID_17_" gradientUnits="userSpaceOnUse" x1="7.793" y1="14" x2="7.793" y2="2.414"><stop offset="0" stop-color="#F0EFF1"/><stop offset="1" stop-color="#424242"/></linearGradient><path class="st0" d="M12 2.414l1.586 1.586-6.293 6.293-1.707 1.707h6l-2 2h-7.586v-7.586l2-2v6l1.707-1.707 6.293-6.293"/></g></svg>