<svg xmlns="http://www.w3.org/2000/svg" width="16" height="16"><style type="text/css">.icon-canvas-transparent{opacity:0;fill:#F6F6F6;} .icon-vs-out{fill:#F6F6F6;} .icon-vs-bg{fill:#424242;}</style><path class="icon-canvas-transparent" d="M16 16h-16v-16h16v16z" id="canvas"/><path class="icon-vs-out" d="M16 0v5h-2v2h-2v2h-2v3h-.096c-.441 2.279-2.36 4-4.654 4l-.25-.026-.25.026c-.619 0-1.207-.134-1.75-.361v.361h-1.414l-1.586-1.586v-4.414h.096c.392-2.025 1.952-3.602 3.904-3.93v-.07h2v-3h-2v-3h12z" id="outline"/><path class="icon-vs-bg" d="M7 3h4v1h-4v-1zm3 4.586v.414h1v-1h-1.586l.586.586zm-1-6.586h-4v1h4v-1zm1 0v1h5v-1h-5zm2 3h3v-1h-3v1zm-5 2h6v-1h-6v1zm1 3.039c-.606-1.13-1.709-1.919-3-2.012v1c1.111.106 2.031.896 2.393 1.973h-2.393l1 1h3v-3l-1-1v2.039zm-4 1.961h-3v3l1 1v-2.039c.606 1.131 1.709 1.919 3 2.012v-1c-1.111-.106-2.031-.896-2.393-1.973h2.393l-1-1zm0-2.886v-1.021c-.548.123-1.053.367-1.487.714l.691.69c.242-.17.51-.298.796-.383zm2 5.772v1.021c.548-.123 1.053-.367 1.487-.714l-.691-.691c-.242.171-.51.299-.796.384zm-3.496-4.675l-.682-.682c-.318.429-.549.929-.685 1.471h.969c.097-.284.23-.551.398-.789zm4.992 3.578l.682.682c.318-.429.549-.929.685-1.471h-.969c-.097.284-.23.551-.398.789z" id="iconBg"/></svg>