<svg xmlns="http://www.w3.org/2000/svg" width="16" height="16"><style type="text/css">.icon-canvas-transparent{opacity:0;fill:#F6F6F6;} .icon-vs-out{fill:#F6F6F6;} .icon-vs-bg{fill:#424242;}</style><path class="icon-canvas-transparent" d="M16 16h-16v-16h16v16z" id="canvas"/><path class="icon-vs-out" d="M16 8c0 4.4-3.6 8-8 8s-8-3.6-8-8 3.6-8 8-8 8 3.6 8 8z" id="outline"/><path class="icon-vs-bg" d="M8 1c-3.9 0-7 3.1-7 7s3.1 7 7 7 7-3.1 7-7-3.1-7-7-7zm0 13c-1.6 0-3.1-.7-4.2-1.7.1-.3.3-1.1.9-2.3h.3c.5 0 .9-.2 1.3-.5.2.3.5.5.7.7v.2c0 .9.6 1.6 1.4 1.6l.6-.1c.7.4 1.6.8 2.5 1-.9.7-2.2 1.1-3.5 1.1zm-4.6-4.8c-.3.6-.5 1.1-.7 1.6-.4-.8-.7-1.8-.7-2.8 0-1.4.5-2.7 1.3-3.7.2.5.4 1.2.8 2-.7.3-1.1 1-1.1 1.7 0 .5.2.9.4 1.2zm7.2-3.2c-.5 0-.9.2-1.1.6-.4-.4-.7-.8-1-1.3.9-.7 2-1.4 3.2-2 1.4 1.1 2.3 2.8 2.3 4.7 0 .7-.1 1.4-.4 2-.8-.4-1.5-.9-2.1-1.4.3-.3.5-.7.5-1.1.1-.9-.6-1.5-1.4-1.5zm-.4-3.6c-.9.5-1.7 1.1-2.5 1.6-.4-.8-.7-1.4-.9-1.9.4-.1.8-.1 1.2-.1.8 0 1.5.2 2.2.4zm-3.3 2.3l-1.4 1.4-.4-.1c-.6-1.2-.9-2.1-1-2.6.5-.4 1.1-.7 1.8-1 .2.5.5 1.3 1 2.3zm2.9 6.4c.1-.2.1-.3.1-.5 0-.8-.6-1.4-1.4-1.4-.4 0-.7.1-.9.4-.3-.4-.5-.6-.7-.8.1-.3.1-.5.1-.8 0-.4-.1-.7-.3-1 .3-.3.7-.7 1.1-1 .4.6.9 1.2 1.5 1.8.1.5.5.9 1.1 1 .8.7 1.8 1.5 2.9 2.1-.2.4-.5.8-.8 1.1-1.1-.2-1.9-.5-2.7-.9z" id="iconBg"/></svg>