<svg xmlns="http://www.w3.org/2000/svg" width="16" height="16"><style type="text/css">.icon-canvas-transparent{opacity:0;fill:#F6F6F6;} .icon-vs-out{fill:#F6F6F6;} .icon-vs-bg{fill:#424242;}</style><path class="icon-canvas-transparent" d="M16 16h-16v-16h16v16z" id="canvas"/><path class="icon-vs-out" d="M16 3v13h-13v-8.586l-3-3v-3.414h1.414l.586.586v-1.586h4v1.586l.586-.586h1.414v3.414l-2 2v4.957l6.511-8.371h3.489z" id="outline"/><path class="icon-vs-bg" d="M4 14h1v1h-1v-1zm0-1h1v-1h-1v1zm0-2h1v-1h-1v1zm0-2h1v-1h-1v1zm2 6h1v-1h-1v1zm2 0h1v-1h-1v1zm2 0h1v-1h-1v1zm2 0h1v-1h-1v1zm2 0h1v-1h-1v1zm1-11v9h-2v-2h-3.444l-1.556 2h-2l7-9h2zm-2 5.5v-2.929l-2.277 2.929h2.277zm-9-2.5l3-3v-2l-2 2v-3h-2v3l-2-2v2l3 3z" id="iconBg"/></svg>