<svg xmlns="http://www.w3.org/2000/svg" width="16" height="16"><style type="text/css">.icon-canvas-transparent{opacity:0;fill:#F6F6F6;} .icon-vs-out{fill:#F6F6F6;} .icon-vs-fg{fill:#F0EFF1;} .icon-vs-red{fill:#E51400;}</style><path class="icon-canvas-transparent" d="M16 16h-16v-16h16v16z" id="canvas"/><path class="icon-vs-out" d="M8 16c-4.411 0-8-3.589-8-8s3.589-8 8-8 8 3.589 8 8-3.589 8-8 8z" id="outline"/><path class="icon-vs-red" d="M8 1c-3.866 0-7 3.134-7 7s3.134 7 7 7 7-3.134 7-7-3.134-7-7-7zm0 9.983l-2.5 2.517-2.5-2.517v-2l2 2.017v-6h1l.008 5.983 1.992-2v2zm3-5.983v6h-1v-6l-2 1.983v-2l2.5-2.483 2.5 2.483v2l-2-1.983z" id="iconBg"/><path class="icon-vs-fg" d="M5.517 13.5l-2.5-2.517v-2l1.983 2.017v-6h1l.017 5.983 2-2v2l-2.5 2.517zm2.5-6.517l1.983-1.983v6h1v-6l2.017 1.983v-2l-2.5-2.483-2.5 2.483v2z" id="iconFg"/></svg>