<svg xmlns="http://www.w3.org/2000/svg" viewBox="0 0 16 16" enable-background="new 0 0 16 16"><style type="text/css">.icon-canvas-transparent{opacity:0;fill:#F6F6F6;} .icon-vs-out{fill:#F6F6F6;} .icon-vs-bg{fill:#424242;}</style><path class="icon-canvas-transparent" d="M16 16h-16v-16h16v16z" id="canvas"/><path class="icon-vs-out" d="M11 15h-2.116l-.901-1.488-.92 1.488h-2.063v1h-1.297c-2.588-.025-2.789-1.851-2.789-2.409v-1.322l-.914-.042v-2.442l.914-.046v-1.312c0-.563.201-2.401 2.789-2.427h1.297v1h2v-3h-1.086l1 1h-3.828l-2.5-2.5 2.5-2.5h3.828l-1 1h4.086v6h1v-1h1.303c2.583.026 2.783 1.865 2.783 2.427v1.305l.914.041v2.441l-.907.046-.007 1.33c0 .559-.201 2.384-2.783 2.409h-1.303v-.999zm.398-1.555l.832-.017v-1.261c0-.448.102-.848.295-1.179-.192-.331-.295-.729-.295-1.176v-1.231l-.805-.015-1.639 2.467 1.612 2.412zm-6.831-.001l1.674-2.409-1.581-2.471-.875.017-.004 1.232c0 .446-.103.845-.295 1.176.192.331.295.73.295 1.179v1.261l.786.015zm3.491-4.907l.915-1.537h-1.785l.87 1.537z" id="outline"/><g id="iconBg"><path class="icon-vs-bg" d="M10.602 8l-2.016 3.035 1.98 2.965h-1.119l-1.177-1.945-.264-.457h-.024l-.275.457-1.201 1.945h-1.108l2.045-2.941-1.957-3.059h1.119l1.16 2.051.252.469h.023l1.501-2.52h1.061zm-7.102-6l1-1h-1l-1.5 1.5 1.5 1.5h1l-1-1h4.5v3h1v-4h-5.5zm.213 13c-1.199-.012-1.799-.482-1.799-1.409v-1.364c0-.612-.305-.933-.914-.964v-.527c.609-.03.914-.358.914-.982v-1.327c0-.939.6-1.415 1.799-1.427v.582c-.621.012-.932.312-.932.9v1.332c0 .636-.293 1.027-.879 1.173v.018c.586.136.879.524.879 1.164v1.314c0 .336.069.576.208.72.139.144.38.219.724.225v.572zm11.287-3.736c-.609.03-.914.352-.914.964v1.364c0 .927-.598 1.397-1.793 1.409v-.573c.34-.006.581-.082.724-.227s.214-.385.214-.718v-1.314c0-.639.291-1.027.873-1.164v-.018c-.582-.145-.873-.536-.873-1.173v-1.332c0-.588-.313-.888-.938-.9v-.582c1.195.012 1.793.488 1.793 1.427v1.327c0 .624.305.952.914.982v.528z"/></g></svg>