<svg xmlns="http://www.w3.org/2000/svg" width="16" height="16"><style type="text/css">.icon-canvas-transparent{opacity:0;fill:#F6F6F6;} .icon-vs-out{fill:#F6F6F6;} .icon-vs-bg{fill:#424242;} .icon-vs-fg{fill:#F0EFF1;} .icon-vs-action-blue{fill:#00539C;}</style><path class="icon-canvas-transparent" d="M16 16h-16v-16h16v16z" id="canvas"/><path class="icon-vs-out" d="M13.453 15.545c-.762.293-1.746.455-2.773.455-3.002 0-6.02-1.395-6.581-4.466l-1.599 2.133-2.5-3.334v-10.333h5v7.502c1.695-2.329 5.168-3.502 7.375-3.502 1.067 0 1.863.245 2.363.727.657.631.789 1.298.784 1.746-.013 1.175-.904 2.148-1.82 3.011 1.404.194 2.083 1.141 2.249 2.033.298 1.604-.799 3.374-2.498 4.028z" id="outline"/><path class="icon-vs-bg" d="M12.617 10.487s-1.904.458-.476-.917c1.213-1.168 3.333-2.75 1.903-4.124-1.428-1.375-9.047.458-9.047 5.041s5.715 5.041 8.096 4.124c2.382-.916 2.857-4.582-.476-4.124zm-6.119.513c-.276 0-.5-.224-.5-.5s.224-.5.5-.5.5.224.5.5-.223.5-.5.5zm1 2c-.276 0-.5-.224-.5-.5s.224-.5.5-.5.5.224.5.5-.223.5-.5.5zm0-4c-.276 0-.5-.224-.5-.5s.224-.5.5-.5.5.224.5.5-.223.5-.5.5zm2 5c-.276 0-.5-.224-.5-.5s.224-.5.5-.5.5.224.5.5-.223.5-.5.5zm0-6c-.276 0-.5-.224-.5-.5s.224-.5.5-.5.5.224.5.5-.223.5-.5.5z" id="iconBg"/><path class="icon-vs-fg" d="M9.998 7.5c0 .276-.224.5-.5.5s-.5-.224-.5-.5.224-.5.5-.5c.277 0 .5.224.5.5zm-2.5.5c-.276 0-.5.224-.5.5s.224.5.5.5.5-.224.5-.5-.223-.5-.5-.5zm-1 2c-.276 0-.5.224-.5.5s.224.5.5.5.5-.224.5-.5-.223-.5-.5-.5zm3 3c-.276 0-.5.224-.5.5s.224.5.5.5.5-.224.5-.5-.223-.5-.5-.5zm-2-1c-.276 0-.5.224-.5.5s.224.5.5.5.5-.224.5-.5-.223-.5-.5-.5z" id="iconFg"/><path class="icon-vs-action-blue" d="M4 3h-3v-2h3v2zm0 1h-3v5h3v-5zm-1.5 8l1.5-2h-3l1.5 2z" id="colorAction"/></svg>