<svg xmlns="http://www.w3.org/2000/svg" width="16" height="16"><style type="text/css">.icon-canvas-transparent{opacity:0;fill:#F6F6F6;} .icon-vs-out{fill:#F6F6F6;} .icon-vs-fg{fill:#F0EFF1;} .graph-yellow{fill:#FCB714;}</style><path class="icon-canvas-transparent" d="M16 16h-16v-16h16v16z" id="canvas"/><path class="icon-vs-out" d="M15.994 5.594c.061 1.462-.349 2.739-1.153 3.594-.554.589-1.247.921-1.951.936l-.107.001c-.245 0-.478-.021-.699-.057-.279.425-.697.765-1.234.857.106.352.175.759.169 1.221.188.522.039.923-.082 1.132-.279.479-.805.722-1.566.722-.653 0-1.021-.179-1.297-.497l-.076.061c-.19.153-.545.436-1.034.436-.673 0-1.07-.495-1.421-.933l-.049-.061c-.081.244-.237.506-.538.691-.222.138-.486.201-.834.201-.454 0-1.146-.112-1.604-.431-.106-.074-.318-.246-.462-.521-.119.027-.238.042-.36.042-.199 0-.393-.04-.575-.119-.519-.224-.877-.624-1.008-1.128-.166-.637.045-1.363.61-2.102l.431-.573-.01-.216-.005-.002c-.659-.262-.985-.91-1.093-1.516-.219-2.466 2.019-3.13 2.336-3.212l.04-.01c0 .203.109.983.109.983s.641-.373 2.788-.956l.039-.007.005-.006.041-.011c.327-.355.602-.602.935-.705l.056-.03c.434-.633 1.401-1.43 3.011-1.43l.249.006c1.42.069 2.258 1.178 2.538 1.553l.134.075.115-.146c.25-.269.524-.367.672-.42.185-.227.479-.671 1.08-.714h.008c.452 0 1.666.252 1.792 3.292z" id="outline"/><path class="graph-yellow" d="M14.265 3.3c-.192.014-.261.319-.464.478l-.624.335c-.16.173.171.594.118 1.673-.048 1.01-.693 1.382-.693 1.382s.293-.455.356-.746c.049-.224-.095-.28-.187-.351-.196-.157-.561.259-.663.356.166-.176.425-.404.317-.591-.182-.312-.578-.095-.67-.065.083-.046.275-.116.238-.296-.065-.319-.391-.247-.455-.231.132-.06.222-.129.575-.116.201.009.164-.199.019-.381-.199-.25-.34-.34-.517-.4-.18-.06-.552-.018-.552-.018s.25-.159.393-.141c-.192-.245-.802-1.183-1.848-1.234-1.907-.093-2.48 1.148-2.48 1.148s-.353.228-.482.258c-.15.035-.443.354-.771.723l-.006.007-.027.002-.418.466c-.506.548-1.01 1.271-1.01 1.546 0 .275.275.476.432.707.159.231.217.36.217.36l.67-.797-.803 1.638s.377.497.774.441c.3-.042.973-.573 1.405-.658.431-.086.632-.014.632-.014s.305-.799.169-1.361c-.245-1.01-.062-1.541.134-1.876-.169 1.324.289 1.435.261 2.299-.023.649-.231 1.351-.231 1.351s-.633-.221-1.125.04-.903.617-1.375.612c-.492-.005-1.134-.832-1.134-.832l.351-.517s-.039-.155-.182-.333c-.215-.266-.555-.64-.573-.943-.03-.506.492-1.063.677-1.294.153-.189.551-.633.693-.791l-.08.014c-.357.063-1.569.315-2.156.965l.002-.005-.009.012-.036.033-.436.537-.019.042c-.306.372-.488.54-.741.577-.467.068-.649-.446-.649-.446s.35-.046.307-.464c-.072-.684.117-1.094.117-1.094s-.767.453-.899.945c-.132.489.196.62.196.62s.007.849.513 1.052c.291.119.541.115.709.091l-.075.448c-.015.26-.013.575.045.877-.157.216-.388.53-.679.91-.531.694-.688 1.406 0 1.703.512.221 1.126-.605 1.407-1.042l.208.322s-.058.561-.115.707c-.058.146-.261.476.072.707.333.231 1.155.317 1.342.201.187-.116.146-.448.159-.561l.317-.707c.03-.129.023-.839-.014-1.067.044.111.256.649 1.033.675.7.023.926-.354.945-.603.007.123.044.628-.023.73-.065.102-.286.162-.49.289-.201.129-.485.282-.035.839.522.649.617.689 1.051.342.332-.267.673-.532.972-.826.477.96.44 1.041 1.026 1.041.965 0 .739-.484.638-.659.079-1.087-.366-1.786-.673-2.136.179-.315.255-.567.29-.741.172.167.383.335.56.409.79.323 1.215-.658 1.34-1.008.366.157.806.272 1.344.259 1.021-.021 2.218-1.25 2.125-3.489-.076-1.841-.589-2.344-.73-2.335zm-3.718 6.061c-.708-.084-.258-1.415-.258-1.415s.304.436.917.733c-.089.194-.355.719-.659.682zm.108-2.622c-.305.238-.579.568-.579.568l.1-.23.152-.216s-.114-.039-.252-.172c-.091-.086-.125-.18-.144-.219l-.136.105-.156.127c.084-.147.308-.507.63-.721.41-.272.776-.252.623-.191l-.152.083s.136.044.249.172c.119.133.127.308.127.308l.164-.063c.141-.05.288-.061.288-.061s-.474.167-.914.51zm3.3-2.568c-.28.213-.573.226-.612.141l.019-.085s.296-.109.478-.24c.217-.162.407-.538.464-.437.058.101-.129.455-.349.621z" id="iconBg"/><g id="iconFg"><path class="icon-vs-fg" d="M11.206 8.679c-.089.195-.355.72-.659.683-.708-.084-.258-1.415-.258-1.415s.304.435.917.732zm3.098-5.13c.058.102-.129.455-.349.621-.28.213-.573.226-.612.141l.019-.085s.296-.109.478-.24c.217-.162.406-.538.464-.437zm-9.591 2.379c.153-.189.551-.633.693-.791l.029-.005.407-.04-.418.466c-.506.548-1.01 1.271-1.01 1.546 0 .275.275.476.432.707.159.231.217.36.217.36l.67-.797-.803 1.638s.377.497.774.441c.3-.042.973-.573 1.405-.658.431-.086.632-.014.632-.014s.305-.799.169-1.361c-.245-1.01-.062-1.541.134-1.876-.169 1.324.289 1.435.261 2.299-.023.649-.231 1.351-.231 1.351s-.633-.221-1.125.04-.903.617-1.375.612c-.492-.005-1.134-.832-1.134-.832l.351-.517s-.039-.155-.182-.333c-.215-.266-.555-.64-.573-.943-.03-.505.492-1.062.677-1.293zm6.277.116c.119.133.127.308.127.308l.164-.062c.141-.05.288-.061.288-.061s-.474.166-.914.51c-.305.238-.579.568-.579.568l.1-.23.152-.216s-.114-.039-.252-.172c-.091-.086-.125-.18-.144-.219l-.136.105-.156.127c.084-.147.308-.507.63-.721.41-.272.776-.252.623-.191l-.152.083s.136.043.249.171z"/></g></svg>