<svg xmlns="http://www.w3.org/2000/svg" width="16" height="16"><style type="text/css">.icon-canvas-transparent{opacity:0;fill:#F6F6F6;} .icon-vs-out{fill:#F6F6F6;} .icon-vs-bg{fill:#424242;} .icon-vs-fg{fill:#F0EFF1;}</style><path class="icon-canvas-transparent" d="M16 16h-16v-16h16v16z" id="canvas"/><path class="icon-vs-out" d="M16 16h-16v-15h16v15z" id="outline"/><path class="icon-vs-bg" d="M15 2v13h-6v-2h.43l.57-.57v1.57h4v-9h-4v1.571l-.57-.57h-.43v-4.001h6zm-3.517 7.469v.063l-2.467 2.468h-1.485l2.013-2h-2.544v5h-6v-13h6v7h2.544l-2.013-2h1.484l2.468 2.469zm-5.483-4.469h-4v9h4v-9zm-3 2h2v-1h-2v1zm0 2h2v-1h-2v1zm0 2h2v-1h-2v1zm0 2h2v-1h-2v1zm8-6h2v-1h-2v1zm0 6h2v-1h-2v1zm1.429-4h.571v-1h-1.571l1 1zm-.239 1.238l-.761.762h1.571v-1h-.613l-.197.238z" id="iconBg"/><path class="icon-vs-fg" d="M2 5v9h4v-9h-4zm3 8h-2v-1h2v1zm0-2h-2v-1h2v1zm0-2h-2v-1h2v1zm0-2h-2v-1h2v1zm5-2v1.569l1.434 1.431h1.566v1h-.594v1h.594v1h-1.571l.641-.641h-.037l-2.033 2.058v1.583h4v-9h-4zm3 8h-2v-1h2v1zm0-6h-2v-1h2v1z" id="iconFg"/></svg>