<svg xmlns="http://www.w3.org/2000/svg" width="16" height="16"><style type="text/css">.icon-canvas-transparent{opacity:0;fill:#F6F6F6;} .icon-vs-out{fill:#F6F6F6;} .icon-vs-bg{fill:#424242;} .icon-vs-fg{fill:#F0EFF1;} .icon-vs-action-green{fill:#388A34;}</style><path class="icon-canvas-transparent" d="M16 16h-16v-16h16v16z" id="canvas"/><path class="icon-vs-out" d="M11 3c-1.149 0-2.174.217-3 .579v-1.561h-2v-2.018h-3.981v2.018h-2.019v3.982h2.019v2h3.981v1h-6v7h9v-1.233c.606.15 1.28.233 2 .233 2.851 0 5-1.289 5-3v-6c0-1.71-2.149-3-5-3z" id="outline"/><path class="icon-vs-bg" d="M1 15h7v-5h-7v5zm1-4h5v3h-5v-3zm9-7c-2.209 0-4 .896-4 2v3h2v4.723c.591.171 1.268.277 2 .277 2.209 0 4-.896 4-2v-6c0-1.104-1.791-2-4-2zm0 3.325c-1.999 0-3.325-.798-3.325-1.325s1.326-1.325 3.325-1.325 3.325.798 3.325 1.325-1.326 1.325-3.325 1.325z" id="iconBg"/><path class="icon-vs-fg" d="M2 11h5v3h-5v-3zm9-6.325c-1.999 0-3.325.798-3.325 1.325s1.326 1.325 3.325 1.325 3.325-.798 3.325-1.325-1.326-1.325-3.325-1.325z" id="iconFg"/><path class="icon-vs-action-green" d="M7 5h-2v2h-1.981v-2h-2.019v-1.982h2.019v-2.018h1.981v2.018h2v1.982z" id="colorAction"/></svg>