<svg xmlns="http://www.w3.org/2000/svg" width="32" height="96"><style type="text/css">.icon-canvas-transparent{opacity:0;fill:#F6F6F6;} .icon-f12-blue-hover{fill:#2279BF;} .icon-f12-ltgrey-disabled{fill:#ABABAC;} .icon-f12-start-positive{fill:#009E49;}</style><path class="icon-canvas-transparent" d="M32 96h-32v-96h32v96z" id="canvas"/><g id="iconBg"><path class="icon-f12-start-positive" d="M3.953 3s1.313 9.899 8.069 9.899h6.032v-6.015l11.946 11.215-12.036 10.901v-5.952s-9.542 2.067-13.983-7.205c-4.441-9.272-.028-12.843-.028-12.843z"/><path class="icon-f12-blue-hover" d="M3.953 35s1.313 9.899 8.069 9.899h6.032v-6.014l11.946 11.214-12.036 10.901v-5.952s-9.542 2.068-13.983-7.205c-4.441-9.272-.028-12.843-.028-12.843z"/><path class="icon-f12-ltgrey-disabled" d="M3.953 67s1.313 9.899 8.069 9.899h6.032v-6.014l11.946 11.214-12.036 10.901v-5.952s-9.542 2.067-13.983-7.205c-4.441-9.272-.028-12.843-.028-12.843z"/></g></svg>