<svg xmlns="http://www.w3.org/2000/svg" width="16" height="16"><style type="text/css">.icon-canvas-transparent{opacity:0;fill:#F6F6F6;} .icon-vs-out{fill:#F6F6F6;} .icon-vs-fg{fill:#F0EFF1;} .icon-vs-red{fill:#E51400;} .icon-vs-yellow{fill:#FFCC00;}</style><path class="icon-canvas-transparent" d="M16 16h-16v-16h16v16z" id="canvas"/><path class="icon-vs-out" d="M14.963 11.926l1.037 2.074-1 2h-7c-4.411 0-8-3.589-8-8s3.589-8 8-8 8 3.589 8 8c0 1.427-.38 2.764-1.037 3.926z" id="outline"/><path class="icon-vs-red" d="M7.487 14.974c-3.625-.263-6.487-3.281-6.487-6.974 0-3.866 3.134-7 7-7s7 3.134 7 7c0 1.002-.214 1.952-.593 2.814l-.622-1.245c.136-.501.215-1.025.215-1.569 0-3.309-2.691-6-6-6s-6 2.691-6 6c0 2.982 2.188 5.455 5.042 5.916l-.042.084.487.974zm3.013-7.974h.5v-.667l.708.667h.792l.5 1v-1.651l-2.5-2.349-2.5 2.349v1.436l-2 1.882v-4.667h-1v4.667l-2-1.883v1.867l2.5 2.349 2.5-2.349v-1.435l2-1.882v1.666l.5-1z" id="iconBg"/><path class="icon-vs-fg" d="M11 6.333l.708.667h-.708v-.667zm-1 1.667v-1.667l-2 1.883v1.436l-2.5 2.348-2.5-2.349v-1.867l2 1.882v-4.666h1v4.667l2-1.882v-1.436l2.5-2.349 2.5 2.349v1.651l.785 1.569c.136-.501.215-1.025.215-1.569 0-3.309-2.691-6-6-6s-6 2.691-6 6c0 2.982 2.188 5.455 5.042 5.916l2.958-5.916z" id="iconFg"/><path class="icon-vs-yellow" d="M11.891 8.016h-.781l-3.016 6 .515.984h5.766l.484-1-2.968-5.984zm.109 5.984h-1v-1h1v1zm0-2h-1v-2h1v2z" id="notificationBg"/><g id="notificationFg"><path class="icon-black" d="M12 12h-1v-2h1v2zm0 1h-1v1h1v-1z"/></g></svg>