<svg xmlns="http://www.w3.org/2000/svg" width="28" height="28"><style type="text/css">.icon-canvas-transparent{opacity:0;fill:#F6F6F6;} .icon-f12-warning{fill:#F28300;} .icon-f12-error-negative{fill:#ED1123;}</style><path class="icon-canvas-transparent" d="M28 28h-28v-28h28v28z" id="canvas"/><path class="icon-f12-error-negative" d="M9.562 27.27c-5.554-1.857-9.562-7.091-9.562-13.27 0-7.732 6.268-14 14-14s14 6.268 14 14c0 2.782-.821 5.367-2.22 7.546l-1.648-3.265c.559-1.316.868-2.763.868-4.281 0-6.065-4.935-11-11-11s-11 4.935-11 11c0 5 3.356 9.223 7.931 10.556l-1.369 2.714zm3.394-6.726l2.044-4.05v-.994l-3 3v-8.5h-3v8.5l-3-3v3l4.5 4.5 2.456-2.456zm3.044-6.032l1.772-3.512h1.228v-1.5l3 3v-3l-4.5-4.5-4.5 4.5v3l3-3v5.012z" id="iconBg"/><path class="icon-f12-warning" d="M19.859 13h-1.505l-7.124 14.283.716.717h14.337l.717-.717-7.141-14.283zm.141 14h-2v-2h2v2zm0-3h-2v-7h2v7z" id="notificationBg"/><path class="icon-black" d="M20 24h-2v-7h2v7zm0 1h-2v2h2v-2z" id="notificationFg"/></svg>