<svg xmlns="http://www.w3.org/2000/svg" width="36" height="108"><style type="text/css">.icon-canvas-transparent{opacity:0;fill:#F6F6F6;} .icon-f12-grey-primary{fill:#555555;} .icon-f12-blue-hover{fill:#2279BF;} .icon-f12-ltgrey-disabled{fill:#ABABAC;}</style><path class="icon-canvas-transparent" d="M36 108h-36v-108h36v108z" id="canvas"/><g id="iconBg"><path class="icon-f12-grey-primary" d="M32 5v4h-12.033l1.921-4h10.112zm-12 8v4h10v-4h-10zm-9 18h13v-4h-13v4zm4-7h17v-4h-17v4z"/><path class="icon-f12-blue-hover" d="M32 41v4h-12.033l1.921-4h10.112zm-12 8v4h10v-4h-10zm-9 18h13v-4h-13v4zm4-7h17v-4h-17v4z"/><path class="icon-f12-ltgrey-disabled" d="M32 77v4h-12.033l1.921-4h10.112zm-12 8v4h10v-4h-10zm-9 18h13v-4h-13v4zm4-7h17v-4h-17v4z"/></g><g id="colorAction"><path class="icon-f12-blue-hover" d="M15.527 5l-5.764 11.526-1.921-3.526h-3.842l4.104 7h3.842l7.422-15h-3.841z"/><path class="icon-f12-blue-hover" d="M15.527 41l-5.764 11.525-1.921-3.525h-3.842l4.104 7h3.842l7.422-15h-3.841z"/><path class="icon-f12-ltgrey-disabled" d="M15.527 77l-5.764 11.525-1.921-3.525h-3.842l4.104 7h3.842l7.422-15h-3.841z"/></g></svg>