<svg xmlns="http://www.w3.org/2000/svg" width="16" height="16"><style type="text/css">.icon-canvas-transparent{opacity:0;fill:#F6F6F6;} .icon-vs-out{fill:#F6F6F6;} .icon-vs-bg{fill:#424242;} .icon-vs-fg{fill:#F0EFF1;} .icon-cpp-purple{fill:#9B4F96;}</style><path class="icon-canvas-transparent" d="M16 16h-16v-16h16v16z" id="canvas"/><path class="icon-vs-out" d="M16 3v6c0 1.711-2.149 3-5 3-1.149 0-2.174-.217-3-.579v4.579h-8v-11h6v-2c0-1.711 2.149-3 5-3s5 1.289 5 3z" id="outline"/><path class="icon-vs-bg" d="M11 1c-2.209 0-4 .896-4 2v2h1v5.311c.733.418 1.799.689 3 .689 2.209 0 4-.896 4-2v-6c0-1.104-1.791-2-4-2zm0 3.325c-1.999 0-3.325-.798-3.325-1.325s1.326-1.325 3.325-1.325 3.325.798 3.325 1.325-1.326 1.325-3.325 1.325z" id="iconBg"/><path class="icon-vs-fg" d="M5 13h1v1h-1v-1zm1-6h-4v1h4v-1zm0 2h-4v1h4v-1zm5-7.325c-1.999 0-3.325.798-3.325 1.325s1.326 1.325 3.325 1.325 3.325-.798 3.325-1.325-1.326-1.325-3.325-1.325z" id="iconFg"/><g id="colorImportance"><path class="icon-cpp-purple" d="M1 15h6v-9h-6v9zm5-1h-1v-1h1v1zm-4-7h4v1h-4v-1zm0 2h4v1h-4v-1z"/></g></svg>