<svg xmlns="http://www.w3.org/2000/svg" width="16" height="16"><style type="text/css">.icon-canvas-transparent{opacity:0;fill:#F6F6F6;} .icon-vs-out{fill:#F6F6F6;} .icon-vs-bg{fill:#424242;} .icon-vs-fg{fill:#F0EFF1;} .icon-folder{fill:#DCB67A;}</style><path class="icon-canvas-transparent" d="M16 16h-16v-16h16v16z" id="canvas"/><path class="icon-vs-out" d="M15 13h-5.923l.34.436-.476.614c-.258.332-.557.632-.89.891l-.614.477-.896-.698-.141 1.122-.77.1c-.271.037-.446.058-.63.058s-.359-.021-.535-.046l-.77-.099-.191-.782-.045-.354-.896.698-.615-.477c-.333-.259-.632-.559-.89-.891l-.475-.614.417-.534v-.396l-.842-.105-.1-.769c-.037-.269-.058-.446-.058-.631 0-.182.021-.356.045-.533l.1-.769.782-.194.073-.009v-.395l-.416-.535.416-.538v-5.027s0-1 1-1h3.382l1-2h9.618v12.012c0 .648-1 .988-1 .988z" id="outline"/><g id="iconBg"><path class="icon-folder" d="M7,1L6,3H3c0,0-1,0-1,1s0,3.02,0,3.02l0.563-0.437l0.896,0.699L3.6,6.158l0.77-0.099C4.641,6.021,4.816,6,5,6s0.359,0.021,0.535,0.047l0.77,0.099l0.191,0.782l0.045,0.354l0.896-0.699l0.614,0.478c0.333,0.258,0.632,0.559,0.89,0.891l0.476,0.614L8.719,9.46L9.843,9.6l0.099,0.769C9.979,10.644,10,10.818,10,11c0,0.185-0.021,0.362-0.046,0.538L9.895,12c0,0,3.105,0,4.105,0s1-1,1-1V1H7z M7.5,3L8,2h6v1H7.5z M11.8,10h-1.04L9,7l1.301,0.008l0.985,1.789L13.334,5l1.167,0L11.8,10z"/><path class="icon-vs-bg" d="M6 11c0 .553-.447 1-1 1s-1-.447-1-1 .447-1 1-1 1 .447 1 1zm1.714.658c-.069.285-.183.551-.331.795l.768.984c-.207.268-.445.506-.712.713l-.985-.768c-.244.148-.51.262-.795.332l-.154 1.234c-.168.023-.332.052-.505.052l-.504-.051-.154-1.234c-.285-.07-.551-.184-.795-.332l-.985.767c-.267-.207-.505-.445-.712-.713l.768-.984c-.148-.244-.262-.51-.331-.795l-1.235-.154c-.023-.166-.052-.33-.052-.504 0-.172.029-.336.051-.504l1.235-.154c.069-.285.183-.551.331-.795l-.767-.984c.207-.268.445-.506.712-.713l.985.768c.244-.148.51-.262.795-.33l.154-1.236c.167-.023.331-.052.504-.052l.504.051.154 1.236c.285.068.551.182.795.33l.985-.767c.267.207.505.445.712.713l-.767.984c.148.244.262.51.331.795l1.235.154c.022.168.051.332.051.504 0 .174-.029.338-.051.504l-1.235.154zm-.714-.658c0-1.104-.893-2-2-2s-2 .896-2 2 .893 2 2 2 2-.896 2-2z"/></g><path class="icon-vs-fg" d="M14 2v1h-6.5l.5-1h6zm-7 9c0 1.106-.896 2-2 2s-2-.894-2-2c0-1.104.896-2 2-2s2 .896 2 2zm-1 0c0-.553-.447-1-1-1s-1 .447-1 1 .447 1 1 1 1-.447 1-1zm8.501-6h-1.167l-2.048 3.796-.985-1.789-1.301-.007 1.76 3h1.04l2.701-5z" id="iconFg"/></svg>