<?xml version="1.0" encoding="utf-8"?>
<!-- Generator: Adobe Illustrator 18.1.1, SVG Export Plug-In . SVG Version: 6.00 Build 0)  -->
<!DOCTYPE svg PUBLIC "-//W3C//DTD SVG 1.1//EN" "http://www.w3.org/Graphics/SVG/1.1/DTD/svg11.dtd">
<svg version="1.1" xmlns="http://www.w3.org/2000/svg" xmlns:xlink="http://www.w3.org/1999/xlink" x="0px" y="0px" width="64px"
	 height="64px" viewBox="0 0 64 64" style="enable-background:new 0 0 64 64;" xml:space="preserve">
<style type="text/css">
	.icon-canvas-transparent{opacity:0;fill:#F6F6F6;}
	.icon-white{fill:#FFFFFF;}
</style>
<g id="canvas">
	<path class="icon-canvas-transparent" d="M64,64H0V0h64V64z"/>
</g>
<g id="iconBg">
	<path class="icon-white" d="M31,46V36h-4v10H17v12h44V46H31z M41,54h-4v-4h4V54z M49,54h-4v-4h4V54z M57,54h-4v-4h4V54z
		 M34.653,33.721c-1.092-2.412-3.507-3.971-6.153-3.971c-2.577,0-4.924,1.484-6.054,3.788l-2.734-2.278
		c1.835-3.07,5.161-5.01,8.789-5.01c3.848,0,7.354,2.184,9.1,5.583L34.653,33.721z M28.5,20.65c-5.307,0-10.175,2.606-13.134,6.988
		l-3.087-2.573c3.724-5.286,9.71-8.415,16.221-8.415c6.727,0,12.891,3.341,16.581,8.95l-2.336,1.946l-0.823,0.519
		C38.996,23.422,33.979,20.65,28.5,20.65z M28.462,11.359c-8.071,0-15.647,3.577-20.786,9.814L4.59,18.629
		c5.901-7.162,14.602-11.27,23.873-11.27c9.529,0,18.468,4.387,24.315,11.827l-3.072,2.56
		C44.616,15.212,36.797,11.359,28.462,11.359z"/>
</g>
</svg>
