<svg xmlns="http://www.w3.org/2000/svg" width="16" height="16"><style type="text/css">.icon-canvas-transparent{opacity:0;fill:#F6F6F6;} .icon-vs-out{fill:#F6F6F6;} .icon-vs-bg{fill:#424242;} .icon-vs-fg{fill:#F0EFF1;}</style><path class="icon-canvas-transparent" d="M16 16h-16v-16h16v16z" id="canvas"/><path class="icon-vs-out" d="M16 15h-8.984l.178 1h-2.08l-.723-1h-.391v-.446l-.965 1.446h-2.074s.648-4.269.793-5.235c-1.07-.736-1.754-1.928-1.754-3.265 0-2.206 1.795-4 4-4v-3.5h12v15z" id="outline"/><path class="icon-vs-bg" d="M7 7.5c0-1.657-1.344-3-3-3s-3 1.343-3 3c0 1.246.76 2.313 1.842 2.767l-.717 4.733h.375l1.5-2.5 1.625 2.5h.375l-.842-4.733c1.08-.454 1.842-1.521 1.842-2.767zm-3 1.499c-.828 0-1.5-.671-1.5-1.5 0-.828.672-1.5 1.5-1.5s1.5.672 1.5 1.5c0 .829-.672 1.5-1.5 1.5zm9-3.999h-4v-1h4v1zm2-4v13h-8.162l-.178-1h7.34v-11h-8v2.057c-.311-.182-.645-.323-1-.415v-2.642h10zm-7.299 5h5.299v1h-5.051c-.045-.349-.119-.686-.248-1zm-.009 3c.134-.316.229-.65.274-1h5.034v1h-5.308zm-.612 1h4.92v1h-5v-.9l.08-.1z" id="iconBg"/><path class="icon-vs-fg" d="M5.5 7.499c0 .829-.672 1.5-1.5 1.5s-1.5-.671-1.5-1.5c0-.828.672-1.5 1.5-1.5s1.5.672 1.5 1.5zm.5-5.499v2.057c.76.443 1.367 1.119 1.701 1.942h5.299v1h-5.051c.021.166.051.329.051.501 0 .17-.012.336-.033.5h5.033v1h-5.308c-.153.362-.36.697-.612 1h4.92v1h-5v-.9c-.219.245-.465.466-.74.656l.4 2.244h7.34v-11h-8zm7 3h-4v-1h4v1z" id="iconFg"/></svg>