<svg xmlns="http://www.w3.org/2000/svg" viewBox="0 0 16 16" enable-background="new 0 0 16 16"><style type="text/css">.icon-canvas-transparent{opacity:0;fill:#F6F6F6;} .icon-vs-out{fill:#F6F6F6;} .icon-vs-bg{fill:#424242;} .icon-vs-fg{fill:#F0EFF1;} .icon-vs-green{fill:#339933;}</style><path class="icon-canvas-transparent" d="M16 16h-16v-16h16v16z" id="canvas"/><path class="icon-vs-out" d="M16 7.5c0 4.136-3.364 7.5-7.5 7.5-3.054 0-5.826-1.888-6.959-4.718l-1.541-1.76v-2.518h1.169c.072-.383.17-.741.295-1.081.257-.683.566-1.261.944-1.788l.06-.081c.187-.25.367-.467.56-.673l.082-.089c.217-.225.447-.437.691-.633l.102-.077c.209-.163.425-.312.649-.452l.2-.12c1.139-.66 2.435-1.01 3.748-1.01 4.136 0 7.5 3.364 7.5 7.5z" id="outline"/><path class="icon-vs-bg" d="M11.249 5.379l-2.121 2.121 1.568 1.568-.707.707-1.568-1.568-.707-.707 2.828-2.828.707.707zm-.751-2.828c.753.225 1.797.756 2.648 2.018.538.85.854 1.853.854 2.931 0 3.033-2.467 5.5-5.5 5.5-1.58 0-2.998-.677-4.002-1.748-.207-.221-.402-.453-.571-.706l-.411.474-1.104-1.261c.317.852.815 1.612 1.435 2.253 1.179 1.22 2.821 1.988 4.653 1.988 3.454 0 6.271-2.696 6.48-6.097-.136-.629-1.093-4.434-4.482-5.352z" id="iconBg"/><path class="icon-vs-fg" d="M9.827 2.407l-.327-.023c-2.485 0-4.5 2.015-4.5 4.5l.012.117 1.988-.001-3.087 3.528c.986 1.488 2.673 2.472 4.587 2.472 3.033 0 5.5-2.467 5.5-5.5 0-1.078-.316-2.081-.854-2.93-1.153-1.712-2.666-2.084-3.319-2.163zm.869 6.661l-.707.707-1.568-1.568-.707-.707 2.828-2.828.707.707-2.121 2.121 1.568 1.568z" id="iconFg"/><g id="colorAction"><path class="icon-vs-green" d="M15 7.5l-.02.403c-.135-.629-1.093-4.434-4.481-5.352-.267-.08-.5-.123-.671-.144l-.328-.023c-2.485 0-4.5 2.015-4.5 4.5l.012.117 1.988-.001-3.087 3.528.014.018-.411.474-1.104-1.261-.001-.003-2.411-2.752 2.046-.001c.048-.603.156-1.19.356-1.737l.022-.06c.202-.533.469-1.032.796-1.488l.068-.091c.146-.197.303-.385.47-.564l.072-.078c.188-.194.387-.378.598-.547l.093-.07c.18-.139.367-.269.56-.389l.169-.103c.957-.554 2.065-.876 3.25-.876 3.59 0 6.5 2.91 6.5 6.5z"/></g></svg>