<svg xmlns="http://www.w3.org/2000/svg" width="16" height="16"><style type="text/css">.icon-canvas-transparent{opacity:0;fill:#F6F6F6;} .icon-vs-out{fill:#F6F6F6;} .icon-vs-bg{fill:#424242;}</style><path class="icon-canvas-transparent" d="M16 16h-16v-16h16v16z" id="canvas"/><path class="icon-vs-out" d="M15 7.998c0 2.394-1.486 4.002-3.699 4.002l-6.807-.002c-1.689 0-3.494-1.05-3.494-3.996 0-2.394 1.485-4.002 3.695-4.002h6.809c1.69 0 3.496 1.05 3.496 3.998z" id="outline"/><path class="icon-vs-bg" d="M5.623 8.232c.5-.501.898-.193 1.49.195.553.361 1.295.613 1.295.613l3.225.02c.5 0 .668-.563.668-1.063s-.119-1-.619-1l-1.682-1.997h1.504c1.5 0 2.496.998 2.496 2.998 0 2.002-1.199 3.002-2.699 3.002h-3.207s-.928-.604-1.949-1.443c-.604-.516-1.022-.825-.522-1.325zm4.211-1.789c-1.017-.839-1.941-1.443-1.941-1.443h-3.198c-1.496 0-2.695 1-2.695 3.002 0 1.998.996 2.996 2.494 2.996h1.199l-1.377-1.998c-.498 0-.617-.498-.617-.998s.168-1.002.666-1.002h3.214s.739.211 1.29.572c.59.389.986.696 1.486.195.501-.499.084-.808-.521-1.324z" id="iconBg"/></svg>