<svg xmlns="http://www.w3.org/2000/svg" width="16" height="16"><style type="text/css">.icon-canvas-transparent{opacity:0;fill:#F6F6F6;} .icon-white{fill:#FFFFFF;} .icon-visualstudio-online{fill:#007ACC;}</style><path class="icon-canvas-transparent" d="M0 16v-16h16v16h-16z" id="canvas"/><path class="icon-white" d="M8.002 15c-2.394 0-4.002-1.486-4.002-3.699l.002-6.807c0-1.689 1.05-3.494 3.996-3.494 2.394 0 4.002 1.485 4.002 3.695v6.809c0 1.69-1.05 3.496-3.998 3.496z" id="outline"/><path class="icon-visualstudio-online" d="M7.768 5.623c.501.5.193.898-.195 1.49-.362.553-.614 1.295-.614 1.295l-.021 3.225c0 .5.563.668 1.063.668s1-.119 1-.619l1.999-1.682v1.504c0 1.5-.998 2.496-2.998 2.496-2.002 0-3.002-1.199-3.002-2.699v-3.207s.604-.928 1.443-1.949c.516-.604.825-1.022 1.325-.522zm1.789 4.211c.839-1.017 1.443-1.941 1.443-1.941v-3.198c0-1.496-1-2.695-3.002-2.695-1.998 0-2.996.996-2.996 2.494v1.199l1.998-1.377c0-.498.498-.617.998-.617s1.002.168 1.002.666v3.214s-.211.739-.572 1.29c-.389.59-.696.986-.195 1.486.499.501.808.084 1.324-.521z" id="iconBg"/></svg>