<svg xmlns="http://www.w3.org/2000/svg" width="16" height="16"><style type="text/css">.icon-canvas-transparent{opacity:0;fill:#F6F6F6;} .icon-white{fill:#FFFFFF;} .icon-vso-bg{fill:#656565;}</style><path class="icon-canvas-transparent" d="M16 16h-16v-16h16v16z" id="canvas"/><path class="icon-white" d="M11.9 4.062l-3.222-.062h-3.829c-2.212 0-3.699 1.608-3.699 4 0 2.399 1.306 3.983 3.438 3.982l7.076.063c.977 0 3.248-.54 3.248-4.15 0-.949 0-3.833-3.012-3.833z" id="outline"/><path class="icon-vso-bg" d="M10.293 7.965c-.5.5-.761.105-1.261-.394-.5-.5-1.329-.766-1.329-.766l-3.235.045c-.5 0-.619.65-.619 1.15 0 .5.119 1 .619 1h.08l.851 1.875-.753-.041c-1.5 0-2.496-.834-2.496-2.834s1.199-3 2.699-3h3.202s.292.603 1.949 1.442c.631.32.793 1.023.293 1.523zm1.574-2.904l-1.266-.041 1.214 1.875h-.15c.5 0 1 .5 1 1s-.561 1.077-1.061 1.077l-3.01.173s-.913-.322-1.413-.822c-.5-.5-.761-.893-1.261-.393-.5.5-.207 1.022.293 1.521 1 1 2.047 1.443 2.047 1.443h3.405c1.5 0 2.248-1 2.248-3s-.546-2.833-2.046-2.833z" id="iconBg"/></svg>