<svg xmlns="http://www.w3.org/2000/svg" width="16" height="16"><style type="text/css">.icon-canvas-transparent{opacity:0;fill:#F6F6F6;} .icon-vs-out{fill:#F6F6F6;} .icon-vs-bg{fill:#424242;} .icon-vs-fg{fill:#F0EFF1;}</style><path class="icon-canvas-transparent" d="M16 16h-16v-16h16v16z" id="canvas"/><path class="icon-vs-out" d="M16 15h-15v-15h15v15z" id="outline"/><path class="icon-vs-bg" d="M13 12h-3v-3h3v3zm-2-5h-1v1h1v-1zm-2 0h-1v1h1v-1zm-4 4h-1v1h1v-1zm8-4h-1v1h1v-1zm-4 2h-1v1h1v-1zm0 2h-1v1h1v-1zm-4-2h-1v1h1v-1zm2 2h-1v1h1v-1zm-2-4h-1v1h1v-1zm2 0h-1v1h1v-1zm0 2h-1v1h1v-1zm8-8v13h-13v-13h13zm-4 4l2-1.501-2-1.499v3zm-7-1.499l2 1.499v-3l-2 1.501zm10 2.499h-11v7h11v-7z" id="iconBg"/><path class="icon-vs-fg" d="M6 5l-2-1.499 2-1.501v3zm5-3v3l2-1.501-2-1.499zm3 4v7h-11v-7h11zm-4 2h1v-1h-1v1zm-5 3h-1v1h1v-1zm0-2h-1v1h1v-1zm0-2h-1v1h1v-1zm2 4h-1v1h1v-1zm0-2h-1v1h1v-1zm0-2h-1v1h1v-1zm2 4h-1v1h1v-1zm0-2h-1v1h1v-1zm0-2h-1v1h1v-1zm4 2h-3v3h3v-3zm0-2h-1v1h1v-1z" id="iconFg"/></svg>