<svg xmlns="http://www.w3.org/2000/svg" width="16" height="16"><style type="text/css">.icon-canvas-transparent{opacity:0;fill:#F6F6F6;} .icon-vs-out{fill:#F6F6F6;} .icon-vs-bg{fill:#424242;} .icon-vs-fg{fill:#F0EFF1;}</style><path class="icon-canvas-transparent" d="M16 16h-16v-16h16v16z" id="canvas"/><path class="icon-vs-out" d="M15.986 12.773c0 1.622-1.175 2.992-2.731 3.186-.03.012-.159.041-.317.041h-5.695c-1.47 0-2.701-1.035-3.097-2.441-2.118-.357-4.146-1.238-4.146-2.727v-7.996c0-1.842 2.996-2.836 5.814-2.836 2.569 0 6.186.904 6.186 2.914v4.875c1.318.117 2.417 1.092 2.723 2.4.781.6 1.263 1.564 1.263 2.584z" id="outline"/><path class="icon-vs-bg" d="M5.649 9.658c.467-1.569 1.854-2.658 3.475-2.658.669 0 1.315.201 1.876.553v-4.639c0-.976-2.568-1.914-5.186-1.914s-4.814.898-4.814 1.836v7.996c0 .707 1.329 1.356 3.006 1.686.03-1.197.662-2.279 1.643-2.86zm.272-7.836c1.81 0 3.277.419 3.277.936s-1.467.936-3.277.936-3.277-.419-3.277-.936 1.467-.936 3.277-.936zm7.883 8.963c-.072-1.126-.971-2.02-2.064-2.02-.236 0-.466.043-.682.123-.483-.551-1.172-.888-1.934-.888-1.312 0-2.404 1.019-2.607 2.349-.882.324-1.517 1.222-1.517 2.258 0 1.31.978 2.393 2.243 2.393h5.694l.193-.034c1.051-.13 1.855-1.072 1.855-2.193.001-.869-.482-1.629-1.181-1.988zm-.804 3.215h-6s-1.122-.137-1.122-1.412c0-.768.625-1.389 1.322-1.389l.31.038c-.034-.145-.042-.293-.042-.451 0-1.003.743-1.813 1.649-1.813.819 0 1.497.665 1.622 1.531.154-.444.542-.761.999-.761.591 0 1.07.527 1.07 1.181 0 .246-.067.473-.181.662l.258-.036c.608 0 1.133.545 1.133 1.216-.001 1.175-1.018 1.234-1.018 1.234z" id="iconBg"/><path class="icon-vs-fg" d="M9.111 7.001c-.368.002-.722.064-1.058.171-.058-.146-.097-.308-.097-.506v-.68c0-.384-.236-.577-.706-.577v-.619c.641 0 1.105.092 1.393.277.288.185.432.5.432.946v.759l.036.229zm-4.361 3.451v-.449c-.249 0-.429-.045-.539-.136-.11-.09-.165-.244-.165-.461v-.679c0-.541-.226-.881-.678-1.018v-.013c.452-.139.678-.474.678-1.004v-.706c0-.384.235-.577.704-.577v-.619c-.646 0-1.112.092-1.4.277-.287.185-.431.504-.431.96v.739c0 .422-.223.633-.669.633v.61c.446 0 .669.203.669.61v.795c0 .453.145.768.436.945.27.165.699.249 1.272.261l.123-.168zm1.171-6.758c1.81 0 3.277-.419 3.277-.936s-1.467-.936-3.277-.936-3.277.419-3.277.936 1.467.936 3.277.936zm7.079 10.306h-6s-1.122-.114-1.122-1.412c0-.768.625-1.389 1.322-1.389l.31.038c-.034-.145-.042-.293-.042-.451 0-1.003.743-1.813 1.649-1.813.819 0 1.497.665 1.622 1.531.154-.444.542-.761.999-.761.591 0 1.07.527 1.07 1.181 0 .246-.067.473-.181.662l.258-.036c.608 0 1.133.545 1.133 1.216-.001 1.183-1.018 1.234-1.018 1.234z" id="iconFg"/></svg>