<svg xmlns="http://www.w3.org/2000/svg" width="20" height="20"><style type="text/css">.icon-canvas-transparent{opacity:0;fill:#F6F6F6;} .icon-white{fill:#FFFFFF;} .icon-vso-bg{fill:#656565;}</style><path class="icon-canvas-transparent" d="M20 20h-20v-20h20v20z" id="canvas"/><path class="icon-vso-bg" d="M20 20h-20v-20h20v20z" id="outline"/><path class="icon-white" d="M9.93 9.142c2.247 0 4.07-1.823 4.07-4.07 0-2.248-1.824-4.072-4.071-4.072-2.248 0-4.071 1.824-4.071 4.071 0 2.248 1.824 4.071 4.072 4.071zm-.001-7.142c1.693 0 3.071 1.378 3.071 3.071 0 1.693-1.377 3.07-3.07 3.07-1.694 0-3.071-1.377-3.071-3.07-.001-1.693 1.377-3.071 3.07-3.071zm3.071 7l-3 3-3-3h-3v9h12v-9h-3zm2 8h-10v-7h.982l4.018 3.945 4.018-3.945h.982v7z" id="iconBg"/></svg>