<svg xmlns="http://www.w3.org/2000/svg" width="32" height="32"><style type="text/css">.icon-canvas-transparent{opacity:0;fill:#F6F6F6;} .icon-white{fill:#FFFFFF;} .icon-vso-bg{fill:#656565;}</style><path class="icon-canvas-transparent" d="M32 32h-32v-32h32v32z" id="canvas"/><path class="icon-vso-bg" d="M32 32h-32v-32h32v32z" id="outline"/><path class="icon-white" d="M16 3.928c-3.037 0-5.5 2.465-5.5 5.501 0 3.036 2.464 5.499 5.501 5.499 3.036 0 5.499-2.463 5.499-5.499 0-3.036-2.464-5.501-5.5-5.501zm.001 10c-2.482 0-4.501-2.018-4.501-4.499 0-2.482 2.019-4.501 4.5-4.501s4.5 2.019 4.5 4.501c0 2.481-2.019 4.499-4.499 4.499zm3.999 1.072l-4 4-4-4h-4v12h16v-12h-4zm3 11h-14v-10h2.586l4.414 4.414 4.414-4.414h2.586v10z" id="iconBg"/></svg>