<svg xmlns="http://www.w3.org/2000/svg" width="16" height="16"><style type="text/css">.icon-canvas-transparent{opacity:0;fill:#F6F6F6;} .icon-white{fill:#FFFFFF;} .icon-vso-bg{fill:#656565;}</style><path class="icon-canvas-transparent" d="M16 16h-16v-16h16v16z" id="canvas"/><g id="outline"><path class="icon-vso-bg" d="M16 16h-16v-16h16v16z"/><path class="icon-white" d="M10 8l-2 2-2-2h-3v7h10v-7h-3zm2 6h-8v-5h1.586l2.414 2.414 2.414-2.414h1.586v5zm-4-7c1.654 0 3-1.343 3-3 0-1.656-1.346-3-3-3-1.657 0-3 1.344-3 3 0 1.657 1.343 3 3 3zm0-5c1.103 0 2 .897 2 2s-.897 2-2 2-2-.897-2-2 .897-2 2-2z"/></g></svg>