<svg xmlns="http://www.w3.org/2000/svg" width="16" height="16"><style type="text/css">.icon-canvas-transparent{opacity:0;fill:#F6F6F6;} .icon-vs-out{fill:#F6F6F6;} .icon-vs-bg{fill:#424242;} .icon-visualstudio{fill:#68217A;}</style><path class="icon-canvas-transparent" d="M16 16h-16v-16h16v16z" id="canvas"/><path class="icon-vs-out" d="M13 7.382v7.236l-2.764 1.382h-.65l-2.586-2.586-2 2-2-2v-4.828l2-2v-.172l-2 2v-4.828l3.586-3.586h.827l3.587 3.586v2.796l2 1z" id="outline"/><path class="icon-vs-bg" d="M10 6l-2-2v4h-2v-4l-2 2v-2l3-3 3 3v2z" id="iconBg"/><path class="icon-visualstudio" d="M10 7l-3 3-2-2-1 1v4l1 1 2-2 3 3 2-1v-6l-2-1zm-5 5v-2l1 1-1 1zm3-1l2-2v4l-2-2z" id="colorImportance"/></svg>