<svg xmlns="http://www.w3.org/2000/svg" width="16" height="16"><style type="text/css">.icon-canvas-transparent{opacity:0;fill:#F6F6F6;} .icon-vs-out{fill:#F6F6F6;} .icon-vs-bg{fill:#424242;} .icon-vs-fg{fill:#F0EFF1;}</style><path class="icon-canvas-transparent" d="M16 16h-16v-16h16v16z" id="canvas"/><path class="icon-vs-out" d="M16 6h-1v7h-5c0 1.711-2.149 3-5 3s-5-1.289-5-3v-6c0-1.711 2.149-3 5-3v-3h5v-1h6v6z" id="outline"/><path class="icon-vs-bg" d="M7 4.195c-.312-.066-.646-.115-1-.147v-2.048h4v1h-3v1.195zm4-3.195v4h4v-4h-4zm2 10h-3v1h4v-6h-1v5zm-4-4v6c0 1.104-1.791 2-4 2s-4-.896-4-2v-6c0-1.104 1.791-2 4-2s4 .896 4 2zm-.675 0c0-.527-1.326-1.325-3.325-1.325s-3.325.798-3.325 1.325 1.326 1.325 3.325 1.325 3.325-.798 3.325-1.325z" id="iconBg"/><path class="icon-vs-fg" d="M13 6v5h-3v-4c0-1.295-1.234-2.346-3.07-2.781l.07-.024v-1.195h3v3h3zm-8-.325c-1.999 0-3.325.798-3.325 1.325s1.326 1.325 3.325 1.325 3.325-.798 3.325-1.325-1.326-1.325-3.325-1.325z" id="iconFg"/></svg>