<svg xmlns="http://www.w3.org/2000/svg" width="16" height="16"><style type="text/css">.icon-canvas-transparent{opacity:0;fill:#F6F6F6;} .icon-vs-action-red{fill:#A1260D;} .icon-vso-bg{fill:#656565;} .icon-white{fill:#FFFFFF;}</style><path class="icon-canvas-transparent" d="M16 16h-16v-16h16v16z" id="canvas"/><path class="icon-white" d="M11 6v.83c-.67-.435-1.44-.694-2.301-.778l-1.575-1.962 3.538-4.09h-2.958l-2.488 1.891-1.041-1.456c-.171-.195-.391-.34-.635-.435h-1.315c-.23.087-.438.217-.607.387-.692.692-.694 1.823.025 2.551l1.115 1.041-2.238 1.971-.041.05h-.479v10h5v-.863c.822.566 1.813.863 2.971.863.98 0 1.828-.146 2.516-.436l.513-.216v.652h5v-10h-5zm-8 7v-1.684c.018.608.119 1.172.311 1.684h-.311zm0-2.045v-1.955h.414c-.256.594-.393 1.248-.414 1.955zm2-4.608l.107-.117.47.418c-.198.111-.393.227-.577.365v-.666zm8 6.653h-.756c.467-.607.719-1.357.756-2.227v2.227zm0-2.611c-.016-.499-.107-.957-.26-1.389h.26v1.389z" id="outline"/><path class="icon-vso-bg" d="M15 7v8h-3v-1h2v-6h-2v-1h3zm-13 1.978l-.225.022c-.274 0-.535-.069-.775-.188v6.188h3v-1h-2v-5.022zm10.016 1.577c0 .771-.199 1.404-.602 1.898-.4.496-.891.742-1.469.742-.746 0-1.123-.348-1.125-1.047h-.025c-.234.699-.693 1.047-1.375 1.047-.436 0-.785-.164-1.053-.488-.268-.326-.4-.766-.4-1.314 0-.731.184-1.336.549-1.818.365-.482.848-.723 1.445-.723l.11.016.149.132h.273l.077.037c.18.125.293.275.346.449h.016l.063-.486h.812c-.148 1.66-.223 2.51-.223 2.541 0 .643.168.963.502.963.307 0 .561-.178.76-.537.203-.357.303-.822.303-1.393 0-.605-.146-1.129-.428-1.574h.344l-1.389-1.729c.457.164.869.404 1.232.726.738.653 1.108 1.507 1.108 2.558zm-3.192-.061c0-.638-.26-.953-.781-.953-.355 0-.645.174-.863.523-.221.352-.33.787-.33 1.309 0 .348.074.625.221.828.148.201.346.303.594.303.355 0 .639-.184.85-.553.206-.365.309-.853.309-1.457zm-3.092 2.918c-.584-.586-.877-1.356-.877-2.311 0-.971.305-1.777.912-2.42.352-.371.761-.623 1.217-.781l-.612-.545c-.455.195-.867.466-1.227.831-.773.779-1.16 1.761-1.16 2.949 0 1.152.365 2.086 1.098 2.797.728.712 1.692 1.068 2.888 1.068.852 0 1.561-.119 2.129-.357v-.75c-.553.268-1.221.4-2.004.4-.991 0-1.778-.295-2.364-.881z" id="iconBg"/><path class="icon-vs-action-red" d="M8.996 7.996h-.395l-3.563-3.167-2.713 2.939c-.309.309-.792.309-1.098 0-.309-.311-.309-.802 0-1.112l3.019-2.656-1.921-1.793c-.334-.338-.278-.835 0-1.113.27-.271.824-.313 1.098 0l1.605 2.152 3.022-2.375h.446l-2.667 3.129 3.167 3.996z" id="colorAction"/></svg>