<svg xmlns="http://www.w3.org/2000/svg" width="16" height="16"><style type="text/css">.icon-canvas-transparent{opacity:0;fill:#F6F6F6;} .icon-white{fill:#FFFFFF;} .icon-vso-bg{fill:#656565;}</style><path class="icon-canvas-transparent" d="M16 16h-16v-16h16v16z" id="canvas"/><path class="icon-white" d="M14.511 0l1.489 1.49v.624l-.877.886h.877v1.415l-1.588 1.585h-2.412v4.001l2.414-.001 1.586 1.586v1.414h-.873l.873.881v.63l-1.489 1.489h-.624l-.887-.877v.877h-1.415l-1.585-1.588v-2.412h-4v2.414l-1.586 1.586h-1.414v-.873l-.881.873h-.63l-1.489-1.489v-.625l.876-.886h-.876v-1.415l1.588-1.585h2.412v-4h-2.414l-1.586-1.586v-1.414h.874l-.874-.881v-.63l1.489-1.489h.625l.886.876v-.876h1.415l1.585 1.588v2.412h4.001l-.001-2.414 1.586-1.586h1.414v.874l.881-.874h.63z" id="outline"/><path class="icon-vso-bg" d="M5 5v6h6v-6h-6zm5 5h-4v-4h4v4zm1.001-5l-.001-3 1-1v2.272l2.194-2.175.706.707-2.173 2.196h2.273l-1.002 1h-2.997zm-6.001-.001l-3 .001-1-1h2.272l-2.174-2.194.706-.706 2.196 2.173v-2.273l1 1.002v2.997zm-.001 6.001l.001 3-1 1v-2.272l-2.194 2.175-.706-.707 2.173-2.196h-2.273l1.002-1h2.997zm6.001.001l3-.001 1 1h-2.272l2.175 2.194-.707.706-2.196-2.173v2.273l-1-1.002v-2.997z" id="iconBg"/></svg>