<svg xmlns="http://www.w3.org/2000/svg" width="16" height="16"><style type="text/css">.icon-canvas-transparent{opacity:0;fill:#F6F6F6;} .icon-vs-out{fill:#F6F6F6;} .icon-vs-bg{fill:#424242;} .icon-vs-fg{fill:#F0EFF1;} .icon-vs-action-blue{fill:#00539C;}</style><path class="icon-canvas-transparent" d="M16 16h-16v-16h16v16z" id="canvas"/><path class="icon-vs-out" d="M16 4v12h-14v-8.586l-2-2v-4.828l2 2v-2.586h4v2.586l2-2v3.414h8z" id="outline"/><path class="icon-vs-bg" d="M13 13h-8v-.793l1.446-1.445 1.155 1.538c.098.132.264.216.42.2.166-.008.316-.096.403-.234l2.604-3.367 1.972 2.761v1.34zm0-6h-6.586l-1.414 1.414v2.379l1.146-1.146c.103-.103.237-.154.39-.145.145.01.277.082.363.198l1.063 1.417 2.614-3.382c.089-.142.241-.229.408-.235.188.003.326.074.423.209l1.593 2.23v-2.939zm-5-2v.414l-.586.586h6.586v8h-10v-4.586l-1-1v6.586h12v-10h-7z" id="iconBg"/><path class="icon-vs-fg" d="M7.414 6l-1 1h6.586v2.939l-1.593-2.23c-.097-.135-.235-.207-.423-.209-.167.005-.319.093-.408.235l-2.614 3.382-1.063-1.417c-.086-.116-.218-.188-.363-.198-.152-.01-.287.042-.39.145l-1.146 1.146v-2.379l-1 1v4.586h10v-8h-6.586zm5.586 7h-8v-.793l1.446-1.445 1.155 1.538c.098.132.264.216.42.2.166-.008.316-.096.403-.234l2.604-3.367 1.972 2.761v1.34z" id="iconFg"/><path class="icon-vs-action-blue" d="M7 3v2l-3 3-3-3v-2l2 2v-4h2v4l2-2z" id="colorAction"/></svg>