<svg xmlns="http://www.w3.org/2000/svg" width="16" height="16"><style type="text/css">.icon-canvas-transparent{opacity:0;fill:#F6F6F6;} .icon-vs-out{fill:#F6F6F6;} .icon-vs-bg{fill:#424242;} .icon-vs-fg{fill:#F0EFF1;} .icon-vs-action-blue{fill:#00539C;}</style><path class="icon-canvas-transparent" d="M16 16h-16v-16h16v16z" id="canvas"/><path class="icon-vs-out" d="M15 15h-7.586l1 1h-4.828l-1-1h-1.586v-1.586l-1-1v-.828l1-1v-10.586h14v15z" id="outline"/><path class="icon-vs-bg" d="M11 4v2h-5v-2h5zm-9-3v1h1v1h-1v1h1v1h-1v1h1v1h-1v1h1v.586l.586-.586h.414v-6h9v11h-4v1h5v-13h-12z" id="iconBg"/><path class="icon-vs-fg" d="M4 2v6h4.414l-2 2h2.586v3h4v-11h-9zm7 3v1h-5v-2h5v1z" id="iconFg"/><path class="icon-vs-action-blue" d="M4 11h4v2h-4l2 2h-2l-3-3 3-3h2l-2 2z" id="colorAction"/></svg>