<svg xmlns="http://www.w3.org/2000/svg" width="16" height="16"><style type="text/css">.icon-canvas-transparent{opacity:0;fill:#F6F6F6;} .icon-vs-out{fill:#F6F6F6;} .icon-vs-fg{fill:#F0EFF1;} .icon-vs-action-blue{fill:#00539C;} .st0{fill:#424242;}</style><path class="icon-canvas-transparent" d="M16 16h-16v-16h16v16z" id="canvas"/><path class="icon-vs-out" d="M16 14h-7.131l-1.333 2h-6.07l-1.333-2h-.133v-13h5v-1h6v1h5v13z" id="outline"/><path class="st0" d="M1 6h4v-4h-4v4zm1-3h2v2h-2v-2zm9-1v11h4v-11h-4zm3 10h-2v-1h2v1zm0-2h-2v-1h2v1zm0-5h-2v-2h2v2zm-8 1h2v3h1v1h-1.848l.571 1h1.277v1h-.706l.572 1h1.134v-12h-4v5zm1-4h2v1h-2v-1z" id="iconBg"/><path class="icon-vs-fg" d="M7.723 11h1.277v1h-.706l-.571-1zm-5.723-6h2v-2h-2v2zm6 4h-1v.734l.152.266h1.848v-1h-1zm4-6v2h2v-2h-2zm-5 0h2v-1h-2v1zm5 7h2v-1h-2v1zm0 2h2v-1h-2v1zm-6.032 0l-.8-1.445-.168-.252v-2.303h-1v2.303l-.168.252-.8 1.445h2.936z" id="iconFg"/><path class="icon-vs-action-blue" d="M6 10v-2h1v-1h-5v1h1v2l-2 3.5 1 1.5h5l1-1.5-2-3.5zm-2.968 2l.8-1.445.168-.252v-2.303h1v2.303l.168.252.8 1.445h-2.936z" id="colorImportance"/></svg>