<svg xmlns="http://www.w3.org/2000/svg" width="32" height="96"><style type="text/css">.icon-canvas-transparent{opacity:0;fill:#F6F6F6;} .icon-f12-grey-primary{fill:#555555;} .icon-f12-blue-hover{fill:#2279BF;} .icon-f12-ltgrey-disabled{fill:#ABABAC;} .icon-f12-start-positive{fill:#009E49;}</style><path class="icon-canvas-transparent" d="M32 96h-32v-96h32v96z" id="canvas"/><g id="iconBg"><path class="icon-f12-ltgrey-disabled" d="M27.143 83.715l-9.285-9.286v1.857l5.571 7.429h-5.571c-.929.928-1.858.928-1.858.928-.929 0-1.857-.928-1.857-.928h-5.572l5.572-7.429v-1.857l-9.286 9.286h-1.857v1.856l1.857 2.786c0 2.565 2.079 4.643 4.643 4.643 2.564 0 4.643-2.078 4.643-4.643.928-.928 1.857-.928 1.857-.928.929 0 1.857.929 1.857.929 0 2.564 2.078 4.643 4.643 4.643s4.643-2.078 4.643-4.643l1.857-2.787v-1.856h-1.857zm-17.643 7.428c-1.538 0-2.786-1.248-2.786-2.785 0-1.538 1.248-2.786 2.786-2.786s2.786 1.248 2.786 2.786c0 1.537-1.248 2.785-2.786 2.785zm13 0c-1.538 0-2.786-1.248-2.786-2.785 0-1.538 1.248-2.786 2.786-2.786s2.786 1.248 2.786 2.786c0 1.537-1.248 2.785-2.786 2.785z"/><path class="icon-f12-blue-hover" d="M27.143 51.616l-9.285-9.286v1.857l5.571 7.429h-5.571c-.929.928-1.858.928-1.858.928-.929 0-1.857-.928-1.857-.928h-5.572l5.572-7.429v-1.857l-9.286 9.286h-1.857v1.856l1.857 2.786c0 2.564 2.079 4.643 4.643 4.643 2.564 0 4.643-2.078 4.643-4.643.928-.928 1.857-.928 1.857-.928.929 0 1.857.929 1.857.929 0 2.564 2.078 4.643 4.643 4.643s4.643-2.078 4.643-4.643l1.857-2.786v-1.856h-1.857zm-17.643 7.428c-1.538 0-2.786-1.248-2.786-2.785 0-1.538 1.248-2.786 2.786-2.786s2.786 1.248 2.786 2.786c0 1.537-1.248 2.785-2.786 2.785zm13 0c-1.538 0-2.786-1.248-2.786-2.785 0-1.538 1.248-2.786 2.786-2.786s2.786 1.248 2.786 2.786c0 1.537-1.248 2.785-2.786 2.785z"/><path class="icon-f12-grey-primary" d="M27.143 19.616l-9.285-9.286v1.857l5.571 7.429h-5.571c-.929.928-1.858.928-1.858.928-.929 0-1.857-.929-1.857-.929h-5.572l5.572-7.429v-1.856l-9.286 9.286h-1.857v1.857l1.857 2.786c0 2.564 2.079 4.643 4.643 4.643 2.564 0 4.643-2.079 4.643-4.643.928-.929 1.857-.929 1.857-.929.929 0 1.857.928 1.857.928 0 2.564 2.078 4.643 4.643 4.643s4.643-2.079 4.643-4.643l1.857-2.785v-1.857h-1.857zm-17.643 7.428c-1.538 0-2.786-1.248-2.786-2.786s1.248-2.786 2.786-2.786 2.786 1.248 2.786 2.786-1.248 2.786-2.786 2.786zm13 0c-1.538 0-2.786-1.248-2.786-2.786s1.248-2.786 2.786-2.786 2.786 1.248 2.786 2.786-1.248 2.786-2.786 2.786z"/></g><g id="colorAction"><path class="icon-f12-ltgrey-disabled" d="M12 72h-4v4h-3v-4h-4v-3h4v-4h3v4h4v3z"/><path class="icon-f12-start-positive" d="M12 40h-4v4h-3v-4h-4v-3h4v-4h3v4h4v3z"/><path class="icon-f12-start-positive" d="M12 8h-4v4h-3v-4h-4v-3h4v-4h3v4h4v3z"/></g></svg>