<svg xmlns="http://www.w3.org/2000/svg" width="16" height="16"><style type="text/css">.icon-canvas-transparent{opacity:0;fill:#F6F6F6;} .icon-vs-out{fill:#F6F6F6;} .icon-vs-bg{fill:#424242;} .icon-vs-fg{fill:#F0EFF1;}</style><path class="icon-canvas-transparent" d="M16 16h-16v-16h16v16z" id="canvas"/><path class="icon-vs-out" d="M0 0h16v15h-16v-15z" id="outline"/><path class="icon-vs-bg" d="M10 8h5v-1h-5v1zm5-2v-5h-14v13h14v-5h-5v4h-8v-11h8v4h5zm-1 4l-1.5 2-1.5-2h3zm-1.5-6.969l1.5 1.969h-2.983l1.483-1.969zm-9.5 2.969h6v1h-6v-1zm4-1h-4v-1h4v1zm-4 5h5v1h-5v-1zm4-1h-4v-1h4v1z" id="iconBg"/><path class="icon-vs-fg" d="M12.5 12l-1.5-2h3l-1.5 2zm0-8.969l-1.483 1.969h2.983l-1.5-1.969zm-2.5 3.969v1h5v1h-5v4h-8v-11h8v4h5v1h-5zm-7-2h4v-1h-4v1zm0 4h4v-1h-4v1zm5 1h-5v1h5v-1zm1-4h-6v1h6v-1z" id="iconFg"/></svg>