<svg xmlns="http://www.w3.org/2000/svg" width="32" height="96"><style type="text/css">.icon-canvas-transparent{opacity:0;fill:#F6F6F6;} .icon-f12-grey-primary{fill:#555555;} .icon-f12-blue-hover{fill:#2279BF;} .icon-f12-ltgrey-disabled{fill:#ABABAC;}</style><path class="icon-canvas-transparent" d="M32 96h-32v-96h32v96z" id="canvas"/><g id="iconBg"><path class="icon-f12-grey-primary" d="M30 8v10.07s0 1.93-2 1.93h-2v-2h2v-10h-4v-4h-8.001l.001 4.102c-.694.077-1.362.224-2 .451l-.001-4.623s0-1.93 2-1.93h8.001l6 6zm-16 17.447v2.553h-10v-14h4.553v-.001c.107-.3.224-.592.361-.877.177-.39.373-.769.609-1.122h-5.523c-2 0-2 1.93-2 1.93v14.07c0 2 1.93 2 1.93 2h10.07c2 0 2-1.93 2-1.93v-2.172c-.694-.078-1.362-.224-2-.451z"/><path class="icon-f12-blue-hover" d="M24 17c0-3.865-3.135-7-7-7s-7 3.135-7 7 3.135 7 7 7c1.422 0 2.738-.43 3.844-1.156l7.156 7.156 2-2-7.156-7.156c.726-1.106 1.156-2.422 1.156-3.844zm-7 5c-2.762 0-5-2.238-5-5s2.238-5 5-5 5 2.238 5 5-2.238 5-5 5z"/><path class="icon-f12-blue-hover" d="M30 40v10.07s0 1.93-2 1.93h-2v-2h2v-10h-4v-4h-8.001l.001 4.102c-.694.077-1.362.224-2 .451l-.001-4.623s0-1.93 2-1.93h8.001l6 6zm-16 17.447v2.553h-10v-14h4.553v-.001c.107-.3.224-.592.361-.877.177-.39.373-.769.609-1.122h-5.523c-2 0-2 1.93-2 1.93v14.07c0 2 1.93 2 1.93 2h10.07c2 0 2-1.93 2-1.93v-2.172c-.694-.078-1.362-.224-2-.451z"/><path class="icon-f12-blue-hover" d="M24 49c0-3.865-3.135-7-7-7s-7 3.135-7 7 3.135 7 7 7c1.422 0 2.738-.43 3.844-1.156l7.156 7.156 2-2-7.156-7.156c.726-1.106 1.156-2.422 1.156-3.844zm-7 5c-2.762 0-5-2.238-5-5s2.238-5 5-5 5 2.238 5 5-2.238 5-5 5z"/><path class="icon-f12-ltgrey-disabled" d="M30 72v10.07s0 1.93-2 1.93h-2v-2h2v-10h-4v-4h-8.001l.001 4.102c-.694.077-1.362.224-2 .451l-.001-4.623s0-1.93 2-1.93h8.001l6 6zm-16 17.447v2.553h-10v-14h4.553v-.001c.107-.3.224-.592.361-.877.177-.39.373-.769.609-1.122h-5.523c-2 0-2 1.93-2 1.93v14.07c0 2 1.93 2 1.93 2h10.07c2 0 2-1.93 2-1.93v-2.172c-.694-.078-1.362-.224-2-.451z"/><path class="icon-f12-ltgrey-disabled" d="M24 81c0-3.865-3.135-7-7-7s-7 3.135-7 7 3.135 7 7 7c1.422 0 2.738-.43 3.844-1.156l7.156 7.156 2-2-7.156-7.156c.726-1.106 1.156-2.422 1.156-3.844zm-7 5c-2.762 0-5-2.238-5-5s2.238-5 5-5 5 2.238 5 5-2.238 5-5 5z"/></g></svg>