<svg xmlns="http://www.w3.org/2000/svg" width="16" height="16"><style type="text/css">.icon-canvas-transparent{opacity:0;fill:#F6F6F6;} .icon-folder{fill:#DCB67A;} .icon-white{fill:#FFFFFF;} .icon-vso-bg{fill:#656565;}</style><path class="icon-canvas-transparent" d="M16 16h-16v-16h16v16z" id="canvas"/><path class="icon-white" d="M16 2.969v9c0 .617-.227 1.118-.57 1.45-.57.544-1.43.581-1.43.581h-3v2h-11v-9h1v-2.031c0-1.299 1.03-1.969 2-1.969h2.884l1-2h7.116c.995 0 2 .666 2 1.969z" id="outline"/><g id="iconBg"><path class="icon-folder" d="M15 3v9c0 1-1 1-1 1v-10h-6l-1 2h-4v2h-1v-2c0-1 1.236-1 1-1h3.5l1-2h6.5s1 0 1 1zm-4 10h3l-3-5v5z"/><path class="icon-vso-bg" d="M1 8v7h9v-7h-9zm1 1h1v1h-1v-1zm0 2h1v1h-1v-1zm0 3v-1h1v1h-1zm7 0h-5v-1h5v1zm0-2h-5v-1h5v1zm0-2h-5v-1h5v1z"/></g><path class="icon-white" d="M14 3v10l-3-5v-1h-8v-2h4l1-2h6zm-12 7h1v-1h-1v1zm0 2h1v-1h-1v1zm1 2v-1h-1v1h1zm6-1h-5v1h5v-1zm0-2h-5v1h5v-1zm0-2h-5v1h5v-1z" id="iconFg"/></svg>