<svg xmlns="http://www.w3.org/2000/svg" width="16" height="16"><style type="text/css">.icon-canvas-transparent{opacity:0;fill:#F6F6F6;} .icon-vs-out{fill:#F6F6F6;} .icon-vs-bg{fill:#424242;} .icon-vs-fg{fill:#F0EFF1;}</style><path class="icon-canvas-transparent" d="M16 16h-16v-16h16v16z" id="canvas"/><path class="icon-vs-out" d="M16 0v8h-6v5c0 1.711-2.149 3-5 3s-5-1.289-5-3v-6c0-1.275 1.201-2.308 2.99-2.755l.01-.043v-4.202h13z" id="outline"/><path class="icon-vs-bg" d="M4 1h5v4.174c-.513-.411-1.189-.74-2-.941v-2.233l-2 2c-.345 0-.678.021-1 .057v-3.057zm11 0v6h-5v-6h5zm-1 3l-2-2v4l2-2zm-5 3v6c0 1.106-1.791 2-4 2s-4-.894-4-2v-6c0-1.104 1.791-2 4-2s4 .896 4 2zm-.675 0c0-.527-1.326-1.325-3.325-1.325s-3.325.798-3.325 1.325c0 .527 1.326 1.325 3.325 1.325s3.325-.797 3.325-1.325z" id="iconBg"/><path class="icon-vs-fg" d="M6.995 4.232c-.605-.15-1.278-.232-1.995-.232l2-2v2.195l-.005.037zm5.005-2.232v4l2-2-2-2zm-7 3.675c-1.999 0-3.325.798-3.325 1.325 0 .527 1.326 1.325 3.325 1.325s3.325-.797 3.325-1.325c0-.527-1.326-1.325-3.325-1.325z" id="iconFg"/></svg>