<svg xmlns="http://www.w3.org/2000/svg" viewBox="0 0 16 16" enable-background="new 0 0 16 16"><style type="text/css">.icon-canvas-transparent{opacity:0;fill:#F6F6F6;} .icon-vs-out{fill:#F6F6F6;} .icon-vs-bg{fill:#424242;} .icon-vs-fg{fill:#F0EFF1;}</style><path class="icon-canvas-transparent" d="M16 16h-16v-16h16v16z" id="canvas"/><path class="icon-vs-out" d="M4 16v-3.108h-1.939l-2.061-2.074v-8.754l2.063-2.064h11.702l2.235 2.036v8.81l-2.233 2.046h-5.299l-1.982 3.108h-2.486z" id="outline"/><path class="icon-vs-bg" d="M13.378 1h-10.901l-1.477 1.46v7.928l1.477 1.612h2.523v3h.938l1.982-3h5.458l1.622-1.612v-7.928l-1.622-1.46zm.622 8.978l-1.032 1.022h-5.578l-.263.383-1.086 1.617-.041.061v-2.061h-3.1130000000000004l-.887-1.022v-7.107l.887-.871h10.081l1.032.871v7.107zm-5-5.978h2v2c0 1.085-.696 2.148-1.102 2.497-.215.185-.538.312-.898.393v-1.194c.561-.383.833-1.058.833-1.616v-.123l-.833.043v-2zm-3 0h2v2c0 1.085-.696 2.148-1.102 2.497-.215.185-.538.312-.898.393v-1.194c.561-.383.833-1.058.833-1.616v-.123l-.833.043v-2z" id="iconBg"/><g id="iconFg"><path class="icon-vs-fg" d="M12.968 2h-10.081l-.887.871v7.107l.887 1.022h3.113v2h.041l1.086-1.617.263-.383h5.578l1.032-1.022v-7.107l-1.032-.871zm-4.968 4c0 1.085-.696 2.148-1.102 2.497-.215.185-.538.312-.898.393v-1.194c.561-.383.833-1.058.833-1.616v-.123l-.833.043v-2h2v2zm3 0c0 1.085-.696 2.148-1.102 2.497-.215.185-.538.312-.898.393v-1.194c.561-.383.833-1.058.833-1.616v-.123l-.833.043v-2h2v2z"/></g></svg>