<svg xmlns="http://www.w3.org/2000/svg" width="16" height="16"><style type="text/css">.icon-canvas-transparent{opacity:0;fill:#F6F6F6;} .icon-vs-out{fill:#F6F6F6;} .icon-vs-fg{fill:#F0EFF1;} .graph-frame-lime{fill:#9ECA00;}</style><path class="icon-canvas-transparent" d="M16 16h-16v-16h16v16z" id="canvas"/><path class="icon-vs-out" d="M15.001 7.622l-.009.378h-.002c-.115 3-2.916 6.075-6.374 6.136l1.003 1.864h-8.577l1.689-2.346c-2.663-2.435-2.702-4.578-2.73-6.166-.035-1.97.715-3.828 2.111-5.249 1.411-1.436 3.375-2.239 5.389-2.239 3.912 0 7.129 3.051 7.466 6.877.023.218.034.521.034.745z" id="outline"/><path class="graph-frame-lime" d="M13.972 6.937c-.286-3.325-3.072-5.937-6.472-5.937-3.59 0-6.564 2.911-6.5 6.5.032 1.805.145 3.671 3.082 6.007l-1.082 1.493h5l-2-4-1.112 1.483c-1.55-1.083-2.646-2.39-2.646-4.426 0-3.313 2.444-6.057 5.758-6.057l.253.012c-2.922.131-5.253 2.534-5.253 5.488 0 1.46.573 2.784 1.502 3.769l1.498-2.269 1.988 3.974c.168.016.339.026.512.026 3.038 0 5.5-2.462 5.5-5.5 0-.19-.01-.378-.028-.563zm-3.144 3.598l-2.828-2.535v-4h1v3.293l2.535 2.536-.707.706z" id="iconBg"/><path class="icon-vs-fg" d="M10.828 10.535l-2.828-2.535v-4h1v3.293l2.535 2.536-.707.706z" id="iconFg"/></svg>