<svg xmlns="http://www.w3.org/2000/svg" width="16" height="16"><style type="text/css">.icon-canvas-transparent{opacity:0;fill:#F6F6F6;} .icon-vs-out{fill:#F6F6F6;} .icon-vs-bg{fill:#424242;} .icon-vs-fg{fill:#F0EFF1;} .icon-vs-action-blue{fill:#00539C;}</style><path class="icon-canvas-transparent" d="M16 16h-16v-16h16v16z" id="canvas"/><path class="icon-vs-out" d="M6 0v.051c-1.691.245-3 1.691-3 3.449v.209l-2-1.709v5l1.173 1h-1.173v7h6v-2h9v-13h-10zm-1 12v-1h1v1h-1z" id="outline"/><path class="icon-vs-bg" d="M13 4h-3v-1h3v1zm0 5h-4v1h4v-1zm-9 2h-2v1h2v-1zm2 2h-4v1h4v-1zm5-8h-1v1h1v-1zm2 0h-1v1h1v-1zm-2 2h-2v1h2v-1zm-5 2h-4v1h4v-1zm4-8v1h4v9h-6v-3h-1v4h8v-11h-5z" id="iconBg"/><path class="icon-vs-fg" d="M10 2v1h3v1h-3v1h1v1h-1v1h1v1h-3v3h6v-9h-4zm3 8h-4v-1h4v1zm0-4h-1v-1h1v1z" id="iconFg"/><path class="icon-vs-action-blue" d="M4.516 8.5l2.484-2.5v-2l-2 2.013v-2.513c0-.827.673-1.5 1.5-1.5s1.5.673 1.5 1.5v.5h1v-.5c0-1.381-1.119-2.5-2.5-2.5s-2.5 1.119-2.5 2.5v2.488l-2-1.988v2l2.516 2.5z" id="colorAction"/></svg>