<svg xmlns="http://www.w3.org/2000/svg" width="16" height="16"><style type="text/css">.icon-canvas-transparent{opacity:0;fill:#F6F6F6;} .icon-vs-out{fill:#F6F6F6;} .icon-vs-bg{fill:#424242;} .icon-vs-fg{fill:#F0EFF1;}</style><path class="icon-canvas-transparent" d="M16 16h-16v-16h16v16z" id="canvas"/><path class="icon-vs-out" d="M16 8.414l-4 4-2-2-2 2-2-2-2 2-4-4v-.829l4-4 2 2 2-2 2 2 2-2 4 4v.829z" id="outline"/><path class="icon-vs-bg" d="M15 8l-3 3-1.293-1.293.707-.707.586.586 1.586-1.586-1.586-1.586-.586.586-.707-.707 1.293-1.293 3 3zm-8 0l-3 3-3-3 3-3 3 3zm-3 1.586l1.586-1.586-1.586-1.586-1.586 1.586 1.586 1.586zm4-4.586l-1.293 1.293.707.707.586-.586 1.586 1.586-1.586 1.586-.586-.586-.707.707 1.293 1.293 3-3-3-3z" id="iconBg"/><path class="icon-vs-fg" d="M13.586 8l-1.586 1.586-.586-.586 1-1-1-1 .586-.586 1.586 1.586zm-6.172-1l1 1-1 1 .586.586 1.586-1.586-1.586-1.586-.586.586zm-5 1l1.586 1.586 1.586-1.586-1.586-1.586-1.586 1.586z" id="iconFg"/></svg>