<?xml version="1.0" encoding="utf-8"?>
<!-- Generator: Adobe Illustrator 19.1.0, SVG Export Plug-In . SVG Version: 6.00 Build 0)  -->
<svg version="1.1" xmlns="http://www.w3.org/2000/svg" xmlns:xlink="http://www.w3.org/1999/xlink" x="0px" y="0px" width="12px"
	 height="12px" viewBox="0 0 12 12" style="enable-background:new 0 0 12 12;" xml:space="preserve">
<style type="text/css">
	.icon_x002D_canvas_x002D_transparent{opacity:0;fill:#F6F6F6;}
	.icon_x002D_vs_x002D_out{fill:#F6F6F6;}
	.icon_x002D_vs_x002D_bg{fill:#424242;}
	.icon_x002D_vs_x002D_fg{fill:#F0EFF1;}
</style>
<g id="canvas">
	<path class="icon_x002D_canvas_x002D_transparent" d="M12,12H0V0h12V12z"/>
</g>
<g id="outline">
	<path class="icon_x002D_vs_x002D_out" d="M12,6c0,3.314-2.686,6-6,6c-3.313,0-6-2.686-6-6c0-3.313,2.687-6,6-6
		C9.314,0,12,2.687,12,6z"/>
</g>
<g id="iconBg">
	<path class="icon_x002D_vs_x002D_bg" d="M6,1C3.239,1,1,3.239,1,6c0,2.762,2.239,5,5,5c2.762,0,5-2.238,5-5C11,3.239,8.762,1,6,1z
		 M5.323,8.789L2.962,6.364L4.095,5.81L5.25,7.25l3.002-3.709l0.959,0.938L5.323,8.789z"/>
</g>
<g id="iconFg">
	<path class="icon_x002D_vs_x002D_fg" d="M8.252,3.541l0.959,0.938l-3.888,4.31L2.962,6.364L4.095,5.81L5.25,7.25L8.252,3.541z"/>
	<g>
	</g>
	<g>
	</g>
	<g>
	</g>
	<g>
	</g>
	<g>
	</g>
	<g>
	</g>
</g>
</svg>
