<svg xmlns="http://www.w3.org/2000/svg" width="16" height="16"><style type="text/css">.icon-canvas-transparent{opacity:0;fill:#F6F6F6;} .icon-vs-green{fill:#339933;} .icon-white{fill:#FFFFFF;}</style><path class="icon-canvas-transparent" d="M16 16h-16v-16h16v16z" id="canvas"/><path class="icon-white" d="M14 8c0 3.314-2.686 6-6 6-3.313 0-6-2.686-6-6 0-3.313 2.687-6 6-6 3.314 0 6 2.687 6 6z" id="outline"/><path class="icon-vs-green" d="M8 3c-2.761 0-5 2.238-5 5s2.239 5 5 5c2.762 0 5-2.238 5-5s-2.238-5-5-5zm0 8h-1.5l-1.5-3h1.5l.75 1.5 2.25-4.5h1.5l-3 6z" id="iconBg"/><g id="iconFg"><path class="icon-white" d="M11 5l-3 6h-1.5l-1.5-3h1.5l.75 1.5 2.25-4.5h1.5z"/></g></svg>