<svg xmlns="http://www.w3.org/2000/svg" width="16" height="16"><style type="text/css">.icon-canvas-transparent{opacity:0;fill:#F6F6F6;} .icon-vs-green{fill:#339933;} .icon-white{fill:#FFFFFF;}</style><path class="icon-canvas-transparent" d="M16 16h-16v-16h16v16z" id="canvas"/><path class="icon-white" d="M0 8c0-4.418 3.582-8 8-8s8 3.582 8 8-3.582 8-8 8-8-3.582-8-8z" id="outline"/><path class="icon-vs-green" d="M8 1c-3.865 0-7 3.134-7 7 0 3.865 3.135 7 7 7s7-3.135 7-7c0-3.866-3.135-7-7-7zm0 11h-2l-2-4h2l1 2 3-6h2l-4 8z" id="iconBg"/><path class="icon-white" d="M12 4l-4 8h-2l-2-4h2l1 2 3-6h2z" id="iconFg"/></svg>