<svg xmlns="http://www.w3.org/2000/svg" width="16" height="16"><style type="text/css">.icon-canvas-transparent{opacity:0;fill:#F6F6F6;} .icon-vs-out{fill:#F6F6F6;} .icon-vs-bg{fill:#424242;} .icon-vs-fg{fill:#F0EFF1;}</style><path class="icon-canvas-transparent" d="M16 16h-16v-16h16v16z" id="canvas"/><path class="icon-vs-out" d="M16 10h-1v5h-14v-4h-1v-6h1v-4h14v5h1v4z" id="outline"/><path class="icon-vs-bg" d="M2 5v-3h12v4h-1v-3h-10v2h-1zm11 5v3h-10v-2h-1v3h12v-4h-1zm-8-4h-4v4h4v-4zm10 3h-9v-2h9v2z" id="iconBg"/><path class="icon-vs-fg" d="M3 5v-2h10v3h-7v-1h-3zm3 5v1h-3v2h10v-3h-7z" id="iconFg"/></svg>