<svg xmlns="http://www.w3.org/2000/svg" width="16" height="16"><style type="text/css">.icon-canvas-transparent{opacity:0;fill:#F6F6F6;} .icon-vs-out{fill:#F6F6F6;} .icon-vs-bg{fill:#424242;}</style><path class="icon-canvas-transparent" d="M16 16h-16v-16h16v16z" id="canvas"/><path class="icon-vs-out" d="M16 9.251c0 .435-.09.834-.267 1.189-.173.346-.412.642-.712.883-.283.227-.613.4-.981.516-.346.106-.714.161-1.096.161h-2.944v-2h-2.914l-.548-.548.849 2.548h-3.108l-.334-1h-.891l-.333 1h-2.721v-1.162l2.279-6.838h2.441l.841 2.524 1.525-1.524h2.914v-1h2.878c.417 0 .795.053 1.124.158.354.112.66.275.911.484.269.224.476.496.611.806.128.292.193.606.193.932 0 .282-.046.553-.136.807-.053.144-.116.281-.191.409.196.216.35.468.453.75.104.277.157.582.157.905z" id="outline"/><path class="icon-vs-bg" d="M8 7h2v1h-2l1 1h-1.5l-1.5-1.5 1.5-1.5h1.5l-1 1zm-4-2l2 6h-1l-.333-1h-2.334l-.333 1h-1l2-6h1zm.333 4l-.833-2.5-.833 2.5h1.666zm10.667.251c0 .278-.054.526-.162.743-.107.216-.254.398-.441.548-.186.149-.404.263-.654.341s-.516.117-.799.117h-1.944v-6h1.878c.316 0 .589.037.82.111.233.074.424.174.574.299.151.125.263.272.336.439.073.167.109.344.109.531 0 .167-.026.324-.078.471-.053.146-.126.279-.22.397-.094.119-.207.222-.338.312-.13.09-.274.16-.433.21v.017c.207.028.395.082.563.161.166.08.309.182.426.308.118.125.208.272.27.439.062.167.093.352.093.556zm-3-1.766h.621c.334 0 .593-.08.777-.238.184-.159.275-.385.275-.678 0-.237-.089-.42-.266-.55-.177-.13-.437-.195-.779-.195h-.628v1.661zm1.955 1.742c0-.285-.103-.509-.309-.672-.205-.163-.51-.245-.914-.245h-.732v1.866h.82c.189 0 .356-.024.498-.073.143-.049.262-.116.355-.2.094-.086.164-.186.211-.302.048-.117.071-.242.071-.374z" id="iconBg"/></svg>