<?xml version="1.0" encoding="utf-8"?>
<!-- Generator: Adobe Illustrator 18.1.1, SVG Export Plug-In . SVG Version: 6.00 Build 0)  -->
<!DOCTYPE svg PUBLIC "-//W3C//DTD SVG 1.1//EN" "http://www.w3.org/Graphics/SVG/1.1/DTD/svg11.dtd">
<svg version="1.1" xmlns="http://www.w3.org/2000/svg" xmlns:xlink="http://www.w3.org/1999/xlink" x="0px" y="0px" width="16px"
	 height="16px" viewBox="0 0 16 16" style="enable-background:new 0 0 16 16;" xml:space="preserve">
<style type="text/css">
	.icon-canvas-transparent{opacity:0;fill:#F6F6F6;}
	.icon-vs-out{fill:#F6F6F6;}
	.icon-vs-bg{fill:#424242;}
	.icon-vs-fg{fill:#F0EFF1;}
</style>
<g id="canvas">
	<path class="icon-canvas-transparent" d="M16,16H0V0h16V16z"/>
</g>
<g id="outline">
	<path class="icon-vs-out" d="M11.5,12c-1.914,0-3.601-1.241-4.227-3H5.591C5.066,9.911,4.088,10.5,3,10.5
		c-1.654,0-3-1.346-3-3s1.346-3,3-3c1.088,0,2.066,0.589,2.591,1.5h1.683C7.899,4.241,9.586,3,11.5,3C13.981,3,16,5.019,16,7.5
		S13.981,12,11.5,12z"/>
</g>
<g id="iconBg">
	<path class="icon-vs-bg" d="M11.5,4C9.741,4,8.296,5.308,8.051,7H4.929C4.706,6.139,3.931,5.5,3,5.5
		c-1.104,0-2,0.895-2,2c0,1.105,0.896,2,2,2c0.931,0,1.706-0.639,1.929-1.5h3.122c0.245,1.691,1.69,3,3.449,3
		c1.93,0,3.5-1.57,3.5-3.5C15,5.57,13.43,4,11.5,4z M11.5,9C10.673,9,10,8.327,10,7.5S10.673,6,11.5,6S13,6.673,13,7.5
		S12.327,9,11.5,9z"/>
</g>
<g id="iconFg">
	<path class="icon-vs-fg" d="M11.5,9C10.673,9,10,8.327,10,7.5S10.673,6,11.5,6S13,6.673,13,7.5S12.327,9,11.5,9z"/>
</g>
</svg>
