<svg xmlns="http://www.w3.org/2000/svg" width="16" height="16"><style type="text/css">.icon-canvas-transparent{opacity:0;fill:#F6F6F6;} .icon-vs-out{fill:#F6F6F6;} .icon-vs-bg{fill:#424242;} .icon-vs-fg{fill:#F0EFF1;} .icon-folder{fill:#DCB67A;}</style><path class="icon-canvas-transparent" d="M16 16h-16v-16h16v16z" id="canvas"/><path class="icon-vs-out" d="M16 1.5v12.5c0 .97-.701 2-2 2h-6c-.969 0-2-.701-2-2v-1h-3.496c-.827 0-1.5-.673-1.5-1.5v-8c0-.827.673-1.5 1.5-1.5h2.886l1-2h8.11c.827 0 1.5.673 1.5 1.5z" id="outline"/><g id="iconBg"><path class="icon-folder" d="M6 7c0-1.299 1.031-2 2-2h5.547l1.453 1.221v-4.721c0-.276-.225-.5-.5-.5h-7.492l-1 2h-3.504c-.277 0-.5.224-.5.5v8c0 .276.223.5.5.5h3.496v-5zm2.008-5h5.996v1h-6.496l.5-1z"/><path class="icon-vs-bg" d="M12.602 6h-4.66c-.001 0-.942 0-.942 1v7c0 1 .941 1 .941 1h6l1.059-1v-5.864l-2.398-2.136zm1.398 8h-6v-7h4v2h2v5zm-1-3h-4v-1l4 .004v.996zm0 2h-4v-1h4v1z"/></g><path class="icon-vs-fg" d="M12 9v-2h-4v7h6v-5h-2zm1 4h-4v-1h4v1zm0-2h-4v-1l4 .004v.996zm1-9v1h-6.5l.5-1h6z" id="iconFg"/></svg>