<svg xmlns="http://www.w3.org/2000/svg" width="16" height="16"><style type="text/css">.icon-canvas-transparent{opacity:0;fill:#F6F6F6;} .icon-white{fill:#FFFFFF;} .icon-vs-action-blue{fill:#00539C;} .icon-vso-bg{fill:#656565;}</style><path class="icon-canvas-transparent" d="M16 16h-16v-16h16v16z" id="canvas"/><path class="icon-white" d="M16 1v15h-14v-10.547l-2-2.03v-.837l2.634-2.586h.827l.991 1h11.548z" id="outline"/><path class="icon-vso-bg" d="M3 12h12v3h-12v-3zm3.48-2l-2.956-3h-.524v3h3.48zm-1.037-8l2.972 3h6.585v-3h-9.557zm5.557 5.609v2.391h4v-3h-4.604l.604.609z" id="iconBg"/><path class="icon-vs-action-blue" d="M3 5l2-2 4 4-2 2-4-4zm-1-1l2-2-1-1-2 2 1 1zm6 6h2v-2l-2 2z" id="colorAction"/></svg>