<svg xmlns="http://www.w3.org/2000/svg" width="16" height="16" viewBox="0 0 16 16"><style type="text/css">.icon-canvas-transparent{opacity:0;fill:#F6F6F6;} .icon-vs-out{fill:#F6F6F6;} .icon-vs-fg{fill:#F0EFF1;} .icon-vs-action-blue{fill:#00539C;}</style><path class="icon-canvas-transparent" d="M16 16h-16v-16h16v16z" id="canvas"/><path class="icon-vs-out" d="M16 10h-8.848l2.023 3.54-1.64 2.46h-6.07l-1.465-2.197v-.568l1.848-3.235h-.848v-10h15v10z" id="outline"/><path class="icon-vs-fg" d="M5.168 10.555l.8 1.445h-2.936l.8-1.445.168-.252v-2.303h1v2.303l.168.252zm-1.168-4.555h4v-1h-3v-2h3v-1h-4v4zm8-4h-1l1.6 4h1l-1.6-4zm-3 4.001h1v-1h-1v1zm0-2.001l1 .001v-1h-1v.999z" id="iconFg"/><g id="colorImportance"><path class="icon-vs-action-blue" d="M2 1v5h2v-4h4v1h-3v2h3v4h7v-8h-13zm8 5.001h-1v-1h1v1zm0-2h-1v-1h1v1zm2.6 1.999l-1.6-4h1l1.6 4h-1zm-6.6 2h1v-1h-5v1h1v2l-2 3.5 1 1.5h5l1-1.5-2-3.5v-2zm-2.968 4l.8-1.445.168-.252v-2.303h1v2.303l.168.252.8 1.445h-2.936z"/></g></svg>