<svg xmlns="http://www.w3.org/2000/svg" width="16" height="16"><style type="text/css">.icon-canvas-transparent{opacity:0;fill:#F6F6F6;} .icon-vs-out{fill:#F6F6F6;} .icon-vs-bg{fill:#424242;} .icon-vs-fg{fill:#F0EFF1;} .icon-vs-action-blue{fill:#00539C;}</style><path class="icon-canvas-transparent" d="M16 16h-16v-16h16v16z" id="canvas"/><path class="icon-vs-out" d="M16 7.234v.568l-1.465 2.198h-2.669l.134.234v.568l-1.465 2.198h-3.535l-3 3-4-4v-4.828l2 2v-1.586h2.513l.487-.852v-.734h-1v-3h4v-3h7v3h-1v.734l2 3.5z" id="outline"/><path class="icon-vs-bg" d="M15 7.5l-1 1.5h-2.705l-1.295-2.266v-.734h2.968l-.968-1.697v-2.303h-1v1h-1v-1h-1v-1h5v1h-1v2l2 3.5zm-6-.5v-2h1v-1h-5v1h1v2l-.335.586h.335v1.586l.172-.172h-.14l.968-1.697v-2.303h1v2.303l.968 1.697h-.968v3h2l1-1.5-2-3.5z" id="iconBg"/><path class="icon-vs-fg" d="M11 4v-2h1v2.303l.168.252.8 1.445h-1.968v-2zm-3 5h.968l-.8-1.445-.168-.252v1.697zm0-1.828v-2.172h-1v2.303l-.168.252-.8 1.445h.14l1.828-1.828z" id="iconFg"/><path class="icon-vs-action-blue" d="M5 11.586l2-2v2l-3 3-3-3v-2l2 2v-3h2v3z" id="colorAction"/></svg>