<svg xmlns="http://www.w3.org/2000/svg" width="16" height="16"><style type="text/css">.icon-canvas-transparent{opacity:0;fill:#F6F6F6;} .icon-vs-out{fill:#F6F6F6;} .icon-vs-bg{fill:#424242;} .icon-vs-fg{fill:#F0EFF1;}</style><path class="icon-canvas-transparent" d="M16 16h-16v-16h16v16z" id="canvas"/><path class="icon-vs-out" d="M16 16h-16v-16h16v16z" id="outline"/><path class="icon-vs-bg" d="M9 13h2v2h-2v-2zm-4 2h2v-2h-2v2zm-4 0h2v-2h-2v2zm5.988-14h-5.988v11h1v-8h4.988v-3zm7.012 7v6h-2v1h3v-7h-1zm-6-2l2 2-3 3-2 1-1-1 1-2 3-3zm1 2l-1-1-2 2 1 1 2-2zm5-6c-.615-.555-1.533-.516-2 0l-2 2-1-1-1 1 4 4 1-1-1-1 2-2c.465-.518.615-1.445 0-2z" id="iconBg"/><path class="icon-vs-fg" d="M14 6.586l-.586-.586.586-.586v1.172zm-11.217 4.611l1.395-2.789 3.408-3.408-1-1h-4.586v9h2.585l-1.802-1.803zm9.217-1.783l-1-1-3.407 3.408-2.355 1.178h8.762v-5.586l-2 2zm-5 .586l-1-1 2-2 1 1-2 2z" id="iconFg"/></svg>