<?xml version="1.0" encoding="utf-8"?>
<!-- Generator: Adobe Illustrator 18.1.1, SVG Export Plug-In . SVG Version: 6.00 Build 0)  -->
<!DOCTYPE svg PUBLIC "-//W3C//DTD SVG 1.1//EN" "http://www.w3.org/Graphics/SVG/1.1/DTD/svg11.dtd">
<svg version="1.1" xmlns="http://www.w3.org/2000/svg" xmlns:xlink="http://www.w3.org/1999/xlink" x="0px" y="0px" width="64px"
	 height="64px" viewBox="0 0 64 64" style="enable-background:new 0 0 64 64;" xml:space="preserve">
<style type="text/css">
	.icon_x002D_canvas_x002D_transparent{opacity:0;fill:#F6F6F6;}
	.icon_x002D_white{fill:#FFFFFF;}
</style>
<g id="canvas">
	<path class="icon_x002D_canvas_x002D_transparent" d="M64,64H0V0h64V64z"/>
</g>
<g id="iconBg">
	<path class="icon_x002D_white" d="M37,46c0,3.313-2.687,6-6,6s-6-2.687-6-6s2.687-6,6-6S37,42.687,37,46z M60,39.177
		c0,0.588-0.026,1.17-0.064,1.748l-0.035-0.09c0,0-0.009,3.183-3.106,4.165H39.941c-0.2-1.743-0.936-3.328-2.036-4.609l10.33-16.168
		L47,23.25L35.058,38.178c-1.22-0.602-2.598-0.942-4.058-0.942c-4.624,0-8.441,3.403-8.941,7.765H7.041
		c-1.795-0.57-2.557-1.873-2.874-2.875C4.057,41.157,4,40.174,4,39.177C4,24.167,16.536,12,32,12S60,24.167,60,39.177z
		 M40.118,27.353c-2.604-1.808-6.344-3.391-9.717-3.391c-5.1,0-9.58,2.299-12.181,5.773c2.649-2.4,6.354-3.898,10.467-3.898
		c3.635,0,7.612,1.146,10.184,3.074L40.118,27.353z M44.129,22.339c-3.43-2.51-8.264-4.839-12.889-4.839
		c-6.799,0-12.772,3.065-16.24,7.698C18.531,21.998,23.473,20,28.956,20c4.64,0,9.941,2.095,13.404,4.55L44.129,22.339z"/>
	<g>
	</g>
	<g>
	</g>
	<g>
	</g>
	<g>
	</g>
	<g>
	</g>
	<g>
	</g>
</g>
</svg>
