<svg xmlns="http://www.w3.org/2000/svg" width="16" height="16"><style type="text/css">.icon-canvas-transparent{opacity:0;fill:#F6F6F6;} .icon-vs-out{fill:#F6F6F6;} .icon-vs-bg{fill:#424242;} .icon-vs-fg{fill:#F0EFF1;}</style><path class="icon-canvas-transparent" d="M16 16h-16v-16h16v16z" id="canvas"/><path class="icon-vs-out" d="M16 11h-1v2h-5v2h-10v-15h16v3h-4v1h4v7z" id="outline"/><path class="icon-vs-bg" d="M1 13h8v1h-8v-1zm10-10h-10v1h10v-1zm-10 9h13v-1h-13v1zm0-7h14v5h-14v-5zm1 2h12v-1h-12v1zm0 2h9v-1h-9v1zm-1-8v1h14v-1h-14z" id="iconBg"/><path class="icon-vs-fg" d="M14 6v1h-12v-1h12zm-12 3h9v-1h-9v1z" id="iconFg"/></svg>