<svg xmlns="http://www.w3.org/2000/svg" width="16" height="16"><style type="text/css">.icon-canvas-transparent{opacity:0;fill:#F6F6F6;} .icon-vs-out{fill:#F6F6F6;} .icon-vs-bg{fill:#424242;}</style><path class="icon-canvas-transparent" d="M16 16h-16v-16h16v16z" id="canvas"/><path class="icon-vs-out" d="M16 3v11h-15v-5.793c-.624-.811-1-1.816-1-2.894 0-.827.215-1.62.605-2.313h-.605v-1l1.5-2h4.699c1.625.33 2.902 1.504 3.468 3h6.333z" id="outline"/><path class="icon-vs-bg" d="M12 6h1v1h-1v-1zm-2 1h1v-1h-1v1zm0 4h1v-1h-1v1zm2-2h1v-1h-1v1zm0 2h1v-1h-1v1zm-4 0h1v-1h-1v1zm-2 0h1v-1h-1v1zm-2 0h1v-1h-1v1zm5.939-7c.034.227.061.454.061.688l-.021.312h4.021v7h-11v-2.24c-.361-.145-.689-.345-1-.57v3.81h13v-9h-5.061zm-7.439-3l-1 1h1.52c-1.198.627-2.02 1.868-2.02 3.313 0 1.815 1.288 3.339 3 3.687v-1c-1.145-.258-2-1.276-2-2.5 0-1.223.855-2.241 2-2.5v1.5l1-1v-2.5h-2.5zm5 8l1-1h-1.52c1.198-.627 2.02-1.868 2.02-3.312 0-1.816-1.288-3.34-3-3.688v1c1.145.258 2 1.276 2 2.5 0 1.223-.855 2.241-2 2.5v-1.5l-1 1v2.5h2.5z" id="iconBg"/></svg>