<svg xmlns="http://www.w3.org/2000/svg" width="36" height="108"><style type="text/css">.icon-canvas-transparent{opacity:0;fill:#F6F6F6;} .icon-f12-grey-primary{fill:#555555;} .icon-f12-blue-hover{fill:#2279BF;} .icon-f12-ltgrey-disabled{fill:#ABABAC;} .icon-f12-error-negative{fill:#ED1123;}</style><path class="icon-canvas-transparent" d="M36 108h-36v-108h36v108z" id="canvas"/><g id="iconBg"><path class="icon-f12-grey-primary" d="M34 9v24h-26v-17.414l2.064-2.477 2.115 1.891h-2.179v16h22v-16h-12.883l-5-6h19.883z"/><path class="icon-f12-blue-hover" d="M34 45v24h-26v-17.414l2.064-2.477 2.115 1.891h-2.179v16h22v-16h-12.883l-5-6h19.883z"/><path class="icon-f12-ltgrey-disabled" d="M34 81v24h-26v-17.414l2.064-2.477 2.115 1.891h-2.179v16h22v-16h-12.883l-5-6h19.883z"/></g><g id="colorAction"><path class="icon-f12-error-negative" d="M3.718 4.754c-.712-.701-.594-1.725 0-2.301.574-.561 1.756-.645 2.341 0l3.974 4.769 5.841-5.222h.844l-5.519 6.624 6.746 8.094h-.845l-7.248-6.48-5.021 6.026c-.585.646-1.767.56-2.341 0-.594-.575-.713-1.601 0-2.299l5.765-5.155-4.537-4.056z"/><path class="icon-f12-ltgrey-disabled" d="M3.718 76.754c-.712-.701-.594-1.725 0-2.301.574-.561 1.756-.645 2.341 0l3.974 4.769 5.841-5.222h.844l-5.519 6.624 6.746 8.094h-.845l-7.248-6.479-5.021 6.026c-.585.646-1.767.56-2.341 0-.594-.575-.713-1.601 0-2.299l5.765-5.155-4.537-4.057z"/><path class="icon-f12-error-negative" d="M3.718 40.754c-.712-.701-.594-1.725 0-2.301.574-.561 1.756-.646 2.341 0l3.974 4.769 5.841-5.222h.844l-5.519 6.624 6.746 8.094h-.845l-7.248-6.479-5.021 6.026c-.585.646-1.767.56-2.341 0-.594-.575-.713-1.601 0-2.299l5.765-5.155-4.537-4.057z"/></g></svg>