<svg xmlns="http://www.w3.org/2000/svg" width="16" height="16"><style type="text/css">.icon-canvas-transparent{opacity:0;fill:#F6F6F6;} .icon-vs-out{fill:#F6F6F6;} .icon-vs-bg{fill:#424242;} .icon-vs-fg{fill:#F0EFF1;}</style><path class="icon-canvas-transparent" d="M16 16h-16v-16h16v16z" id="canvas"/><path class="icon-vs-out" d="M16 7.586v.828l-7.586 7.586h-.828l-7.586-7.586v-.828l7.586-7.586h.828l7.586 7.586z" id="outline"/><path class="icon-vs-bg" d="M15 8l-7 7-7-7 7-7 7 7z" id="iconBg"/><g id="iconFg"><path class="icon-vs-fg" d="M12 8.5h-8v-1h8v1zm-3.5-4.5h-1v8h1v-8z"/><path class="icon-vs-fg" d="M9 4c0 .552-.448 1-1 1s-1-.448-1-1 .448-1 1-1 1 .448 1 1zm-5 3c-.552 0-1 .448-1 1s.448 1 1 1 1-.448 1-1-.448-1-1-1zm7 1c0 .552.448 1 1 1s1-.448 1-1-.448-1-1-1-1 .448-1 1zm-3 3c-.552 0-1 .448-1 1s.448 1 1 1 1-.448 1-1-.448-1-1-1zm1.5-3c0-.827-.673-1.5-1.5-1.5s-1.5.673-1.5 1.5.673 1.5 1.5 1.5 1.5-.673 1.5-1.5z"/></g><path class="icon-vs-bg" d="M9 8c0 .552-.448 1-1 1s-1-.448-1-1 .448-1 1-1 1 .448 1 1z" id="colorImportance"/></svg>