<svg xmlns="http://www.w3.org/2000/svg" width="16" height="16"><style type="text/css">.icon-canvas-transparent{opacity:0;fill:#F6F6F6;} .icon-vs-out{fill:#F6F6F6;} .icon-vs-bg{fill:#424242;} .icon-vs-fg{fill:#F0EFF1;} .icon-visualstudio{fill:#68217A;}</style><path class="icon-canvas-transparent" d="M16 16h-16v-16h16v16z" id="canvas"/><path class="icon-vs-out" d="M12.427 0l-7.525.002c-.945.063-1.902.738-1.902 1.905v4.679l-2 2v4.828l2 2 2-2 2.586 2.586h.65l2-1 3.845.003c.228 0 .676-.042 1.095-.32.307-.204.824-.695.824-1.683v-9.327l-3.573-3.673z" id="outline"/><path class="icon-vs-bg" d="M15 13c0 1.102-.984 1-.984 1h-3.016v-1h3.013l-.026-8h-2.987v-2.958l-6-.021v6.565l-1-1v-5.679c0-.842.969-.907.969-.907h7.036l2.995 3.079v8.921zm-8-8h3v-1h-3v1zm3 1.882v-.882h-1.764l1.764.882zm-3-.296l.586-.586h-.586v.586zm4 4.414h1v-1h-1v1zm0-2h1v-1h-1v1zm1-3h-1v1h1v-1z" id="iconBg"/><path class="icon-vs-fg" d="M11 5v-3h-6v6.625l2-2.039v-.586h.586l.217-.217.433.217h1.764v.882l1 .5v.618h1v1h-1v1h1v1h-1v2h2.979v-8h-2.979zm-1 0h-3v-1h3v1zm2 2h-1v-1h1v1zm-9 5v-2l1 1-1 1zm3-1l2-2v4l-2-2z" id="iconFg"/><path class="icon-visualstudio" d="M8 7l-3 3-2-2-1 1v4l1 1 2-2 3 3 2-1v-6l-2-1zm-5 5v-2l1 1-1 1zm3-1l2-2v4l-2-2z" id="colorImportance"/></svg>