<svg xmlns="http://www.w3.org/2000/svg" width="16" height="16"><style type="text/css">.icon-canvas-transparent{opacity:0;fill:#F6F6F6;} .icon-vs-out{fill:#F6F6F6;} .icon-vs-bg{fill:#424242;} .icon-vs-action-green{fill:#388A34;}</style><path class="icon-canvas-transparent" d="M16 16h-16v-16h16v16z" id="canvas"/><path class="icon-vs-out" d="M16 5.031v4h-1v4l-2.969 2.969h-2.062l-2.969-2.969v-5.464l-4.879 4.879-2.121-2.121 3.424-3.424c-2.625-.455-3.361-2.341-3.361-3.401 0-2.467 2.069-3.443 3.46-3.499h.002c1.679 0 2.817.688 3.534 1.673.712-.986 1.843-1.674 3.504-1.674 1.432.057 3.5 1.033 3.5 3.5 0 .499-.174 1.181-.621 1.811.537-.167 1.074-.28 1.559-.28h.999z" id="outline"/><path class="icon-vs-bg" d="M9 7.989v-1.414l-.575-.575h.575v-1h-.938v-.634c.002-.282.096-2.366 2.334-2.366 0 0 1.666.061 1.666 1.5 0 0-.008.243-.162.531h1.066c.095-.309.097-.531.097-.531 0-2.4-2.5-2.5-2.5-2.5-3.034 0-3.439 2.83-3.492 3.724l-.018-.019c-.058-.914-.479-3.705-3.49-3.705 0 0-2.5.1-2.5 2.5 0 0 0 2.5 3.6 2.5h1.076l-4.324 4.325.707.707 4.961-4.961 1.917 1.918zm-2.937-2.989h-1.6c-2.4 0-2.4-1.5-2.4-1.5 0-1.439 1.667-1.5 1.667-1.5 2.237 0 2.331 2.084 2.333 2.366v.634z" id="iconBg"/><path class="icon-vs-action-green" d="M12 10.031v2l2-2v2l-3 3-3-3v-2l2 2v-7h2v2c.833-.712 2.03-1 3-1v2c-1.102 0-3 .847-3 2z" id="notificationBg"/></svg>