<svg xmlns="http://www.w3.org/2000/svg" width="16" height="16"><style type="text/css">.icon-canvas-transparent{opacity:0;fill:#F6F6F6;} .icon-vs-out{fill:#F6F6F6;} .icon-vs-bg{fill:#424242;} .icon-vs-action-red{fill:#A1260D;}</style><path class="icon-canvas-transparent" d="M16 16h-16v-16h16v16z" id="canvas"/><path class="icon-vs-out" d="M15 2v14l-4-2-4 2v-8.757l-.393-.301-2.444 2.287c-.33.33-.798.523-1.296.523s-.966-.193-1.318-.544c-.355-.353-.549-.822-.549-1.321s.194-.968.547-1.321l.053-.052 2.393-1.768-1.969-1.7-.067-.091c-.555-.754-.482-1.772.171-2.421.344-.344.805-.534 1.296-.534.369 0 .729.108 1.039.312l.113.074 2.06 2.341 2.709-2.201 2.947.015-1.271 1.459h3.979z" id="outline"/><path class="icon-vs-bg" d="M14 3v11l-3-2-3 2v-5.989l1.533 1.177h3.076l-4.022-4.397 1.561-1.791h3.852z" id="iconBg"/><path class="icon-vs-action-red" d="M7.246 4.807l2.856-3.277-.405-.002-3.176 2.581-2.607-2.961c-.336-.221-.786-.2-1.082.096-.308.305-.319.779-.069 1.119l2.83 2.444-3.339 2.467c-.339.338-.339.887 0 1.225.339.337.888.337 1.226 0l3.063-2.867 3.33 2.555h.466l-3.093-3.38z" id="colorAction"/></svg>