<svg xmlns="http://www.w3.org/2000/svg" width="16" height="16"><style type="text/css">.icon-canvas-transparent{opacity:0;fill:#F6F6F6;} .icon-vs-out{fill:#F6F6F6;} .icon-vs-bg{fill:#424242;} .icon-vs-fg{fill:#F0EFF1;}</style><path class="icon-canvas-transparent" d="M16 16h-16v-16h16v16z" id="canvas"/><path class="icon-vs-out" d="M3.611 14l-2.611-2.393v-8.213l2.611-2.394h9.778l2.611 2.394v8.214l-2.611 2.392h-9.778z" id="outline"/><path class="icon-vs-fg" d="M6.423 8.144l.761-.109v.346c0 .131-.021.252-.059.365-.038.111-.093.211-.165.295-.072.084-.157.15-.256.199-.1.049-.213.073-.337.073l-.242-.041-.185-.114-.117-.172-.041-.218.027-.232.098-.18c.048-.053.112-.098.195-.133.083-.033.19-.061.321-.079zm4.656-1.167c-.067-.104-.148-.184-.244-.238s-.205-.082-.327-.082c-.121 0-.231.027-.331.082-.101.054-.185.132-.257.232-.072.101-.128.22-.168.359-.04.139-.061.295-.061.465v.506c0 .137.019.264.057.381.037.117.088.221.154.307.067.088.146.158.237.207.092.051.193.076.301.076.13 0 .245-.031.35-.092.104-.059.191-.148.264-.266.073-.117.129-.266.168-.445.04-.18.06-.387.06-.621 0-.184-.018-.348-.052-.494-.035-.147-.084-.272-.151-.377zm2.921-2.764v6.574l-1.414 1.213h-8.172l-1.414-1.213v-6.574l1.414-1.213h8.172l1.414 1.213zm-6.038 3.256c0-.238-.027-.451-.083-.637-.055-.184-.139-.342-.249-.471-.111-.129-.253-.226-.424-.295-.171-.068-.374-.101-.608-.101l-.368.033-.363.086-.31.109-.212.114v.768c.158-.132.34-.235.544-.313.204-.078.413-.117.627-.117.213 0 .377.063.494.186.116.125.174.324.174.6l-1.03.154c-.205.026-.38.077-.526.151-.146.074-.265.166-.357.28-.094.111-.162.238-.206.38-.044.143-.065.297-.065.461 0 .17.025.323.074.463.049.141.121.26.216.362.093.1.21.178.352.234.139.057.298.084.478.084.229 0 .431-.053.603-.16.173-.105.319-.26.44-.463h.014v.529h.785v-2.437zm4.038.392c0-.258-.025-.502-.074-.734-.05-.233-.125-.436-.228-.611-.103-.176-.235-.315-.394-.416-.16-.104-.352-.153-.573-.153-.123 0-.234.018-.336.052-.102.035-.194.084-.278.146-.084.063-.158.137-.226.223l-.181.288h-.013v-2.656h-.697v5.887h.697v-.485h.013l.151.229.191.186c.071.053.151.092.238.121.088.029.186.043.292.043.23 0 .434-.053.609-.16.176-.106.323-.254.443-.443.12-.188.211-.412.273-.672.062-.261.093-.54.093-.845z" id="iconFg"/><path class="icon-vs-bg" d="M13 2h-9l-2 1.833v7.333l2 1.834h9l2-1.833v-7.334l-2-1.833zm1 8.787l-1.414 1.213h-8.172l-1.414-1.213v-6.574l1.414-1.213h8.172l1.414 1.213v6.574zm-6.37-4.426c-.111-.129-.253-.226-.424-.295-.171-.068-.374-.101-.608-.101l-.368.033-.363.086-.31.109-.212.114v.768c.158-.132.34-.235.544-.313.204-.078.413-.117.627-.117.213 0 .377.063.494.186.116.125.174.324.174.6l-1.03.154c-.205.026-.38.077-.526.151-.146.074-.265.166-.357.28-.094.111-.162.238-.206.38-.044.143-.065.297-.065.461 0 .17.025.323.074.463.049.141.121.26.216.362.093.1.21.178.352.234.139.057.298.084.478.084.229 0 .431-.053.603-.16.173-.105.319-.26.44-.463h.014v.529h.785v-2.437c0-.238-.027-.451-.083-.637-.055-.184-.139-.342-.249-.471zm-.446 2.02c0 .131-.021.252-.059.365-.038.111-.093.211-.165.295-.072.084-.157.15-.256.199-.1.049-.213.073-.337.073l-.242-.041-.185-.114-.117-.172-.041-.218.027-.232.098-.18c.048-.053.112-.098.195-.133.083-.033.19-.061.32-.078l.761-.109v.345zm4.514-1.865c-.103-.176-.235-.315-.394-.416-.16-.104-.352-.153-.573-.153-.123 0-.234.018-.336.052-.102.035-.194.084-.278.146-.084.063-.158.137-.226.223l-.181.288h-.013v-2.656h-.697v5.887h.697v-.485h.013l.151.229.191.186c.071.053.151.092.238.121.088.029.186.043.292.043.23 0 .434-.053.609-.16.176-.106.323-.254.443-.443.12-.188.211-.412.273-.672.062-.261.093-.54.093-.845 0-.258-.025-.502-.074-.734-.05-.233-.125-.436-.228-.611zm-.476 1.953c-.039.18-.095.328-.168.445-.072.117-.16.207-.264.266-.104.06-.22.092-.35.092-.107 0-.209-.025-.301-.076-.091-.049-.17-.119-.237-.207-.066-.086-.117-.19-.154-.307-.037-.117-.057-.244-.057-.381v-.506c0-.17.021-.326.061-.465.04-.139.096-.258.168-.359.072-.1.156-.178.257-.232.1-.055.21-.082.331-.082.122 0 .232.027.327.082s.177.135.244.238c.066.105.116.23.15.377.034.147.052.311.052.494 0 .234-.019.441-.059.621z" id="iconBg"/></svg>