<svg xmlns="http://www.w3.org/2000/svg" width="16" height="16"><style type="text/css">.icon-canvas-transparent{opacity:0;fill:#F6F6F6;} .icon-vs-out{fill:#F6F6F6;} .icon-vs-bg{fill:#424242;} .icon-vs-blue{fill:#1BA1E2;}</style><path class="icon-canvas-transparent" d="M16 16h-16v-16h16v16z" id="canvas"/><path class="icon-vs-out" d="M15.812 9.713c.11.413.188.839.188 1.287 0 2.761-2.239 5-5 5-.446 0-.87-.078-1.279-.191-.555.122-1.13.191-1.721.191-4.418 0-8-3.582-8-8s3.582-8 8-8 8 3.582 8 8c0 .588-.068 1.16-.188 1.713z" id="outline"/><g id="iconBg"><path class="icon-vs-bg" d="M7.897 14.892c-.144.037-.291.063-.441.082.18.015.361.026.544.026l.052-.003-.155-.105z"/><path class="icon-vs-blue" d="M7.888 3.321c-.628-.676-1.217-1.352-1.882-2.029.632-.188 1.301-.292 1.994-.292 1.564 0 3.004.519 4.169 1.386-1.112-.113-2.612.034-4.281.935zm2.606 2.716c.167-.017.334-.037.506-.037 1.642 0 3.087.803 3.998 2.025l.002-.025c0-1.75-.646-3.346-1.708-4.573-.653.015-2.224.157-4.217 1.236.483.482.957.937 1.419 1.374zm-3.969 2.773c.576-1.175 1.596-2.085 2.84-2.522-.434-.359-.865-.727-1.27-1.109-.619.413-1.239.877-1.91 1.548l-.258.258c.38.618.351 1.362.024 2.001.184-.075.375-.137.574-.176zm-2.525 3.065c0-.647.206-1.242.543-1.74-.224.045-.441.049-.681.049-.435 1.159-.502 2.301-.468 3.079.622.544 1.34.981 2.125 1.281-.906-.547-1.519-1.532-1.519-2.669zm-1.583-5.148c-.447-.935-.467-1.724-.383-2.375-.652 1.063-1.034 2.309-1.034 3.648 0 1.429.43 2.757 1.166 3.865.053-.709.157-1.554.406-2.403l-.155-.155c-.619-.723-.619-1.806 0-2.58zm2.065-.826l.258-.31c.723-.722 1.342-1.238 2.013-1.703-.7-.7-1.298-1.443-1.79-2.188-.857.415-1.616.995-2.234 1.704-.04.627.033 1.483.566 2.549.413-.103.774-.103 1.187-.052z"/><path class="icon-vs-bg" d="M7.611 13.794l-.165.826c-.228.012-.454-.004-.678-.049l-.042-.841c-.183-.059-.358-.145-.52-.26l-.698.465-.248-.235-.196-.28.562-.623c-.09-.177-.149-.362-.181-.552l-.825-.165c-.012-.227.005-.454.05-.678l.841-.042c.059-.183.145-.358.26-.519l-.465-.699.235-.248.28-.196.623.563c.176-.09.362-.149.552-.181l.013-.065.54.42-.017.122-.1.039c-.353-.034-.719.069-1.009.319l-.111.117-.044.018.003.025c-.416.497-.428 1.235.011 1.743.147.17.328.288.522.366l.01.026.044-.006c.39.136.827.09 1.186-.148l.116-.015.074.099-.229.524c-.13.053-.259.107-.394.13zm6.212-2.824l1.177-.458c-.041-.34-.125-.67-.25-.988l-1.254.157c-.135-.255-.308-.491-.52-.699l.505-1.154c-.134-.105-.261-.216-.412-.305l-.464-.217-.773.994c-.284-.087-.573-.126-.862-.124l-.459-1.176c-.339.042-.669.126-.988.251l.158 1.253c-.255.135-.491.308-.699.519l-1.153-.505c-.105.134-.216.262-.305.412-.09.15-.149.308-.217.464l.994.773c-.087.284-.126.573-.123.862l-1.177.458c.041.34.125.67.25.988l1.254-.157c.135.255.308.491.519.7l-.505 1.153c.134.105.261.216.412.305l.464.217.773-.993c.284.087.574.126.863.123l.458 1.177c.339-.042.669-.126.988-.251l-.158-1.253c.255-.135.491-.307.699-.519l1.154.505c.105-.134.215-.261.305-.412.089-.15.149-.308.217-.464l-.994-.773c.087-.284.126-.573.123-.863zm-1.084 1.065c-.571.959-1.811 1.276-2.773.703-.962-.573-1.274-1.814-.703-2.773.571-.959 1.811-1.276 2.773-.703.962.573 1.274 1.814.703 2.773zm-1.739.135c.416 0 .792-.213 1.005-.571.16-.269.206-.583.129-.885-.076-.303-.266-.558-.535-.718-.182-.108-.388-.165-.597-.165-.416 0-.792.213-1.006.572-.329.553-.147 1.272.407 1.602.181.108.387.165.597.165z"/></g></svg>