<svg xmlns="http://www.w3.org/2000/svg" width="16" height="16"><style type="text/css">.icon-canvas-transparent{opacity:0;fill:#F6F6F6;} .icon-vs-out{fill:#F6F6F6;} .icon-vs-fg{fill:#F0EFF1;} .graph-yellow{fill:#FCB714;} .graph-frame-lime{fill:#9ECA00;}</style><path class="icon-canvas-transparent" d="M16 16h-16v-16h16v16z" id="canvas"/><path class="icon-vs-out" d="M1 16v-16h13v1h1v13h-1v2h-13z" id="outline"/><path class="graph-frame-lime" d="M11 13v-6h1v-2h-1v-3h1v-1h-10v14h10v-2h-1zm-6 0h-1v-4h1v4zm2 0h-1v-4h1v4zm0-5h-2v-1h2v1zm3 4h-2v-3h2v3zm-2-4v-1h1v1h-1zm2-2h-5v-3h5v3z" id="iconBg"/><g id="iconFg"><path class="icon-vs-fg" d="M10 6h-5v-3h5v3zm-1 1h-1v1h1v-1zm1 2h-2v3h2v-3zm-3 0h-1v4h1v-4zm-2 0h-1v4h1v-4z"/><path class="graph-yellow" d="M11 2h3v3h-3v-3zm0 11h3v-6h-3v6zm-4-6h-2v1h2v-1z"/></g></svg>