<svg xmlns="http://www.w3.org/2000/svg" width="16" height="16"><style type="text/css">.icon-canvas-transparent{opacity:0;fill:#F6F6F6;} .icon-vs-out{fill:#F6F6F6;} .icon-vs-bg{fill:#424242;} .icon-vs-fg{fill:#F0EFF1;}</style><path class="icon-canvas-transparent" d="M16 16h-16v-16h16v16z" id="canvas"/><path class="icon-vs-out" d="M1 16v-16h13v1h1v13h-1v2h-13z" id="outline"/><path class="icon-vs-bg" d="M5 7h2v1h-2v-1zm-1 6h1v-4h-1v4zm2 0h1v-4h-1v4zm2-1h2v-3h-2v3zm0-5v1h1v-1h-1zm5-2v2h1v6h-1v2h-11v-14h11v1h1v3h-1zm-1 0h-1v-3h-8v12h9v-1h-1v-6h1v-2zm-7 1h5v-3h-5v3z" id="iconBg"/><path class="icon-vs-fg" d="M12 7v-2h-1v-3h-8v12h9v-1h-1v-6h1zm-7 6h-1v-4h1v4zm2 0h-1v-4h1v4zm0-5h-2v-1h2v1zm3 4h-2v-3h2v3zm-2-4v-1h1v1h-1zm2-2h-5v-3h5v3z" id="iconFg"/></svg>