<svg xmlns="http://www.w3.org/2000/svg" width="16" height="16"><style type="text/css">.icon-canvas-transparent{opacity:0;fill:#F6F6F6;} .icon-vs-out{fill:#F6F6F6;} .icon-vs-bg{fill:#424242;} .icon-vs-fg{fill:#F0EFF1;}</style><path class="icon-canvas-transparent" d="M16 16h-16v-16h16v16z" id="canvas"/><path class="icon-vs-out" d="M15.986 12.773c0 1.622-1.175 2.992-2.731 3.186-.026.011-.156.041-.317.041h-12.938v-16h10v7.124c.49.127.954.346 1.352.667l.387-.025c1.434 0 2.657 1.029 2.983 2.423.782.6 1.264 1.564 1.264 2.584z" id="outline"/><path class="icon-vs-bg" d="M4 12.607c0-1.232.644-2.354 1.649-2.949.455-1.528 1.785-2.593 3.351-2.648v-6.01h-8v14h3.947c-.585-.614-.947-1.46-.947-2.393zm0-10.607h4v1h-4v-1zm0 2h4v1h-4v-1zm0 2h4v1h-4v-1zm-1 1h-1v-1h1v1zm0-2h-1v-1h1v1zm0-2h-1v-1h1v1zm10.804 7.785c-.072-1.126-.971-2.02-2.064-2.02-.236 0-.466.043-.682.123-.483-.551-1.172-.888-1.934-.888-1.312 0-2.404 1.019-2.607 2.349-.882.324-1.517 1.222-1.517 2.258 0 1.31.978 2.393 2.243 2.393h5.694l.193-.034c1.051-.13 1.855-1.072 1.855-2.193.001-.869-.482-1.629-1.181-1.988zm-.804 3.196v.019h-6v-.023c0-.012-1.122-.623-1.122-1.389 0-.768.625-1.389 1.322-1.389l.31.038c-.034-.145-.042-.293-.042-.451 0-1.003.743-1.813 1.649-1.813.819 0 1.497.665 1.622 1.531.154-.444.542-.761.999-.761.591 0 1.07.527 1.07 1.181 0 .246-.067.473-.181.662l.258-.036c.608 0 1.133.545 1.133 1.216-.001.654-.018 1.181-1.018 1.215z" id="iconBg"/><path class="icon-vs-fg" d="M3 3h-1v-1h1v1zm0 1h-1v1h1v-1zm5-2h-4v1h4v-1zm0 2h-4v1h4v-1zm-5 2h-1v1h1v-1zm5 0h-4v1h4v-1zm6.017 6.767c0-.671-.525-1.216-1.133-1.216l-.258.036c.114-.189.181-.416.181-.662 0-.653-.479-1.181-1.07-1.181-.457 0-.845.316-.999.761-.125-.866-.803-1.531-1.622-1.531-.906 0-1.649.81-1.649 1.813 0 .157.008.305.042.451-.09-.023-.213-.038-.31-.038-.696 0-1.322.621-1.322 1.389.001.765 1.123 1.376 1.123 1.388v.023h6v-.019c1-.034 1.017-.561 1.017-1.214z" id="iconFg"/></svg>