<svg xmlns="http://www.w3.org/2000/svg" width="16" height="16"><style type="text/css">.icon-canvas-transparent{opacity:0;fill:#F6F6F6;} .icon-vs-out{fill:#F6F6F6;} .icon-vs-bg{fill:#424242;} .icon-disabled-grey{fill:#848484;} .icon-vs-blue{fill:#1BA1E2;} .graph-frame-lime{fill:#9ECA00;}</style><path class="icon-canvas-transparent" d="M16 16h-16v-16h16v16z" id="canvas"/><path class="icon-vs-out" d="M15.986 12.773c0 1.622-1.175 2.992-2.731 3.186-.026.011-.156.041-.317.041h-12.938v-16h10v7.124c.49.127.954.346 1.352.667l.387-.025c1.434 0 2.657 1.029 2.983 2.423.782.6 1.264 1.564 1.264 2.584z" id="outline"/><g id="iconBg"><path class="icon-vs-bg" d="M4 12.607c0-1.232.644-2.354 1.649-2.949.455-1.528 1.785-2.593 3.351-2.648v-6.01h-8v14h3.947c-.585-.614-.947-1.46-.947-2.393z"/><rect x="4" y="2" class="icon-vs-bg" width="4" height="1"/><rect x="4" y="4" class="icon-vs-bg" width="4" height="1"/><rect x="4" y="6" class="icon-vs-bg" width="4" height="1"/><rect x="2" y="6" class="icon-vs-bg" width="1" height="1"/><rect x="2" y="4" class="icon-vs-bg" width="1" height="1"/><rect x="2" y="2" class="icon-vs-bg" width="1" height="1"/><path class="icon-vs-blue" d="M13.804 10.785c-.072-1.126-.971-2.02-2.064-2.02-.236 0-.466.043-.682.123-.483-.551-1.172-.888-1.934-.888-1.312 0-2.404 1.019-2.607 2.349-.882.324-1.517 1.222-1.517 2.258 0 1.31.978 2.393 2.243 2.393h5.694l.193-.034c1.051-.13 1.855-1.072 1.855-2.193.001-.869-.482-1.629-1.181-1.988z"/></g><g id="iconFg"><rect x="2" y="2" class="graph-frame-lime" width="1" height="1"/><rect x="2" y="4" class="graph-frame-lime" width="1" height="1"/><rect x="4" y="2" class="icon-disabled-grey" width="4" height="1"/><rect x="4" y="4" class="icon-disabled-grey" width="4" height="1"/><rect x="2" y="6" class="graph-frame-lime" width="1" height="1"/><rect x="4" y="6" class="icon-disabled-grey" width="4" height="1"/></g></svg>