<svg xmlns="http://www.w3.org/2000/svg" width="16" height="16"><style type="text/css">.icon-canvas-transparent{opacity:0;fill:#F6F6F6;} .icon-white{fill:#FFFFFF;} .icon-vso-bg{fill:#656565;}</style><path class="icon-canvas-transparent" d="M16 16h-16v-16h16v16z" id="canvas"/><path class="icon-white" d="M5 6h11v3h-11v2h11v3h-11v1h-5v-15h5v1h11v3h-11v2z" id="outline"/><path class="icon-vso-bg" d="M1 6h3v3h-3v-3zm0 8h3v-3h-3v3zm0-10h3v-3h-3v3zm5 9h9v-1h-9v1zm0-11v1h9v-1h-9zm0 6h9v-1h-9v1z" id="iconBg"/></svg>