<?xml version="1.0" encoding="utf-8"?>
<!-- Generator: Adobe Illustrator 19.0.1, SVG Export Plug-In . SVG Version: 6.00 Build 0)  -->
<!DOCTYPE svg PUBLIC "-//W3C//DTD SVG 1.1//EN" "http://www.w3.org/Graphics/SVG/1.1/DTD/svg11.dtd">
<svg version="1.1" xmlns="http://www.w3.org/2000/svg" xmlns:xlink="http://www.w3.org/1999/xlink" x="0px" y="0px" width="16px"
	 height="16px" viewBox="0 0 16 16" style="enable-background:new 0 0 16 16;" xml:space="preserve">
<style type="text/css">
	.icon_x002D_canvas_x002D_transparent{opacity:0;fill:#F6F6F6;}
	.icon_x002D_vs_x002D_out{fill:#F6F6F6;}
	.icon_x002D_vs_x002D_bg{fill:#424242;}
	.icon_x002D_vs_x002D_fg{fill:#F0EFF1;}
	.icon_x002D_vs_x002D_action_x002D_blue{fill:#00539C;}
</style>
<g id="canvas">
	<path id="XMLID_2_" class="icon_x002D_canvas_x002D_transparent" d="M16,16H0V0h16V16z"/>
</g>
<g id="outline">
	<path id="XMLID_3_" class="icon_x002D_vs_x002D_out" d="M16,13h-2v3H4V7.401L0,3.413V2.586L2.586,0h0.837l4.086,4H16V13z"/>
</g>
<g id="iconBg">
	<path id="XMLID_5_" class="icon_x002D_vs_x002D_bg" d="M15,5v7h-2v3H5V8.398l1,0.997V14h6v-2H7v-1.607L7.609,11h0.39H11h1v-1h-1V8
		h2v3h1V7h-3.427L8.53,5H15z"/>
</g>
<g id="iconFg">
	<path id="XMLID_7_" class="icon_x002D_vs_x002D_fg" d="M7,12h5v2H6V9.396l1,0.998V12z M11,11h0.999v-1H11V11z M10.573,7L11,7.417V8
		h2v3h1V7H10.573z"/>
</g>
<g id="colorAction">
	<path id="XMLID_11_" class="icon_x002D_vs_x002D_action_x002D_blue" d="M9,6.999l-2,2L3,5l2-2L9,6.999z M3,1L1,3l1,1l2-2L3,1z
		 M8,10l2-0.001V8L8,10z"/>
	<g id="XMLID_15_">
	</g>
	<g id="XMLID_16_">
	</g>
	<g id="XMLID_17_">
	</g>
	<g id="XMLID_18_">
	</g>
	<g id="XMLID_19_">
	</g>
	<g id="XMLID_20_">
	</g>
</g>
</svg>
