<svg xmlns="http://www.w3.org/2000/svg" width="16" height="16"><style type="text/css">.icon-canvas-transparent{opacity:0;fill:#F6F6F6;} .icon-vs-action-blue{fill:#00539C;} .icon-white{fill:#FFFFFF;} .icon-vso-bg{fill:#656565;}</style><path class="icon-canvas-transparent" d="M16 16h-16v-16h16v16z" id="canvas"/><path class="icon-white" d="M16 13h-2v3h-10v-8.599l-4-3.988v-.827l2.586-2.586h.837l4.086 4h8.491v9z" id="outline"/><path class="icon-vso-bg" d="M15 5v7h-2v3h-8v-6.602l1 .997v4.605h6v-2h-5v-1.607l.609.607h4.391v-1h-1v-2h2v3h1v-4h-3.427l-2.043-2h6.47z" id="iconBg"/><path class="icon-white" d="M7 12h5v2h-6v-4.604l1 .998v1.606zm4-1h.999v-1h-.999v1zm-.427-4l.427.417v.583h2v3h1v-4h-3.427z" id="iconFg"/><path class="icon-vs-action-blue" d="M9 6.999l-2 2-4-3.999 2-2 4 3.999zm-6-5.999l-2 2 1 1 2-2-1-1zm5 9l2-.001v-1.999l-2 2z" id="colorAction"/></svg>