<svg xmlns="http://www.w3.org/2000/svg" width="16" height="16"><style type="text/css">.icon-canvas-transparent{opacity:0;fill:#F6F6F6;} .icon-white{fill:#FFFFFF;} .icon-vso-bg{fill:#656565;}</style><path class="icon-canvas-transparent" d="M16 16h-16v-16h16v16z" id="canvas"/><path class="icon-white" d="M5 2h-1c-1.969.021-3 1.277-3 3v1l-1 1v2l1 1v1c0 1.71 1.317 2.979 3.286 3h11.714v-12h-11z" id="outline"/><path class="icon-vso-bg" d="M4 3v1c-.416 0-1 .16-1 1v1c0 .833-.496 1.731-1 2 .504.264 1 1.166 1 2v1s.167 1 1 1v1c-2.083 0-2-1.166-2-2v-1c0-.947-.678-.98-1-1v-2c.297-.019 1-.031 1-1v-1c0-.833-.083-2 2-2zm11 0v4h-9v-4h9zm-1 1h-7v2h7v-2zm-8 5h9v4h-9v-4zm1 3h7v-2h-7v2z" id="iconBg"/><path class="icon-white" d="M7 10h7v2h-7v-2zm0-6v2h7v-2h-7z" id="iconFg"/></svg>