<?xml version="1.0" encoding="utf-8"?>
<!-- Generator: Adobe Illustrator 19.0.0, SVG Export Plug-In . SVG Version: 6.00 Build 0)  -->
<!DOCTYPE svg PUBLIC "-//W3C//DTD SVG 1.1//EN" "http://www.w3.org/Graphics/SVG/1.1/DTD/svg11.dtd">
<svg version="1.1" xmlns="http://www.w3.org/2000/svg" xmlns:xlink="http://www.w3.org/1999/xlink" x="0px" y="0px" width="16px"
	 height="16px" viewBox="0 0 16 16" style="enable-background:new 0 0 16 16;" xml:space="preserve">
<style type="text/css">
	.icon-canvas-transparent{opacity:0;fill:#F6F6F6;}
	.st0{fill:#717171;}
</style>
<g id="canvas">
	<path class="icon-canvas-transparent" d="M16,16H0V0h16V16z"/>
</g>
<g id="iconBg">
	<path class="st0" d="M2.542,15c-0.421,0-0.771-0.14-1.052-0.42C1.14,14.3,1,13.88,1,13.53c0-0.42,0.14-0.77,0.421-1.05l3.645-3.71
		C4.505,7.58,4.295,6.25,4.645,4.99C5.206,2.68,7.309,1,9.763,1c0.421,0,0.841,0.07,1.262,0.14c1.402,0.35,2.524,1.19,3.225,2.38
		c0.701,1.19,0.911,2.59,0.631,3.99c-0.561,2.38-2.664,3.99-5.117,3.99c-0.421,0-0.841-0.07-1.262-0.14
		c-0.421-0.14-0.841-0.28-1.262-0.49l-3.645,3.64C3.313,14.86,2.893,15,2.542,15 M9.763,2.96c-1.542,0-2.804,1.05-3.155,2.52
		c-0.21,0.91-0.07,1.82,0.491,2.59C7.309,8.42,7.589,8.7,7.94,8.91S8.641,9.33,8.991,9.4c0.28,0.07,0.491,0.07,0.771,0.07
		c1.542,0,2.804-1.05,3.154-2.52c0.21-0.84,0.07-1.75-0.351-2.45c-0.491-0.7-1.192-1.19-2.033-1.4
		C10.253,3.03,9.973,2.96,9.763,2.96"/>
</g>
</svg>
