<svg xmlns="http://www.w3.org/2000/svg" viewBox="0 0 16 16" enable-background="new 0 0 16 16"><style type="text/css">.icon-canvas-transparent{opacity:0;fill:#F6F6F6;} .icon-white{fill:#FFFFFF;}</style><path class="icon-canvas-transparent" d="M16 16h-16v-16h16v16z" id="canvas"/><g id="iconBg"><path class="icon-white" d="M1.323 13.07l1.607 1.609 4.822-4.82c.649.326.968.797 2.419.797 2.669 0 4.829-2.162 4.829-4.828 0-2.667-2.16-4.828-4.828-4.828-2.666 0-4.804 2.161-4.804 4.828 0 1.609.447 1.771.776 2.422l-4.821 4.82zm5.117-7.242c0-2.092 1.63-3.755 3.723-3.755 2.092 0 3.787 1.663 3.787 3.755 0 2.092-1.695 3.754-3.787 3.754-2.093 0-3.723-1.662-3.723-3.754"/></g></svg>