<svg xmlns="http://www.w3.org/2000/svg" width="16" height="16"><style type="text/css">.icon-canvas-transparent{opacity:0;fill:#F6F6F6;} .icon-vs-out{fill:#F6F6F6;} .icon-vs-bg{fill:#424242;} .icon-vs-fg{fill:#F0EFF1;}</style><path class="icon-canvas-transparent" d="M16 16h-16v-16h16v16z" id="canvas"/><path class="icon-vs-out" d="M16 15h-16v-15h16v15z" id="outline"/><path class="icon-vs-bg" d="M10.54 5.538l2.46 4.101v2.361h-9.428l1.967-3.541 1.545 2.318c.099.149.275.229.447.222.178-.011.336-.116.416-.275l2.593-5.186zm4.46-4.538v13h-14v-13h14zm-1 1h-12v11h12v-11zm-8.521 5c.169-.018.34.077.437.222l1.522 2.283 2.614-5.229c.083-.163.247-.269.429-.276.216-.017.354.086.448.242l2.071 3.453v-4.695h-10v7.97l2.063-3.712c.084-.153.243-.251.416-.258z" id="iconBg"/><path class="icon-vs-fg" d="M2 2v11h12v-11h-12zm11 1v4.695l-2.071-3.452c-.094-.156-.233-.26-.448-.243-.182.007-.346.113-.428.276l-2.615 5.23-1.522-2.283c-.097-.146-.268-.241-.437-.223-.173.007-.332.105-.416.257l-2.063 3.713v-7.97h10zm-9.428 9l1.967-3.541 1.545 2.318c.099.149.275.229.447.222.178-.011.336-.116.416-.275l2.593-5.186 2.46 4.101v2.361h-9.428z" id="iconFg"/></svg>