<svg xmlns="http://www.w3.org/2000/svg" width="16" height="16"><style type="text/css">.icon-canvas-transparent{opacity:0;fill:#F6F6F6;} .icon-vs-out{fill:#F6F6F6;} .icon-vs-bg{fill:#424242;} .icon-vs-fg{fill:#F0EFF1;} .icon-vs-action-blue{fill:#00539C;}</style><path class="icon-canvas-transparent" d="M16 16h-16v-16h16v16z" id="canvas"/><path class="icon-vs-out" d="M14 0v16h-12.535l-1.465-2.197v-.568l2-3.5v-.735h-1v-3h2v-6h11z" id="outline"/><path class="icon-vs-bg" d="M8.869 14l-.668 1h4.799v-14h-9v5h1v-4h7v10h-3.705l.571 1 .003 1zm3.131 0h-1v-1h1v1z" id="iconBg"/><path class="icon-vs-fg" d="M3.032 12l.8-1.445.168-.252v-2.303h1v2.303l.168.252.8 1.445h-2.936zm7.968 2h1v-1h-1v1zm-6-12v4h3v3h-1v.734l1.295 2.266h3.705v-10h-7z" id="iconFg"/><path class="icon-vs-action-blue" d="M6 10v-2h1v-1h-5v1h1v2l-2 3.5 1 1.5h5l1-1.5-2-3.5zm-2.968 2l.8-1.445.168-.252v-2.303h1v2.303l.168.252.8 1.445h-2.936z" id="colorImportance"/></svg>