<svg xmlns="http://www.w3.org/2000/svg" width="16" height="16"><style type="text/css">.icon-canvas-transparent{opacity:0;fill:#F6F6F6;} .icon-vs-out{fill:#F6F6F6;} .icon-vs-fg_x0020_2{fill:#F0EFF1;} .icon-vs-action-blue{fill:#00539C;} .icon-vs-blue_x0020_4{fill:#1BA1E2;}</style><path class="icon-canvas-transparent" d="M16 16h-16v-16h16v16z" id="canvas"/><path class="icon-vs-out" d="M16 15h-16v-14h16v14z" id="outline"/><g id="iconBg"><path class="icon-vs-blue_x0020_4" d="M1 5h14v9h-14v-9z"/><path class="icon-vs-action-blue" d="M15 5h-14v-3h14v3z"/></g><g id="iconFg"><path class="icon-vs-fg_x0020_2" d="M3 2.5c-.552 0-1 .448-1 1s.448 1 1 1 1-.448 1-1-.448-1-1-1zm11 1.5h-8v-1h8v1z"/><path class="icon-vs-action-blue" d="M6 10c0 .552-.448 1-1 1s-1-.448-1-1 .448-1 1-1 1 .448 1 1zm2-1c-.552 0-1 .448-1 1s.448 1 1 1 1-.448 1-1-.448-1-1-1zm3 0c-.552 0-1 .448-1 1s.448 1 1 1 1-.448 1-1-.448-1-1-1z"/></g></svg>