<svg xmlns="http://www.w3.org/2000/svg" width="16" height="16"><style type="text/css">.icon-canvas-transparent{opacity:0;fill:#F6F6F6;} .icon-vs-out{fill:#F6F6F6;} .icon-vs-bg{fill:#424242;}</style><path class="icon-canvas-transparent" d="M16 16h-16v-16h16v16z" id="canvas"/><path class="icon-vs-out" d="M7.103 13l-1.023-.965-.43.965h-5.65v-3h1v-2h1v-2h1v-2h1v-2h12v11h-8.897z" id="outline"/><path class="icon-vs-bg" d="M7.666 6h-3.666v-1h4.111l-.445 1zm1.334-3h-4v1h3.556l.444-1zm-1.777 4h-4.223v1h3.777l.446-1zm-6.223 4v1h4l.444-1h-4.444zm5.334-2h-4.334v1h3.889l.445-1zm8.666-6h-4l-1.437.984-3.119 7.02 1.056.996h7.5v-9z" id="iconBg"/></svg>