<svg xmlns="http://www.w3.org/2000/svg" width="22" height="22"><style type="text/css">.icon-canvas-transparent{opacity:0;fill:#F6F6F6;} .icon-vs-out{fill:#F6F6F6;} .icon-vs-bg{fill:#424242;} .icon-vs-fg{fill:#F0EFF1;}</style><path class="icon-canvas-transparent" d="M22 22h-22v-22h22v22z" id="canvas"/><path class="icon-vs-out" d="M21 21h-20v-20h20v20z" id="outline"/><path class="icon-vs-bg" d="M2 2v18h18v-18h-18zm9 2c1.654 0 3 1.344 3 3 0 1.657-1.346 3-3 3-1.657 0-3-1.343-3-3 0-1.656 1.343-3 3-3zm5 14h-10v-7h3l2 3 2-3h3v7z" id="iconBg"/><path class="icon-vs-fg" d="M8 7c0-1.656 1.343-3 3-3 1.654 0 3 1.344 3 3 0 1.657-1.346 3-3 3-1.657 0-3-1.343-3-3m8 4v7h-10v-7h3l2 3 2-3h3z" id="iconFg"/></svg>