<svg xmlns="http://www.w3.org/2000/svg" width="20" height="20"><style type="text/css">.icon-canvas-transparent{opacity:0;fill:#F6F6F6;} .icon-white{fill:#FFFFFF;} .icon-vso-bg{fill:#656565;}</style><path class="icon-canvas-transparent" d="M20 20h-20v-20h20v20z" id="canvas"/><path class="icon-vso-bg" d="M0 0v20h20v-20h-20zm9.929 1c2.247 0 4.071 1.824 4.071 4.071s-1.823 4.07-4.07 4.07c-2.248 0-4.071-1.823-4.071-4.07-.001-2.247 1.822-4.071 4.07-4.071zm6.071 17h-12v-8h3l3 3 3-3h3v8z" id="iconBg"/><path class="icon-white" d="M9.929 1c-2.248 0-4.071 1.824-4.071 4.071s1.823 4.07 4.071 4.07c2.247 0 4.07-1.823 4.07-4.07.001-2.247-1.823-4.071-4.07-4.071zm3.071 9l-3 3-3-3h-3v8h12v-8h-3z" id="iconFg"/></svg>