<svg xmlns="http://www.w3.org/2000/svg" width="16" height="16"><style type="text/css">.icon-canvas-transparent{opacity:0;fill:#F6F6F6;} .icon-vso-bg{fill:#656565;} .icon-white{fill:#FFFFFF;}</style><path class="icon-canvas-transparent" d="M16 16h-16v-16h16v16z" id="canvas"/><path class="icon-white" d="M16 16h-16v-16h16v16z" id="outline"/><path class="icon-vso-bg" d="M1 1v14h14v-14h-14zm7 1.8c1.323 0 2.4 1.075 2.4 2.4 0 1.326-1.077 2.4-2.4 2.4-1.326 0-2.4-1.074-2.4-2.4 0-1.325 1.074-2.4 2.4-2.4zm4 11.2h-8v-5.6h2.4l1.6 2.4 1.6-2.4h2.4v5.6z" id="iconBg"/><path class="icon-white" d="M5.6 5.2c0-1.325 1.074-2.4 2.4-2.4 1.323 0 2.4 1.075 2.4 2.4 0 1.326-1.077 2.4-2.4 2.4-1.326 0-2.4-1.074-2.4-2.4m6.4 3.2v5.6h-8v-5.6h2.4l1.6 2.4 1.6-2.4h2.4z" id="iconFg"/></svg>