<svg xmlns="http://www.w3.org/2000/svg" width="32" height="32"><style type="text/css">.icon-canvas-transparent{opacity:0;fill:#F6F6F6;} .icon-white{fill:#FFFFFF;} .icon-vso-bg{fill:#656565;}</style><path class="icon-canvas-transparent" d="M32 32h-32v-32h32v32z" id="canvas"/><path class="icon-vso-bg" d="M0 0v32h32v-32h-32zm16 4c2.76 0 5 2.241 5 5.001 0 2.76-2.24 4.999-4.999 4.999-2.761 0-5.001-2.239-5.001-4.999s2.239-5.001 5-5.001zm8 24h-16v-12h4.8l3.2 3.143 3.2-3.143h4.8v12z" id="iconBg"/><path class="icon-white" d="M11 9.001c0-2.76 2.239-5.001 5-5.001 2.76 0 5 2.241 5 5.001 0 2.76-2.24 4.999-4.999 4.999-2.761 0-5.001-2.239-5.001-4.999zm13 6.999v12h-16v-12h4.8l3.2 3.143 3.2-3.143h4.8z" id="iconFg"/></svg>