<svg xmlns="http://www.w3.org/2000/svg" viewBox="0 0 16 16" enable-background="new 0 0 16 16"><style type="text/css">.icon-canvas-transparent{opacity:0;fill:#F6F6F6;} .icon-vs-out{fill:#F6F6F6;} .icon-vs-bg{fill:#424242;}</style><path class="icon-canvas-transparent" d="M16 16h-16v-16h16v16z" id="canvas"/><path class="icon-vs-out" d="M14.001.4c1.308 1.747 1.999 3.808 1.999 5.96s-.691 4.213-1.999 5.961l-.754 1.007-1.407-1.669-.231.298-1.213-1.343-.189.292-1.207-1.416v6.51h-9v-7h2.053c-.65-.636-1.053-1.521-1.053-2.5 0-1.93 1.57-3.5 3.5-3.5s3.5 1.57 3.5 3.5c0 .979-.403 1.864-1.053 2.5h1.635l-.245-.289.376-.618c.356-.583.537-1.167.537-1.733s-.181-1.149-.537-1.733l-.376-.617 1.868-2.198.191.294 1.213-1.342.23.297.897-1.061h.965l.3.4z" id="outline"/><g id="iconBg"><path class="icon-vs-bg" d="M2 6.5c0-1.38 1.119-2.5 2.5-2.5 1.379 0 2.5 1.12 2.5 2.5s-1.121 2.5-2.5 2.5c-1.381 0-2.5-1.119-2.5-2.5m4 3.5l-1.5 2-1.5-2h-2v5h7v-5.000000000000001h-2zm5.551-7.68l-.551.61c.751 1.009 1.211 2.179 1.211 3.431 0 1.252-.46 2.423-1.211 3.431l.551.609c.167-.215.308-.445.449-.674.627-1.018 1-2.154 1-3.367 0-1.223-.364-2.374-1-3.398-.137-.221-.288-.434-.449-.642zm-1.452 1.161l-.532.625c.427.7.683 1.458.683 2.254s-.256 1.554-.683 2.254l.531.624c.573-.879.902-1.849.902-2.878 0-1.027-.329-1.999-.901-2.879zm3.234 6.578c-.192.367-.409.717-.653 1.045l.521.617c1.12-1.498 1.799-3.345 1.799-5.361 0-2.016-.679-3.863-1.8-5.36l-.52.616c.443.599.808 1.258 1.071 1.967l.005.016c.078.211.148.425.208.644l.028.121c.048.186.094.372.128.563l.037.27.06.437c.022.239.033.482.033.728 0 .419-.039.827-.102 1.228l-.016.114c-.066.394-.165.774-.287 1.146l-.03.092c-.131.383-.29.752-.475 1.106l-.007.011z"/></g></svg>