<svg xmlns="http://www.w3.org/2000/svg" width="16" height="16"><style type="text/css">.icon-canvas-transparent{opacity:0;fill:#F6F6F6;} .icon-white{fill:#FFFFFF;} .icon-vso-bg{fill:#656565;}</style><path class="icon-canvas-transparent" d="M16 16h-16v-16h16v16z" id="canvas"/><path class="icon-white" d="M15 3.556v10.444c0 .97-.701 2-2 2h-10.098c-1.825 0-2.872-1.093-2.872-2.998 0-1.031.35-1.823.97-2.338v-8.664c0-1.299 1.03-2 2-2h8.06l3.94 3.556z" id="outline"/><path class="icon-vso-bg" d="M7 5h2v4h-2v-4zm3.641-4h-7.677s-.964 0-.964 1v8.149c.305-.086.635-.141 1-.145v-8.004h7v3h3v9h-3.114c-.105.385-.273.72-.5 1h3.579c1 0 1.035-1 1.035-1v-10l-3.359-3zm-1.641 9h-1.848c.761 0 1.377.2 1.848.559v-.559zm-1.848 1h-.664l.536 1c.375 0 1 0 1 1 0 .375 0 1-.775 1h-1.662s-.419-.666-.834-.938c-.288-.189-.749.287-.463.926.442.731.531 1.012.531 1.012h2.179c1.125 0 2.024-.5 2.024-2.002 0-1.5-.747-1.998-1.872-1.998zm-6.122 2.002c0-1.502.9-2.002 2.025-2.002h2.179s.089.281.531 1.012c.286.639-.175 1.114-.463.926-.415-.272-.834-.938-.834-.938h-1.662c-.776 0-.776.625-.776 1 0 1 .625 1 1 1l.512 1h-.64c-1.125 0-1.872-.498-1.872-1.998z" id="iconBg"/><path class="icon-white" d="M10 5v-3h-7v8.004l.055-.004h5.945v.559c.659.503 1.024 1.328 1.024 2.439 0 .367-.055.695-.139 1.002h3.115v-9h-3zm-1 4h-2v-4h2v4z" id="iconFg"/></svg>