<svg xmlns="http://www.w3.org/2000/svg" width="16" height="16"><style type="text/css">.icon-canvas-transparent{opacity:0;fill:#F6F6F6;} .icon-vs-out{fill:#F6F6F6;} .icon-vs-bg{fill:#424242;}</style><path class="icon-canvas-transparent" d="M16 16h-16v-16h16v16z" id="canvas"/><path class="icon-vs-out" d="M16 2.586l-2 2v-.586c0-2.206-1.795-4-4-4h-3v2h-2v-2h-5v5h2v2h2v2h5v-.586l1.586 1.586h-10.586v6h16v-6h-2.586l2.586-2.586v-4.828z" id="outline"/><path class="icon-vs-bg" d="M3 4h-2v-3h3v2h2v2h2v3h-3v-2h-2v-2zm10 3v-3c0-1.654-1.346-3-3-3h-2v2h2c.552 0 1 .449 1 1v3l-2-2v2l3 3 3-3v-2l-2 2zm-2 6h-1v-2h-4v2h-1v-2h-4v4h4v-1h1v1h4v-1h1v1h4v-4h-4v2z" id="iconBg"/></svg>