<svg xmlns="http://www.w3.org/2000/svg" width="16" height="16"><style type="text/css">.icon-canvas-transparent{opacity:0;fill:#F6F6F6;} .icon-vs-out{fill:#F6F6F6;} .icon-vs-bg{fill:#424242;} .icon-vs-action-red{fill:#A1260D;}</style><path class="icon-canvas-transparent" d="M16 16h-16v-16h16v16z" id="canvas"/><path class="icon-vs-out" d="M16 11v5h-7v-5h-1v5h-7v-5h2v-3h3.274l-1.119-1h-.155v-.139l-.906-.811-1.172 1.406c-.321.357-.759.544-1.227.544-.453 0-.888-.171-1.194-.469-.316-.306-.5-.738-.501-1.182-.001-.445.175-.866.499-1.184l1.302-1.165-1.268-1.133c-.358-.349-.534-.77-.533-1.216.001-.444.185-.876.503-1.185.304-.295.739-.466 1.191-.466.469 0 .906.187 1.202.513l1.197 1.437 2.181-1.95h1.726v1.362l-.531.638h4.531v5h-2v1h4v3h2z" id="outline"/><path class="icon-vs-bg" d="M15 12v3h-5v-3h2v-2h-7v2h2v3h-5v-3h2v-3h4v-3h-.532l-1.468-1.761v-.476l.635-.763h4.365v3h-2v3h4v3h2z" id="iconBg"/><path class="icon-vs-action-red" d="M2.154 6.815c-.238.264-.72.229-.955 0-.242-.234-.29-.652 0-.938l2.101-1.877-2.1-1.878c-.29-.285-.242-.703 0-.938.234-.229.716-.263.955 0l1.833 2.201 2.668-2.385h.344l-2.5 3 2.5 3h-.344l-2.668-2.385-1.834 2.2z" id="colorAction"/></svg>