<svg xmlns="http://www.w3.org/2000/svg" width="16" height="16"><style type="text/css">.icon-canvas-transparent{opacity:0;fill:#F6F6F6;} .icon-vs-out{fill:#F6F6F6;} .icon-vs-bg{fill:#424242;} .icon-vs-fg{fill:#F0EFF1;}</style><path class="icon-canvas-transparent" d="M16 16h-16v-16h16v16z" id="canvas"/><path class="icon-vs-out" d="M15 14h-14v-12.001h14v12.001z" id="outline"/><path id="_x3C_Path_x3E_" class="icon-vs-bg" d="M2 2.999v10.001h12v-10.001h-12zm10 8.001h-2l-2-2.001-2 2.001h-2l3-3.001-3-3h2l2 2 2-2h2l-3 3 3 3.001z"/><path class="icon-vs-fg" d="M4 4.999h2l2 2 2-2h2l-3 3 3 3.001h-2l-2-2.001-2 2.001h-2l3-3.001-3-3z" id="iconFg"/></svg>