<svg xmlns="http://www.w3.org/2000/svg" width="32" height="32"><style type="text/css">.icon-canvas-transparent{opacity:0;fill:#F6F6F6;} .icon-vs-out{fill:#F6F6F6;} .icon-vs-fg{fill:#F0EFF1;} .icon-vs-bg{fill:#424242;}</style><path class="icon-canvas-transparent" d="M32 32h-32v-32h32v32z" id="canvas"/><path class="icon-vs-out" d="M12 32v-9.168c-2.094-1.33-3.99-3.777-3.99-6.832 0-3.054 1.896-5.502 3.99-6.831v-9.169h8v9.098c2.439 1.412 4 4.033 4 6.902 0 2.871-1.561 5.492-4 6.902v9.098h-8z" id="outline"/><path class="icon-vs-bg" d="M18 10.367v-8.367h-4v8.371c-2 .829-3.99 3.024-3.99 5.629s1.99 4.8 3.99 5.629v8.371h4v-8.367c2.325-.827 4-3.024 4-5.633s-1.675-4.806-4-5.633zm-2 9.633c-2.206 0-4-1.795-4-4 0-2.206 1.794-4 4-4 2.205 0 4 1.794 4 4 0 2.205-1.795 4-4 4z" id="iconBg"/><path class="icon-vs-fg" d="M16 20c-2.206 0-4-1.795-4-4 0-2.206 1.794-4 4-4 2.205 0 4 1.794 4 4 0 2.205-1.795 4-4 4z" id="iconFg"/></svg>