<svg xmlns="http://www.w3.org/2000/svg" width="16" height="16"><style type="text/css">.icon-canvas-transparent{opacity:0;fill:#F6F6F6;} .icon-vs-out{fill:#F6F6F6;} .icon-vs-bg{fill:#424242;} .icon-vs-action-orange{fill:#C27D1A;}</style><path class="icon-canvas-transparent" d="M16 16h-16v-16h16v16z" id="canvas"/><path class="icon-vs-out" d="M16 12.443l-3.557 3.557h-4.828l2-2h-2.586v-3.557l-.428-.428h-2.585v-3.586l-1.5 1.5-2.516-2.515v-1.797l3.617-3.617h.798l3.015 3.015h.172l1.414-1.414 2.914 2.914-1.5 1.5 1.984 1.985h.029l3.557 3.557v.886z" id="outline"/><path class="icon-vs-action-orange" d="M5.016 9.016v-4h-1l-1.5 1.5-2-2 3.5-3.5 2 2-1 1h3l1-1 1.5 1.5-2.5 2.5-1.5-1.5.5-.5h-1v3h1.614l1.985 1.984h-1.615l-.484-.484.5-.5h-3zm4.015-1.016h1.969l-.984-.985-.985.985z" id="iconBg"/><path class="icon-vs-bg" d="M15.029 12l-3 3h-2l2-2h-4v-2h4l-2-2h2l3 3z" id="notificationBg"/></svg>