<svg xmlns="http://www.w3.org/2000/svg" width="16" height="16"><style type="text/css">.icon-canvas-transparent{opacity:0;fill:#F6F6F6;} .icon-vs-out{fill:#F6F6F6;} .icon-vs-bg{fill:#424242;} .icon-vs-fg{fill:#F0EFF1;}</style><path class="icon-canvas-transparent" d="M16 16h-16v-16h16v16z" id="canvas"/><path class="icon-vs-out" d="M16 5v5c0 1.103-.897 2-2 2h-12c-1.103 0-2-.897-2-2v-5c0-1.103.897-2 2-2h12c1.103 0 2 .897 2 2z" id="outline"/><path class="icon-vs-bg" d="M14 4h-12c-.55 0-1 .45-1 1v5c0 .55.45 1 1 1h12c.55 0 1-.45 1-1v-5c0-.55-.45-1-1-1zm0 6h-12v-5h12v5zm-11-4h6v3h-6v-3z" id="iconBg"/><path class="icon-vs-fg" d="M2 10h12v-5h-12v5zm1-4h6v3h-6v-3z" id="iconFg"/></svg>