<svg xmlns="http://www.w3.org/2000/svg" width="16" height="16"><style type="text/css">.icon-canvas-transparent{opacity:0;fill:#F6F6F6;} .icon-vs-out{fill:#F6F6F6;} .icon-vs-bg{fill:#424242;} .icon-vs-fg{fill:#F0EFF1;}</style><path class="icon-canvas-transparent" d="M16 16h-16v-16h16v16z" id="canvas"/><path class="icon-vs-out" d="M14 7v-3h-1v-3h-1.414l-.71.71c-.408-.409-.718-.7-.926-.871-.66-.54-1.516-.838-2.41-.838-.86 0-1.719.278-2.417.782-.677.488-1.983 1.93-2.238 2.214l-.668.744-.217.259v3h-2v9h16v-9h-2z" id="outline"/><path class="icon-vs-bg" d="M15 8v7h-14v-7h1v6h12v-6h1zm-10-3h-2v8h2v-8zm3 1v-1h-2v8h2v-7zm5 0h-1v6h-2v-6h-1v7h4v-7zm-2.133-2.867c-.482-.502-1.189-1.224-1.549-1.52-.988-.808-2.505-.816-3.61-.019-.6.433-1.93 1.905-2.079 2.071l.743.669c.387-.43 1.486-1.616 1.921-1.929.732-.528 1.76-.536 2.391-.019.325.267 1.01.968 1.476 1.454l-1.16 1.16h3v-3l-1.133 1.133z" id="iconBg"/><path class="icon-vs-fg" d="M12 12h-2v-6h2v6z" id="iconFg"/></svg>