<svg xmlns="http://www.w3.org/2000/svg" width="16" height="16"><style type="text/css">.icon-canvas-transparent{opacity:0;fill:#F6F6F6;} .icon-vs-out{fill:#F6F6F6;} .icon-vs-bg{fill:#424242;} .graph-frame-lime{fill:#9ECA00;} .icon-vs-blue{fill:#1BA1E2;}</style><path class="icon-canvas-transparent" d="M16 16h-16v-16h16v16z" id="canvas"/><path class="icon-vs-out" d="M14 7v-3h-1v-3h-1.414l-.71.71c-.408-.409-.718-.7-.926-.871-.66-.54-1.516-.838-2.41-.838-.86 0-1.719.278-2.417.782-.677.488-1.983 1.93-2.238 2.214l-.668.744-.217.259v3h-2v9h16v-9h-2z" id="outline"/><g id="iconBg"><polygon class="icon-vs-bg" points="15,8 15,15 1,15 1,8 2,8 2,14 14,14 14,8"/><polygon class="icon-vs-blue" points="5,5 3.616,5 3,5 3,13 5,13"/><polygon class="icon-vs-blue" points="8,6 8,5 6,5 6,13 8,13"/><path class="icon-vs-bg" d="M10.867 3.133c-.482-.502-1.189-1.224-1.549-1.52-.988-.808-2.505-.816-3.61-.019-.6.433-1.93 1.905-2.079 2.071l.743.669c.387-.43 1.486-1.616 1.921-1.929.732-.528 1.76-.536 2.391-.019.325.267 1.01.968 1.476 1.454l-1.16 1.16h3v-3l-1.133 1.133z"/></g><rect x="9" y="6" class="graph-frame-lime" width="4" height="7" id="iconFg"/></svg>