<svg xmlns="http://www.w3.org/2000/svg" width="16" height="16"><style type="text/css">.icon-canvas-transparent{opacity:0;fill:#F6F6F6;} .icon-vs-out{fill:#F6F6F6;} .icon-vs-bg{fill:#424242;} .icon-vs-fg{fill:#F0EFF1;} .icon-vs-action-blue{fill:#00539C;}</style><path class="icon-canvas-transparent" d="M16 16h-16v-16h16v16z" id="canvas"/><path class="icon-vs-out" d="M15 7v7h-2v2h-12v-7h2v-2h1v-3.414l3.586-3.586h.828l3.586 3.586v3.414h3z" id="outline"/><path class="icon-vs-bg" d="M4 8v2h-2v5h10v-2h2v-5h-10zm7 6h-8v-3h8v3zm2-2h-1v-2h-7v-1h8v3z" id="iconBg"/><path class="icon-vs-fg" d="M13 9v3h-1v-2h-7v-1h8zm-10 5h8v-3h-8v3z" id="iconFg"/><path class="icon-vs-action-blue" d="M7 4l-2 2v-2l3-3 3 3v2l-2-2v3h-2v-3z" id="colorAction"/></svg>