<svg xmlns="http://www.w3.org/2000/svg" width="16" height="16"><style type="text/css">.icon-canvas-transparent{opacity:0;fill:#F6F6F6;} .icon-vs-out{fill:#F6F6F6;} .icon-vs-fg{fill:#F0EFF1;} .graph-yellow{fill:#FCB714;}</style><path class="icon-canvas-transparent" d="M16 16h-16v-16h16v16z" id="canvas"/><path class="icon-vs-out" d="M8.001 16c-.386 0-.749-.169-.997-.464l-.824-1.136c-.194-.225-.18-.53-.18-.845v-5.613c-1-.697-3.379-2.226-3.379-3.442 0-2.262 3.984-4.5 5.44-4.5 1.416 0 5.348 2.288 5.348 4.5 0 1.214-2.409 2.744-3.409 3.441v1.48c0 .28.034.539-.12.755.155.219.302.482.302.753 0 .272-.055.537-.211.755.155.219.256.482.256.753 0 .274-.076.534-.232.753.157.221.249.499.243.788-.017.353-.15.657-.379.886l-.105.097-.944.755c-.227.183-.515.284-.809.284z" id="outline"/><path class="graph-yellow" d="M7.77 14.893c.105.125.291.144.418.042l.943-.755.024-.022c.053-.053.084-.124.088-.201.002-.086-.031-.171-.096-.229l-.572-.535.572-.535c.069-.065.095-.136.096-.22-.001-.083-.035-.162-.096-.219l-.574-.534.574-.536c.061-.056.095-.136.095-.218.001-.084-.035-.162-.095-.219l-.572-.536.572-.534c.062-.058.096-.136.096-.22l-.001-2.03c.41-.166 3.258-2.13 3.258-2.892 0-1.467-3.484-3.5-4.5-3.5-1 0-4.5 1.962-4.5 3.5 0 .762 2.851 2.726 3.259 2.891v6.178c-.001.071.024.139.069.192l.942 1.132z" id="iconBg"/><path class="icon-vs-fg" d="M6.75 3.25c.001-.692.56-1.25 1.25-1.25.691 0 1.25.559 1.25 1.25 0 .69-.559 1.25-1.25 1.25-.69-.001-1.25-.56-1.25-1.25z" id="iconFg"/></svg>