<svg xmlns="http://www.w3.org/2000/svg" width="36" height="108"><style type="text/css">.icon-canvas-transparent{opacity:0;fill:#F6F6F6;} .icon-f12-grey-primary{fill:#555555;} .icon-f12-blue-hover{fill:#2279BF;} .icon-f12-ltgrey-disabled{fill:#ABABAC;}</style><path class="icon-canvas-transparent" d="M36 108h-36v-108h36v108z" id="canvas"/><g id="iconBg"><path class="icon-f12-grey-primary" d="M16.622 15.468l-7.815 7.815-1.953 3.908 1.953 1.954 3.908-1.954 7.815-7.815-3.908-3.908zm-5.861 7.816l5.861-5.862 1.954 1.954-5.861 5.861-1.954-1.953zm13.677-15.631c1.146-1.03 2.807-1.097 3.908 0 1.101 1.103 1.032 2.765 0 3.908l-3.908 3.908 1.954 1.954-1.954 1.954-7.815-7.815 1.954-1.954 1.954 1.954 3.907-3.909z"/><path class="icon-f12-blue-hover" d="M16.622 51.468l-7.815 7.815-1.953 3.907 1.953 1.954 3.908-1.954 7.815-7.815-3.908-3.907zm-5.861 7.816l5.861-5.862 1.954 1.954-5.861 5.862-1.954-1.954zm13.677-15.631c1.146-1.03 2.807-1.097 3.908 0 1.101 1.103 1.032 2.765 0 3.908l-3.908 3.908 1.954 1.954-1.954 1.954-7.815-7.815 1.954-1.954 1.954 1.954 3.907-3.909z"/><path class="icon-f12-ltgrey-disabled" d="M16.622 87.468l-7.815 7.816-1.953 3.906 1.953 1.955 3.908-1.955 7.815-7.814-3.908-3.908zm-5.861 7.816l5.861-5.862 1.954 1.954-5.861 5.861-1.954-1.953zm13.677-15.631c1.146-1.031 2.807-1.098 3.908 0 1.101 1.102 1.032 2.764 0 3.907l-3.908 3.907 1.954 1.954-1.954 1.954-7.815-7.815 1.954-1.954 1.954 1.954 3.907-3.907z"/></g></svg>