<svg xmlns="http://www.w3.org/2000/svg" width="16" height="16"><style type="text/css">.icon-canvas-transparent{opacity:0;fill:#F6F6F6;} .icon-vs-out{fill:#F6F6F6;} .icon-vs-bg{fill:#424242;} .icon-vs-fg{fill:#F0EFF1;}</style><path class="icon-canvas-transparent" d="M16 16h-16v-16h16v16z" id="canvas"/><path class="icon-vs-out" d="M15 0v12h-4v4h-10v-.579c-.643-.505-1-1.322-1-2.419 0-1.047.362-1.848 1-2.362v-6.64h4v-4h10z" id="outline"/><path class="icon-vs-bg" d="M2 5h8v10h-.645c.408-.503.639-1.174.639-2.002 0-1.094-.355-1.909-.994-2.414v-4.584h-6v4.002c-.366.002-.694.056-1 .14v-5.142zm12-4v10h-3v-1h2v-8h-6v2h-1v-3h8zm-5.006 11.998c0 1.502-.899 2.002-2.024 2.002h-2.179s-.089-.281-.531-1.012c-.286-.639.175-1.114.463-.926.415.272.834.938.834.938h1.662c.775 0 .775-.625.775-1 0-1-.625-1-1-1l-.536-1h.664c1.125 0 1.872.498 1.872 1.998zm-7.994.004c0-1.502.899-2.002 2.024-2.002h2.179s.089.281.531 1.012c.286.639-.175 1.114-.463.926-.415-.272-.833-.938-.833-.938h-1.663c-.775 0-.775.625-.775 1 0 1 .625 1 1 1l.512 1h-.64c-1.125 0-1.872-.498-1.872-1.998z" id="iconBg"/><path class="icon-vs-fg" d="M13 2v8h-2v-6h-4v-2h6zm-4 8h-6v-4h6v4z" id="iconFg"/></svg>