<svg xmlns="http://www.w3.org/2000/svg" viewBox="0 0 16 16" enable-background="new 0 0 16 16"><style type="text/css">.icon-canvas-transparent{opacity:0;fill:#F6F6F6;} .icon-white{fill:#FFFFFF;} .icon-vso-bg{fill:#656565;}</style><path class="icon-canvas-transparent" d="M16 16h-16v-16h16v16z" id="canvas"/><path class="icon-white" d="M14 11.5c0 1.379-1.121 2.5-2.5 2.5s-2.5-1.121-2.5-2.5c0-.795.383-1.529 1-1.993v-1.205l-3.256-2.714c-.174.354-.426.666-.744.905v3.014c.617.464 1 1.198 1 1.993 0 1.379-1.122 2.5-2.5 2.5s-2.5-1.121-2.5-2.5c0-.795.383-1.529 1-1.993v-3.014c-.617-.463-1-1.198-1-1.993 0-1.378 1.122-2.5 2.5-2.5.988 0 1.835.58 2.241 1.414l2.897-2.414h1.362v2.171c1.164.413 2 1.525 2 2.829v3.507c.617.464 1 1.198 1 1.993z" id="outline"/><path class="icon-vso-bg" d="M6 4.5c0-.828-.672-1.5-1.5-1.5s-1.5.672-1.5 1.5c0 .652.419 1.202 1 1.408v4.184c-.581.207-1 .756-1 1.408 0 .828.672 1.5 1.5 1.5s1.5-.672 1.5-1.5c0-.652-.419-1.202-1-1.408v-4.184c.581-.206 1-.756 1-1.408zm-1.5 7.5c-.276 0-.5-.224-.5-.5s.224-.5.5-.5.5.224.5.5-.224.5-.5.5zm0-7c-.276 0-.5-.224-.5-.5s.224-.5.5-.5.5.224.5.5-.224.5-.5.5zm7.5 5.092v-4.092c0-1.105-.895-2-2-2v-2l-3 2.5 3 2.5v-2s1 .326 1 1.828v3.263c-.581.207-1 .756-1 1.408 0 .828.672 1.5 1.5 1.5s1.5-.672 1.5-1.5c0-.651-.419-1.201-1-1.407zm-.5 1.908c-.276 0-.5-.224-.5-.5s.224-.5.5-.5.5.224.5.5-.224.5-.5.5z" id="iconBg"/><g id="iconFg"><path class="icon-white" d="M5 4.5c0 .276-.224.5-.5.5s-.5-.224-.5-.5.224-.5.5-.5.5.224.5.5zm-.5 6.5c-.276 0-.5.224-.5.5s.224.5.5.5.5-.224.5-.5-.224-.5-.5-.5zm7 0c-.276 0-.5.224-.5.5s.224.5.5.5.5-.224.5-.5-.224-.5-.5-.5z"/></g></svg>