<svg xmlns="http://www.w3.org/2000/svg" width="16" height="16"><style type="text/css">.icon-canvas-transparent{opacity:0;fill:#F6F6F6;} .icon-vs-out{fill:#F6F6F6;} .icon-vs-bg{fill:#424242;} .icon-vs-fg{fill:#F0EFF1;} .icon-vs-action-green{fill:#388A34;}</style><path class="icon-canvas-transparent" d="M16 16h-16v-16h16v16z" id="canvas"/><path class="icon-vs-out" d="M16 9.297c0 1.891-1.401 3.472-3.261 3.676l-.314.027h-1.425v3h-3v-3h-4.132c-2.14-.037-3.868-1.807-3.868-3.946 0-1.223.545-2.326 1.426-3.054h-1.426v-4h2v-2h4v2h2v.214c.635.196 1.225.516 1.716.977.295-.077.601-.117.907-.117 1.777 0 3.258 1.307 3.554 3.021 1.112.655 1.823 1.87 1.823 3.202z" id="outline"/><path class="icon-vs-bg" d="M7 11v1h-3.109c-1.602-.027-2.901-1.347-2.901-2.946 0-.891.392-1.688 1.01-2.228v1.174h.357c-.185.301-.295.658-.295 1.042 0 1.063.938 1.92 1.938 1.936v.022h3zm6-4.249v-.026c0-1.461-1.016-2.651-2.464-2.651-.43 0-.757.103-1.12.291-.372-.487-.861-.85-1.416-1.085v1.092c.275.17.523.381.716.643.323.036.618.173.85.384.271-.244.624-.399 1.008-.399.255 0 .494.072.707.188.606.238.995.832.995 1.531 0 .306-.276.586-.276.832v.084c0-.026.269-.046.39-.046.922 0 1.644.786 1.644 1.695 0 1.133-.68 1.716-1.034 1.716h-1v1h.513l.207-.022c1.351-.147 2.226-1.297 2.226-2.681 0-1.173-.946-2.174-1.946-2.546zm-4-.251c0-.242-.228-.5-.5-.5-.271 0-.5.258-.5.5v1.5h1v-1.5zm2 0c0-.242-.228-.5-.5-.5-.271 0-.5.258-.5.5v1.5h1v-1.5zm-1 5.5h1v-2h1v-1h-5v1h1v2l1 .015v2.985h1v-3z" id="iconBg"/><path class="icon-vs-fg" d="M11.202 5.188c.601.238 1.03.832 1.03 1.531 0 .305-.091.586-.231.831v-1.05c-.001-.56-.331-1.055-.799-1.312zm1.142 2.401c-.12 0-.234.021-.344.046v.365h1v3c.458-.042 1.001-.688 1.001-1.716 0-.935-.742-1.695-1.657-1.695zm-10.279 1.453c0 1.063.951 1.958 1.935 1.958h2v-3h-3.653c-.178.301-.282.658-.282 1.042zm5.935-4.631v.684c.158-.058.325-.095.5-.095l.217.016c-.178-.243-.467-.532-.717-.605zm-2 1.589v2h1v-2h-1z" id="iconFg"/><path class="icon-vs-action-green" d="M3.018 5h-2.018v-1.982h2.018v-2.018h1.982v2.018h2v1.982h-2v2h-1.982v-2z" id="colorAction"/></svg>