<svg xmlns="http://www.w3.org/2000/svg" width="16" height="16"><style type="text/css">.icon-canvas-transparent{opacity:0;fill:#F6F6F6;} .icon-vs-out{fill:#F6F6F6;} .icon-vs-bg{fill:#424242;} .icon-vs-fg{fill:#F0EFF1;}</style><path class="icon-canvas-transparent" d="M16 16h-16v-16h16v16z" id="canvas"/><path class="icon-vs-out" d="M16 7.586v.828l-1 1v6.586h-14v-6.586l-1-1v-.828l7.586-7.586h.828l1.586 1.586v-1.586h3v4.586l3 3z" id="outline"/><path class="icon-vs-bg" d="M12 5v-4h-1v3l-3-3-7 7 1 1v6h12v-6l1-1-3-3zm1 9h-3v-5h-4v5h-3v-6l5-5 5 5v6z" id="iconBg"/><path class="icon-vs-fg" d="M13 8v6h-3v-5h-4v5h-3v-6l5-5 5 5z" id="iconFg"/></svg>