<svg xmlns="http://www.w3.org/2000/svg" width="16" height="16"><style type="text/css">.icon-canvas-transparent{opacity:0;fill:#F6F6F6;} .icon-vs-out{fill:#F6F6F6;} .icon-vs-bg{fill:#424242;}</style><path class="icon-canvas-transparent" d="M16 16h-16v-16h16v16z" id="canvas"/><path class="icon-vs-out" d="M12 8h-2v-3h3.298l.289-.497c.27-.464.413-.983.413-1.503 0-1.654-1.346-3-3-3h-6c-1.654 0-3 1.346-3 3 0 .52.143 1.039.413 1.503l.289.497h3.298v3h-2v3h-2v4h12v-4h-2v-3zm-5-3v-2h2v2h-2z" id="outline"/><path class="icon-vs-bg" d="M3.277 4c-.172-.295-.277-.634-.277-1 0-1.104.896-2 2-2h6c1.104 0 2 .896 2 2 0 .366-.106.705-.277 1h-2.723v-2h-4v2h-2.723zm5.723 4v-2h-2v2h2zm2 1h-2v2h2v-2zm-4 0h-2v2h2v-2zm0 5h2v-2h-2v2zm-4 0h2v-2h-2v2zm8 0h2v-2h-2v2z" id="iconBg"/></svg>