<svg xmlns="http://www.w3.org/2000/svg" width="16" height="16"><style type="text/css">.icon-canvas-transparent{opacity:0;fill:#F6F6F6;} .icon-vs-action-green{fill:#388A34;} .icon-white{fill:#FFFFFF;}</style><path class="icon-canvas-transparent" d="M16 16h-16v-16h16v16z" id="canvas"/><path class="icon-white" d="M13 4v3h-1v4h-2v5h-4v-5h-2v-4h-1v-3h1v-3c.353-.527 1.294-1 2-1s1.647.473 2 1v0c.353-.527 1.293-1 2-1 .705 0 1.648.473 2 1v3h1z" id="outline"/><g id="colorAction"><path class="icon-vs-action-green" d="M7 4h-2v-2c0-.484.457-1 1-1 .544 0 1 .516 1 1v2zm4-2c0-.484-.456-1-1-1-.543 0-1 .516-1 1v2h2v-2zm-7 3v1h1v4h2v5h2v-5h2v-4h1v-1h-8z"/></g></svg>