<svg xmlns="http://www.w3.org/2000/svg" width="16" height="16"><style type="text/css">.icon-canvas-transparent{opacity:0;fill:#F6F6F6;} .icon-vs-out{fill:#F6F6F6;} .icon-vs-bg{fill:#424242;}</style><path class="icon-canvas-transparent" d="M16 16h-16v-16h16v16z" id="canvas"/><path class="icon-vs-out" d="M5 4v1.565l.035.027c.127.122.229.261.317.408h9.648v3h-9v2h9v3h-9.392c-.036.282-.111.516-.164.646-.119.295-.304.556-.549.771-.223.201-.508.36-.84.469-.164.054-.348.09-.543.114h-.95l-.296-.044-.377-.096c-.203-.064-.36-.17-.452-.254l-.437-.213v-6.499s.632-.894 1.072-.894h-1.072v-1.683c0-.526.287-.854 1-1.082v-2.567l-1 .259v-1.896l2.835-1.031h1.165v1h10v3h-10z" id="outline"/><path class="icon-vs-bg" d="M14 3h-8v-1h8v1zm0 4h-8v1h8v-1zm-.016 5h-8v1h8v-1zm-9.504-6.984v-1h-.468v-3l-1.574.351v.72l.574-.186v2.114h-.438v1h1.906zm-1.105 4.062s1.031-1.172 1.094-1.286c.065-.115.112-.229.141-.343.027-.112.042-.227.042-.344 0-.154-.025-.301-.075-.437-.05-.135-.126-.253-.23-.354-.104-.1-.236-.179-.395-.236-.16-.057-.347-.086-.564-.086l-.35.029c-.114.02-1.019.257-1.019.295v.983c0-.056.612-.337.694-.374l.282-.086.284-.031c.096 0 .188.015.262.04.074.026.233.227.2.375-.034.149-.123.355-.32.604-.075.096-1.402 1.471-1.402 1.471v.702h2.609v-.922h-1.253zm1.176 4.228c-.176-.415-.642-.505-.642-.505.653-.082.573-.897.573-1.015 0-.124-.024-.248-.072-.37-.048-.122-.124-.23-.23-.327-.104-.098-.241-.177-.41-.237-.168-.061-.374-.09-.615-.09l-.332.02-.283.054-.229.072-.311.073v.742c.484-.254 1.147-.244 1.228-.229.538.101.216.802.148.849-.065.049-.149.087-.25.113-.103.027-.223.04-.366.04h-.344v.696h.372c.13 0 .252.013.363.035.111.023.208.06.288.105.081.048.143.108.188.181.045.072.068.158.068.256 0 .173-.063.313-.191.413-.127.103-.311.155-.552.155l-.242-.02-.256-.057-.246-.095-.178-.177v.791l.161.128.26.066.29.043.302.016c.271 0 .508-.032.706-.098.198-.064.36-.153.487-.268.128-.113.223-.247.284-.398.045-.115.204-.554.031-.962z" id="iconBg"/></svg>