<svg xmlns="http://www.w3.org/2000/svg" width="16" height="16"><style type="text/css">.icon-canvas-transparent{opacity:0;fill:#F6F6F6;} .icon-vs-out{fill:#F6F6F6;} .icon-vs-fg{fill:#F0EFF1;} .icon-vs-action-blue{fill:#00539C;}</style><path class="icon-canvas-transparent" d="M16 16h-16v-16h16v16z" id="canvas"/><path class="icon-vs-out" d="M13 0v3.001h-1v1.766l3.915 7.954-2.178 3.279h-11.221l-2.205-3.322 4.689-7.95v-1.727h-1v-3.001h9z" id="outline"/><path class="icon-vs-fg" d="M7.778 7l-2.778 4.99-2 .01 4-7v-3h2v3l1 2h-2.222z" id="iconFg"/><path class="icon-vs-action-blue" d="M11 5v-3h1v-1h-7v1h1v3l-4.51 7.646 1.561 2.354h10.15l1.563-2.354-3.764-7.646zm-3.222 2l-2.778 4.99-1.942.01 3.942-7v-3h2v3l1 2h-2.222z" id="colorImportance"/></svg>