<svg xmlns="http://www.w3.org/2000/svg" width="16" height="16"><style type="text/css">.icon-canvas-transparent{opacity:0;fill:#F6F6F6;} .icon-vs-out{fill:#F6F6F6;} .icon-vs-bg{fill:#424242;}</style><path class="icon-canvas-transparent" d="M16 16h-16v-16h16v16z" id="canvas"/><path class="icon-vs-out" d="M14.723 6c.8 0 1.277-.748 1.277-2 0-1.654-1.346-3-3-3h-6c-1.654 0-3 1.346-3 3 0 1.252.478 2 1.277 2h-1.691l-3.586 3.586v.828l3.586 3.586h4.828l-2-2h1.586v.535l4 2.667 4-2.667v-4.038l-3.697-2.497h2.42zm-3.802.517l-2.115 1.483h-2.392l2-2h.586v-2h2v2h.697l-.776.517z" id="outline"/><path class="icon-vs-bg" d="M4 11l2 2h-2l-3-3 3-3h2l-2 2h4v2h-4zm9-9h-6c-1.104 0-2 .895-2 2 0 .365.105 1 .277 1h2.723v-2h4v2h2.723c.171 0 .277-.635.277-1 0-1.105-.896-2-2-2zm1.099 6.398l-2.099-1.398-2.099 1.398 2.099 1.4 2.099-1.4zm-2.099 2.602l-3-2v3l3 2 3-2v-3l-3 2z" id="iconBg"/></svg>