<svg xmlns="http://www.w3.org/2000/svg" width="16" height="16"><style type="text/css">.icon-canvas-transparent{opacity:0;fill:#F6F6F6;} .icon-vs-out{fill:#F6F6F6;} .icon-vs-bg{fill:#424242;} .icon-vs-action-green{fill:#388A34;}</style><path class="icon-canvas-transparent" d="M16 16h-16v-16h16v16z"/><path class="icon-vs-out" d="M16 6h-2.058c.651-.636 1.058-1.52 1.058-2.5 0-1.93-1.57-3.5-3.5-3.5s-3.5 1.57-3.5 3.5c0 .98.407 1.864 1.058 2.5h-.407c-.207-.146-.424-.276-.651-.392v-3.608h-2v-2h-4v2h-2v4h2v.261c-1.221 1.01-2 2.535-2 4.239 0 3.033 2.467 5.5 5.5 5.5 2.131 0 3.98-1.222 4.893-3h5.607v-7z" id="outline"/><g id="iconBg"><path class="icon-vs-bg" d="M9 3.5c0-1.38 1.119-2.5 2.5-2.5 1.379 0 2.5 1.12 2.5 2.5s-1.121 2.5-2.5 2.5c-1.381 0-2.5-1.119-2.5-2.5zm4 3.5l-1.5 2-1.5-2h-.262c.788.952 1.262 2.172 1.262 3.5 0 .521-.077 1.023-.213 1.5h4.213v-5h-2z"/><path class="icon-vs-bg" d="M10.019 10.391c-.076-2.253-1.81-4.067-4.019-4.301v1.098c.244.469.479 1.009.625 1.671-.367.026-.729.03-1.094.026-.387-.004-.76-.029-1.119-.07.057-.298.138-.557.218-.815h-.741c-.063.228-.125.459-.172.713-.443-.078-.851-.175-1.223-.28.108-.154.227-.298.355-.433h-.849v-.221c-.601.765-.973 1.716-.973 2.764l.02.389.045.341.002.013c.313 1.891 1.803 3.38 3.695 3.691l.014.002.338.045.387.02.439-.022c2.277-.223 4.06-2.142 4.06-4.478l-.008-.153zm-1.439-1.932c-.441.152-.857.258-1.256.319-.136-.661-.353-1.233-.588-1.725.756.262 1.401.759 1.844 1.406zm-4.266 1.028c.387.044.789.056 1.209.056h.258c.314 0 .633.012.957-.012.025.219.043.451.045.683.004.372-.043.778-.135 1.208-.375.025-.744.037-1.117.035-.41-.006-.803-.035-1.182-.079-.055-.392-.082-.778-.078-1.153.002-.247.02-.507.043-.738zm-2.484 1.056c0-.525.112-1.025.311-1.481.439.131.931.254 1.478.346-.027.262-.047.529-.049.811-.004.342.021.694.063 1.051-.691-.126-1.289-.299-1.789-.467l-.014-.26zm.152 1.044c.513.157 1.101.31 1.764.415.133.673.35 1.359.633 2.053-1.152-.377-2.053-1.301-2.397-2.468zm3.608 2.648l-.063.004-.324-.018c-.322-.717-.57-1.43-.725-2.124.336.033.686.057 1.045.059l.258.002c.225 0 .451-.006.678-.018-.195.638-.486 1.336-.869 2.095zm.828-.108c.35-.737.619-1.424.795-2.054.574-.073 1.186-.22 1.855-.472-.373 1.245-1.382 2.213-2.65 2.526zm2.793-3.344c-.668.291-1.268.465-1.83.555.07-.393.107-.768.104-1.119-.003-.259-.024-.503-.049-.743.467-.073.961-.198 1.488-.388.191.445.299.938.299 1.455l-.012.24z"/></g><path class="icon-vs-action-green" d="M3 7h2v-2h2v-2h-2v-2h-2v2h-2v2h2v2z" id="colorAction"/></svg>