<svg xmlns="http://www.w3.org/2000/svg" width="16" height="16"><style type="text/css">.icon-canvas-transparent{opacity:0;fill:#F6F6F6;} .icon-vs-out{fill:#F6F6F6;} .icon-vs-bg{fill:#424242;} .icon-vs-fg{fill:#F0EFF1;}</style><path class="icon-canvas-transparent" d="M16 16h-16v-16h16v16z" id="canvas"/><path class="icon-vs-out" d="M13.453 11.545c-.429.165-.932.283-1.469.359.074 1.493-.965 3.038-2.529 3.641-.762.293-1.746.455-2.773.455-3.327 0-6.682-1.705-6.682-5.513 0-2.629 1.992-4.457 4.227-5.488 1.052-3.328 5.509-4.999 8.148-4.999 1.067 0 1.863.245 2.363.727.657.631.789 1.298.784 1.746-.013 1.175-.904 2.148-1.82 3.011 1.404.194 2.083 1.141 2.249 2.033.298 1.604-.799 3.374-2.498 4.028z" id="outline"/><path class="icon-vs-bg" d="M12.617 6.487s-1.904.458-.476-.917c1.213-1.168 3.333-2.75 1.903-4.124-1.196-1.152-6.725-.044-8.49 3.04.572-.181 1.137-.314 1.669-.393.08-.054.171-.093.275-.093l.187.038c.24-.023.474-.038.692-.038 1.067 0 1.863.245 2.363.727.657.631.789 1.298.784 1.746-.012 1.077-.763 1.983-1.593 2.791.039.071.067.149.067.236l-.009.045c.918.211 1.486.761 1.771 1.38.501-.066.961-.17 1.333-.314 2.382-.916 2.857-4.582-.476-4.124zm-3.119-2.487c-.276 0-.5-.224-.5-.5s.224-.5.5-.5.5.224.5.5-.224.5-.5.5zm-.879 6.487s-1.904.458-.476-.917c1.213-1.168 3.333-2.75 1.903-4.124-1.427-1.374-9.046.459-9.046 5.041 0 4.583 5.715 5.041 8.096 4.124 2.381-.916 2.856-4.582-.477-4.124zm-6.119.513c-.276 0-.5-.224-.5-.5s.224-.5.5-.5.5.224.5.5-.224.5-.5.5zm1 2c-.276 0-.5-.224-.5-.5s.224-.5.5-.5.5.224.5.5-.224.5-.5.5zm0-4c-.276 0-.5-.224-.5-.5s.224-.5.5-.5.5.224.5.5-.224.5-.5.5zm2 5c-.276 0-.5-.224-.5-.5s.224-.5.5-.5.5.224.5.5-.224.5-.5.5zm0-6c-.276 0-.5-.224-.5-.5s.224-.5.5-.5.5.224.5.5-.224.5-.5.5z" id="iconBg"/><path class="icon-vs-fg" d="M7.223 4.093c.08-.054.171-.093.275-.093l.187.038-.462.055zm2.708 5.171l-.227.219.285.062.009-.045c0-.087-.028-.165-.067-.236zm-.433-5.264c.276 0 .5-.224.5-.5s-.224-.5-.5-.5-.5.224-.5.5.224.5.5.5zm-3.998 3c-.276 0-.5.224-.5.5s.224.5.5.5.5-.224.5-.5-.224-.5-.5-.5zm-1.5 1.5c0 .276-.224.5-.5.5s-.5-.224-.5-.5.224-.5.5-.5.5.224.5.5zm-1 2c0 .276-.224.5-.5.5s-.5-.224-.5-.5.224-.5.5-.5.5.224.5.5zm3 3c0 .276-.224.5-.5.5s-.5-.224-.5-.5.224-.5.5-.5.5.224.5.5zm-2-1c0 .276-.224.5-.5.5s-.5-.224-.5-.5.224-.5.5-.5.5.224.5.5z" id="iconFg"/></svg>