<svg xmlns="http://www.w3.org/2000/svg" viewBox="0 0 16 16" enable-background="new 0 0 16 16"><style type="text/css">.icon-canvas-transparent{opacity:0;fill:#F6F6F6;} .icon-vs-out{fill:#F6F6F6;} .icon-vs-bg{fill:#424242;} .icon-vs-fg{fill:#F0EFF1;}</style><path class="icon-canvas-transparent" d="M16 16h-16v-16h16v16z" id="canvas"/><path class="icon-vs-out" d="M16 2.086v4.828l-6.086 6.086h-1.712l-.667 1h-.667l-1.333 2h-2.535v-3h-.914l-2.086-2.086v-4.828l6.086-6.086h7.828l2.086 2.086z" id="outline"/><path class="icon-vs-bg" d="M9.086 6l.914.914v3.172l-.914.914h-2.621l-.297.445-1.168 1.752v-2.197h-2.0860000000000003l-.914-.914v-3.172l.914-.914h6.172m.414-1h-7l-1.5 1.5v4l1.5 1.5h1.5v3h1l2-3h2.5l1.5-1.5v-4l-1.5-1.5zm2-2h-7l-1 1h7.585999999999999l.914.914v4.585999999999999l1-1v-4l-1.5-1.5zm2-2h-7l-1 1h7.585999999999999l.914.914v4.585999999999999l1-1v-4l-1.5-1.5zm-8.5 7l.417-.022v.062c0 .279-.137.617-.417.808v.597c.18-.041.341-.104.449-.197.203-.174.551-.706.551-1.248v-1h-1v1zm2 0l.417-.022v.062c0 .279-.137.616-.417.808v.597c.18-.041.341-.104.449-.197.203-.174.551-.706.551-1.248v-1h-1v1z" id="iconBg"/><g id="iconFg"><path class="icon-vs-fg" d="M9.086 6h-6.172l-.914.914v3.172l.914.914h2.0860000000000003v2.197l1.168-1.752.297-.445h2.621l.914-.914v-3.172l-.914-.914zm-3.086 2c0 .542-.348 1.074-.551 1.248-.108.093-.269.156-.449.197v-.597c.28-.191.417-.529.417-.808v-.062l-.417.022v-1h1v1zm2 0c0 .542-.348 1.074-.551 1.248-.108.093-.269.156-.449.197v-.597c.28-.192.417-.529.417-.808v-.062l-.417.022v-1h1v1z"/><path class="icon-vs-bg" d="M5 8l.417-.022v.062c0 .279-.137.617-.417.808v.597c.18-.041.341-.104.449-.197.203-.174.551-.706.551-1.248v-1h-1v1zm2 0l.417-.022v.062c0 .279-.137.616-.417.808v.597c.18-.041.341-.104.449-.197.203-.174.551-.706.551-1.248v-1h-1v1z"/></g></svg>