<svg xmlns="http://www.w3.org/2000/svg" width="16" height="16"><style type="text/css">.icon-canvas-transparent{opacity:0;fill:#F6F6F6;} .icon-vs-out{fill:#F6F6F6;} .icon-vs-bg{fill:#424242;} .icon-vs-fg{fill:#F0EFF1;}</style><path class="icon-canvas-transparent" d="M16 16h-16v-16h16v16z" id="canvas"/><path class="icon-vs-out" d="M15 1v4.414l-2 2v4.006l-.535.58-2.465 2.465-.511.511-.024.024h-8.465v-8.425l.54-.575 3.051-3h3.995l2-2h4.414z" id="outline"/><path class="icon-vs-bg" d="M8 7l4-4h-2l1-1h3v3l-1 1v-2l-4 4-1-1zm3 .414v2.586h-5v-5h2.586l1-1h-4.586l-3 3v7h7l3-3v-4.586l-1 1zm-2.364 5.586h-4.636l2-2h4.637l-2.001 2z" id="iconBg"/><path class="icon-vs-fg" d="M11 7.414v2.586h-5v-5h2.586l-2 2 2.414 2.414 2-2zm-.363 3.586h-4.637l-2 2h4.636l2.001-2z" id="iconFg"/></svg>