<svg xmlns="http://www.w3.org/2000/svg" width="16" height="16"><style type="text/css">.icon-canvas-transparent{opacity:0;fill:#F6F6F6;} .icon-vs-out{fill:#F6F6F6;} .icon-vs-bg{fill:#424242;} .icon-vs-fg{fill:#F0EFF1;}</style><path class="icon-canvas-transparent" d="M16 16h-16v-16h16v16z" id="canvas"/><path class="icon-vs-out" d="M16 13h-4.021c-.108 1.514-1.231 2.761-2.711 2.943l-.316.026h-5.695c-1.827-.033-3.243-1.518-3.243-3.378 0-1.225.644-2.341 1.649-2.934.467-1.568 1.854-2.657 3.475-2.657.664 0 1.304.197 1.862.543v-7.543h9v13z" id="outline"/><path class="icon-vs-bg" d="M9.817 10.785c-.072-1.126-.971-2.02-2.064-2.02-.236 0-.466.043-.682.123-.482-.551-1.172-.888-1.933-.888-1.313 0-2.405 1.019-2.608 2.349-.882.324-1.517 1.207-1.517 2.243 0 1.311.978 2.354 2.243 2.378h5.694l.193-.019c1.052-.13 1.857-1.064 1.857-2.185 0-.87-.483-1.622-1.183-1.981zm-.866 3.196v.005h-5.694v-.001c-.688-.012-1.243-.627-1.243-1.393 0-.768.564-1.391 1.261-1.391l.279.037c-.034-.146-.058-.294-.058-.451 0-1.003.735-1.813 1.642-1.813.819 0 1.493.665 1.618 1.531.154-.444.54-.761.997-.761.591 0 1.069.527 1.069 1.181 0 .246-.067.473-.182.662l.258-.036c.608 0 1.102.545 1.102 1.216 0 .653-.465 1.18-1.049 1.214zm-.951-12.981v6.788c1.323.111 2.428 1.086 2.736 2.398.59.447 1.002 1.088 1.174 1.814h3.09v-11h-7zm6 10h-1v-1h1v1zm0-6h-5v-1h5v1zm0-2h-5v-1h5v1z" id="iconBg"/><path class="icon-vs-fg" d="M14 3h-5v-1h5v1zm0 1h-5v1h5v-1zm0 6h-1v1h1v-1zm-5.102 1.551l-.258.036c.114-.189.182-.416.182-.662 0-.653-.479-1.181-1.069-1.181-.457 0-.843.316-.997.761-.125-.866-.799-1.531-1.618-1.531-.906 0-1.642.811-1.642 1.813 0 .157.023.306.058.451l-.279-.037c-.696 0-1.261.623-1.261 1.391 0 .766.556 1.381 1.243 1.393v.001h5.694v-.005c.584-.034 1.049-.561 1.049-1.214 0-.671-.493-1.216-1.102-1.216z" id="iconFg"/></svg>