<svg xmlns="http://www.w3.org/2000/svg" width="16" height="16"><style type="text/css">.icon-canvas-transparent{opacity:0;fill:#F6F6F6;} .icon-vs-out{fill:#F6F6F6;} .icon-vs-bg{fill:#424242;} .icon-vs-fg{fill:#F0EFF1;} .icon-vs-action-blue{fill:#00539C;}</style><path class="icon-canvas-transparent" d="M16 16h-16v-16h16v16z" id="canvas"/><path class="icon-vs-out" d="M16 12l-4 4h-6l2-2h-4v-4h4l-1.493-1.494c-.608.306-1.282.494-2.007.494-2.481 0-4.5-2.019-4.5-4.5s2.019-4.5 4.5-4.5 4.5 2.019 4.5 4.5c0 1.421-.675 2.675-1.706 3.5h4.706l4 4z" id="outline"/><path class="icon-vs-bg" d="M4 4v1h1l2-2.5-.5-.5c-.22.158-2.5 2-2.5 2zm4.019.5c0 2.034-1.484 3.521-3.519 3.521s-3.53-1.477-3.53-3.511c0-2.033 1.496-3.51 3.53-3.51.69 0 1.151.154 1.704.484l-.793.68c-.244-.081-.645-.161-.917-.161-1.355 0-2.494 1.187-2.494 2.542s1.099 2.455 2.454 2.455 2.576-1.134 2.576-2.49c0-.271-.049-.525-.131-.77l.767-.916c.331.553.353.986.353 1.676z" id="iconBg"/><path class="icon-vs-fg" d="M6.899 3.741c.082.245.138.618.125.89-.056 1.279-1.252 2.369-2.524 2.369-1.374 0-2.5-1.099-2.5-2.455s1.139-2.542 2.494-2.542c.271 0 .673.08.917.161l1.33-1.164 1.354 1.313-1.196 1.428zm-.399-1.741l-2.5 2v1h1l2-2.5-.5-.5z" id="iconFg"/><path class="icon-vs-action-blue" d="M5 11h6l-2-2h2l3 3-3 3h-2l2-2h-6v-2z" id="colorAction"/></svg>