<svg xmlns="http://www.w3.org/2000/svg" width="16" height="16"><style type="text/css">.icon-canvas-transparent{opacity:0;fill:#F6F6F6;} .icon-vs-out{fill:#F6F6F6;} .icon-vs-fg{fill:#F0EFF1;} .icon-folder{fill:#DCB67A;} .icon-vs-action-green{fill:#388A34;}</style><path class="icon-canvas-transparent" d="M16 16h-16v-16h16v16z" id="canvas"/><path class="icon-vs-out" d="M16 4.5v9c0 .827-.673 1.5-1.5 1.5h-11c-.827 0-1.5-.673-1.5-1.5v-7.5h-2v-4h2v-2h4v2h2v1h6.5c.827 0 1.5.673 1.5 1.5z" id="outline"/><path class="icon-folder" d="M14.5 4h-6.496l-.004.008v1.992h-2v2h-3v5.5c0 .276.223.5.5.5h11c.275 0 .5-.224.5-.5v-9c0-.276-.225-.5-.5-.5zm-6 9h-1l-1.5-3h1.5l.5 1 2-4h1.5l-3 6zm5.5-7h-5.496l.5-1h4.996v1z" id="iconBg"/><path class="icon-vs-fg" d="M10 7h1.5l-3 6h-1l-1.5-3h1.5l.5 1 2-4zm-.992-2h-.004l-.5 1h5.496l.008-.001v-.999h-5z" id="iconFg"/><path class="icon-vs-action-green" d="M7 5h-2v2h-1.981v-2h-2.019v-1.982h2.019v-2.018h1.981v2.018h2v1.982z" id="colorAction"/></svg>