<svg xmlns="http://www.w3.org/2000/svg" width="16" height="16"><style type="text/css">.icon-canvas-transparent{opacity:0;fill:#F6F6F6;} .icon-vs-out{fill:#F6F6F6;} .icon-vs-bg{fill:#424242;} .icon-vs-fg{fill:#F0EFF1;} .icon-folder{fill:#DCB67A;}</style><path class="icon-canvas-transparent" d="M16 16h-16v-16h16v16z" id="canvas"/><path class="icon-vs-out" d="M16 2.969v9c0 .617-.227 1.118-.57 1.45-.57.544-1.43.581-1.43.581h-2.244c-.414 1-1.351 1.832-2.502 1.974l-.316.026h-5.695c-1.827 0-3.243-1.533-3.243-3.393 0-.863.324-1.671.864-2.283l-.864-2.159v-1.165h1v-2.031c0-1.299 1.03-1.969 2-1.969h2.884l1-2h7.116c.995 0 2 .666 2 1.969z" id="outline"/><g id="iconBg"><path class="icon-folder" d="M11 8l3 5h-2.034l.021-.234c0-1.035-.474-1.981-1.264-2.58-.236-1.003-.94-1.81-1.849-2.186h2.126zm3-6h-6.5l-1 2h-3.5c.236 0-1 0-1 1v3h-1l.657 1.644c.242-.793.72-1.461 1.343-1.928v-2.716h4l1-2h6v10s1 0 1-1v-9c0-1-1-1-1-1z"/><path class="icon-vs-bg" d="M9.804 10.785c-.072-1.126-.971-2.02-2.064-2.02-.236 0-.466.043-.682.123-.483-.551-1.172-.888-1.934-.888-1.312 0-2.404 1.019-2.607 2.349-.882.324-1.517 1.207-1.517 2.243 0 1.311.978 2.354 2.243 2.378h5.694l.193-.019c1.051-.13 1.855-1.064 1.855-2.186.001-.869-.482-1.621-1.181-1.98zm-.866 3.196v.005h-5.695v-.001c-.687-.012-1.243-.628-1.243-1.393 0-.768.564-1.391 1.261-1.391l.279.037c-.034-.146-.058-.294-.058-.451 0-1.003.735-1.813 1.642-1.813.819 0 1.493.665 1.618 1.531.154-.444.54-.761.997-.761.591 0 1.069.527 1.069 1.181 0 .246-.067.473-.182.662l.258-.036c.608 0 1.102.545 1.102 1.216.001.653-.464 1.18-1.048 1.214z"/></g><path class="icon-vs-fg" d="M14 3v10l-3-5h-2.126c-.353-.146-.734-.233-1.135-.233l-.386.026c-.631-.508-1.416-.789-2.229-.789-.791 0-1.524.263-2.124.712v-2.716h4l1-2h6zm-3.982 9.767c0-.671-.509-1.216-1.117-1.216l-.266.036c.114-.189.178-.416.178-.662 0-.653-.48-1.181-1.071-1.181-.457 0-.844.316-.998.761-.126-.866-.8-1.531-1.619-1.531-.906 0-1.642.811-1.642 1.813 0 .157.023.306.057.451l-.279-.037c-.696 0-1.261.623-1.261 1.391 0 .766.556 1.388 1.243 1.4v.008h5.757v-.019c1-.034 1.018-.561 1.018-1.214z" id="iconFg"/></svg>